<?xml version="1.0" encoding="utf-8"?>
<!-- Generator: Adobe Illustrator 19.0.0, SVG Export Plug-In . SVG Version: 6.00 Build 0)  -->
<svg version="1.1" id="Layer_1" xmlns="http://www.w3.org/2000/svg" xmlns:xlink="http://www.w3.org/1999/xlink" x="0px" y="0px"
	 viewBox="0 0 1920 780" style="enable-background:new 0 0 1920 780;" xml:space="preserve">
<style type="text/css">
	.st0{fill:url(#XMLID_209_);}
	.st1{fill:url(#XMLID_210_);stroke:#000000;stroke-width:4;stroke-miterlimit:10;}
	.st2{fill:url(#XMLID_211_);stroke:#000000;stroke-width:3;stroke-miterlimit:10;}
	.st3{clip-path:url(#XMLID_212_);}
	.st4{fill:#6D6E71;}
	.st5{fill:#CDECF7;}
	.st6{fill:#96D9F0;}
	.st7{fill:#BDE6F5;}
	.st8{fill:#CCCCCC;}
	.st9{fill:none;stroke:#000000;stroke-width:3;stroke-miterlimit:10;}
	.st10{fill:#58595B;stroke:#000000;stroke-miterlimit:10;}
	.st11{fill:#6D6E71;stroke:#000000;stroke-miterlimit:10;}
	.st12{fill:#7B7B7B;}
	.st13{fill:none;stroke:#000000;stroke-width:4;stroke-miterlimit:10;}
	.st14{fill:none;stroke:#000000;stroke-miterlimit:10;}
	.st15{fill:#ED1C24;}
	.st16{fill:#BE1E2D;}
	.st17{fill:url(#XMLID_213_);stroke:#000000;stroke-width:0.25;stroke-miterlimit:10;}
	.st18{fill:url(#XMLID_214_);stroke:#000000;stroke-width:0.25;stroke-miterlimit:10;}
	.st19{fill:url(#XMLID_215_);stroke:#000000;stroke-width:0.25;stroke-miterlimit:10;}
	.st20{fill:#006838;}
	.st21{fill:url(#XMLID_216_);}
	.st22{fill:#231F20;}
	.st23{fill:url(#XMLID_217_);}
	.st24{fill:url(#XMLID_218_);}
	.st25{fill:url(#XMLID_219_);}
	.st26{fill:url(#XMLID_228_);}
	.st27{fill:url(#XMLID_229_);}
	.st28{fill:url(#XMLID_230_);}
	.st29{fill:url(#XMLID_231_);}
	.st30{fill:url(#XMLID_232_);}
	.st31{fill:url(#XMLID_233_);}
	.st32{fill:url(#XMLID_234_);}
	.st33{fill:url(#XMLID_235_);}
	.st34{fill:url(#XMLID_236_);}
	.st35{fill:url(#XMLID_237_);}
	.st36{fill:url(#XMLID_238_);}
	.st37{fill:url(#XMLID_239_);}
</style>
<g id="XMLID_62_">
	
		<radialGradient id="XMLID_209_" cx="69.546" cy="544.6096" r="69.3589" gradientTransform="matrix(1 0 0 4 0 -1633.8287)" gradientUnits="userSpaceOnUse">
		<stop  offset="8.271665e-007" style="stop-color:#844C17"/>
		<stop  offset="0.1403" style="stop-color:#774116"/>
		<stop  offset="0.3512" style="stop-color:#693515"/>
		<stop  offset="0.5685" style="stop-color:#622E13"/>
		<stop  offset="0.8" style="stop-color:#5F2C13"/>
	</radialGradient>
	<path id="XMLID_99_" class="st0" d="M45.2,449.6c16.2,63.3,32.4,126.7,48.7,190L45.2,449.6z"/>
	<g id="XMLID_94_">
		<path id="XMLID_98_" d="M42.8,450.3c16.2,63.3,32.4,126.7,48.7,190c0.8,3.1,5.6,1.8,4.8-1.3c-5.5-21.4-10.9-42.7-16.4-64.1
			c-8.7-34.1-17.5-68.2-26.2-102.3c-2-7.9-4-15.7-6-23.6C46.8,445.8,42,447.1,42.8,450.3c5.5,21.4,10.9,42.7,16.4,64.1
			c8.7,34.1,17.5,68.2,26.2,102.3c2,7.9,4,15.7,6,23.6c1.6-0.4,3.2-0.9,4.8-1.3c-16.2-63.3-32.4-126.7-48.7-190
			C46.8,445.8,42,447.1,42.8,450.3z"/>
	</g>
</g>
<g id="XMLID_67_">
	<g id="XMLID_89_">
		<path id="XMLID_93_" d="M1846.8,644c16.2-63.3,32.4-126.7,48.7-190c-1.6-0.4-3.2-0.9-4.8-1.3c-5.5,21.4-10.9,42.7-16.4,64.1
			c-8.7,34.1-17.5,68.2-26.2,102.3c-2,7.9-4,15.7-6,23.6C1841.2,645.8,1846,647.1,1846.8,644c5.5-21.4,10.9-42.7,16.4-64.1
			c8.7-34.1,17.5-68.2,26.2-102.3c2-7.9,4-15.7,6-23.6c0.8-3.1-4-4.4-4.8-1.3c-16.2,63.3-32.4,126.7-48.7,190
			C1841.2,645.8,1846,647.1,1846.8,644z"/>
	</g>
</g>
<linearGradient id="XMLID_210_" gradientUnits="userSpaceOnUse" x1="969.1312" y1="449.5875" x2="969.1312" y2="710.731">
	<stop  offset="2.551020e-002" style="stop-color:#7D4716"/>
	<stop  offset="5.480685e-002" style="stop-color:#7C4619"/>
	<stop  offset="0.2039" style="stop-color:#754423"/>
	<stop  offset="0.3564" style="stop-color:#6D412A"/>
	<stop  offset="0.5107" style="stop-color:#643E2E"/>
	<stop  offset="0.6676" style="stop-color:#5C3C31"/>
	<stop  offset="0.8285" style="stop-color:#563B33"/>
	<stop  offset="1" style="stop-color:#543B34"/>
</linearGradient>
<path id="XMLID_68_" class="st1" d="M45.2,449.6l1847.8,3.7l-47.7,186.5c0,39.2-392,71-875.6,71S94.2,679,94.2,639.8L45.2,449.6z"/>
<linearGradient id="XMLID_211_" gradientUnits="userSpaceOnUse" x1="43.4851" y1="449.0715" x2="1894.0496" y2="449.0715">
	<stop  offset="4.135833e-007" style="stop-color:#90541C"/>
	<stop  offset="0.2859" style="stop-color:#945126"/>
	<stop  offset="0.6314" style="stop-color:#974E2D"/>
	<stop  offset="1" style="stop-color:#984D2F"/>
</linearGradient>
<ellipse id="XMLID_66_" class="st2" cx="968.8" cy="449.1" rx="925.3" ry="99.2"/>
<g id="XMLID_13_">
	<g id="XMLID_12_">
		<g id="XMLID_64_">
			<defs>
				<rect id="XMLID_63_" x="665.9" y="14.9" width="566.9" height="414.4"/>
			</defs>
			<use xlink:href="#XMLID_63_"  style="overflow:visible;fill:#808285;"/>
			<clipPath id="XMLID_212_">
				<use xlink:href="#XMLID_63_"  style="overflow:visible;"/>
			</clipPath>
			<g id="XMLID_65_" class="st3">
				<path id="XMLID_176_" class="st4" d="M665.7-18.3c-5,20.2-7.3,41-6.6,61.8c0.1,4.2,0.7,8.9,4.1,11.3c3.9,2.7,9.2,0.8,13.5-1.1
					c6.2-2.8,12.4-5.6,18.6-8.4c1.8,17.4,2.3,34.9,1.5,52.4c10.5-1.5,17-11.9,23-20.7s16.1-17.6,26.1-14.1
					c-3.2,13.2-6.3,26.4-9.5,39.6c-2,8.5-3.7,18.5,2,25c5.9,6.7,17.1,5.9,24.2,0.6c7.1-5.3,11-13.8,14.2-22.1
					c3.2-8.3,6.2-17,12.1-23.5c2.9-3.2,7.5-5.9,11.3-4c2.6,1.3,3.8,4.3,4.5,7.1c2.9,11.4,0.9,23.3,0.5,35.1
					c-0.4,11.7,1.3,24.6,9.7,32.8c4.3,4.2,9.9,6.7,15.3,9.1c8.4,3.7,16.8,7.4,25.3,11.2c5.5,2.4,12.2,4.7,17,1.3
					c4.4-3.1,4.9-9.7,3.2-14.8c-1.7-5.2-5.1-9.6-7.2-14.6c-4.6-11-2.3-24.5,5.7-33.3c1.7-1.9,3.7-3.6,6.2-4.2c5.3-1.3,10.4,3.1,13,8
					c5.5,10.3,4.7,23.8,12.5,32.6c6.2,7.1,16.7,9.4,22.4,17c1.4,1.9,2.5,4.1,4.3,5.7c6.9,6.1,18.1-1.8,20.4-10.8
					c2.3-8.9,0.2-18.7,3.1-27.5c2.6-7.8,8.8-13.7,14.8-19.3c8.6-8,21-16.5,30.9-10.2c7.8,5,8.4,16.1,7.1,25.3
					c-1.2,9.2-3.1,19.4,2.2,27c5.7,8,18.1,9.2,26.4,4c8.3-5.2,12.7-15.3,13.1-25.2s-2.6-19.5-6.2-28.6c-3.5-8.7-7.1-19.9-0.5-26.5
					c5.3-5.3,14.6-4.1,20.5,0.5c5.9,4.5,9.4,11.5,13.1,18c5.4,9.5,11.6,18.5,18.5,27c4.8,5.8,11.3,11.8,18.6,10.5
					c6.8-1.2,10.9-8.4,12.3-15.2s1.1-13.9,3.5-20.4c2.5-6.5,9.2-12.2,15.8-10.2c6.6,2,9.4,10.3,15.9,12.8c7.6,3,15.4-3.6,21-9.6
					c8-8.6,16.1-17.3,24.1-25.9c3.2-3.4,6.4-6.9,8.2-11.2c2-4.8,2-10.1,1.9-15.3c-0.1-10.3-0.1-20.7-0.2-31c0-2.1-0.1-4.3-1.3-6
					c-1.4-2-4-2.7-6.4-3.2c-31.8-7.2-64.7-7.8-97.3-8.6C1007.2-11,902.1-17,797.2-26.7c-30.3-2.8-61.5-5.8-90.6,2.9
					c-14.2,4.3-29.4,11.3-43.1,5.6"/>
			</g>
		</g>
		<g id="XMLID_1_">
			<g id="XMLID_52_">
				<path id="XMLID_57_" class="st5" d="M477.7,13.6c50,0,132.6,0,215.5,0c-4.7,0-7.7,53.8-9,122.7c-80.4,0-160.8,0-241.2,0
					C448,67.4,459.6,13.6,477.7,13.6z"/>
				<path id="XMLID_56_" class="st6" d="M693.2,428c-83,0-165.6,0-215.5,0c-16.1,0-27-42.4-32.8-100.2c79.9,0,158.5,0,238.5,0l1.3,0
					C686.2,385.5,689,428,693.2,428z"/>
				<path id="XMLID_55_" class="st7" d="M684.7,327.8l-1.3,0c-79.9,0-158.5,0-238.5,0c-5.8-57.6-6.4-130.5-1.9-191.5
					c80.4,0,160.8,0,241.2,0C683,197.3,683.2,270.1,684.7,327.8z"/>
				<path id="XMLID_54_" class="st8" d="M443,136.3c-4.5,61-3.8,133.9,1.9,191.5c5.8,57.7,16.7,100.2,32.8,100.2
					c-28.2,0-46,0-47.6,0c-217.4,0-217.4-414.4,0-414.4c1.6,0,19.4,0,47.6,0C459.6,13.6,448,67.4,443,136.3z"/>
			</g>
			<g id="XMLID_53_">
				<path id="XMLID_81_" class="st9" d="M430.1,13.6c-217.4,0-217.4,414.4,0,414.4"/>
				<path id="XMLID_80_" class="st9" d="M430.1,428c1.6,0,19.4,0,47.6,0c50,0,132.6,0,215.5,0c131.6,0,264,0,268.6,0"/>
				<path id="XMLID_73_" class="st9" d="M430.1,13.6c1.6,0,19.4,0,47.6,0c50,0,132.6,0,215.5,0c131.6,0,264,0,268.6,0"/>
				<path id="XMLID_61_" class="st9" d="M477.7,13.6c-18.1,0-29.7,53.8-34.7,122.7c-4.5,61-3.8,133.9,1.9,191.5
					c5.8,57.7,16.7,100.2,32.8,100.2"/>
				<path id="XMLID_60_" class="st9" d="M693.2,13.6c-4.7,0-7.7,53.8-9,122.7c-1.2,61-1,133.9,0.5,191.5
					c1.5,57.7,4.4,100.2,8.5,100.2"/>
				<path id="XMLID_59_" class="st9" d="M684.4,136.3c-0.1,0-0.1,0-0.2,0c-80.4,0-160.8,0-241.2,0c-0.1,0-0.1,0-0.2,0"/>
				<path id="XMLID_58_" class="st9" d="M683.4,327.8c-79.9,0-158.5,0-238.5,0"/>
			</g>
		</g>
		<polygon id="XMLID_6_" class="st10" points="425.7,362.8 422.2,356.8 425.7,350.8 432.6,350.8 436.1,356.8 432.6,362.8 		"/>
		<polygon id="XMLID_9_" class="st10" points="417.3,316 413.2,308.9 417.3,301.9 425.4,301.9 429.5,308.9 425.4,316 		"/>
		<polygon id="XMLID_7_" class="st10" points="409.9,264.6 404.4,255.1 409.9,245.5 420.9,245.5 426.4,255.1 420.9,264.6 		"/>
		<polygon id="XMLID_21_" class="st10" points="437.5,27.8 434.8,32.4 437.5,37.1 442.9,37.1 445.6,32.4 442.9,27.8 		"/>
		<polygon id="XMLID_20_" class="st10" points="425.7,73.3 422.3,79.3 425.7,85.3 432.7,85.3 436.1,79.3 432.7,73.3 		"/>
		<polygon id="XMLID_18_" class="st10" points="417.3,120.1 413.3,127.2 417.3,134.2 425.4,134.2 429.5,127.2 425.4,120.1 		"/>
		<polygon id="XMLID_10_" class="st10" points="409.9,171.5 404.4,181 409.9,190.6 420.9,190.6 426.4,181 420.9,171.5 		"/>
		<g id="XMLID_40_">
			<g id="XMLID_14_">
				<path id="XMLID_23_" class="st5" d="M1422.5,13.6c-50,0-132.6,0-215.5,0c4.7,0,7.7,53.8,9.1,122.7c80.4,0,160.8,0,241.2,0
					C1452.1,67.4,1440.5,13.6,1422.5,13.6z"/>
				<path id="XMLID_22_" class="st6" d="M1206.9,428c83,0,165.6,0,215.5,0c16.1,0,27-42.4,32.8-100.2c-79.9,0-158.6,0-238.5,0
					l-1.3,0C1214,385.5,1211.1,428,1206.9,428z"/>
				<path id="XMLID_19_" class="st7" d="M1215.5,327.8l1.3,0c79.9,0,158.5,0,238.5,0c5.8-57.6,6.4-130.5,1.9-191.5
					c-80.4,0-160.8,0-241.2,0C1217.1,197.3,1217,270.1,1215.5,327.8z"/>
				<path id="XMLID_16_" class="st8" d="M1457.1,136.3c4.5,61,3.8,133.9-1.9,191.5c-5.8,57.7-16.7,100.2-32.8,100.2
					c28.2,0,45.9,0,47.6,0c217.4,0,217.4-414.4,0-414.4c-1.6,0-19.4,0-47.6,0C1440.5,13.6,1452.1,67.4,1457.1,136.3z"/>
			</g>
			<g id="XMLID_15_">
				<path id="XMLID_51_" class="st9" d="M1470,13.6c217.4,0,217.4,414.4,0,414.4"/>
				<path id="XMLID_50_" class="st9" d="M1470,428c-1.6,0-19.4,0-47.6,0c-50,0-132.6,0-215.5,0c-131.6,0-264,0-268.6,0"/>
				<path id="XMLID_28_" class="st9" d="M1470,13.6c-1.6,0-19.4,0-47.6,0c-50,0-132.6,0-215.5,0c-131.6,0-264,0-268.6,0"/>
				<path id="XMLID_27_" class="st9" d="M1422.5,13.6c18.1,0,29.7,53.8,34.7,122.7c4.5,61,3.8,133.9-1.9,191.5
					c-5.8,57.7-16.7,100.2-32.8,100.2"/>
				<path id="XMLID_26_" class="st9" d="M1206.9,13.6c4.7,0,7.7,53.8,9.1,122.7c1.2,61,1,133.9-0.5,191.5
					c-1.5,57.7-4.4,100.2-8.6,100.2"/>
				<path id="XMLID_25_" class="st9" d="M1215.7,136.3c0.1,0,0.2,0,0.2,0c80.4,0,160.8,0,241.2,0c0,0,0.1,0,0.2,0"/>
				<path id="XMLID_24_" class="st9" d="M1216.7,327.8c79.9,0,158.5,0,238.5,0"/>
			</g>
		</g>
		<polygon id="XMLID_37_" class="st10" points="1480.7,363.1 1484.2,357 1480.7,351 1473.8,351 1470.3,357 1473.8,363.1 		"/>
		<polygon id="XMLID_36_" class="st10" points="1489.1,316.3 1493.2,309.2 1489.1,302.2 1481,302.2 1477,309.2 1481,316.3 		"/>
		<polygon id="XMLID_35_" class="st10" points="1496.6,264.9 1502.1,255.3 1496.6,245.8 1485.6,245.8 1480.1,255.3 1485.6,264.9 		
			"/>
		<polygon id="XMLID_34_" class="st10" points="1468.9,28 1471.6,32.7 1468.9,37.4 1463.5,37.4 1460.8,32.7 1463.5,28 		"/>
		<polygon id="XMLID_31_" class="st10" points="1480.7,73.6 1484.2,79.6 1480.7,85.6 1473.7,85.6 1470.3,79.6 1473.7,73.6 		"/>
		<polygon id="XMLID_30_" class="st10" points="1489.1,120.4 1493.2,127.4 1489.1,134.5 1481,134.5 1476.9,127.4 1481,120.4 		"/>
		<polygon id="XMLID_29_" class="st10" points="1496.5,171.8 1502,181.3 1496.5,190.9 1485.5,190.9 1480,181.3 1485.5,171.8 		"/>
	</g>
	<polygon id="XMLID_5_" class="st10" points="437.4,408.3 434.7,403.7 437.4,399 442.8,399 445.5,403.7 442.8,408.3 	"/>
	<polygon id="XMLID_38_" class="st10" points="1469,408.6 1471.7,403.9 1469,399.3 1463.6,399.3 1460.9,403.9 1463.6,408.6 	"/>
</g>
<ellipse id="XMLID_130_" class="st11" cx="177" cy="413" rx="15.9" ry="3.7"/>
<g id="XMLID_103_">
	<g id="XMLID_106_">
		<polygon id="XMLID_129_" class="st12" points="173,355.3 177,359.2 181,355.2 182,356.1 182.1,356.1 182.1,370.8 182,370.8 
			181.6,369.2 181,369.8 177.1,365.9 173,369.9 172.1,368.9 172.1,354.3 		"/>
		<polygon id="XMLID_128_" class="st12" points="173,369.9 177,373.8 181,369.8 182,370.8 182.1,370.8 182.1,386.2 182,386.2 
			181.6,384.7 181,385.3 177.1,381.3 173,385.4 172.1,384.4 172.1,368.9 		"/>
		<polygon id="XMLID_127_" class="st12" points="173,266.6 177,270.5 181,266.5 182,267.4 182.1,267.4 182.1,282.1 182,282.1 
			181.6,280.5 181,281.1 177.1,277.2 173,281.2 172.1,280.2 172.1,265.6 		"/>
		<polygon id="XMLID_126_" class="st12" points="173,281.2 177,285.2 181,281.1 182,282.1 182.1,282.1 182.1,296.8 182,296.8 
			181.6,295.2 181,295.8 177.1,291.9 173,295.9 172.1,295 172.1,280.2 		"/>
		<polygon id="XMLID_125_" class="st12" points="173,295.9 177,299.9 181,295.8 182,296.8 182.1,296.8 182.1,311.4 182,311.4 
			181.6,309.8 181,310.5 177.1,306.5 173,310.5 172.1,309.6 172.1,295 		"/>
		<polygon id="XMLID_124_" class="st12" points="173,310.5 177,314.5 181,310.5 182,311.4 182.1,311.4 182.1,326.8 182,326.8 
			181.6,325.2 181,325.8 177.1,321.9 173,325.9 172.1,325 172.1,309.6 		"/>
		<polygon id="XMLID_123_" class="st12" points="173,325.9 177,329.9 181,325.8 182,326.8 182.1,326.8 182.1,341.4 182,341.4 
			181.6,339.8 181,340.5 177.1,336.5 173,340.6 172.1,339.6 172.1,325 		"/>
		<polygon id="XMLID_122_" class="st12" points="173,340.6 177,344.5 181,340.5 182,341.4 182.1,341.4 182.1,356.1 182,356.1 
			181.6,354.6 181,355.2 177.1,351.2 173,355.3 172.1,354.3 172.1,339.6 		"/>
		<polygon id="XMLID_121_" class="st12" points="172.1,399 172.1,384.4 173,385.4 177,389.3 181,385.3 182,386.2 182.1,386.2 
			182.1,400.9 182,400.9 181.6,399.3 181,399.9 177.1,396 173,400 		"/>
	</g>
	<g id="XMLID_107_">
		<polyline id="XMLID_120_" class="st13" points="182.1,249.1 182.1,267.4 182.1,282.1 182.1,296.8 182.1,311.4 182.1,326.8 
			182.1,341.4 182.1,356.1 182.1,370.8 182.1,386.2 182.1,400.9 182.1,413 		"/>
		<polyline id="XMLID_119_" class="st13" points="172.1,249.2 172.1,265.6 172.1,280.2 172.1,295 172.1,309.6 172.1,325 
			172.1,339.6 172.1,354.3 172.1,368.9 172.1,384.4 172.1,399 172.1,413.1 		"/>
		<polyline id="XMLID_118_" class="st14" points="172.1,265.6 173,266.6 177,270.5 181,266.5 181.6,265.9 182,267.4 181,266.5 
			177.1,262.5 173,266.6 172.4,267.2 		"/>
		<polyline id="XMLID_117_" class="st14" points="172.1,280.2 173,281.2 177,285.2 181,281.1 181.6,280.5 182,282.1 181,281.1 
			177.1,277.2 173,281.2 172.4,281.8 		"/>
		<polyline id="XMLID_116_" class="st14" points="172.1,295 173,295.9 177,299.9 181,295.8 181.6,295.2 182,296.8 181,295.8 
			177.1,291.9 173,295.9 172.4,296.5 		"/>
		<polyline id="XMLID_115_" class="st14" points="172.1,309.6 173,310.5 177,314.5 181,310.5 181.6,309.8 182,311.4 181,310.5 
			177.1,306.5 173,310.5 172.4,311.2 		"/>
		<polyline id="XMLID_114_" class="st14" points="172.1,325 173,325.9 177,329.9 181,325.8 181.6,325.2 182,326.8 181,325.8 
			177.1,321.9 173,325.9 172.4,326.5 		"/>
		<polyline id="XMLID_113_" class="st14" points="172.1,339.6 173,340.6 177,344.5 181,340.5 181.6,339.8 182,341.4 181,340.5 
			177.1,336.5 173,340.6 172.4,341.2 		"/>
		<polyline id="XMLID_112_" class="st14" points="172.1,354.3 173,355.3 177,359.2 181,355.2 181.6,354.6 182,356.1 181,355.2 
			177.1,351.2 173,355.3 172.4,355.9 		"/>
		<polyline id="XMLID_111_" class="st14" points="172.1,368.9 173,369.9 177,373.8 181,369.8 181.6,369.2 182,370.8 181,369.8 
			177.1,365.9 173,369.9 172.4,370.5 		"/>
		<polyline id="XMLID_109_" class="st14" points="172.1,384.4 173,385.4 177,389.3 181,385.3 181.6,384.7 182,386.2 181,385.3 
			177.1,381.3 173,385.4 172.4,386 		"/>
		<polyline id="XMLID_108_" class="st14" points="172.1,399 173,400 177,403.9 181,399.9 181.6,399.3 182,400.9 181,399.9 
			177.1,396 173,400 172.4,400.6 		"/>
	</g>
</g>
<g id="XMLID_131_">
	<path id="XMLID_147_" class="st15" d="M177.5,213.8c1.3,1.3,1.7,3.2,2.5,4.8c0.9,1.8,2.2,3.4,3.3,5.2c1.5,2.6,2.1,5.7,3.5,8.4
		c0.5,1,1.1,1.9,1.4,3c0.5,1.5,0.5,3.1,0.5,4.7c0,1.3,0,2.7-0.4,3.9c-0.7,2.1-2.7,3.6-4.7,4.4c-2.1,0.8-4.3,1-6.6,1.1h-0.5
		c-2.2-0.2-4.5-0.3-6.6-1.1c-2.1-0.8-4-2.3-4.7-4.4c-0.4-1.2-0.4-2.6-0.4-3.9c0-1.6,0-3.2,0.5-4.7c0.4-1.1,1-2,1.4-3
		c1.4-2.7,2-5.8,3.5-8.4c1-1.8,2.4-3.3,3.3-5.2c0.8-1.7,1.1-3.6,2.5-4.8H177.5z"/>
	<g id="XMLID_142_">
		<path id="XMLID_146_" class="st16" d="M175.7,215.6c1.7,2.2,3,5.8,4.5,8.2c1.6,2.6,2.4,5.5,3.7,8.3c1.4,3.3,4.1,8.7,1.2,12.2
			c-1.9,2.2-5.9,2.6-8.6,2.5c-5.1,0-9-1.4-9.2-6.9c-0.2-3.6,1.8-6.6,3.1-9.8c1.1-3,2.5-5.5,4.2-8.2c0.6-1,1.4-2.1,1.7-3.2
			c0.4-1.6-0.5-2.4,1.4-2.4c3.2,0,3.2-5,0-5c-3.7,0-4.5,2.2-6,5.4c-1.2,2.7-3.1,4.9-4.3,7.5c-1.3,2.7-2.2,5.5-3.4,8.3
			c-4,8.8-0.5,17.6,9.4,19c8.6,1.2,18-1.6,18-11.6c0-5.3-2.6-9.9-4.6-14.7c-1-2.4-2.5-4.3-3.8-6.5c-1.3-2.3-1.9-4.6-3.6-6.7
			C177.3,209.6,173.7,213.1,175.7,215.6z"/>
	</g>
</g>
<line id="XMLID_132_" class="st14" x1="172.1" y1="412.6" x2="184.1" y2="412.6"/>
<linearGradient id="XMLID_213_" gradientUnits="userSpaceOnUse" x1="187.7396" y1="412.6943" x2="189.7226" y2="412.6943">
	<stop  offset="4.135833e-007" style="stop-color:#90541C"/>
	<stop  offset="0.2859" style="stop-color:#945126"/>
	<stop  offset="0.6314" style="stop-color:#974E2D"/>
	<stop  offset="1" style="stop-color:#984D2F"/>
</linearGradient>
<ellipse id="XMLID_133_" class="st17" cx="188.7" cy="412.7" rx="1" ry="0.5"/>
<linearGradient id="XMLID_214_" gradientUnits="userSpaceOnUse" x1="175.3904" y1="414.6919" x2="178.2774" y2="414.6919">
	<stop  offset="4.135833e-007" style="stop-color:#90541C"/>
	<stop  offset="0.2859" style="stop-color:#945126"/>
	<stop  offset="0.6314" style="stop-color:#974E2D"/>
	<stop  offset="1" style="stop-color:#984D2F"/>
</linearGradient>
<ellipse id="XMLID_134_" class="st18" cx="176.8" cy="414.7" rx="1.4" ry="0.7"/>
<linearGradient id="XMLID_215_" gradientUnits="userSpaceOnUse" x1="164.499" y1="412.7479" x2="166.482" y2="412.7479">
	<stop  offset="4.135833e-007" style="stop-color:#90541C"/>
	<stop  offset="0.2859" style="stop-color:#945126"/>
	<stop  offset="0.6314" style="stop-color:#974E2D"/>
	<stop  offset="1" style="stop-color:#984D2F"/>
</linearGradient>
<ellipse id="XMLID_135_" class="st19" cx="165.5" cy="412.7" rx="1" ry="0.5"/>
<g id="XMLID_79_">
	<path id="XMLID_191_" class="st20" d="M1063.7,506.5c4.5-3.8,7.4-9.2,8.2-15c0.1,0.3,0.2,0.6,0.3,0.9c-1.1,0.9-2.5,1.5-3.9,1.6
		c-0.3,0-0.6,0-0.9-0.2c-0.3-0.2-0.3-0.6-0.4-0.9c-0.2-2.2-0.4-4.3-0.7-6.5c-0.9,1.9-1.7,3.9-2.6,5.8c-0.1,0.3-0.4,0.7-0.8,0.6
		c-0.2-0.1-0.3-0.2-0.4-0.4c-0.8-1.7-1.7-3.4-1.9-5.2c-0.2-1.3-0.1-2.7-0.1-4c-0.1-2.9-0.8-5.7-2.2-8.3c-1.1,2.3-2.1,4.6-2.8,7.1
		c-1.4-0.9-2.6-2-3.7-3.2c-0.5,0-0.8,0.5-1.1,0.9c-2.7,4.7-4.1,10.2-4,15.6"/>
	<g id="XMLID_186_">
		<path id="XMLID_190_" d="M1064.6,507.4c4.6-4.2,7.5-9.4,8.5-15.5c-0.8,0-1.6,0-2.4,0c-0.4,0.2-0.9,0.5-1.3,0.7
			c-0.9-0.5-1.4-1.1-1.3-2.1c-0.4-1.1-0.3-2.9-0.4-4c-0.1-1.1-1.8-1.9-2.3-0.6c-0.3,0.6-2,5.7-2.6,5.8c0.6-0.1-0.8-6.1-0.8-7
			c-0.3-3.7-0.8-6.8-2.4-10.3c-0.4-0.8-1.8-0.8-2.2,0c-1.1,2.4-2.1,4.8-2.9,7.4c0.6-0.2,1.2-0.5,1.8-0.7c-1.3-0.8-2.4-1.8-3.5-3
			c-0.4-0.4-1-0.4-1.5-0.2c-4.9,2.5-5.6,12.9-5.7,17.6c0,1.6,2.5,1.6,2.5,0c0-3.7,0.6-7.3,1.9-10.8c0.4-0.9,0.8-1.8,1.2-2.7
			c0.3-1.6,0.7-1.9,1-1c0.2,0,2.8,2.2,2.8,2.2c0.7,0.5,1.6,0,1.8-0.7c0.7-2.3,1.6-4.6,2.7-6.8c-0.7,0-1.4,0-2.2,0
			c2.7,5.6,0.6,13.2,4.8,18.1c0.3,0.3,0.8,0.4,1.2,0.3c2.4-0.7,3.2-5,4.1-7c-0.8-0.2-1.6-0.4-2.3-0.6c0.2,2-0.3,7,1.5,8.4
			c1.7,1.4,4.7-0.4,6.1-1.3c0.4-0.3,0.7-0.9,0.6-1.4c-0.1-0.3-0.2-0.6-0.3-0.9c-0.3-1.1-2.2-1.3-2.4,0c-0.9,5.8-3.5,10.5-7.8,14.4
			C1061.6,506.7,1063.4,508.4,1064.6,507.4L1064.6,507.4z"/>
	</g>
</g>
<g id="XMLID_272_">
	
		<linearGradient id="XMLID_216_" gradientUnits="userSpaceOnUse" x1="1446.9156" y1="350.651" x2="1522.849" y2="350.651" gradientTransform="matrix(1 0 0 -1 0 780.72)">
		<stop  offset="0" style="stop-color:#888A8C"/>
		<stop  offset="1" style="stop-color:#231F20"/>
	</linearGradient>
	<path id="XMLID_275_" class="st21" d="M1522.5,446.9c0-3.3-1.5-6.2-3-9.2c-3.8-6.9-7.9-13.5-12.3-19.9c-1-1.3-2-2.8-3.5-3.6
		c-2-1.3-4.4-1.3-6.9-1.3c-6.4-0.2-12.8-0.2-19.4-0.3c-1.3,0-2.6,0-3.8,0.3c-1.6,0.5-3.1,2-4.3,3.3c-8.5,9.7-13.1,22.4-22.5,31.4
		c30.4,0,75.9,0,75.9,0"/>
	<g id="XMLID_273_">
		<path id="XMLID_274_" class="st22" d="M1524.5,446.9c-1-10-8.4-19.6-14-27.6c-2.1-3-3.9-6.1-7.4-7.4c-4.8-2-11-1.2-15.9-1.2
			c-9.5-0.2-15-1.3-21.2,6.4c-7.4,9.4-12.2,20.4-20.5,28.9c-1.3,1.3-0.3,3.5,1.5,3.5c25.3,0,50.6,0,75.9,0c2.6,0,2.6-4.1,0-4.1
			c-25.3,0-50.6,0-75.9,0c0.5,1.2,1,2.3,1.5,3.5c4.8-4.8,8.4-10.2,11.8-15.8c4.8-7.7,8.9-17.8,18.9-18.6c4.3-0.3,8.7,0.2,12.8,0.2
			c2.6,0,6.6-0.3,9,0.5c2.5,1,4.4,3.9,6.1,6.1c5.1,6.7,12.5,16.9,13.3,25.5C1520.7,449.5,1524.8,449.5,1524.5,446.9L1524.5,446.9z"
			/>
	</g>
</g>
<g id="XMLID_268_">
	
		<linearGradient id="XMLID_217_" gradientUnits="userSpaceOnUse" x1="1422.0974" y1="343.6658" x2="1458.4205" y2="343.6658" gradientTransform="matrix(1 0 0 -1 0 780.72)">
		<stop  offset="0" style="stop-color:#888A8C"/>
		<stop  offset="1" style="stop-color:#231F20"/>
	</linearGradient>
	<path id="XMLID_271_" class="st23" d="M1458.4,428.3c-7.9,0.3-15.6,1.2-23.3,2.6c-0.8,0.2-1.6,0.3-2.5,0.8c-1,0.7-1.8,1.6-2.5,2.6
		c-2.6,3.8-5.4,7.6-8.1,11.3c0.3,0,26.6,0,26.6,0"/>
	<g id="XMLID_269_">
		<path id="XMLID_270_" class="st22" d="M1458.4,426.4c-7.7,0.3-17.8,0.2-25.1,3.1c-5.9,2.3-9.5,10.4-13,15.3
			c-1,1.3,0.3,3.1,1.8,3.1c8.9,0,17.8,0,26.6,0c2.6,0,2.6-4.1,0-4.1c-8.9,0-17.8,0-26.6,0c0.7,1,1.2,2.1,1.8,3.1
			c4.1-5.9,7.1-12.3,14.3-14.3c6.4-1.6,13.6-1.8,20.2-2.1C1461.1,430.3,1461.1,426.2,1458.4,426.4L1458.4,426.4z"/>
	</g>
</g>
<g id="XMLID_264_">
	
		<linearGradient id="XMLID_218_" gradientUnits="userSpaceOnUse" x1="1475.6782" y1="358.3418" x2="1514.8831" y2="358.3418" gradientTransform="matrix(1 0 0 -1 0 780.72)">
		<stop  offset="0" style="stop-color:#888A8C"/>
		<stop  offset="1" style="stop-color:#231F20"/>
	</linearGradient>
	<path id="XMLID_267_" class="st24" d="M1475.7,415c4.1,4.4,8.5,8.9,13.1,13c0.5,0.5,1,0.8,1.6,1.2c0.8,0.3,1.6,0.3,2.5,0.3
		c7.2,0.2,14.6,0.3,21.9,0.2"/>
	<g id="XMLID_265_">
		<path id="XMLID_266_" class="st22" d="M1474.2,416.5c4.1,4.4,9.7,12.2,15.4,14.5c2.8,1.2,6.6,0.7,9.5,0.7c5.3,0.2,10.4,0,15.6,0
			c2.6,0,2.6-4.1,0-4.1c-7.4,0.2-15.6,1-22.7-1.5c-6.2-2.3-10.7-7.7-15.1-12.5C1475.3,411.7,1472.4,414.5,1474.2,416.5L1474.2,416.5
			z"/>
	</g>
</g>
<g id="XMLID_260_">
	
		<linearGradient id="XMLID_219_" gradientUnits="userSpaceOnUse" x1="1475.3297" y1="345.9668" x2="1489.1057" y2="345.9668" gradientTransform="matrix(1 0 0 -1 0 780.72)">
		<stop  offset="0" style="stop-color:#888A8C"/>
		<stop  offset="1" style="stop-color:#231F20"/>
	</linearGradient>
	<path id="XMLID_263_" class="st25" d="M1489.2,427.9c-3.5,1.8-7.1,3.8-9,7.1c-1.5,2.3-2.3,5.4-4.6,6.7"/>
	<g id="XMLID_261_">
		<path id="XMLID_262_" class="st22" d="M1488,426c-3,1.6-5.9,3.3-8.2,5.8c-2.1,2.3-3,6.2-5.6,8.1c-2.1,1.5-0.2,5.1,2.1,3.6
			c2.6-1.8,3.6-4.6,5.3-7.2c2-3.1,5.4-4.9,8.5-6.6C1492.4,428.3,1490.5,424.7,1488,426L1488,426z"/>
	</g>
</g>
<g id="XMLID_155_">
	
		<linearGradient id="XMLID_228_" gradientUnits="userSpaceOnUse" x1="407.4624" y1="288.9847" x2="453.6624" y2="288.9847" gradientTransform="matrix(1 0 0 -1 0 780.72)">
		<stop  offset="0" style="stop-color:#888A8C"/>
		<stop  offset="1" style="stop-color:#231F20"/>
	</linearGradient>
	<path id="XMLID_158_" class="st26" d="M453.5,502c0-2-0.9-3.8-1.8-5.6c-2.3-4.2-4.8-8.2-7.5-12.1c-0.6-0.8-1.2-1.7-2.1-2.2
		c-1.2-0.8-2.7-0.8-4.2-0.8c-3.9-0.1-7.8-0.1-11.8-0.2c-0.8,0-1.6,0-2.3,0.2c-1,0.3-1.9,1.2-2.6,2c-5.2,5.9-8,13.6-13.7,19.1
		c18.5,0,46.2,0,46.2,0"/>
	<g id="XMLID_156_">
		<path id="XMLID_157_" class="st22" d="M454.7,502c-0.6-6.1-5.1-11.9-8.5-16.8c-1.3-1.8-2.4-3.7-4.5-4.5c-2.9-1.2-6.7-0.7-9.7-0.7
			c-5.8-0.1-9.1-0.8-12.9,3.9c-4.5,5.7-7.4,12.4-12.5,17.6c-0.8,0.8-0.2,2.1,0.9,2.1c15.4,0,30.8,0,46.2,0c1.6,0,1.6-2.5,0-2.5
			c-15.4,0-30.8,0-46.2,0c0.3,0.7,0.6,1.4,0.9,2.1c2.9-2.9,5.1-6.2,7.2-9.6c2.9-4.7,5.4-10.8,11.5-11.3c2.6-0.2,5.3,0.1,7.8,0.1
			c1.6,0,4-0.2,5.5,0.3c1.5,0.6,2.7,2.4,3.7,3.7c3.1,4.1,7.6,10.3,8.1,15.5C452.4,503.6,454.9,503.6,454.7,502L454.7,502z"/>
	</g>
</g>
<g id="XMLID_151_">
	
		<linearGradient id="XMLID_229_" gradientUnits="userSpaceOnUse" x1="392.3623" y1="284.7347" x2="414.4624" y2="284.7347" gradientTransform="matrix(1 0 0 -1 0 780.72)">
		<stop  offset="0" style="stop-color:#888A8C"/>
		<stop  offset="1" style="stop-color:#231F20"/>
	</linearGradient>
	<path id="XMLID_154_" class="st27" d="M414.5,490.7c-4.8,0.2-9.5,0.7-14.2,1.6c-0.5,0.1-1,0.2-1.5,0.5c-0.6,0.4-1.1,1-1.5,1.6
		c-1.6,2.3-3.3,4.6-4.9,6.9c0.2,0,16.2,0,16.2,0"/>
	<g id="XMLID_152_">
		<path id="XMLID_153_" class="st22" d="M414.5,489.5c-4.7,0.2-10.8,0.1-15.3,1.9c-3.6,1.4-5.8,6.3-7.9,9.3
			c-0.6,0.8,0.2,1.9,1.1,1.9c5.4,0,10.8,0,16.2,0c1.6,0,1.6-2.5,0-2.5c-5.4,0-10.8,0-16.2,0c0.4,0.6,0.7,1.3,1.1,1.9
			c2.5-3.6,4.3-7.5,8.7-8.7c3.9-1,8.3-1.1,12.3-1.3C416.1,491.9,416.1,489.4,414.5,489.5L414.5,489.5z"/>
	</g>
</g>
<g id="XMLID_141_">
	
		<linearGradient id="XMLID_230_" gradientUnits="userSpaceOnUse" x1="424.9624" y1="293.664" x2="448.8158" y2="293.664" gradientTransform="matrix(1 0 0 -1 0 780.72)">
		<stop  offset="0" style="stop-color:#888A8C"/>
		<stop  offset="1" style="stop-color:#231F20"/>
	</linearGradient>
	<path id="XMLID_150_" class="st28" d="M425,482.6c2.5,2.7,5.2,5.4,8,7.9c0.3,0.3,0.6,0.5,1,0.7c0.5,0.2,1,0.2,1.5,0.2
		c4.4,0.1,8.9,0.2,13.3,0.1"/>
	<g id="XMLID_148_">
		<path id="XMLID_149_" class="st22" d="M424.1,483.5c2.5,2.7,5.9,7.4,9.4,8.8c1.7,0.7,4,0.4,5.8,0.4c3.2,0.1,6.3,0,9.5,0
			c1.6,0,1.6-2.5,0-2.5c-4.5,0.1-9.5,0.6-13.8-0.9c-3.8-1.4-6.5-4.7-9.2-7.6C424.8,480.6,423,482.3,424.1,483.5L424.1,483.5z"/>
	</g>
</g>
<g id="XMLID_136_">
	
		<linearGradient id="XMLID_231_" gradientUnits="userSpaceOnUse" x1="424.7504" y1="286.1347" x2="433.1321" y2="286.1347" gradientTransform="matrix(1 0 0 -1 0 780.72)">
		<stop  offset="0" style="stop-color:#888A8C"/>
		<stop  offset="1" style="stop-color:#231F20"/>
	</linearGradient>
	<path id="XMLID_140_" class="st29" d="M433.2,490.4c-2.1,1.1-4.3,2.3-5.5,4.3c-0.9,1.4-1.4,3.3-2.8,4.1"/>
	<g id="XMLID_138_">
		<path id="XMLID_139_" class="st22" d="M432.5,489.3c-1.8,1-3.6,2-5,3.5c-1.3,1.4-1.8,3.8-3.4,4.9c-1.3,0.9-0.1,3.1,1.3,2.2
			c1.6-1.1,2.2-2.8,3.2-4.4c1.2-1.9,3.3-3,5.2-4C435.2,490.7,434,488.5,432.5,489.3L432.5,489.3z"/>
	</g>
</g>
<g id="XMLID_159_">
	
		<linearGradient id="XMLID_232_" gradientUnits="userSpaceOnUse" x1="521.3843" y1="352.8123" x2="584.6844" y2="352.8123" gradientTransform="matrix(1 0 0 -1 0 780.72)">
		<stop  offset="0" style="stop-color:#888A8C"/>
		<stop  offset="1" style="stop-color:#231F20"/>
	</linearGradient>
	<path id="XMLID_162_" class="st30" d="M521.4,438.9c5.5-5.9,10.6-12.2,15.2-18.7c0.5-0.7,1-1.5,1.8-1.9c0.7-0.4,1.5-0.6,2.3-0.7
		c5.7-0.9,11.6-0.4,17.4-0.8c0.4,0,0.7-0.1,1.1,0.1c0.3,0.1,0.6,0.4,0.9,0.7c5,5,10,10.1,15,15.1c1.7,1.7,3.5,3.5,5.7,4.5
		c0,0,1.9,0.9,3.9,1.8c-1.5,0-3,0-3,0H522"/>
	<g id="XMLID_160_">
		<path id="XMLID_161_" class="st22" d="M522.2,439.8c4.3-4.7,8.3-9.5,12.1-14.5c0.9-1.2,2.2-3.5,3.3-4.5c2.1-1.7,5.2-2.3,7.9-2.5
			c3.4-0.2,7.2-0.5,10.6-0.2c2.3,0.2,3.2,0.6,5.1,2.3c1.2,1.1,2.3,2.3,3.4,3.4c2.7,2.7,5.5,5.5,8.2,8.2c3.5,3.5,6.7,5.8,11.2,7.9
			c0.2-0.8,0.4-1.6,0.6-2.3c-20.9,0-41.8,0-62.7,0c-1.6,0-1.6,2.5,0,2.5c20.9,0,41.8,0,62.7,0c1.2,0,1.8-1.8,0.6-2.3
			c-6.6-3.1-11-7.9-16.1-13c-2.6-2.6-5.3-6.3-8.4-8.4c-2.2-1.5-4.8-0.8-7.4-0.7c-5.1,0.1-12.8-1.1-16.8,2.7c-2.8,2.6-5,6.8-7.5,9.8
			c-2.7,3.4-5.6,6.6-8.5,9.9C519.4,439.3,521.2,441,522.2,439.8L522.2,439.8z"/>
	</g>
</g>
<g id="XMLID_163_">
	
		<linearGradient id="XMLID_233_" gradientUnits="userSpaceOnUse" x1="961.2444" y1="300.7804" x2="1024.5444" y2="300.7804" gradientTransform="matrix(1 0 0 -1 0 780.72)">
		<stop  offset="0" style="stop-color:#888A8C"/>
		<stop  offset="1" style="stop-color:#231F20"/>
	</linearGradient>
	<path id="XMLID_166_" class="st31" d="M961.2,491c5.5-5.9,10.6-12.2,15.2-18.7c0.5-0.7,1-1.5,1.8-1.9c0.7-0.4,1.5-0.6,2.3-0.7
		c5.7-0.9,11.6-0.4,17.4-0.8c0.4,0,0.7-0.1,1.1,0.1c0.3,0.1,0.6,0.4,0.9,0.7c5,5,10,10.1,15,15.1c1.7,1.7,3.5,3.5,5.7,4.5
		c0,0,1.9,0.9,3.9,1.8c-1.5,0-3,0-3,0h-59.7"/>
	<g id="XMLID_164_">
		<path id="XMLID_165_" class="st22" d="M962,491.9c4.3-4.7,8.3-9.5,12.1-14.5c0.9-1.2,2.2-3.5,3.3-4.5c2.1-1.7,5.2-2.3,7.9-2.5
			c3.4-0.2,7.2-0.5,10.6-0.2c2.3,0.2,3.2,0.6,5.1,2.3c1.2,1.1,2.3,2.3,3.4,3.4c2.7,2.7,5.5,5.5,8.2,8.2c3.5,3.5,6.7,5.8,11.2,7.9
			c0.2-0.8,0.4-1.6,0.6-2.3c-20.9,0-41.8,0-62.7,0c-1.6,0-1.6,2.5,0,2.5c20.9,0,41.8,0,62.7,0c1.2,0,1.8-1.8,0.6-2.3
			c-6.6-3.1-11-7.9-16.1-13c-2.6-2.6-5.3-6.3-8.4-8.4c-2.2-1.5-4.8-0.8-7.4-0.7c-5.1,0.1-12.8-1.1-16.8,2.7c-2.8,2.6-5,6.8-7.5,9.8
			c-2.7,3.4-5.6,6.6-8.5,9.9C959.2,491.4,961,493.1,962,491.9L962,491.9z"/>
	</g>
</g>
<g id="XMLID_252_">
	
		<linearGradient id="XMLID_234_" gradientUnits="userSpaceOnUse" x1="957.6291" y1="274.4687" x2="995.7415" y2="274.4687" gradientTransform="matrix(1 0 0 -1 0 780.72)">
		<stop  offset="0" style="stop-color:#6A6B6E"/>
		<stop  offset="1" style="stop-color:#231F20"/>
	</linearGradient>
	<path id="XMLID_255_" class="st32" d="M975.1,496.3c-0.6,6.7-1.6,13.4-3,20c-0.1,0.5-0.2,1-0.6,1.2c-0.3,0.2-0.7,0.1-1,0.1
		c-3.5-0.4-6.9-1-10.3-1.8c-0.6-0.2-1.3-0.3-1.8-0.8c-0.7-0.7-0.8-1.9-0.5-2.8c0.3-1,0.8-1.8,1.2-2.7c1.5-3.4,0.7-7.4,1.4-11.1
		c0.3-1.4,0.9-2.9,2.3-3.3c0.5-0.2,1.1-0.2,1.6-0.1c7.9,0.2,15.9,0.9,23.7,1.9c0.1,0,0.2,0,0.3,0.1c0.2,0.1,0.2,0.4,0.2,0.6
		c-0.1,4.5-0.1,9.4,2.7,13c1.7,2.2,4.3,3.9,4.5,7c-0.9,0-24.9,0-24.9,0"/>
	<g id="XMLID_253_">
		<path id="XMLID_254_" class="st22" d="M973.9,496.3c-0.5,4.8-1.1,9.5-1.9,14.2c-0.2,1.3-0.3,4.7-1.2,5.6c-0.7,0.7-5.6-0.6-6.8-0.8
			c-1.6-0.3-4.6-0.5-4.9-2.8c-0.1-0.8,1.9-4.7,2.1-5.8c0.7-4.1-1.1-9.5,4.3-10.6c3.9-0.7,8.9,0.4,12.9,0.8c1.7,0.1,6.6-0.2,7.9,0.8
			c1.6,1.2,1.1,2.4,1.3,4.3c0.2,2.7,0.6,5.5,2,7.8c1.6,2.8,4.6,4.6,5.2,7.9c0.4-0.5,0.8-1.1,1.2-1.6c-8.3,0-16.6,0-24.9,0
			c-1.6,0-1.6,2.5,0,2.5c8.3,0,16.6,0,24.9,0c0.9,0,1.3-0.8,1.2-1.6c-0.3-1.9-1.2-3.3-2.4-4.8c-2.4-2.9-4-5.1-4.5-9
			c-0.4-3,1-6.5-1.9-7.9c-3-1.4-8.6-1-11.8-1.2c-3.6-0.3-7.3-0.6-10.9-0.6c-4.3,0-5.8,1.7-6.3,5.9c-0.4,3.2-0.1,6.1-1.2,9.3
			c-0.5,1.5-1.6,3-1.4,4.6c0.5,4.4,7,4.3,10.2,4.8c2.9,0.5,5.5,1.4,6.7-1.7c2.3-5.9,2.4-14,3-20.3
			C976.5,494.7,974,494.7,973.9,496.3L973.9,496.3z"/>
	</g>
</g>
<g id="XMLID_248_">
	
		<linearGradient id="XMLID_235_" gradientUnits="userSpaceOnUse" x1="968.1525" y1="292.7171" x2="982.7031" y2="292.7171" gradientTransform="matrix(1 0 0 -1 0 780.72)">
		<stop  offset="0" style="stop-color:#6A6B6E"/>
		<stop  offset="1" style="stop-color:#231F20"/>
	</linearGradient>
	<path id="XMLID_251_" class="st33" d="M982.7,495.4c-0.6-4.1-1.6-8.2-2.9-12.1c-0.2-0.7-0.5-1.4-1-1.8c-0.5-0.4-1.1-0.5-1.8-0.5
		c-2.9-0.3-5.9-0.4-8.8-0.3c-0.3,2.5,0.8,4.9,1.6,7.3c0.6,2,1,4,1.2,6"/>
	<g id="XMLID_249_">
		<path id="XMLID_250_" class="st22" d="M983.9,495.1c-0.4-2.6-1-5.2-1.6-7.8c-0.5-1.9-0.8-4.5-2-6.1c-1-1.2-2.3-1.4-3.7-1.6
			c-2.7-0.3-5.5-0.3-8.3-0.2c-0.7,0-1.2,0.6-1.3,1.3c-0.2,4.6,2.3,8.9,2.8,13.4c0.2,1.6,2.7,1.6,2.5,0c-0.2-2-0.6-4-1.1-5.9
			c-0.8-2.5-1.8-4.8-1.7-7.5c-0.4,0.4-0.8,0.8-1.3,1.3c1.7-0.1,3.3-0.1,5,0c0.8,0,2-0.1,2.8,0.2c1.8,0.6,2.7,1.4,3.2,3.1
			c1,3.4,1.8,7,2.4,10.5C981.8,497.3,984.2,496.7,983.9,495.1L983.9,495.1z"/>
	</g>
</g>
<g id="XMLID_244_">
	
		<linearGradient id="XMLID_236_" gradientUnits="userSpaceOnUse" x1="921.8435" y1="290.0783" x2="973.5616" y2="290.0783" gradientTransform="matrix(1 0 0 -1 0 780.72)">
		<stop  offset="0" style="stop-color:#6A6B6E"/>
		<stop  offset="1" style="stop-color:#231F20"/>
	</linearGradient>
	<path id="XMLID_247_" class="st34" d="M973.6,480.6c-0.5-2.6-1.3-5.3-2.1-7.8c-0.2-0.6-0.4-1.2-0.9-1.6c-0.5-0.3-1.1-0.4-1.7-0.4
		c-6.5-0.3-12.9-0.3-19.4-0.2c-0.6,0-1.1,0-1.6,0.3c-0.5,0.4-0.8,1-1,1.7c-0.6,1.6-1.3,3.1-2.1,4.6c-3,6.1-6.1,12.1-9.3,18.1
		c-1.4,2.7-2.9,5.3-4.8,7.6c-1.4,1.6-2.9,2.9-4.5,4.3c-1.4,1.2-2.8,2.4-4.2,3.6h35.2"/>
	<g id="XMLID_245_">
		<path id="XMLID_246_" class="st22" d="M974.8,480.3c-0.9-4.2-1.1-9.9-6-10.7c-4.3-0.7-9.2-0.3-13.6-0.2c-2.2,0-6.3-0.7-8.3,0.8
			c-2.2,1.7-3,5.9-4.1,8.2c-1.9,3.9-3.9,7.7-5.9,11.6c-2.2,4.2-4.2,8.7-7.2,12.3c-2.5,3-5.8,5.4-8.7,7.9c-0.8,0.7-0.1,2.1,0.9,2.1
			c11.7,0,23.5,0,35.2,0c1.6,0,1.6-2.5,0-2.5c-11.7,0-23.5,0-35.2,0c0.3,0.7,0.6,1.4,0.9,2.1c4.5-3.9,8.9-7.4,12-12.6
			c3.3-5.5,6.1-11.4,9-17.1c1.2-2.3,2.1-5.3,3.6-7.4c2.8-3.9,7.7-2.9,11.8-2.9c2.4,0,7.6-0.8,9.7,0.2c2.7,1.3,3,6.2,3.6,8.9
			C972.7,482.6,975.1,481.9,974.8,480.3L974.8,480.3z"/>
	</g>
</g>
<g id="XMLID_224_">
	
		<linearGradient id="XMLID_237_" gradientUnits="userSpaceOnUse" x1="959.266" y1="279.9244" x2="1016.1808" y2="279.9244" gradientTransform="matrix(1 0 0 -1 0 780.72)">
		<stop  offset="0" style="stop-color:#B3B5B8"/>
		<stop  offset="1" style="stop-color:#231F20"/>
	</linearGradient>
	<path id="XMLID_227_" class="st35" d="M990.2,483.6c1,11.6,2.4,23.1,4.4,34.5c0.1,0.8,0.3,1.7,0.9,2.1c0.5,0.3,1,0.2,1.5,0.2
		c5.2-0.7,10.4-1.8,15.5-3.1c1-0.3,2-0.6,2.7-1.3c1.1-1.2,1.2-3.2,0.8-4.9s-1.3-3.2-1.9-4.7c-2.3-5.9-1-12.8-2.1-19.2
		c-0.4-2.4-1.4-5-3.4-5.7c-0.8-0.3-1.6-0.3-2.5-0.3c-11.9,0.4-23.7,1.5-35.4,3.2c-0.2,0-0.4,0.1-0.5,0.2c-0.2,0.2-0.3,0.6-0.2,1
		c0.2,7.8,0.1,16.3-4,22.5c-2.5,3.9-6.5,6.8-6.7,12c1.3,0,37.1,0,37.1,0"/>
	<g id="XMLID_225_">
		<path id="XMLID_226_" class="st22" d="M988.9,483.6c0.8,9.8,2,19.5,3.5,29.1c0.4,2.3,0.2,7.1,2.5,8.5c2,1.2,5.7-0.2,7.7-0.5
			c5.2-0.9,15.1-1.2,14.9-8.4c-0.2-4.4-3-8.3-3.4-12.8c-0.3-4-0.1-7.9-0.7-11.9c-0.4-2.3-1-5.2-3-6.7c-2.7-2-7-1-10.1-0.8
			c-5.3,0.3-10.5,0.7-15.8,1.2c-2.6,0.3-5.2,0.6-7.9,0.9c-1.5,0.2-5,0.1-6.2,0.9c-1.7,1.1-1.5,1.7-1.6,4c-0.2,4.6,0.1,9.2-1.1,13.7
			c-1.8,7.3-8.7,11.7-9.6,19.2c-0.1,0.7,0.6,1.2,1.3,1.3c12.4,0,24.8,0,37.1,0c1.6,0,1.6-2.5,0-2.5c-12.4,0-24.8,0-37.1,0
			c0.4,0.4,0.8,0.8,1.3,1.3c0.7-5.7,5.8-9.2,8.1-14.3c1.9-4.3,2.5-9.2,2.6-13.9c0-1.4-0.2-3.4,0-4.8c-0.1-0.5-0.1-1-0.2-1.6
			c1.3-0.2,2.5-0.4,3.8-0.5c3.9-0.5,7.7-1,11.6-1.4c3.3-0.3,6.6-0.6,9.9-0.8c2-0.1,3.9-0.2,5.9-0.3c2.9-0.1,3.7-0.4,6.1,1.7
			c2.8,2.3,2.5,2.7,2.8,6.4c0.1,1.5,0.1,3,0.2,4.5c0.1,2.7,0.1,5.5,0.7,8.2c0.5,2.5,2.7,5.6,2.8,8.1c0.2,5.5-6.6,5.8-10.3,6.5
			c-1.4,0.3-2.9,0.7-4.3,0.8c-1.1,0.5-2.1,0.4-3.1-0.3c-1.4-0.1-2-1-1.7-2.5c-1-2.9-1.1-6.5-1.5-9.5c-1.1-7.6-1.9-15.1-2.6-22.7
			C991.3,482,988.8,482,988.9,483.6L988.9,483.6z"/>
	</g>
</g>
<g id="XMLID_220_">
	
		<linearGradient id="XMLID_238_" gradientUnits="userSpaceOnUse" x1="978.7659" y1="311.3792" x2="1000.4882" y2="311.3792" gradientTransform="matrix(1 0 0 -1 0 780.72)">
		<stop  offset="0" style="stop-color:#B3B5B8"/>
		<stop  offset="1" style="stop-color:#231F20"/>
	</linearGradient>
	<path id="XMLID_223_" class="st36" d="M978.8,482.1c1-7.1,2.4-14.1,4.3-20.9c0.3-1.1,0.7-2.3,1.5-3.1c0.7-0.7,1.7-0.8,2.6-0.9
		c4.4-0.6,8.8-0.7,13.2-0.5c0.4,4.3-1.2,8.5-2.4,12.7c-0.9,3.4-1.6,6.9-1.9,10.4"/>
	<g id="XMLID_221_">
		<path id="XMLID_222_" class="st22" d="M980,482.4c0.8-5.6,1.8-11.1,3.2-16.6c1.1-4.4,2.6-7,7.8-7.7c3.1-0.5,6.3-0.2,9.4-0.1
			c-0.4-0.4-0.8-0.8-1.3-1.3c0.3,7.8-3.4,15.4-4.2,23.1c-0.2,1.6,2.3,1.6,2.5,0c0.8-7.8,4.5-15.3,4.2-23.1c0-0.7-0.6-1.2-1.3-1.3
			c-4.6-0.2-15.2-1.7-17.8,3.5c-3.3,6.5-4,15.8-5,22.9C977.4,483.3,979.8,484,980,482.4L980,482.4z"/>
	</g>
</g>
<g id="XMLID_167_">
	
		<linearGradient id="XMLID_239_" gradientUnits="userSpaceOnUse" x1="992.4659" y1="306.6668" x2="1069.6659" y2="306.6668" gradientTransform="matrix(1 0 0 -1 0 780.72)">
		<stop  offset="0" style="stop-color:#B3B5B8"/>
		<stop  offset="1" style="stop-color:#231F20"/>
	</linearGradient>
	<path id="XMLID_170_" class="st37" d="M992.5,456.6c0.8-4.6,1.9-9.1,3.2-13.5c0.3-1,0.7-2.1,1.4-2.7c0.7-0.6,1.7-0.7,2.6-0.7
		c9.7-0.5,19.3-0.6,29-0.3c0.8,0,1.7,0.1,2.4,0.6c0.8,0.6,1.2,1.8,1.5,2.9c0.9,2.7,2,5.4,3.1,8c4.4,10.5,9.1,21,13.8,31.3
		c2.1,4.6,4.3,9.2,7.2,13.1c2,2.7,4.4,5,6.7,7.3c2.1,2.1,4.2,4.2,6.3,6.3h-52.6"/>
	<g id="XMLID_168_">
		<path id="XMLID_169_" class="st22" d="M993.7,456.9c0.8-4.2,1.2-11.8,4.6-14.7c3.5-3,13.2-1.7,17.8-1.7c2.9,0,5.8,0,8.7,0.1
			c3.7,0.1,5.4,0.7,7.1,4.2c2.1,4.4,3.7,9.2,5.7,13.7c4.2,9.7,8.3,19.4,13,28.9c4.5,9,11.2,15.4,18.3,22.4c0.3-0.7,0.6-1.4,0.9-2.1
			c-17.5,0-35.1,0-52.6,0c-1.6,0-1.6,2.5,0,2.5c17.5,0,35.1,0,52.6,0c1.1,0,1.7-1.4,0.9-2.1c-4.4-4.3-9.2-8.5-12.9-13.5
			c-3.7-5-6.2-10.8-8.8-16.4c-5.4-11.9-10.6-23.9-15.4-36.1c-1.2-3-2.7-3.7-5.9-3.8c-6.7-0.3-13.5-0.2-20.3,0
			c-3.3,0.1-8.7-0.9-11.4,1.6c-1.8,1.7-2.1,5-2.7,7.2c-0.8,3.1-1.5,6.2-2,9.3C991,457.8,993.4,458.5,993.7,456.9L993.7,456.9z"/>
	</g>
</g>
<g id="XMLID_74_">
	<path id="XMLID_183_" class="st20" d="M710.5,438.7c-6.3-7.4-10-17-10.3-26.7c3.2,5.5,8.4,9.8,14.4,11.8c0.3,0.1,0.6,0.2,0.9,0.1
		c0.5-0.2,0.6-0.9,0.7-1.4c0.2-4.3,0.4-8.7,0.6-13c3.2,4.5,2.7,10.5,4.7,15.6c0.2,0.4,0.5,0.9,1,0.8c0.2,0,0.3-0.2,0.5-0.3
		c4.6-4.8,4.8-12.1,4.7-18.7c-0.1-4.9-0.1-9.8-0.2-14.7c0-1.1,0-2.3,0.6-3.2c2.3,0.6,3.3,3.2,4.1,5.4c1,3.1,2.1,6.3,2.3,9.6
		c0.1,2.5-0.3,5-0.6,7.5c-0.7,4.2-1.3,8.3-2,12.5c1.8-1.6,3.4-3.6,4.4-5.8c0.6-1.2,1-2.5,1.9-3.5s2.3-1.8,3.5-1.4
		c1.3,0.4,2,2,1.5,3.2c1.2-0.3,2.2-1.1,2.9-2.1c1.3,1.9,0.4,4.5-0.5,6.6c-1.6,3.8-3.2,7.6-4.8,11.4c-1.4,3.2-2.9,6.7-5.9,8.5"/>
	<g id="XMLID_178_">
		<path id="XMLID_182_" d="M711.4,437.8c-6-7.5-9.4-16.3-10-25.8c-0.8,0.2-1.6,0.4-2.3,0.6c3,4.8,9.1,11.9,15.3,12.4
			c1.7,0.2,2.3-0.2,2.9-1.8c1.4-3.8,0.5-9.7,0.7-13.8c-0.8,0.2-1.6,0.4-2.3,0.6c1.9,3,2.4,6.1,3.1,9.5c0.4,1.9,0.5,5.3,2,6.7
			c1.9,1.8,3.3,0,4.5-1.7c2.7-3.9,3.4-8.8,3.5-13.4c0.1-3.3,0-6.6-0.1-9.8c0-3.3-1.1-8.7,0.3-11.7c-0.6,0.1-1.1,0.3-1.7,0.4
			c4.5,2,5.8,11.4,5.8,15.8c-0.1,5.9-1.7,11.9-2.6,17.7c-0.2,1.2,1.1,2.1,2.1,1.2c1.3-1.3,2.5-2.6,3.5-4.2c0.5-0.8,0.9-1.7,1.4-2.5
			c0.2-0.4,0.4-0.8,0.6-1.2c0.5-1.4,1.8-1.7,3.8-0.8c-0.1,0.8,0.6,1.9,1.5,1.5c1.5-0.6,2.4-1.2,3.5-2.5c-0.7-0.1-1.3-0.2-2-0.3
			c1.5,3.5-2,8.9-3.3,12.2c-1.9,4.4-3.3,9.7-7.3,12.7c-1.3,0.9,0,3.1,1.3,2.2c4.4-3.3,6.1-8.4,8.1-13.3c1.9-4.6,5.6-9.9,3.4-14.9
			c-0.3-0.7-1.5-0.8-2-0.3c-0.8,0.6-1.6,1.2-2.4,1.8c0.5,0.5,1,1,1.5,1.5c0.4-2.7-1.1-5.3-4.2-4.8c-1.5,0.2-2.7,1.3-3.5,2.6
			c-2.1,3-2.9,5.9-5.7,8.6c0.7,0.4,1.4,0.8,2.1,1.2c1.1-7.1,3.4-15,2.4-22.2c-0.6-4.5-2.1-12-6.8-14.1c-0.6-0.3-1.4-0.2-1.7,0.4
			c-1.5,3.1-0.8,6.9-0.7,10.2c0.1,4.9,0.4,9.9,0,14.7c-0.2,2.4-0.6,4.8-1.5,7.1c-0.3,0.7-1.1,3.4-2.5,2.9c-0.3-0.1-0.6-2.5-0.7-2.9
			c-0.9-4.1-1.4-8-3.6-11.6c-0.7-1.1-2.3-0.6-2.3,0.6c-0.1,2.5-0.2,5-0.3,7.4c-0.1,3.2-0.1,5.3-4,4.1c-4.1-1.3-7.8-6.1-9.9-9.6
			c-0.6-1-2.4-0.7-2.3,0.6c0.6,10.3,4.2,19.6,10.7,27.6C710.6,440.9,712.4,439.1,711.4,437.8L711.4,437.8z"/>
	</g>
</g>
</svg>
