<?xml version="1.0" encoding="utf-8"?>
<!-- Generator: Adobe Illustrator 19.0.0, SVG Export Plug-In . SVG Version: 6.00 Build 0)  -->
<svg version="1.1" id="Layer_1" xmlns="http://www.w3.org/2000/svg" xmlns:xlink="http://www.w3.org/1999/xlink" x="0px" y="0px"
	 viewBox="0 0 612 300" style="enable-background:new 0 0 612 300;" xml:space="preserve">
<style type="text/css">
	.st0{fill:#BCBEC0;}
	.st1{fill:none;stroke:#BCBEC0;stroke-width:4;stroke-miterlimit:10;}
</style>
<g id="XMLID_1_">
	<g id="XMLID_13_">
		<path id="XMLID_17_" class="st0" d="M-74.1,106.2c39.9,0,79.7,0,119.6,0c3.2,0,3.2-5,0-5c-39.9,0-79.7,0-119.6,0
			C-77.3,101.2-77.3,106.2-74.1,106.2L-74.1,106.2z"/>
	</g>
</g>
<g id="XMLID_2_">
	<g id="XMLID_20_">
		<path id="XMLID_24_" class="st0" d="M43.8,105.5c11.7,11.7,23.4,23.4,35.2,35.2c2.3,2.3,5.8-1.3,3.5-3.5
			c-11.7-11.7-23.4-23.4-35.2-35.2C45,99.7,41.5,103.2,43.8,105.5L43.8,105.5z"/>
	</g>
</g>
<circle id="XMLID_3_" class="st1" cx="86.3" cy="144.9" r="7.4"/>
<g id="XMLID_6_">
	<g id="XMLID_36_">
		<path id="XMLID_40_" class="st0" d="M-73.2,96.1c42.3,0,84.7,0,127,0c3.2,0,3.2-5,0-5c-42.3,0-84.7,0-127,0
			C-76.4,91.1-76.4,96.1-73.2,96.1L-73.2,96.1z"/>
	</g>
</g>
<g id="XMLID_5_">
	<g id="XMLID_31_">
		<path id="XMLID_35_" class="st0" d="M52,95.4c15.6,15.6,31.2,31.2,46.7,46.7c2.3,2.3,5.8-1.3,3.5-3.5
			C86.7,123,71.1,107.4,55.6,91.8C53.3,89.6,49.7,93.1,52,95.4L52,95.4z"/>
	</g>
</g>
<circle id="XMLID_4_" class="st1" cx="106.1" cy="146.4" r="7.4"/>
<g id="XMLID_7_">
	<g id="XMLID_64_">
		<path id="XMLID_74_" class="st0" d="M-77.9,194.9c34.6,0,69.2,0,103.8,0c3.2,0,3.2-5,0-5c-34.6,0-69.2,0-103.8,0
			C-81.1,189.9-81.1,194.9-77.9,194.9L-77.9,194.9z"/>
	</g>
</g>
<circle id="XMLID_9_" class="st1" cx="34.3" cy="192.4" r="7.4"/>
<g id="XMLID_18_">
	<g id="XMLID_59_">
		<path id="XMLID_63_" class="st0" d="M-99.6,185.3c39.9,0,79.7,0,119.6,0c3.2,0,3.2-5,0-5c-39.9,0-79.7,0-119.6,0
			C-102.8,180.3-102.8,185.3-99.6,185.3L-99.6,185.3z"/>
	</g>
</g>
<g id="XMLID_12_">
	<g id="XMLID_54_">
		<path id="XMLID_58_" class="st0" d="M21.8,184.5c8.2-8.2,16.4-16.4,24.6-24.6c2.3-2.3-1.3-5.8-3.5-3.5
			c-8.2,8.2-16.4,16.4-24.6,24.6C16,183.3,19.5,186.8,21.8,184.5L21.8,184.5z"/>
	</g>
</g>
<circle id="XMLID_11_" class="st1" cx="50.2" cy="152.1" r="7.4"/>
<g id="XMLID_19_">
	<g id="XMLID_66_">
		<path id="XMLID_70_" class="st0" d="M-73.9,85.6c68.3,0,136.6,0,205,0c3.2,0,3.2-5,0-5c-68.3,0-136.6,0-205,0
			C-77.1,80.6-77.1,85.6-73.9,85.6L-73.9,85.6z"/>
	</g>
</g>
<circle id="XMLID_27_" class="st1" cx="139.1" cy="82.7" r="7.4"/>
<g id="XMLID_30_">
	<g id="XMLID_75_">
		<path id="XMLID_79_" class="st0" d="M-76,71.8c63.6,0,127.1,0,190.7,0c16.8,0,33.5,0,50.3,0c3.2,0,3.2-5,0-5
			c-63.6,0-127.1,0-190.7,0c-16.8,0-33.5,0-50.3,0C-79.2,66.8-79.2,71.8-76,71.8L-76,71.8z"/>
	</g>
</g>
<circle id="XMLID_29_" class="st1" cx="173" cy="68.9" r="7.4"/>
<g id="XMLID_42_">
	<g id="XMLID_90_">
		<path id="XMLID_94_" class="st0" d="M-73.2,60.7c63.1,0,126.3,0,189.4,0c13.3,0,26.6,0,39.9,0c3.2,0,3.2-5,0-5
			c-63.1,0-126.3,0-189.4,0c-13.3,0-26.6,0-39.9,0C-76.4,55.7-76.4,60.7-73.2,60.7L-73.2,60.7z"/>
	</g>
</g>
<g id="XMLID_41_">
	<g id="XMLID_84_">
		<path id="XMLID_88_" class="st0" d="M157.9,60c8.2-8.2,16.4-16.4,24.6-24.6c2.3-2.3-1.3-5.8-3.5-3.5c-8.2,8.2-16.4,16.4-24.6,24.6
			C152,58.7,155.6,62.2,157.9,60L157.9,60z"/>
	</g>
</g>
<circle id="XMLID_28_" class="st1" cx="186.3" cy="27.6" r="7.4"/>
<g id="XMLID_50_">
	<g id="XMLID_113_">
		<path id="XMLID_117_" class="st0" d="M-36.9,208.8c34.6,0,69.2,0,103.8,0c3.2,0,3.2-5,0-5c-34.6,0-69.2,0-103.8,0
			C-40.1,203.8-40.1,208.8-36.9,208.8L-36.9,208.8z"/>
	</g>
</g>
<circle id="XMLID_47_" class="st1" cx="75.3" cy="206.3" r="7.4"/>
<g id="XMLID_45_">
	<g id="XMLID_107_">
		<path id="XMLID_111_" class="st0" d="M-58.6,218.4c39.9,0,79.7,0,119.6,0c3.2,0,3.2-5,0-5c-39.9,0-79.7,0-119.6,0
			C-61.8,213.4-61.8,218.4-58.6,218.4L-58.6,218.4z"/>
	</g>
</g>
<g id="XMLID_44_">
	<g id="XMLID_103_">
		<path id="XMLID_112_" class="st0" d="M59.2,217.7c8.2,8.2,16.4,16.4,24.6,24.6c2.3,2.3,5.8-1.3,3.5-3.5
			c-8.2-8.2-16.4-16.4-24.6-24.6C60.5,211.9,56.9,215.4,59.2,217.7L59.2,217.7z"/>
	</g>
</g>
<circle id="XMLID_43_" class="st1" cx="91.2" cy="246.6" r="7.4"/>
<g id="XMLID_89_">
	<g id="XMLID_136_">
		<path id="XMLID_140_" class="st0" d="M-35,14.9c34.6,0,69.2,0,103.8,0c3.2,0,3.2-5,0-5c-34.6,0-69.2,0-103.8,0
			C-38.2,9.9-38.2,14.9-35,14.9L-35,14.9z"/>
	</g>
</g>
<circle id="XMLID_83_" class="st1" cx="77.2" cy="12.4" r="7.4"/>
<g id="XMLID_82_">
	<g id="XMLID_131_">
		<path id="XMLID_135_" class="st0" d="M-56.7,24.6c39.9,0,79.7,0,119.6,0c3.2,0,3.2-5,0-5c-39.9,0-79.7,0-119.6,0
			C-59.9,19.6-59.9,24.6-56.7,24.6L-56.7,24.6z"/>
	</g>
</g>
<g id="XMLID_81_">
	<g id="XMLID_126_">
		<path id="XMLID_130_" class="st0" d="M61.1,23.9c4.6,4.6,9.2,9.2,13.8,13.8c2.3,2.3,5.8-1.3,3.5-3.5c-4.6-4.6-9.2-9.2-13.8-13.8
			C62.4,18,58.9,21.6,61.1,23.9L61.1,23.9z"/>
	</g>
</g>
<circle id="XMLID_52_" class="st1" cx="83.1" cy="41.7" r="7.4"/>
<g id="XMLID_122_">
	<g id="XMLID_149_">
		<path id="XMLID_153_" class="st0" d="M-39.8,280.6c44,0,87.9,0,131.9,0c10.1,0,20.2,0,30.3,0c3.2,0,3.2-5,0-5
			c-44,0-87.9,0-131.9,0c-10.1,0-20.2,0-30.3,0C-43,275.6-43,280.6-39.8,280.6L-39.8,280.6z"/>
	</g>
</g>
<circle id="XMLID_118_" class="st1" cx="130.9" cy="278.1" r="7.4"/>
<g id="XMLID_102_">
	<g id="XMLID_154_">
		<path id="XMLID_163_" class="st0" d="M-23.3,271c46.6,0,93.2,0,139.8,0c3.2,0,3.2-5,0-5c-46.6,0-93.2,0-139.8,0
			C-26.5,266-26.5,271-23.3,271L-23.3,271z"/>
	</g>
</g>
<g id="XMLID_101_">
	<g id="XMLID_155_">
		<path id="XMLID_159_" class="st0" d="M118.3,270.2c8.2-8.2,16.4-16.4,24.6-24.6c2.3-2.3-1.3-5.8-3.5-3.5
			c-8.2,8.2-16.4,16.4-24.6,24.6C112.5,269,116,272.5,118.3,270.2L118.3,270.2z"/>
	</g>
</g>
<circle id="XMLID_100_" class="st1" cx="146.7" cy="237.9" r="7.4"/>
<g id="XMLID_186_">
	<g id="XMLID_312_">
		<path id="XMLID_316_" class="st0" d="M686.6,100.3c-39.9,0-79.7,0-119.6,0c-3.2,0-3.2,5,0,5c39.9,0,79.7,0,119.6,0
			C689.8,105.3,689.8,100.3,686.6,100.3L686.6,100.3z"/>
	</g>
</g>
<g id="XMLID_185_">
	<g id="XMLID_306_">
		<path id="XMLID_310_" class="st0" d="M565.2,101c-11.7,11.7-23.4,23.4-35.2,35.2c-2.3,2.3,1.3,5.8,3.5,3.5
			c11.7-11.7,23.4-23.4,35.2-35.2C571,102.3,567.5,98.7,565.2,101L565.2,101z"/>
	</g>
</g>
<circle id="XMLID_184_" class="st1" cx="526.2" cy="144" r="7.4"/>
<g id="XMLID_183_">
	<g id="XMLID_300_">
		<path id="XMLID_304_" class="st0" d="M685.7,90.2c-42.3,0-84.7,0-127,0c-3.2,0-3.2,5,0,5c42.3,0,84.7,0,127,0
			C688.9,95.2,688.9,90.2,685.7,90.2L685.7,90.2z"/>
	</g>
</g>
<g id="XMLID_182_">
	<g id="XMLID_294_">
		<path id="XMLID_298_" class="st0" d="M556.9,90.9c-15.6,15.6-31.2,31.2-46.7,46.7c-2.3,2.3,1.3,5.8,3.5,3.5
			c15.6-15.6,31.2-31.2,46.7-46.7C562.8,92.2,559.2,88.6,556.9,90.9L556.9,90.9z"/>
	</g>
</g>
<circle id="XMLID_181_" class="st1" cx="506.4" cy="145.5" r="7.4"/>
<g id="XMLID_180_">
	<g id="XMLID_288_">
		<path id="XMLID_292_" class="st0" d="M690.4,189c-34.6,0-69.2,0-103.8,0c-3.2,0-3.2,5,0,5c34.6,0,69.2,0,103.8,0
			C693.6,194,693.6,189,690.4,189L690.4,189z"/>
	</g>
</g>
<circle id="XMLID_179_" class="st1" cx="578.2" cy="191.5" r="7.4"/>
<g id="XMLID_178_">
	<g id="XMLID_282_">
		<path id="XMLID_286_" class="st0" d="M712.1,179.3c-39.9,0-79.7,0-119.6,0c-3.2,0-3.2,5,0,5c39.9,0,79.7,0,119.6,0
			C715.3,184.3,715.3,179.3,712.1,179.3L712.1,179.3z"/>
	</g>
</g>
<g id="XMLID_177_">
	<g id="XMLID_276_">
		<path id="XMLID_280_" class="st0" d="M594.3,180.1c-8.2-8.2-16.4-16.4-24.6-24.6c-2.3-2.3-5.8,1.3-3.5,3.5
			c8.2,8.2,16.4,16.4,24.6,24.6C593,185.9,596.5,182.3,594.3,180.1L594.3,180.1z"/>
	</g>
</g>
<circle id="XMLID_176_" class="st1" cx="562.3" cy="151.2" r="7.4"/>
<g id="XMLID_175_">
	<g id="XMLID_270_">
		<path id="XMLID_274_" class="st0" d="M686.4,79.7c-68.3,0-136.6,0-205,0c-3.2,0-3.2,5,0,5c68.3,0,136.6,0,205,0
			C689.6,84.7,689.6,79.7,686.4,79.7L686.4,79.7z"/>
	</g>
</g>
<circle id="XMLID_174_" class="st1" cx="473.4" cy="81.8" r="7.4"/>
<g id="XMLID_173_">
	<g id="XMLID_264_">
		<path id="XMLID_268_" class="st0" d="M688.5,65.9c-63.6,0-127.1,0-190.7,0c-16.8,0-33.5,0-50.3,0c-3.2,0-3.2,5,0,5
			c63.6,0,127.1,0,190.7,0c16.8,0,33.5,0,50.3,0C691.7,70.9,691.7,65.9,688.5,65.9L688.5,65.9z"/>
	</g>
</g>
<circle id="XMLID_172_" class="st1" cx="439.5" cy="68" r="7.4"/>
<g id="XMLID_171_">
	<g id="XMLID_258_">
		<path id="XMLID_262_" class="st0" d="M685.7,54.7c-63.1,0-126.3,0-189.4,0c-13.3,0-26.6,0-39.9,0c-3.2,0-3.2,5,0,5
			c63.1,0,126.3,0,189.4,0c13.3,0,26.6,0,39.9,0C688.9,59.7,688.9,54.7,685.7,54.7L685.7,54.7z"/>
	</g>
</g>
<g id="XMLID_170_">
	<g id="XMLID_252_">
		<path id="XMLID_256_" class="st0" d="M458.2,55.5c-8.2-8.2-16.4-16.4-24.6-24.6c-2.3-2.3-5.8,1.3-3.5,3.5
			c8.2,8.2,16.4,16.4,24.6,24.6C456.9,61.3,460.4,57.8,458.2,55.5L458.2,55.5z"/>
	</g>
</g>
<circle id="XMLID_169_" class="st1" cx="426.2" cy="26.6" r="7.4"/>
<g id="XMLID_168_">
	<g id="XMLID_246_">
		<path id="XMLID_250_" class="st0" d="M649.4,202.8c-34.6,0-69.2,0-103.8,0c-3.2,0-3.2,5,0,5c34.6,0,69.2,0,103.8,0
			C652.6,207.8,652.6,202.8,649.4,202.8L649.4,202.8z"/>
	</g>
</g>
<circle id="XMLID_167_" class="st1" cx="537.2" cy="205.3" r="7.4"/>
<g id="XMLID_166_">
	<g id="XMLID_240_">
		<path id="XMLID_244_" class="st0" d="M671.1,212.5c-39.9,0-79.7,0-119.6,0c-3.2,0-3.2,5,0,5c39.9,0,79.7,0,119.6,0
			C674.3,217.5,674.3,212.5,671.1,212.5L671.1,212.5z"/>
	</g>
</g>
<g id="XMLID_165_">
	<g id="XMLID_234_">
		<path id="XMLID_238_" class="st0" d="M549.7,213.2c-8.2,8.2-16.4,16.4-24.6,24.6c-2.3,2.3,1.3,5.8,3.5,3.5
			c8.2-8.2,16.4-16.4,24.6-24.6C555.5,214.5,552,211,549.7,213.2L549.7,213.2z"/>
	</g>
</g>
<circle id="XMLID_164_" class="st1" cx="521.3" cy="245.6" r="7.4"/>
<g id="XMLID_148_">
	<g id="XMLID_228_">
		<path id="XMLID_232_" class="st0" d="M647.5,9c-34.6,0-69.2,0-103.8,0c-3.2,0-3.2,5,0,5c34.6,0,69.2,0,103.8,0
			C650.7,14,650.7,9,647.5,9L647.5,9z"/>
	</g>
</g>
<circle id="XMLID_147_" class="st1" cx="535.3" cy="11.5" r="7.4"/>
<g id="XMLID_146_">
	<g id="XMLID_222_">
		<path id="XMLID_226_" class="st0" d="M669.2,18.7c-39.9,0-79.7,0-119.6,0c-3.2,0-3.2,5,0,5c39.9,0,79.7,0,119.6,0
			C672.4,23.7,672.4,18.7,669.2,18.7L669.2,18.7z"/>
	</g>
</g>
<g id="XMLID_144_">
	<g id="XMLID_216_">
		<path id="XMLID_220_" class="st0" d="M547.8,19.4c-4.6,4.6-9.2,9.2-13.8,13.8c-2.3,2.3,1.3,5.8,3.5,3.5c4.6-4.6,9.2-9.2,13.8-13.8
			C553.6,20.7,550.1,17.1,547.8,19.4L547.8,19.4z"/>
	</g>
</g>
<circle id="XMLID_141_" class="st1" cx="529.4" cy="40.8" r="7.4"/>
<g id="XMLID_125_">
	<g id="XMLID_210_">
		<path id="XMLID_214_" class="st0" d="M652.3,274.7c-44,0-87.9,0-131.9,0c-10.1,0-20.2,0-30.3,0c-3.2,0-3.2,5,0,5
			c44,0,87.9,0,131.9,0c10.1,0,20.2,0,30.3,0C655.5,279.7,655.5,274.7,652.3,274.7L652.3,274.7z"/>
	</g>
</g>
<circle id="XMLID_124_" class="st1" cx="481.6" cy="277.2" r="7.4"/>
<g id="XMLID_123_">
	<g id="XMLID_204_">
		<path id="XMLID_208_" class="st0" d="M635.8,265c-46.6,0-93.2,0-139.8,0c-3.2,0-3.2,5,0,5c46.6,0,93.2,0,139.8,0
			C639,270,639,265,635.8,265L635.8,265z"/>
	</g>
</g>
<g id="XMLID_99_">
	<g id="XMLID_202_">
		<path id="XMLID_311_" class="st0" d="M497.7,265.8c-8.2-8.2-16.4-16.4-24.6-24.6c-2.3-2.3-5.8,1.3-3.5,3.5
			c8.2,8.2,16.4,16.4,24.6,24.6C496.5,271.6,500,268.1,497.7,265.8L497.7,265.8z"/>
	</g>
</g>
<circle id="XMLID_95_" class="st1" cx="465.8" cy="236.9" r="7.4"/>
</svg>
