<?xml version="1.0" encoding="utf-8"?>
<!-- Generator: Adobe Illustrator 19.0.0, SVG Export Plug-In . SVG Version: 6.00 Build 0)  -->
<svg version="1.1" id="Capa_1" xmlns="http://www.w3.org/2000/svg" xmlns:xlink="http://www.w3.org/1999/xlink" x="0px" y="0px"
	 viewBox="-49 -106 512 512" style="enable-background:new -49 -106 512 512;" xml:space="preserve">
<style type="text/css">
	.st0{fill:#FFFFFF;}
</style>
<g>
	<path class="st0" d="M173.9,282h51.5c4.4,0,8-3.6,8-8V158.1h26.8c4.1,0,7.5-3.1,8-7.2l4.5-43.8c0.2-2.3-0.5-4.5-2-6.2
		c-1.5-1.7-3.7-2.6-5.9-2.6h-31.3V80.6c0-3.7,1.2-3.9,2.9-3.9H264c4.4,0,8-3.6,8-8V26.2c0-4.4-3.6-8-8-8L225.8,18
		c-26.8,0-41,11.8-48.3,21.6c-10.1,13.8-11.7,29.9-11.7,38.3v20.3h-16.5c-4.4,0-8,3.6-8,8v43.8c0,4.4,3.6,8,8,8h16.5V274
		C165.9,278.4,169.5,282,173.9,282z M157.4,142.1v-27.8h16.5c4.4,0,8-3.6,8-8V78c0-5.2,0.8-18.4,8.5-28.9
		c7.4-10,19.3-15.1,35.4-15.1l30.2,0.1v26.5h-19.7c-9.4,0-18.9,6.2-18.9,19.9v25.7c0,4.4,3.6,8,8,8h30.4l-2.9,27.8h-27.5
		c-4.4,0-8,3.6-8,8V266h-35.5V150.1c0-4.4-3.6-8-8-8L157.4,142.1L157.4,142.1z"/>
	<path class="st0" d="M388-31c-48.4-48.4-112.6-75-181-75c-68.4,0-132.7,26.6-181,75S-49,81.6-49,150c0,68.4,26.6,132.7,75,181
		c48.4,48.3,112.6,75,181,75c68.4,0,132.7-26.6,181-75c48.4-48.3,75-112.6,75-181C463,81.6,436.4,17.3,388-31z M376.7,319.7
		C331.4,365,271.1,390,207,390c-64.1,0-124.4-25-169.7-70.3C-8,274.4-33,214.1-33,150C-33,85.9-8,25.6,37.3-19.7
		C82.6-65,142.9-90,207-90c64.1,0,124.4,25,169.7,70.3C422,25.6,447,85.9,447,150C447,214.1,422,274.4,376.7,319.7z"/>
	<path class="st0" d="M381,9c-2.8-3.4-7.8-4-11.3-1.2c-3.4,2.8-4,7.8-1.2,11.3c29.9,36.9,46.4,83.4,46.4,131
		c0,55.6-21.6,107.8-60.9,147.1C314.8,336.4,262.6,358,207,358c-51.3,0-100.5-18.8-138.7-53c-3.3-2.9-8.3-2.7-11.3,0.6
		s-2.7,8.4,0.6,11.3c41.1,36.8,94.1,57,149.3,57c59.8,0,116.1-23.3,158.4-65.6C407.7,266.1,431,209.8,431,150
		C431,98.8,413.3,48.7,381,9z"/>
	<path class="st0" d="M-1,150C-1,35.3,92.3-58,207-58c51.3,0,100.5,18.8,138.7,53C349-2.1,354-2.4,357-5.7c2.9-3.3,2.7-8.3-0.6-11.3
		C315.2-53.7,262.2-74,207-74C147.2-74,90.9-50.7,48.6-8.4C6.3,33.9-17,90.2-17,150c0,51.2,17.7,101.3,50,141c1.6,1.9,3.9,3,6.2,3
		c1.8,0,3.6-0.6,5-1.8c3.4-2.8,4-7.8,1.2-11.3C15.5,244.1-1,197.6-1,150z"/>
</g>
</svg>
