<?xml version="1.0" encoding="utf-8"?>
<!-- Generator: Adobe Illustrator 19.0.0, SVG Export Plug-In . SVG Version: 6.00 Build 0)  -->
<svg version="1.1" id="Layer_1" xmlns="http://www.w3.org/2000/svg" xmlns:xlink="http://www.w3.org/1999/xlink" x="0px" y="0px"
	 viewBox="-49 -106 512 512" style="enable-background:new -49 -106 512 512;" xml:space="preserve">
<style type="text/css">
	.st0{fill:#FFFFFF;}
</style>
<g>
	<g>
		<g>
			<path class="st0" d="M310.3-106H103.7c-83.8,0-152,68.2-152,152V254c0,83.8,68.2,152,152,152h206.6c83.8,0,152-68.2,152-152V46
				C462.4-37.8,394.2-106,310.3-106z M442,254c0,72.6-59.1,131.6-131.6,131.6H103.7C31.1,385.6-28,326.5-28,254V46
				c0-72.6,59.1-131.6,131.6-131.6h206.6C382.9-85.6,442-26.5,442,46V254z"/>
			<path class="st0" d="M310.3-47.7H103.7C52-47.7,9.9-5.6,9.9,46V254c0,51.7,42.1,93.8,93.8,93.8h206.6c51.7,0,93.8-42.1,93.8-93.8
				V46C404.1-5.6,362-47.7,310.3-47.7z M383.7,254c0,40.4-32.9,73.4-73.4,73.4H103.7c-40.4,0-73.4-32.9-73.4-73.4V46
				c0-40.4,32.9-73.4,73.4-73.4v0h206.6c40.4,0,73.4,32.9,73.4,73.4V254z"/>
		</g>
	</g>
</g>
<g>
	<g>
		<g>
			<path class="st0" d="M207,18.2C134.3,18.2,75.2,77.3,75.2,150S134.3,281.8,207,281.8S338.8,222.7,338.8,150S279.7,18.2,207,18.2z
				 M207,261.4c-61.4,0-111.4-50-111.4-111.4c0-61.4,50-111.4,111.4-111.4c61.4,0,111.4,50,111.4,111.4
				C318.4,211.4,268.4,261.4,207,261.4z"/>
			<path class="st0" d="M207,75c-41.3,0-75,33.6-75,75s33.6,75,75,75c41.3,0,75-33.6,75-75S248.3,75,207,75z M207,204.6
				c-30.1,0-54.6-24.5-54.6-54.6s24.5-54.6,54.6-54.6s54.6,24.5,54.6,54.6C261.6,180.1,237.1,204.6,207,204.6z"/>
		</g>
	</g>
</g>
<g>
	<g>
		<path class="st0" d="M331.5-6.2c-17.5,0-31.7,14.2-31.7,31.7s14.2,31.7,31.7,31.7c17.5,0,31.7-14.2,31.7-31.7S348.9-6.2,331.5-6.2
			z M331.5,36.8c-6.2,0-11.3-5.1-11.3-11.3c0-6.2,5.1-11.3,11.3-11.3s11.3,5.1,11.3,11.3C342.8,31.7,337.7,36.8,331.5,36.8z"/>
	</g>
</g>
<g>
	<g>
		<path class="st0" d="M190.7,357H94.8c-5.6,0-10.2,4.6-10.2,10.2s4.6,10.2,10.2,10.2h95.9c5.6,0,10.2-4.6,10.2-10.2
			S196.3,357,190.7,357z"/>
	</g>
</g>
<g>
	<g>
		<path class="st0" d="M229.4,357h-6.1c-5.6,0-10.2,4.6-10.2,10.2s4.6,10.2,10.2,10.2h6.1c5.6,0,10.2-4.6,10.2-10.2
			S235.1,357,229.4,357z"/>
	</g>
</g>
</svg>
