<?xml version="1.0" encoding="utf-8"?>
<!-- Generator: Adobe Illustrator 19.0.0, SVG Export Plug-In . SVG Version: 6.00 Build 0)  -->
<svg version="1.1" id="Layer_1" xmlns="http://www.w3.org/2000/svg" xmlns:xlink="http://www.w3.org/1999/xlink" x="0px" y="0px"
	 viewBox="-49 -106 512 512" style="enable-background:new -49 -106 512 512;" xml:space="preserve">
<style type="text/css">
	.st0{fill:#FFFFFF;}
</style>
<g>
	<g>
		<path class="st0" d="M455-13c4.4,0,8-3.6,8-8v-42.8c0-23.3-18.9-42.2-42.2-42.2H-6.8C-30.1-106-49-87.1-49-63.8v427.6
			c0,23.3,18.9,42.2,42.2,42.2h427.6c23.3,0,42.2-18.9,42.2-42.2V13.2c0-4.4-3.6-8-8-8c-4.4,0-8,3.6-8,8v350.6
			c0,14.4-11.7,26.2-26.2,26.2H-6.8c-14.4,0-26.2-11.7-26.2-26.2V-63.8C-33-78.2-21.2-90-6.8-90h427.6c14.4,0,26.2,11.7,26.2,26.2
			V-21C447-16.6,450.6-13,455-13z"/>
	</g>
</g>
<g>
	<g>
		<path class="st0" d="M104.4,132.9c4.4,0,8-3.6,8-8V90.1c0-4.4-3.6-8-8-8H36c-4.4,0-8,3.6-8,8V321c0,4.4,3.6,8,8,8h68.4
			c4.4,0,8-3.6,8-8V160.2c0-4.4-3.6-8-8-8s-8,3.6-8,8V313H44V98.2h52.4v26.7C96.4,129.3,100,132.9,104.4,132.9z"/>
	</g>
</g>
<g>
	<g>
		<path class="st0" d="M359,104.1c-16.3-14-37.5-22-58-22c-33.9,0-55.4,11.3-68.9,25.2V90.1c0-4.4-3.6-8-8-8h-68.4c-4.4,0-8,3.6-8,8
			V321c0,4.4,3.6,8,8,8h68.4c4.4,0,8-3.6,8-8V209.9c0-21.5,18-34.7,34.7-34.7c20.1,0,34.7,14.6,34.7,34.7V321c0,4.4,3.6,8,8,8H378
			c4.4,0,8-3.6,8-8V158.6C386,138.3,376.5,119,359,104.1z M370,313h-52.4V209.9c0-28.9-21.8-50.8-50.8-50.8
			c-24.4,0-50.8,19.4-50.8,50.8V313h-52.4V98.2h52.4v34.7c0,3.7,2.6,6.9,6.1,7.8c3.7,0.9,7.5-1,9.1-4.4
			c11.9-25.3,35.3-38.1,69.7-38.1c32.5,0,68.9,25.8,68.9,60.4L370,313L370,313z"/>
	</g>
</g>
<g>
	<g>
		<path class="st0" d="M70.2-29C46.9-29,28-10.1,28,13.2s18.9,42.2,42.2,42.2s42.2-18.9,42.2-42.2S93.5-29,70.2-29z M70.2,39.4
			C55.7,39.4,44,27.6,44,13.2S55.7-13,70.2-13S96.4-1.3,96.4,13.2S84.6,39.4,70.2,39.4z"/>
	</g>
</g>
</svg>
