<?xml version="1.0" encoding="utf-8"?>
<!-- Generator: Adobe Illustrator 19.0.0, SVG Export Plug-In . SVG Version: 6.00 Build 0)  -->
<svg version="1.1" id="Layer_1" xmlns="http://www.w3.org/2000/svg" xmlns:xlink="http://www.w3.org/1999/xlink" x="0px" y="0px"
	 viewBox="0 391 1920 300" style="enable-background:new 0 391 1920 300;" xml:space="preserve">
<style type="text/css">
	.st0{display:none;}
	.st1{display:inline;fill:none;stroke:#A16D47;stroke-width:6;stroke-miterlimit:10;}
	.st2{display:inline;}
	.st3{fill:url(#XMLID_89_);}
	.st4{fill:#603A17;}
	.st5{fill:url(#XMLID_95_);}
	.st6{fill:#EA598C;stroke:#603A17;stroke-width:3;stroke-miterlimit:10;}
	.st7{fill:url(#XMLID_97_);}
	.st8{fill:url(#XMLID_98_);}
	.st9{fill:url(#XMLID_99_);}
	.st10{fill:url(#XMLID_102_);}
	.st11{fill:url(#XMLID_104_);}
	.st12{fill:none;stroke:#33230D;stroke-width:6;stroke-miterlimit:10;}
	.st13{fill:none;stroke:#603813;stroke-width:6;stroke-miterlimit:10;}
	.st14{fill:url(#SVGID_1_);}
	.st15{fill:url(#SVGID_2_);}
	.st16{fill:url(#XMLID_105_);stroke:#000000;stroke-width:3;stroke-miterlimit:10;}
	.st17{fill:url(#SVGID_3_);}
	.st18{fill:url(#XMLID_106_);stroke:#000000;stroke-width:3;stroke-miterlimit:10;}
	.st19{fill:url(#SVGID_4_);}
	.st20{fill:url(#XMLID_109_);stroke:#000000;stroke-width:3;stroke-miterlimit:10;}
	.st21{fill:url(#SVGID_5_);}
	.st22{fill:url(#XMLID_110_);stroke:#000000;stroke-width:3;stroke-miterlimit:10;}
	.st23{fill:url(#SVGID_6_);}
	.st24{fill:url(#XMLID_111_);stroke:#000000;stroke-width:3;stroke-miterlimit:10;}
	.st25{fill:url(#SVGID_7_);}
	.st26{fill:url(#XMLID_112_);stroke:#000000;stroke-width:3;stroke-miterlimit:10;}
</style>
<g id="OLD" class="st0">
	<path id="XMLID_25_" class="st1" d="M1918.1,680.8"/>
	<path id="XMLID_2_" class="st1" d="M-1.9,680.8"/>
	<g id="XMLID_1_" class="st2">
		
			<linearGradient id="XMLID_89_" gradientUnits="userSpaceOnUse" x1="-4.2" y1="465.9015" x2="1925.1001" y2="465.9015" gradientTransform="matrix(1 0 0 -1 0 1084)">
			<stop  offset="4.135833e-007" style="stop-color:#C06D2F"/>
			<stop  offset="1" style="stop-color:#8E4C21"/>
		</linearGradient>
		<path id="XMLID_108_" class="st3" d="M-4.2,692.8c615-192.6,1256.9-205.7,1929.3,0"/>
		<g id="XMLID_103_">
			<path id="XMLID_107_" class="st4" d="M-3.5,695.3c119-37.2,239.9-68.1,362.3-91.8c122.1-23.7,245.6-40.2,369.7-49.3
				c124.8-9.1,250.1-10.7,375.1-4.7c128.9,6.1,257.4,20.3,384.6,41.9c131.1,22.3,260.8,52.4,388.5,89.6c16,4.7,32,9.4,47.9,14.3
				c3.1,0.9,4.4-3.9,1.3-4.8c-128.5-39.2-259-71.6-391.1-95.9c-126.6-23.3-254.6-39.3-383.2-47.4c-125.7-7.9-251.9-8.3-377.6-0.9
				c-123.5,7.2-246.5,21.8-368.3,43.5c-123.1,21.9-244.9,51.1-364.8,86.8c-15.2,4.5-30.4,9.2-45.6,13.9
				C-7.9,691.4-6.6,696.2-3.5,695.3L-3.5,695.3z"/>
		</g>
	</g>
	<g id="XMLID_28_" class="st2">
		<g id="XMLID_30_">
			
				<linearGradient id="XMLID_95_" gradientUnits="userSpaceOnUse" x1="190.2344" y1="653.2885" x2="190.2344" y2="546.1093" gradientTransform="matrix(0.9561 -0.2929 -0.2929 -0.9561 184.5724 1244.8406)">
				<stop  offset="0" style="stop-color:#734B29"/>
				<stop  offset="0.7602" style="stop-color:#754129"/>
				<stop  offset="1" style="stop-color:#683717;stop-opacity:0"/>
			</linearGradient>
			<path id="XMLID_101_" class="st5" d="M171.2,677.8c-10.4-34-20.8-68-31.3-102.1l70.5-22c10.5,34.1,20.9,68.2,31.4,102.4"/>
			<g id="XMLID_96_">
				<path id="XMLID_100_" class="st4" d="M173.6,677.1c-10.4-34-20.8-68-31.3-102.1c-0.6,1-1.2,2.1-1.7,3.1
					c23.5-7.3,47-14.7,70.5-22c-1-0.6-2.1-1.2-3.1-1.7c10.5,34.1,20.9,68.2,31.4,102.4c0.9,3.1,5.8,1.8,4.8-1.3
					c-10.5-34.1-20.9-68.2-31.4-102.4c-0.4-1.3-1.8-2.2-3.1-1.7c-23.5,7.3-47,14.7-70.5,22c-1.3,0.4-2.2,1.7-1.7,3.1
					c10.4,34,20.8,68,31.3,102.1C169.8,681.5,174.6,680.2,173.6,677.1L173.6,677.1z"/>
			</g>
		</g>
		
			<ellipse id="XMLID_29_" transform="matrix(-0.2929 -0.9561 0.9561 -0.2929 -313.1782 896.9879)" class="st6" cx="175.1" cy="564.3" rx="8.4" ry="37.9"/>
	</g>
	<g id="XMLID_31_" class="st2">
		<g id="XMLID_33_">
			
				<linearGradient id="XMLID_97_" gradientUnits="userSpaceOnUse" x1="485.915" y1="608.438" x2="485.915" y2="470.0327" gradientTransform="matrix(0.9866 -0.1629 -0.1629 -0.9866 97.024 1160.5674)">
				<stop  offset="0" style="stop-color:#734B29"/>
				<stop  offset="0.7602" style="stop-color:#754129"/>
				<stop  offset="1" style="stop-color:#683717;stop-opacity:0"/>
			</linearGradient>
			<path id="XMLID_94_" class="st7" d="M454.3,625.2c-7.5-45.4-15-90.7-22.5-136.1l91.1-15.5c7.5,45.5,15,91,22.5,136.5"/>
			<g id="XMLID_86_">
				<path id="XMLID_93_" class="st4" d="M456.7,624.6c-7.5-45.4-15-90.7-22.5-136.1c-0.6,1-1.2,2.1-1.7,3.1c26.5-4.5,53-9,79.5-13.6
					c3.9-0.7,7.7-1.3,11.6-2c-1-0.6-2.1-1.2-3.1-1.7c7.5,45.5,15,91,22.5,136.5c0.5,3.2,5.3,1.8,4.8-1.3c-7.5-45.5-15-91-22.5-136.5
					c-0.2-1.4-1.9-2-3.1-1.7c-26.5,4.5-53,9-79.5,13.6c-3.9,0.7-7.7,1.3-11.6,2c-1.4,0.2-1.9,1.9-1.7,3.1
					c7.5,45.4,15,90.7,22.5,136.1C452.4,629.1,457.2,627.7,456.7,624.6L456.7,624.6z"/>
			</g>
		</g>
		
			<ellipse id="XMLID_32_" transform="matrix(-0.1629 -0.9866 0.9866 -0.1629 80.5503 1030.1696)" class="st6" cx="477.3" cy="480.9" rx="10.8" ry="47.4"/>
	</g>
	<g id="XMLID_36_" class="st2">
		<g id="XMLID_38_">
			
				<linearGradient id="XMLID_98_" gradientUnits="userSpaceOnUse" x1="824.0426" y1="578.7772" x2="824.0426" y2="456.3864" gradientTransform="matrix(0.9982 -5.934528e-002 -5.934528e-002 -0.9982 32.1771 1133.502)">
				<stop  offset="0" style="stop-color:#734B29"/>
				<stop  offset="0.7602" style="stop-color:#754129"/>
				<stop  offset="1" style="stop-color:#683717;stop-opacity:0"/>
			</linearGradient>
			<path id="XMLID_84_" class="st8" d="M774.4,632.2c-2.4-40.6-4.8-81.2-7.2-121.7l106.4-6.8c2.4,40.7,4.8,81.4,7.3,122.1"/>
			<g id="XMLID_76_">
				<path id="XMLID_83_" class="st4" d="M776.9,632.2c-2.4-40.6-4.8-81.2-7.2-121.7c-0.8,0.8-1.7,1.7-2.5,2.5c31-2,62-3.9,93.1-5.9
					c4.5-0.3,8.9-0.6,13.4-0.8c-0.8-0.8-1.7-1.7-2.5-2.5c2.4,40.7,4.8,81.4,7.3,122.1c0.2,3.2,5.2,3.2,5,0
					c-2.4-40.7-4.8-81.4-7.3-122.1c-0.1-1.3-1.1-2.6-2.5-2.5c-31,2-62,3.9-93.1,5.9c-4.5,0.3-8.9,0.6-13.4,0.8
					c-1.3,0.1-2.6,1.1-2.5,2.5c2.4,40.6,4.8,81.2,7.2,121.7C772.1,635.4,777.1,635.4,776.9,632.2L776.9,632.2z"/>
			</g>
		</g>
		
			<ellipse id="XMLID_37_" transform="matrix(-5.934750e-002 -0.9982 0.9982 -5.934750e-002 363.2459 1355.4883)" class="st6" cx="820.3" cy="506.6" rx="9.6" ry="54.8"/>
	</g>
	<g id="XMLID_64_" class="st2">
		<g id="XMLID_71_">
			
				<linearGradient id="XMLID_99_" gradientUnits="userSpaceOnUse" x1="1052.4045" y1="609.4547" x2="1052.4045" y2="502.3316" gradientTransform="matrix(0.9942 0.1072 0.1072 -0.9942 -53.5636 967.6417)">
				<stop  offset="0" style="stop-color:#734B29"/>
				<stop  offset="0.7602" style="stop-color:#754129"/>
				<stop  offset="1" style="stop-color:#683717;stop-opacity:0"/>
			</linearGradient>
			<path id="XMLID_74_" class="st9" d="M1009.9,577c3.8-35.4,7.6-70.7,11.4-106.1l73.5,7.6c-3.8,35.5-7.7,71-11.5,106.5"/>
			<g id="XMLID_63_">
				<path id="XMLID_73_" class="st4" d="M1012.4,577c3.8-35.4,7.6-70.7,11.4-106.1c-0.8,0.8-1.7,1.7-2.5,2.5c24.5,2.5,49,5,73.5,7.6
					c-0.8-0.8-1.7-1.7-2.5-2.5c-3.8,35.5-7.7,71-11.5,106.5c-0.3,3.2,4.7,3.2,5,0c3.8-35.5,7.7-71,11.5-106.5
					c0.2-1.4-1.3-2.4-2.5-2.5c-24.5-2.5-49-5-73.5-7.6c-1.4-0.1-2.4,1.3-2.5,2.5c-3.8,35.4-7.6,70.7-11.4,106.1
					C1007.1,580.2,1012.1,580.2,1012.4,577L1012.4,577z"/>
			</g>
		</g>
		
			<ellipse id="XMLID_70_" transform="matrix(0.1072 -0.9942 0.9942 0.1072 473.1873 1475.49)" class="st6" cx="1058.2" cy="474.3" rx="8.4" ry="37.9"/>
	</g>
	<g id="XMLID_80_" class="st2">
		<g id="XMLID_82_">
			
				<linearGradient id="XMLID_102_" gradientUnits="userSpaceOnUse" x1="1668.1975" y1="652.6982" x2="1668.1975" y2="545.5203" gradientTransform="matrix(0.9695 0.2451 0.2451 -0.9695 -125.3992 785.8637)">
				<stop  offset="0" style="stop-color:#734B29"/>
				<stop  offset="0.7602" style="stop-color:#754129"/>
				<stop  offset="1" style="stop-color:#683717;stop-opacity:0"/>
			</linearGradient>
			<path id="XMLID_61_" class="st10" d="M1589.8,656.8c8.7-34.5,17.4-69,26.2-103.5l71.7,17.7c-8.7,34.6-17.5,69.2-26.2,103.8"/>
			<g id="XMLID_56_">
				<path id="XMLID_60_" class="st4" d="M1592.2,657.5c8.7-34.5,17.4-69,26.2-103.5c-1,0.6-2.1,1.2-3.1,1.7
					c23.9,5.9,47.8,11.8,71.7,17.7c-0.6-1-1.2-2.1-1.7-3.1c-8.7,34.6-17.5,69.2-26.2,103.8c-0.8,3.1,4,4.5,4.8,1.3
					c8.7-34.6,17.5-69.2,26.2-103.8c0.3-1.3-0.4-2.7-1.7-3.1c-23.9-5.9-47.8-11.8-71.7-17.7c-1.3-0.3-2.7,0.4-3.1,1.7
					c-8.7,34.5-17.4,69-26.2,103.5C1586.6,659.3,1591.4,660.6,1592.2,657.5L1592.2,657.5z"/>
			</g>
		</g>
		
			<ellipse id="XMLID_81_" transform="matrix(0.2451 -0.9695 0.9695 0.2451 702.3505 2025.6161)" class="st6" cx="1651.9" cy="561.8" rx="8.4" ry="37.9"/>
	</g>
	<g id="XMLID_90_" class="st2">
		<g id="XMLID_92_">
			
				<linearGradient id="XMLID_104_" gradientUnits="userSpaceOnUse" x1="1319.8402" y1="585.3354" x2="1319.8402" y2="478.1927" gradientTransform="matrix(1.6894 0.2911 0.2655 -1.5409 -1056.228 998.4886)">
				<stop  offset="0" style="stop-color:#734B29"/>
				<stop  offset="0.7602" style="stop-color:#754129"/>
				<stop  offset="1" style="stop-color:#683717;stop-opacity:0"/>
			</linearGradient>
			<path id="XMLID_54_" class="st11" d="M1238.1,635.1c9.4-54.8,18.9-109.6,28.3-164.5l124.9,20.9c-9.5,55-19,110-28.4,165"/>
			<g id="XMLID_49_">
				<path id="XMLID_53_" class="st4" d="M1240.5,635.8c9.4-54.8,18.9-109.6,28.3-164.5c-1,0.6-2.1,1.2-3.1,1.7
					c36.4,6.1,72.8,12.2,109.3,18.3c5.2,0.9,10.4,1.7,15.6,2.6c-0.6-1-1.2-2.1-1.7-3.1c-9.5,55-19,110-28.4,165
					c-0.5,3.1,4.3,4.5,4.8,1.3c9.5-55,19-110,28.4-165c0.2-1.2-0.3-2.8-1.7-3.1c-36.4-6.1-72.8-12.2-109.3-18.3
					c-5.2-0.9-10.4-1.7-15.6-2.6c-1.2-0.2-2.8,0.3-3.1,1.7c-9.4,54.8-18.9,109.6-28.3,164.5C1235.2,637.6,1240,638.9,1240.5,635.8
					L1240.5,635.8z"/>
			</g>
		</g>
		
			<ellipse id="XMLID_91_" transform="matrix(0.1698 -0.9855 0.9855 0.1698 629.8624 1708.6218)" class="st6" cx="1329" cy="480.5" rx="13.1" ry="65"/>
	</g>
	<g id="XMLID_35_" class="st2">
		<g id="XMLID_43_">
			<path id="XMLID_47_" class="st4" d="M652.7,577.7c8.8-1.2,16.5,2.5,24.2,6.4c0-1.4,0-2.9,0-4.3c-2.5,1.5-7.2,1-10,1.3
				c-2.7,0.3-5.3,0.6-8,1c-6.1,1-12.1,2.4-17.9,4.2c-1.9,0.6-2.3,2.7-1.1,4.2c8.2,10.1,17.8,18.9,28.5,26.2
				c-0.2-1.3-0.3-2.6-0.5-3.9c-3.1,2.8-10.5,1.2-14.4,1.5c-4.6,0.4-9.2,1.3-13.7,2.3c-9.6,2.3-19.9,6.5-29.9,5.7
				c-2.4-0.2-2.9,2.7-1.8,4.3c2.4,3.1,5.7,4.8,9.3,6.4c4.2,1.9,8,4.3,11.8,7c7.1,5.1,13.8,10.4,22.2,13.1c3.1,1,4.4-3.8,1.3-4.8
				c-7.9-2.5-14.3-7.9-21-12.6c-3.1-2.2-6.3-4.3-9.8-6c-3.8-1.8-7.6-3.1-10.3-6.5c-0.6,1.4-1.2,2.8-1.8,4.3
				c11.1,0.9,22.4-3.9,33.1-6.4c6-1.4,11.8-1.9,17.9-2c3.9,0,7.4,0,10.5-2.8c1.3-1.1,0.7-3.1-0.5-3.9c-10.4-7.1-19.5-15.7-27.5-25.5
				c-0.4,1.4-0.7,2.8-1.1,4.2c6.5-2,13.1-3.6,19.8-4.5c5.3-0.8,12.7,0.4,17.4-2.5c1.5-0.9,1.7-3.4,0-4.3c-8.4-4.2-17.1-8.3-26.7-7.1
				C649.6,573.1,649.5,578.1,652.7,577.7L652.7,577.7z"/>
		</g>
	</g>
	<g id="XMLID_65_" class="st2">
		<g id="XMLID_27_">
			<path id="XMLID_41_" class="st4" d="M1240.5,557.1c-8.4,1.8-16.5,4.5-24.4,8c-2.5,1.1-0.9,4.5,1.3,4.7c4.1,0.3,8.2,0.7,12.4,1
				c-0.4-1.6-0.8-3.1-1.3-4.7c-10.4,6.5-23.8,3.4-34.3,9.8c-1.7,1.1-1.5,3.2,0,4.3c8.1,6,15.6,12.5,22.7,19.6
				c0.4-1.4,0.7-2.8,1.1-4.2c-5.9,1-11.9,0.9-17.7,2.1c-5.8,1.2-11.5,3.3-17,5.3c-11.8,4.3-23.6,8.6-35.5,12.9
				c-3,1.1-1.7,5.9,1.3,4.8c11.8-4.3,23.6-8.6,35.5-12.9c5.3-1.9,10.6-3.9,16.1-5.1c6.1-1.4,12.5-1.3,18.6-2.3
				c1.9-0.3,2.3-3,1.1-4.2c-7.4-7.4-15.3-14.2-23.7-20.4c0,1.4,0,2.9,0,4.3c10.5-6.4,23.8-3.3,34.3-9.8c2.2-1.4,1.2-4.5-1.3-4.7
				c-4.1-0.3-8.2-0.7-12.4-1c0.4,1.6,0.8,3.1,1.3,4.7c7.5-3.3,15.2-5.8,23.2-7.5C1245,561.2,1243.6,556.4,1240.5,557.1L1240.5,557.1
				z"/>
		</g>
	</g>
	<g id="XMLID_66_" class="st2">
		<g id="XMLID_20_">
			<path id="XMLID_24_" class="st4" d="M940,648c-3.5-0.3-6.8-0.1-10.2,0.6c-2.1,0.4-2.1,2.9-1.1,4.2c9.8,12.6,25.3,21.4,39.4,28.3
				c0.2-1.5,0.4-3,0.6-4.6c-3.8,0.8-7.5,1-11.4,1c-2,0-3,2.1-2.2,3.8c1.1,2.3,2.8,2.8,5,3.9c4,2,6.1,5.3,9.5,8.1
				c3.1,2.5,6.3,4.8,9,7.8c3,3.4,5.3,7.3,7.7,11.1c1.7,2.7,6,0.2,4.3-2.5c-4-6.6-8.1-12.7-14.3-17.5c-3.3-2.5-5.9-5.1-8.7-8.1
				c-1-1-2-1.9-3.3-2.6c-1.5-0.8-4.1-1-4.9-2.7c-0.7,1.3-1.4,2.5-2.2,3.8c4.3,0.1,8.5-0.3,12.7-1.1c2.1-0.4,2.5-3.6,0.6-4.6
				c-13.8-6.7-28.9-15.2-38.4-27.5c-0.4,1.4-0.7,2.8-1.1,4.2c3-0.6,5.8-0.6,8.9-0.4C943.2,653.3,943.2,648.3,940,648L940,648z"/>
		</g>
	</g>
	<g id="XMLID_67_" class="st2">
		<g id="XMLID_14_">
			<path id="XMLID_18_" class="st4" d="M1802.1,672.7c-4.9-0.6-9.7-1.1-14.6-1.4c-3.8-0.2-8.4-1-12.2-0.1c-6.3,1.5-5.7,7.9-1.5,11.5
				c4,3.4,6.5,6.6,9,11.2c2.2,4.1,4.4,8.1,6.8,12c4.7,7.6,10,14.8,15.8,21.6c2.1,2.5,5.6-1.1,3.5-3.5c-9.3-11-16.2-23-23.4-35.4
				c-1.4-2.5-3-4.9-5.1-6.9c-0.7-0.7-2.4-1.6-2.9-2.3c-0.1-1.1-0.3-2.2-0.4-3.3c1,0,2,0,3,0c7.4,0.1,14.7,0.8,22,1.7
				C1805.3,678.1,1805.2,673.1,1802.1,672.7L1802.1,672.7z"/>
		</g>
	</g>
</g>
<g id="NEW">
	<path id="XMLID_51_" class="st12" d="M1917.1,681.1"/>
	<path id="XMLID_50_" class="st13" d="M-2.9,681.1"/>
	<g id="XMLID_48_">
		
			<radialGradient id="SVGID_1_" cx="959.5203" cy="618.4105" r="684.1413" gradientTransform="matrix(-1 0 0 -4 1919.0405 3092.0527)" gradientUnits="userSpaceOnUse">
			<stop  offset="0" style="stop-color:#9C5823"/>
			<stop  offset="1" style="stop-color:#592B03"/>
		</radialGradient>
		<path class="st14" d="M-5.1,693.1c615-192.6,1256.9-205.7,1929.3,0"/>
		<g>
			<path d="M-4.4,695.5c119-37.2,239.9-68.1,362.3-91.8c122.1-23.7,245.6-40.2,369.7-49.3c124.8-9.1,250.1-10.7,375.1-4.7
				c128.9,6.1,257.4,20.3,384.6,41.9c131.1,22.3,260.8,52.4,388.5,89.6c16,4.7,32,9.4,47.9,14.3c3.1,0.9,4.4-3.9,1.3-4.8
				c-128.5-39.2-259-71.6-391.1-95.9c-126.6-23.3-254.6-39.3-383.2-47.4c-125.7-7.9-251.9-8.3-377.6-0.9
				c-123.5,7.2-246.5,21.8-368.3,43.5C281.5,611.9,159.7,641,39.8,676.8c-15.2,4.5-30.4,9.2-45.6,13.9
				C-8.8,691.7-7.5,696.5-4.4,695.5L-4.4,695.5z"/>
		</g>
	</g>
	<g id="XMLID_44_">
		<g id="XMLID_46_">
			
				<linearGradient id="SVGID_2_" gradientUnits="userSpaceOnUse" x1="303.0922" y1="448.0805" x2="303.0922" y2="555.1836" gradientTransform="matrix(0.9561 -0.2929 0.2929 0.9561 -246.8198 225.1666)">
				<stop  offset="4.135833e-007" style="stop-color:#4B2E0F"/>
				<stop  offset="0.8656" style="stop-color:#582E17"/>
				<stop  offset="1" style="stop-color:#683514;stop-opacity:0"/>
			</linearGradient>
			<path class="st15" d="M170.3,678c-10.4-34-20.8-68-31.3-102.1l70.5-22c10.5,34.1,20.9,68.2,31.4,102.4"/>
			<g>
				<path d="M172.7,677.4c-10.4-34-20.8-68-31.3-102.1c-0.6,1-1.2,2.1-1.7,3.1c23.5-7.3,47-14.7,70.5-22c-1-0.6-2.1-1.2-3.1-1.7
					c10.5,34.1,20.9,68.2,31.4,102.4c0.9,3.1,5.8,1.8,4.8-1.3c-10.5-34.1-20.9-68.2-31.4-102.4c-0.4-1.3-1.8-2.2-3.1-1.7
					c-23.5,7.3-47,14.7-70.5,22c-1.3,0.4-2.2,1.7-1.7,3.1c10.4,34,20.8,68,31.3,102.1C168.8,681.8,173.7,680.5,172.7,677.4
					L172.7,677.4z"/>
			</g>
		</g>
		<radialGradient id="XMLID_105_" cx="174.1613" cy="564.5806" r="27.4682" gradientUnits="userSpaceOnUse">
			<stop  offset="0" style="stop-color:#F06AA8"/>
			<stop  offset="1" style="stop-color:#B42C91"/>
		</radialGradient>
		<path id="XMLID_45_" class="st16" d="M210.4,553.5c1.4,4.4-13.8,13-33.8,19.1c-20,6.1-37.4,7.5-38.7,3.1s13.8-13,33.8-19.1
			C191.7,550.4,209.1,549,210.4,553.5z"/>
	</g>
	<g id="XMLID_23_">
		<g id="XMLID_42_">
			
				<linearGradient id="SVGID_3_" gradientUnits="userSpaceOnUse" x1="548.2429" y1="481.0624" x2="548.2429" y2="619.4611" gradientTransform="matrix(0.9866 -0.1629 0.1629 0.9866 -142.901 96.1152)">
				<stop  offset="0" style="stop-color:#734A28"/>
				<stop  offset="0.7602" style="stop-color:#6F3C19"/>
				<stop  offset="1" style="stop-color:#683514;stop-opacity:0"/>
			</linearGradient>
			<path class="st17" d="M453.4,625.5c-7.5-45.4-15-90.7-22.5-136.1l91.1-15.5c7.5,45.5,15,91,22.5,136.5"/>
			<g>
				<path d="M455.8,624.8c-7.5-45.4-15-90.7-22.5-136.1c-0.6,1-1.2,2.1-1.7,3.1c26.5-4.5,53-9,79.5-13.6c3.9-0.7,7.7-1.3,11.6-2
					c-1-0.6-2.1-1.2-3.1-1.7c7.5,45.5,15,91,22.5,136.5c0.5,3.2,5.3,1.8,4.8-1.3c-7.5-45.5-15-91-22.5-136.5c-0.2-1.4-1.9-2-3.1-1.7
					c-26.5,4.5-53,9-79.5,13.6c-3.9,0.7-7.7,1.3-11.6,2c-1.4,0.2-1.9,1.9-1.7,3.1c7.5,45.4,15,90.7,22.5,136.1
					C451.5,629.3,456.3,628,455.8,624.8L455.8,624.8z"/>
			</g>
		</g>
		<radialGradient id="XMLID_106_" cx="476.3513" cy="481.11" r="34.4108" gradientUnits="userSpaceOnUse">
			<stop  offset="0" style="stop-color:#F06AA8"/>
			<stop  offset="1" style="stop-color:#B42C91"/>
		</radialGradient>
		<path id="XMLID_40_" class="st18" d="M523.2,473.4c1,5.9-19.2,14.2-45,18.4c-25.9,4.3-47.6,2.9-48.6-3c-1-5.9,19.2-14.2,45-18.4
			C500.4,466.1,522.2,467.5,523.2,473.4z"/>
	</g>
	<g id="XMLID_17_">
		<g id="XMLID_21_">
			
				<linearGradient id="SVGID_4_" gradientUnits="userSpaceOnUse" x1="846.11" y1="506.1438" x2="846.11" y2="628.5085" gradientTransform="matrix(0.9982 -5.934528e-002 5.934528e-002 0.9982 -55.219 52.0755)">
				<stop  offset="8.271665e-007" style="stop-color:#914F23"/>
				<stop  offset="0.716" style="stop-color:#763E19"/>
				<stop  offset="1" style="stop-color:#683514;stop-opacity:0"/>
			</linearGradient>
			<path class="st19" d="M773.5,632.4c-2.4-40.6-4.8-81.2-7.2-121.7l106.4-6.8c2.4,40.7,4.8,81.4,7.3,122.1"/>
			<g>
				<path d="M776,632.4c-2.4-40.6-4.8-81.2-7.2-121.7c-0.8,0.8-1.7,1.7-2.5,2.5c31-2,62-3.9,93.1-5.9c4.5-0.3,8.9-0.6,13.4-0.8
					c-0.8-0.8-1.7-1.7-2.5-2.5c2.4,40.7,4.8,81.4,7.3,122.1c0.2,3.2,5.2,3.2,5,0c-2.4-40.7-4.8-81.4-7.3-122.1
					c-0.1-1.3-1.1-2.6-2.5-2.5c-31,2-62,3.9-93.1,5.9c-4.5,0.3-8.9,0.6-13.4,0.8c-1.3,0.1-2.6,1.1-2.5,2.5
					c2.4,40.6,4.8,81.2,7.2,121.7C771.2,635.6,776.2,635.6,776,632.4L776,632.4z"/>
			</g>
		</g>
		<radialGradient id="XMLID_109_" cx="819.4208" cy="506.8422" r="39.3212" gradientUnits="userSpaceOnUse">
			<stop  offset="0" style="stop-color:#F06AA8"/>
			<stop  offset="1" style="stop-color:#B42C91"/>
		</radialGradient>
		<path id="XMLID_19_" class="st20" d="M874.1,503.6c0.3,5.3-23.9,11-54.1,12.8s-54.9-1-55.2-6.3c-0.3-5.3,23.9-11,54.1-12.8
			S873.8,498.3,874.1,503.6z"/>
	</g>
	<g id="XMLID_12_">
		<g id="XMLID_16_">
			
				<linearGradient id="SVGID_5_" gradientUnits="userSpaceOnUse" x1="1009.8718" y1="476.945" x2="1009.8718" y2="584.0482" gradientTransform="matrix(0.9942 0.1072 -0.1072 0.9942 104.3088 -107.7173)">
				<stop  offset="0" style="stop-color:#8F5E36"/>
				<stop  offset="0.7602" style="stop-color:#7F3E22"/>
				<stop  offset="1" style="stop-color:#683514;stop-opacity:0"/>
			</linearGradient>
			<path class="st21" d="M1009,577.3c3.8-35.4,7.6-70.7,11.4-106.1l73.5,7.6c-3.8,35.5-7.7,71-11.5,106.5"/>
			<g>
				<path d="M1011.5,577.3c3.8-35.4,7.6-70.7,11.4-106.1c-0.8,0.8-1.7,1.7-2.5,2.5c24.5,2.5,49,5,73.5,7.6c-0.8-0.8-1.7-1.7-2.5-2.5
					c-3.8,35.5-7.7,71-11.5,106.5c-0.3,3.2,4.7,3.2,5,0c3.8-35.5,7.7-71,11.5-106.5c0.2-1.4-1.3-2.4-2.5-2.5
					c-24.5-2.5-49-5-73.5-7.6c-1.4-0.1-2.4,1.3-2.5,2.5c-3.8,35.4-7.6,70.7-11.4,106.1C1006.2,580.5,1011.2,580.5,1011.5,577.3
					L1011.5,577.3z"/>
			</g>
		</g>
		<radialGradient id="XMLID_110_" cx="1057.241" cy="474.5285" r="27.4675" gradientUnits="userSpaceOnUse">
			<stop  offset="0" style="stop-color:#F06AA8"/>
			<stop  offset="1" style="stop-color:#B42C91"/>
		</radialGradient>
		<path id="XMLID_15_" class="st22" d="M1094.9,478.6c-0.5,4.6-17.8,6.5-38.6,4.3s-37.3-7.8-36.8-12.4c0.5-4.6,17.8-6.5,38.6-4.3
			S1095.4,474,1094.9,478.6z"/>
	</g>
	<g id="XMLID_9_">
		<g id="XMLID_11_">
			
				<linearGradient id="SVGID_6_" gradientUnits="userSpaceOnUse" x1="1572.0654" y1="443.4566" x2="1572.0654" y2="550.5597" gradientTransform="matrix(0.9695 0.2451 -0.2451 0.9695 235.5105 -252.9619)">
				<stop  offset="8.271665e-007" style="stop-color:#482C0D"/>
				<stop  offset="0.7602" style="stop-color:#5B2F19"/>
				<stop  offset="1" style="stop-color:#683514;stop-opacity:0"/>
			</linearGradient>
			<path class="st23" d="M1588.9,657.1c8.7-34.5,17.4-69,26.2-103.5l71.7,17.7c-8.7,34.6-17.5,69.2-26.2,103.8"/>
			<g>
				<path d="M1591.3,657.7c8.7-34.5,17.4-69,26.2-103.5c-1,0.6-2.1,1.2-3.1,1.7c23.9,5.9,47.8,11.8,71.7,17.7
					c-0.6-1-1.2-2.1-1.7-3.1c-8.7,34.6-17.5,69.2-26.2,103.8c-0.8,3.1,4,4.5,4.8,1.3c8.7-34.6,17.5-69.2,26.2-103.8
					c0.3-1.3-0.4-2.7-1.7-3.1c-23.9-5.9-47.8-11.8-71.7-17.7c-1.3-0.3-2.7,0.4-3.1,1.7c-8.7,34.5-17.4,69-26.2,103.5
					C1585.7,659.5,1590.5,660.8,1591.3,657.7L1591.3,657.7z"/>
			</g>
		</g>
		<radialGradient id="XMLID_111_" cx="1650.9966" cy="562.0418" r="27.4677" gradientUnits="userSpaceOnUse">
			<stop  offset="0" style="stop-color:#F06AA8"/>
			<stop  offset="1" style="stop-color:#B42C91"/>
		</radialGradient>
		<path id="XMLID_10_" class="st24" d="M1687.8,571.3c-1.1,4.5-18.5,4-38.8-1.2c-20.3-5.1-35.8-12.9-34.7-17.4
			c1.1-4.5,18.5-4,38.8,1.2C1673.4,559,1688.9,566.8,1687.8,571.3z"/>
	</g>
	<g id="XMLID_6_">
		<g id="XMLID_8_">
			
				<linearGradient id="SVGID_7_" gradientUnits="userSpaceOnUse" x1="1280.449" y1="642.5348" x2="1280.449" y2="749.6379" gradientTransform="matrix(1.6894 0.2911 -0.2655 1.5409 -664.5026 -881.7667)">
				<stop  offset="0" style="stop-color:#874927"/>
				<stop  offset="0.699" style="stop-color:#713B1A"/>
				<stop  offset="1" style="stop-color:#683514;stop-opacity:0"/>
			</linearGradient>
			<path class="st25" d="M1237.2,635.4c9.4-54.8,18.9-109.6,28.3-164.5l124.9,20.9c-9.5,55-19,110-28.4,165"/>
			<g>
				<path d="M1239.6,636c9.4-54.8,18.9-109.6,28.3-164.5c-1,0.6-2.1,1.2-3.1,1.7c36.4,6.1,72.8,12.2,109.3,18.3
					c5.2,0.9,10.4,1.7,15.6,2.6c-0.6-1-1.2-2.1-1.7-3.1c-9.5,55-19,110-28.4,165c-0.5,3.1,4.3,4.5,4.8,1.3c9.5-55,19-110,28.4-165
					c0.2-1.2-0.3-2.8-1.7-3.1c-36.4-6.1-72.8-12.2-109.3-18.3c-5.2-0.9-10.4-1.7-15.6-2.6c-1.2-0.2-2.8,0.3-3.1,1.7
					c-9.4,54.8-18.9,109.6-28.3,164.5C1234.3,637.9,1239.1,639.2,1239.6,636L1239.6,636z"/>
			</g>
		</g>
		<radialGradient id="XMLID_112_" cx="1328.0908" cy="480.7167" r="46.9013" gradientUnits="userSpaceOnUse">
			<stop  offset="0" style="stop-color:#F06AA8"/>
			<stop  offset="1" style="stop-color:#B42C91"/>
		</radialGradient>
		<path id="XMLID_7_" class="st26" d="M1392.2,491.8c-1.2,7.1-30.9,8-66.3,1.9s-63.1-16.8-61.8-24c1.2-7.1,30.9-8,66.3-1.9
			C1365.7,473.9,1393.4,484.6,1392.2,491.8z"/>
	</g>
	<g id="XMLID_5_">
		<g>
			<path d="M560.8,568.2c-1.1,4.4-6.5,7.8-8.6,12c-2.8,5.8-7.3,10.3-11.5,15.1c-2.1,2.4,1.4,6,3.5,3.5c4.5-5.2,9.1-10.1,12.3-16.2
				c2.4-4.6,7.8-8.1,9.1-13.2C566.4,566.4,561.6,565.1,560.8,568.2L560.8,568.2z"/>
		</g>
	</g>
	<g id="XMLID_4_">
		<g>
			<path d="M543.3,606c20.2,1.6,40.7,0.6,60.3,6.1c-0.4-1.4-0.7-2.8-1.1-4.2c-8.5,8.7-19.3,14.2-28.5,22.1c-5,4.3-9.3,9.4-13.9,14.2
				c-5,5.2-10.7,9.5-16.5,13.7c-1.6,1.2-1.7,4,0.6,4.6c4.1,0.9,8.2,1.8,12.4,1.8c5.4-0.1,10.5-1,15.9-0.2
				c10.3,1.5,20.3,3.6,30.6,4.4c10.2,0.7,20.8-0.6,30.9,1.2c8.6,1.5,15.5,8.2,24.5,8.2c3.2,0,3.2-5,0-5c-4.8,0-8.7-2.5-12.9-4.5
				c-3.9-1.9-7.8-3.2-12-3.8c-9.4-1.4-19.1-0.4-28.6-1c-10.7-0.7-21-2.8-31.6-4.4c-4.5-0.7-8.8-0.4-13.3-0.1
				c-5.1,0.4-9.7-0.2-14.6-1.4c0.2,1.5,0.4,3,0.6,4.6c5.4-3.9,10.8-7.9,15.6-12.6c5-4.9,9.4-10.4,14.6-15
				c9.4-8.4,20.9-14.1,29.7-23.1c1.3-1.3,0.7-3.7-1.1-4.2c-20.1-5.7-41.1-4.7-61.7-6.3C540,600.7,540.1,605.7,543.3,606L543.3,606z"
				/>
		</g>
	</g>
	<g id="XMLID_13_">
		<g>
			<path d="M956.7,543.6c-4.7,1.7-11,2.8-15.2,5.5c-0.4,0.3-0.8,0.9-0.6,1.4c1.1,2.8,5,3.8,7.5,4.9c5,2.1,10.2,4.1,15.3,6.1
				c-0.2-0.7-0.4-1.4-0.6-2.1c-2.5,2.3-8.7,2.1-11.7,2.5c-3.5,0.5-7,0.9-10.5,1.5c-7.7,1.2-15.3,2.8-22.8,4.6
				c-1.6,0.4-0.9,2.8,0.7,2.4c8.5-2,17-3.8,25.6-5.1c4.3-0.7,8.6-1.1,12.9-1.8c2.6-0.4,5.6-0.6,7.6-2.5c0.8-0.7,0.3-1.8-0.6-2.1
				c-5.7-2.3-11.6-4.3-17.2-6.9c-0.3-0.1-2.9-1.2-2.9-1.5c0-0.2,2.7-1,3-1.1c3.3-1.2,6.7-2.4,10-3.6
				C958.9,545.5,958.2,543.1,956.7,543.6L956.7,543.6z"/>
		</g>
	</g>
	<g id="XMLID_22_">
		<g>
			<path d="M671.1,556c-2.2,0.7-3.7,2-5.5,3.4c-3.1,2.5-6.2,4.5-9.9,5.9c-0.7,0.3-1.2,1.1-0.7,1.8c1.9,3.2,5.8,4.9,9.3,5.7
				c4.4,1.1,9,2.3,13.5,2.8c1.6,0.2,1.6-2.3,0-2.5c-3.4-0.4-6.7-1.6-10.1-2.2c-3.7-0.6-8.5-1.6-10.5-5.1c-0.2,0.6-0.5,1.2-0.7,1.8
				c2.7-1,5.3-2.2,7.6-3.9c2.6-1.8,4.7-4.4,7.7-5.4C673.3,557.9,672.7,555.5,671.1,556L671.1,556z"/>
		</g>
	</g>
	<g id="XMLID_26_">
		<g>
			<path d="M1585.4,608c3.8,4,7.2,8.3,10.3,12.9c0.9,1.3,3.1,0.1,2.2-1.3c-3.2-4.8-6.7-9.2-10.7-13.4
				C1586,605,1584.2,606.8,1585.4,608L1585.4,608z"/>
		</g>
	</g>
	<g id="XMLID_3_">
		<g>
			<path d="M1596.7,624.6c-8.3,2.5-16.9,3.2-25.5,4.3c-3.2,0.4-6.5,0.9-9.7,1.4c-1.3,0.2-4.3,0-5.1,1.5c-0.9,1.7,0.3,2.8,1.2,4.2
				c1.7,2.7,3.7,5.3,5.6,7.9c4.2,5.6,9.3,10.5,14.3,15.4c1.2,1.1,2.9-0.6,1.8-1.8c-4.2-4-8.4-8.1-12.1-12.6c-2-2.4-3.8-5-5.5-7.5
				c-0.7-1-2-2.3-2.4-3.4c-0.4-1.3-2.4-0.5,1-1.1c12.3-2.2,25-2.3,37-5.9C1598.9,626.5,1598.3,624.1,1596.7,624.6L1596.7,624.6z"/>
		</g>
	</g>
	<g id="XMLID_34_">
		<g>
			<path d="M1453,582.2c-8.6-1.3-17.7,1.6-26.4,2.1c-9.7,0.6-19.5,0.7-29.2,0.6c-1.9,0-2.5,2.5-0.9,3.5c5.6,3.4,11.2,6.7,16.5,10.6
				c5.2,3.8,9.7,8.4,15.1,11.9c5,3.3,10.8,5.1,16.4,7.1c6.7,2.3,13.4,4.6,20.2,6.9c0-1.2,0-2.4,0-3.6c-16.8,2.8-33.4,7.5-50.6,7.1
				c-3.7-0.1-7.3-0.3-11,0c-3.9,0.4-7.7,1.6-11.6,2.2c-4.2,0.7-8.3,0.6-12.5,0.7c-3.8,0.1-7.3,2.2-11,2c-2.4-0.1-2.4,3.6,0,3.8
				c3.8,0.2,7.2-1.9,11-2c3.9-0.2,7.7,0,11.7-0.5c4.2-0.6,8.2-2,12.4-2.4c4.2-0.4,8.5,0,12.8,0c16.9,0.1,33.3-4.5,49.8-7.3
				c2-0.3,1.6-3.1,0-3.6c-6.4-2.2-12.9-4.4-19.3-6.6c-6.2-2.1-12.4-4-17.8-7.9c-4.8-3.4-9-7.5-13.8-11c-5.3-3.8-10.9-7.2-16.5-10.6
				c-0.3,1.2-0.6,2.3-0.9,3.5c9.1,0.1,18.2-0.1,27.3-0.5c4.3-0.2,8.6-0.5,12.8-1c4.8-0.6,9.6-2,14.5-1.3
				C1454.4,586.1,1455.4,582.5,1453,582.2L1453,582.2z"/>
		</g>
	</g>
	<g id="XMLID_39_">
		<g>
			<path d="M1124.1,618.6c-9,0-17.6-2.3-26.7-0.9c-10.3,1.6-20.1,2.9-30.6,3.1c-1.1,0-1.8,0.8-1.9,1.9c-0.7,6.8,8.8,11,13.6,13.7
				c8.2,4.6,16.9,8.4,25.4,12.5c16.8,8.1,35.7,15.1,49.4,28.3c0.3-1,0.6-2.1,0.8-3.1c-9.6,3.3-18.8,7.5-28.4,10.6
				c-10.7,3.4-21.9,4.8-33,6.1c-18.9,2.1-38.2,4.1-54.9,13.9c-2.1,1.2-0.2,4.5,1.9,3.2c17.8-10.5,38.6-11.7,58.7-14.1
				c9.6-1.1,19.1-2.6,28.3-5.6c9.6-3.1,18.9-7.4,28.4-10.6c1.3-0.4,1.9-2.1,0.8-3.1c-11.7-11.2-26.8-17.6-41.2-24.5
				c-8.3-4-16.5-7.9-24.8-11.9c-3.8-1.8-7.5-3.7-11.1-5.8c-3.2-1.8-10.7-5-10.2-9.6c-0.6,0.6-1.3,1.3-1.9,1.9
				c9.4-0.2,18.6-0.9,27.9-2.6c5.1-0.9,9.9-1.4,15-0.9c4.8,0.5,9.5,1.3,14.3,1.3C1126.6,622.4,1126.6,618.6,1124.1,618.6
				L1124.1,618.6z"/>
		</g>
	</g>
</g>
</svg>
