<?xml version="1.0" encoding="utf-8"?>
<!-- Generator: Adobe Illustrator 19.0.0, SVG Export Plug-In . SVG Version: 6.00 Build 0)  -->
<svg version="1.1" id="Layer_1" xmlns="http://www.w3.org/2000/svg" xmlns:xlink="http://www.w3.org/1999/xlink" x="0px" y="0px"
	 viewBox="539 148.3 1920 300" style="enable-background:new 539 148.3 1920 300;" xml:space="preserve">
<style type="text/css">
	.st0{fill:url(#XMLID_36_);}
	.st1{fill:none;stroke:#3B2314;stroke-width:3;stroke-miterlimit:10;}
	.st2{fill:url(#XMLID_38_);stroke:#3B2314;stroke-width:6;stroke-miterlimit:10;}
	.st3{fill:url(#XMLID_42_);}
	.st4{fill:#231F20;}
	.st5{fill:url(#XMLID_43_);}
	.st6{fill:url(#XMLID_44_);}
	.st7{fill:url(#XMLID_45_);}
	.st8{fill:url(#XMLID_46_);}
	.st9{fill:url(#XMLID_49_);}
	.st10{fill:url(#XMLID_51_);}
	.st11{fill:url(#XMLID_52_);}
	.st12{fill:url(#XMLID_54_);}
	.st13{fill:url(#XMLID_56_);}
	.st14{fill:url(#XMLID_57_);}
	.st15{fill:url(#XMLID_58_);}
	.st16{fill:url(#XMLID_59_);}
	.st17{fill:url(#XMLID_60_);}
	.st18{fill:url(#XMLID_61_);}
	.st19{fill:url(#XMLID_62_);}
	.st20{fill:url(#XMLID_63_);stroke:#3B2314;stroke-width:2;stroke-miterlimit:10;}
	.st21{fill:url(#XMLID_64_);stroke:#3B2314;stroke-width:3;stroke-miterlimit:10;}
	.st22{fill:url(#XMLID_65_);stroke:#3B2314;stroke-width:2;stroke-miterlimit:10;}
	.st23{fill:url(#XMLID_66_);stroke:#3B2314;stroke-width:4;stroke-miterlimit:10;}
	.st24{fill:url(#XMLID_67_);stroke:#3B2314;stroke-width:4;stroke-miterlimit:10;}
	.st25{fill:url(#XMLID_68_);stroke:#3B2314;stroke-width:2;stroke-miterlimit:10;}
	.st26{fill:url(#XMLID_69_);stroke:#3B2314;stroke-width:2;stroke-miterlimit:10;}
	.st27{fill:url(#XMLID_70_);stroke:#3B2314;stroke-width:2;stroke-miterlimit:10;}
	.st28{fill:#603813;stroke:#3B2314;stroke-width:2;stroke-miterlimit:10;}
	.st29{fill:#3B2314;stroke:#3B2314;stroke-width:2;stroke-miterlimit:10;}
	.st30{fill:#BBBDBF;}
	.st31{fill:#A6A8AB;}
	.st32{fill:#929497;}
	.st33{fill:#404041;}
	.st34{fill:#D0D2D3;}
	.st35{fill:#FFF100;}
	.st36{fill:#58595B;}
	.st37{fill:url(#SVGID_1_);}
	.st38{fill:#009345;}
	.st39{fill:#006838;}
	.st40{fill:#808184;}
	.st41{clip-path:url(#SVGID_3_);}
	.st42{fill:#F1F1F2;}
</style>
<g id="XMLID_277_">
	<g id="XMLID_280_">
		
			<linearGradient id="XMLID_36_" gradientUnits="userSpaceOnUse" x1="499.4234" y1="190.0733" x2="2471.3235" y2="190.0733" gradientTransform="matrix(1 0 0 -1 0 597.84)">
			<stop  offset="1.654333e-006" style="stop-color:#AD502C"/>
			<stop  offset="1" style="stop-color:#6E3C25"/>
		</linearGradient>
		<path id="XMLID_281_" class="st0" d="M2453.6,333.8l17.7,147.9c-97.2,0-1842.6,0-1965.1,0c-4.4,0-6.8,0-6.8,0V333.8
			C1150.9,333.8,1802.2,333.8,2453.6,333.8z"/>
	</g>
	<g id="XMLID_278_">
		<path id="XMLID_279_" class="st1" d="M506.3,481.7c-4.4,0-6.8,0-6.8,0V333.8c651.4,0,1302.7,0,1954.1,0l17.7,147.9
			C2374.1,481.7,628.7,481.7,506.3,481.7z"/>
	</g>
</g>
<radialGradient id="XMLID_38_" cx="1225.2494" cy="-73.0298" r="152.19" gradientTransform="matrix(1 0 0 -0.5681 0 403.8585)" gradientUnits="userSpaceOnUse">
	<stop  offset="8.271665e-007" style="stop-color:#441000"/>
	<stop  offset="5.189622e-002" style="stop-color:#461404"/>
	<stop  offset="0.3551" style="stop-color:#4E2715"/>
	<stop  offset="0.6673" style="stop-color:#53321F"/>
	<stop  offset="1" style="stop-color:#553622"/>
</radialGradient>
<ellipse id="XMLID_276_" class="st2" cx="1224.9" cy="420.2" rx="107.2" ry="15"/>
<g id="XMLID_272_">
	
		<linearGradient id="XMLID_42_" gradientUnits="userSpaceOnUse" x1="1386.2235" y1="217.5733" x2="1432.4236" y2="217.5733" gradientTransform="matrix(1 0 0 -1 0 597.84)">
		<stop  offset="0" style="stop-color:#888A8C"/>
		<stop  offset="1" style="stop-color:#231F20"/>
	</linearGradient>
	<path id="XMLID_275_" class="st3" d="M1432.2,390.5c0-2-0.9-3.8-1.8-5.6c-2.3-4.2-4.8-8.2-7.5-12.1c-0.6-0.8-1.2-1.7-2.1-2.2
		c-1.2-0.8-2.7-0.8-4.2-0.8c-3.9-0.1-7.8-0.1-11.8-0.2c-0.8,0-1.6,0-2.3,0.2c-1,0.3-1.9,1.2-2.6,2c-5.2,5.9-8,13.6-13.7,19.1
		c18.5,0,46.2,0,46.2,0"/>
	<g id="XMLID_273_">
		<path id="XMLID_274_" class="st4" d="M1433.4,390.5c-0.6-6.1-5.1-11.9-8.5-16.8c-1.3-1.8-2.4-3.7-4.5-4.5
			c-2.9-1.2-6.7-0.7-9.7-0.7c-5.8-0.1-9.1-0.8-12.9,3.9c-4.5,5.7-7.4,12.4-12.5,17.6c-0.8,0.8-0.2,2.1,0.9,2.1c15.4,0,30.8,0,46.2,0
			c1.6,0,1.6-2.5,0-2.5c-15.4,0-30.8,0-46.2,0c0.3,0.7,0.6,1.4,0.9,2.1c2.9-2.9,5.1-6.2,7.2-9.6c2.9-4.7,5.4-10.8,11.5-11.3
			c2.6-0.2,5.3,0.1,7.8,0.1c1.6,0,4-0.2,5.5,0.3c1.5,0.6,2.7,2.4,3.7,3.7c3.1,4.1,7.6,10.3,8.1,15.5
			C1431.1,392.1,1433.6,392.1,1433.4,390.5L1433.4,390.5z"/>
	</g>
</g>
<g id="XMLID_268_">
	
		<linearGradient id="XMLID_43_" gradientUnits="userSpaceOnUse" x1="1371.1234" y1="213.3233" x2="1393.2235" y2="213.3233" gradientTransform="matrix(1 0 0 -1 0 597.84)">
		<stop  offset="0" style="stop-color:#888A8C"/>
		<stop  offset="1" style="stop-color:#231F20"/>
	</linearGradient>
	<path id="XMLID_271_" class="st5" d="M1393.2,379.2c-4.8,0.2-9.5,0.7-14.2,1.6c-0.5,0.1-1,0.2-1.5,0.5c-0.6,0.4-1.1,1-1.5,1.6
		c-1.6,2.3-3.3,4.6-4.9,6.9c0.2,0,16.2,0,16.2,0"/>
	<g id="XMLID_269_">
		<path id="XMLID_270_" class="st4" d="M1393.2,378c-4.7,0.2-10.8,0.1-15.3,1.9c-3.6,1.4-5.8,6.3-7.9,9.3c-0.6,0.8,0.2,1.9,1.1,1.9
			c5.4,0,10.8,0,16.2,0c1.6,0,1.6-2.5,0-2.5c-5.4,0-10.8,0-16.2,0c0.4,0.6,0.7,1.3,1.1,1.9c2.5-3.6,4.3-7.5,8.7-8.7
			c3.9-1,8.3-1.1,12.3-1.3C1394.8,380.4,1394.8,377.9,1393.2,378L1393.2,378z"/>
	</g>
</g>
<g id="XMLID_264_">
	
		<linearGradient id="XMLID_44_" gradientUnits="userSpaceOnUse" x1="1403.7235" y1="222.2526" x2="1427.5769" y2="222.2526" gradientTransform="matrix(1 0 0 -1 0 597.84)">
		<stop  offset="0" style="stop-color:#888A8C"/>
		<stop  offset="1" style="stop-color:#231F20"/>
	</linearGradient>
	<path id="XMLID_267_" class="st6" d="M1403.7,371.1c2.5,2.7,5.2,5.4,8,7.9c0.3,0.3,0.6,0.5,1,0.7c0.5,0.2,1,0.2,1.5,0.2
		c4.4,0.1,8.9,0.2,13.3,0.1"/>
	<g id="XMLID_265_">
		<path id="XMLID_266_" class="st4" d="M1402.8,372c2.5,2.7,5.9,7.4,9.4,8.8c1.7,0.7,4,0.4,5.8,0.4c3.2,0.1,6.3,0,9.5,0
			c1.6,0,1.6-2.5,0-2.5c-4.5,0.1-9.5,0.6-13.8-0.9c-3.8-1.4-6.5-4.7-9.2-7.6C1403.5,369.1,1401.7,370.8,1402.8,372L1402.8,372z"/>
	</g>
</g>
<g id="XMLID_260_">
	
		<linearGradient id="XMLID_45_" gradientUnits="userSpaceOnUse" x1="1403.5115" y1="214.7233" x2="1411.8932" y2="214.7233" gradientTransform="matrix(1 0 0 -1 0 597.84)">
		<stop  offset="0" style="stop-color:#888A8C"/>
		<stop  offset="1" style="stop-color:#231F20"/>
	</linearGradient>
	<path id="XMLID_263_" class="st7" d="M1411.9,378.9c-2.1,1.1-4.3,2.3-5.5,4.3c-0.9,1.4-1.4,3.3-2.8,4.1"/>
	<g id="XMLID_261_">
		<path id="XMLID_262_" class="st4" d="M1411.2,377.8c-1.8,1-3.6,2-5,3.5c-1.3,1.4-1.8,3.8-3.4,4.9c-1.3,0.9-0.1,3.1,1.3,2.2
			c1.6-1.1,2.2-2.8,3.2-4.4c1.2-1.9,3.3-3,5.2-4C1413.9,379.2,1412.7,377,1411.2,377.8L1411.2,377.8z"/>
	</g>
</g>
<g id="XMLID_256_">
	
		<linearGradient id="XMLID_46_" gradientUnits="userSpaceOnUse" x1="875.137" y1="153.4865" x2="938.437" y2="153.4865" gradientTransform="matrix(1 0 0 -1 0 597.84)">
		<stop  offset="0" style="stop-color:#636466"/>
		<stop  offset="1" style="stop-color:#231F20"/>
	</linearGradient>
	<path id="XMLID_259_" class="st8" d="M875.1,455.4c5.5-5.9,10.6-12.2,15.2-18.7c0.5-0.7,1-1.5,1.8-1.9c0.7-0.4,1.5-0.6,2.3-0.7
		c5.7-0.9,11.6-0.4,17.4-0.8c0.4,0,0.7-0.1,1.1,0.1c0.3,0.1,0.6,0.4,0.9,0.7c5,5,10,10.1,15,15.1c1.7,1.7,3.5,3.5,5.7,4.5
		c0,0,1.9,0.9,3.9,1.8c-1.5,0-3,0-3,0h-59.7"/>
	<g id="XMLID_257_">
		<path id="XMLID_258_" class="st4" d="M875.9,456.2c4.3-4.7,8.3-9.5,12.1-14.5c0.9-1.2,2.2-3.5,3.3-4.5c2.1-1.7,5.2-2.3,7.9-2.5
			c3.4-0.2,7.2-0.5,10.6-0.2c2.3,0.2,3.2,0.6,5.1,2.3c1.2,1.1,2.3,2.3,3.4,3.4c2.7,2.7,5.5,5.5,8.2,8.2c3.5,3.5,6.7,5.8,11.2,7.9
			c0.2-0.8,0.4-1.6,0.6-2.3c-20.9,0-41.8,0-62.7,0c-1.6,0-1.6,2.5,0,2.5c20.9,0,41.8,0,62.7,0c1.2,0,1.8-1.8,0.6-2.3
			c-6.6-3.1-11-7.9-16.1-13c-2.6-2.6-5.3-6.3-8.4-8.4c-2.2-1.5-4.8-0.8-7.4-0.7c-5.1,0.1-12.8-1.1-16.8,2.7c-2.8,2.6-5,6.8-7.5,9.8
			c-2.7,3.4-5.6,6.6-8.5,9.9C873.1,455.7,874.9,457.4,875.9,456.2L875.9,456.2z"/>
	</g>
</g>
<g id="XMLID_252_">
	
		<linearGradient id="XMLID_49_" gradientUnits="userSpaceOnUse" x1="1694.6041" y1="142.2988" x2="1732.7166" y2="142.2988" gradientTransform="matrix(1 0 0 -1 0 597.84)">
		<stop  offset="0" style="stop-color:#696A6D"/>
		<stop  offset="1" style="stop-color:#231F20"/>
	</linearGradient>
	<path id="XMLID_255_" class="st9" d="M1712,445.6c-0.6,6.7-1.6,13.4-3,20c-0.1,0.5-0.2,1-0.6,1.2c-0.3,0.2-0.7,0.1-1,0.1
		c-3.5-0.4-6.9-1-10.3-1.8c-0.6-0.2-1.3-0.3-1.8-0.8c-0.7-0.7-0.8-1.9-0.5-2.8c0.3-1,0.8-1.8,1.2-2.7c1.5-3.4,0.7-7.4,1.4-11.1
		c0.3-1.4,0.9-2.9,2.3-3.3c0.5-0.2,1.1-0.2,1.6-0.1c7.9,0.2,15.9,0.9,23.7,1.9c0.1,0,0.2,0,0.3,0.1c0.2,0.1,0.2,0.4,0.2,0.6
		c-0.1,4.5-0.1,9.4,2.7,13c1.7,2.2,4.3,3.9,4.5,7c-0.9,0-24.9,0-24.9,0"/>
	<g id="XMLID_253_">
		<path id="XMLID_254_" class="st4" d="M1710.8,445.6c-0.5,4.8-1.1,9.5-1.9,14.2c-0.2,1.3-0.3,4.7-1.2,5.6c-0.7,0.7-5.6-0.6-6.8-0.8
			c-1.6-0.3-4.6-0.5-4.9-2.8c-0.1-0.8,1.9-4.7,2.1-5.8c0.7-4.1-1.1-9.5,4.3-10.6c3.9-0.7,8.9,0.4,12.9,0.8c1.7,0.1,6.6-0.2,7.9,0.8
			c1.6,1.2,1.1,2.4,1.3,4.3c0.2,2.7,0.6,5.5,2,7.8c1.6,2.8,4.6,4.6,5.2,7.9c0.4-0.5,0.8-1.1,1.2-1.6c-8.3,0-16.6,0-24.9,0
			c-1.6,0-1.6,2.5,0,2.5c8.3,0,16.6,0,24.9,0c0.9,0,1.3-0.8,1.2-1.6c-0.3-1.9-1.2-3.3-2.4-4.8c-2.4-2.9-4-5.1-4.5-9
			c-0.4-3,1-6.5-1.9-7.9c-3-1.4-8.6-1-11.8-1.2c-3.6-0.3-7.3-0.6-10.9-0.6c-4.3,0-5.8,1.7-6.3,5.9c-0.4,3.2-0.1,6.1-1.2,9.3
			c-0.5,1.5-1.6,3-1.4,4.6c0.5,4.4,7,4.3,10.2,4.8c2.9,0.5,5.5,1.4,6.7-1.7c2.3-5.9,2.4-14,3-20.3
			C1713.4,444,1710.9,444,1710.8,445.6L1710.8,445.6z"/>
	</g>
</g>
<g id="XMLID_248_">
	
		<linearGradient id="XMLID_51_" gradientUnits="userSpaceOnUse" x1="1705.1274" y1="160.5472" x2="1719.6781" y2="160.5472" gradientTransform="matrix(1 0 0 -1 0 597.84)">
		<stop  offset="0" style="stop-color:#696A6D"/>
		<stop  offset="1" style="stop-color:#231F20"/>
	</linearGradient>
	<path id="XMLID_251_" class="st10" d="M1719.6,444.7c-0.6-4.1-1.6-8.2-2.9-12.1c-0.2-0.7-0.5-1.4-1-1.8s-1.1-0.5-1.8-0.5
		c-2.9-0.3-5.9-0.4-8.8-0.3c-0.3,2.5,0.8,4.9,1.6,7.3c0.6,2,1,4,1.2,6"/>
	<g id="XMLID_249_">
		<path id="XMLID_250_" class="st4" d="M1720.8,444.4c-0.4-2.6-1-5.2-1.6-7.8c-0.5-1.9-0.8-4.5-2-6.1c-1-1.2-2.3-1.4-3.7-1.6
			c-2.7-0.3-5.5-0.3-8.3-0.2c-0.7,0-1.2,0.6-1.3,1.3c-0.2,4.6,2.3,8.9,2.8,13.4c0.2,1.6,2.7,1.6,2.5,0c-0.2-2-0.6-4-1.1-5.9
			c-0.8-2.5-1.8-4.8-1.7-7.5c-0.4,0.4-0.8,0.8-1.3,1.3c1.7-0.1,3.3-0.1,5,0c0.8,0,2-0.1,2.8,0.2c1.8,0.6,2.7,1.4,3.2,3.1
			c1,3.4,1.8,7,2.4,10.5C1718.7,446.6,1721.1,446,1720.8,444.4L1720.8,444.4z"/>
	</g>
</g>
<g id="XMLID_244_">
	
		<linearGradient id="XMLID_52_" gradientUnits="userSpaceOnUse" x1="1658.8185" y1="157.9083" x2="1710.5366" y2="157.9083" gradientTransform="matrix(1 0 0 -1 0 597.84)">
		<stop  offset="0" style="stop-color:#696A6D"/>
		<stop  offset="1" style="stop-color:#231F20"/>
	</linearGradient>
	<path id="XMLID_247_" class="st11" d="M1710.5,429.9c-0.5-2.6-1.3-5.3-2.1-7.8c-0.2-0.6-0.4-1.2-0.9-1.6c-0.5-0.3-1.1-0.4-1.7-0.4
		c-6.5-0.3-12.9-0.3-19.4-0.2c-0.6,0-1.1,0-1.6,0.3c-0.5,0.4-0.8,1-1,1.7c-0.6,1.6-1.3,3.1-2.1,4.6c-3,6.1-6.1,12.1-9.3,18.1
		c-1.4,2.7-2.9,5.3-4.8,7.6c-1.4,1.6-2.9,2.9-4.5,4.3c-1.4,1.2-2.8,2.4-4.2,3.6h35.2"/>
	<g id="XMLID_245_">
		<path id="XMLID_246_" class="st4" d="M1711.7,429.6c-0.9-4.2-1.1-9.9-6-10.7c-4.3-0.7-9.2-0.3-13.6-0.2c-2.2,0-6.3-0.7-8.3,0.8
			c-2.2,1.7-3,5.9-4.1,8.2c-1.9,3.9-3.9,7.7-5.9,11.6c-2.2,4.2-4.2,8.7-7.2,12.3c-2.5,3-5.8,5.4-8.7,7.9c-0.8,0.7-0.1,2.1,0.9,2.1
			c11.7,0,23.5,0,35.2,0c1.6,0,1.6-2.5,0-2.5c-11.7,0-23.5,0-35.2,0c0.3,0.7,0.6,1.4,0.9,2.1c4.5-3.9,8.9-7.4,12-12.6
			c3.3-5.5,6.1-11.4,9-17.1c1.2-2.3,2.1-5.3,3.6-7.4c2.8-3.9,7.7-2.9,11.8-2.9c2.4,0,7.6-0.8,9.7,0.2c2.7,1.3,3,6.2,3.6,8.9
			C1709.6,431.9,1712,431.2,1711.7,429.6L1711.7,429.6z"/>
	</g>
</g>
<g id="XMLID_240_">
	
		<linearGradient id="XMLID_54_" gradientUnits="userSpaceOnUse" x1="1060.0313" y1="264.0342" x2="1097.8804" y2="264.0342" gradientTransform="matrix(1 0 0 -1 0 597.84)">
		<stop  offset="0" style="stop-color:#616264"/>
		<stop  offset="1" style="stop-color:#231F20"/>
	</linearGradient>
	<path id="XMLID_243_" class="st12" d="M1060.2,341.6c0-1.5,0.7-2.9,1.5-4.2c1.9-3.1,3.9-6.2,6.1-9.1c0.5-0.6,1-1.3,1.7-1.7
		c1-0.6,2.2-0.6,3.4-0.6c3.2-0.1,6.4-0.1,9.6-0.2c0.6,0,1.3,0,1.9,0.2c0.9,0.3,1.5,0.9,2.1,1.5c4.2,4.5,6.6,10.2,11.2,14.4
		c-15.1,0-37.8,0-37.8,0"/>
	<g id="XMLID_241_">
		<path id="XMLID_242_" class="st4" d="M1061.4,341.9c0.6-4.1,3.9-8.2,6.4-11.5c2.9-3.9,8.2-3.7,12.9-3.3c5.7,0.5,7.3,3.9,10.3,8.3
			c1.8,2.6,3.7,5.1,6,7.3c0.3-0.7,0.6-1.4,0.9-2.1c-12.6,0-25.2,0-37.8,0c-1.6,0-1.6,2.5,0,2.5c12.6,0,25.2,0,37.8,0
			c1.1,0,1.7-1.4,0.9-2.1c-4.1-3.9-6.5-9-10.2-13.2c-3.3-3.7-6-3.2-10.8-3.1c-4.1,0.1-7.9-0.6-10.8,2.8c-3.2,3.6-7.3,8.9-8,13.8
			C1058.8,342.8,1061.2,343.5,1061.4,341.9L1061.4,341.9z"/>
	</g>
</g>
<g id="XMLID_236_">
	
		<linearGradient id="XMLID_56_" gradientUnits="userSpaceOnUse" x1="1092.173" y1="260.8341" x2="1110.2777" y2="260.8341" gradientTransform="matrix(1 0 0 -1 0 597.84)">
		<stop  offset="0" style="stop-color:#616264"/>
		<stop  offset="1" style="stop-color:#231F20"/>
	</linearGradient>
	<path id="XMLID_239_" class="st13" d="M1092.2,333.1c3.9,0.1,7.8,0.5,11.6,1.2c0.4,0.1,0.8,0.2,1.2,0.3c0.5,0.3,0.9,0.7,1.2,1.2
		c1.3,1.7,2.7,3.5,4,5.2c-0.2,0-13.3,0-13.3,0"/>
	<g id="XMLID_237_">
		<path id="XMLID_238_" class="st4" d="M1092.2,334.4c3.1,0.1,6.3,0.4,9.4,0.8c3.7,0.6,5.5,3.7,7.6,6.5c0.4-0.6,0.7-1.3,1.1-1.9
			c-4.4,0-8.9,0-13.3,0c-1.6,0-1.6,2.5,0,2.5c4.4,0,8.9,0,13.3,0c0.9,0,1.7-1.1,1.1-1.9c-1.8-2.4-3.7-6.1-6.6-7.1
			c-3.7-1.3-8.6-1.3-12.6-1.4C1090.6,331.8,1090.6,334.3,1092.2,334.4L1092.2,334.4z"/>
	</g>
</g>
<g id="XMLID_232_">
	
		<linearGradient id="XMLID_57_" gradientUnits="userSpaceOnUse" x1="1063.9933" y1="267.5341" x2="1083.5498" y2="267.5341" gradientTransform="matrix(1 0 0 -1 0 597.84)">
		<stop  offset="0" style="stop-color:#616264"/>
		<stop  offset="1" style="stop-color:#231F20"/>
	</linearGradient>
	<path id="XMLID_235_" class="st14" d="M1083.6,327c-2.1,2.1-4.3,4-6.6,5.9c-0.3,0.2-0.5,0.4-0.8,0.5c-0.4,0.2-0.8,0.2-1.2,0.2
		c-3.6,0.1-7.3,0.1-10.9,0.1"/>
	<g id="XMLID_233_">
		<path id="XMLID_234_" class="st4" d="M1082.7,326.1c-2.7,2.7-5.3,5.7-9.3,6.3c-3,0.5-6.4,0.1-9.4,0c-1.6,0-1.6,2.5,0,2.5
			c2.3,0,4.7,0,7,0c1.7,0,3.9,0.3,5.5-0.3c3-1.1,5.7-4.6,7.9-6.8C1085.6,326.8,1083.8,325,1082.7,326.1L1082.7,326.1z"/>
	</g>
</g>
<g id="XMLID_228_">
	
		<linearGradient id="XMLID_58_" gradientUnits="userSpaceOnUse" x1="1076.8433" y1="261.8342" x2="1083.7151" y2="261.8342" gradientTransform="matrix(1 0 0 -1 0 597.84)">
		<stop  offset="0" style="stop-color:#616264"/>
		<stop  offset="1" style="stop-color:#231F20"/>
	</linearGradient>
	<path id="XMLID_231_" class="st15" d="M1076.9,332.9c1.7,0.8,3.5,1.7,4.5,3.2c0.8,1.1,1.1,2.5,2.3,3.1"/>
	<g id="XMLID_229_">
		<path id="XMLID_230_" class="st4" d="M1076.2,333.9c1.6,0.8,3.3,1.6,4.3,3.1c0.8,1.2,1.3,2.4,2.6,3.3c1.4,0.9,2.6-1.3,1.3-2.2
			c-1.2-0.8-1.6-2.5-2.6-3.6c-1.2-1.2-2.7-2-4.3-2.8C1076.1,331.1,1074.8,333.2,1076.2,333.9L1076.2,333.9z"/>
	</g>
</g>
<g id="XMLID_224_">
	
		<linearGradient id="XMLID_59_" gradientUnits="userSpaceOnUse" x1="1696.241" y1="147.7545" x2="1753.1558" y2="147.7545" gradientTransform="matrix(1 0 0 -1 0 597.84)">
		<stop  offset="0" style="stop-color:#B3B5B8"/>
		<stop  offset="1" style="stop-color:#231F20"/>
	</linearGradient>
	<path id="XMLID_227_" class="st16" d="M1727.1,432.9c1,11.6,2.4,23.1,4.4,34.5c0.1,0.8,0.3,1.7,0.9,2.1c0.5,0.3,1,0.2,1.5,0.2
		c5.2-0.7,10.4-1.8,15.5-3.1c1-0.3,2-0.6,2.7-1.3c1.1-1.2,1.2-3.2,0.8-4.9s-1.3-3.2-1.9-4.7c-2.3-5.9-1-12.8-2.1-19.2
		c-0.4-2.4-1.4-5-3.4-5.7c-0.8-0.3-1.6-0.3-2.5-0.3c-11.9,0.4-23.7,1.5-35.4,3.2c-0.2,0-0.4,0.1-0.5,0.2c-0.2,0.2-0.3,0.6-0.2,1
		c0.2,7.8,0.1,16.3-4,22.5c-2.5,3.9-6.5,6.8-6.7,12c1.3,0,37.1,0,37.1,0"/>
	<g id="XMLID_225_">
		<path id="XMLID_226_" class="st4" d="M1725.8,432.9c0.8,9.8,2,19.5,3.5,29.1c0.4,2.3,0.2,7.1,2.5,8.5c2,1.2,5.7-0.2,7.7-0.5
			c5.2-0.9,15.1-1.2,14.9-8.4c-0.2-4.4-3-8.3-3.4-12.8c-0.3-4-0.1-7.9-0.7-11.9c-0.4-2.3-1-5.2-3-6.7c-2.7-2-7-1-10.1-0.8
			c-5.3,0.3-10.5,0.7-15.8,1.2c-2.6,0.3-5.2,0.6-7.9,0.9c-1.5,0.2-5,0.1-6.2,0.9c-1.7,1.1-1.5,1.7-1.6,4c-0.2,4.6,0.1,9.2-1.1,13.7
			c-1.8,7.3-8.7,11.7-9.6,19.2c-0.1,0.7,0.6,1.2,1.3,1.3c12.4,0,24.8,0,37.1,0c1.6,0,1.6-2.5,0-2.5c-12.4,0-24.8,0-37.1,0
			c0.4,0.4,0.8,0.8,1.3,1.3c0.7-5.7,5.8-9.2,8.1-14.3c1.9-4.3,2.5-9.2,2.6-13.9c0-1.4-0.2-3.4,0-4.8c-0.1-0.5-0.1-1-0.2-1.6
			c1.3-0.2,2.5-0.4,3.8-0.5c3.9-0.5,7.7-1,11.6-1.4c3.3-0.3,6.6-0.6,9.9-0.8c2-0.1,3.9-0.2,5.9-0.3c2.9-0.1,3.7-0.4,6.1,1.7
			c2.8,2.3,2.5,2.7,2.8,6.4c0.1,1.5,0.1,3,0.2,4.5c0.1,2.7,0.1,5.5,0.7,8.2c0.5,2.5,2.7,5.6,2.8,8.1c0.2,5.5-6.6,5.8-10.3,6.5
			c-1.4,0.3-2.9,0.7-4.3,0.8c-1.1,0.5-2.1,0.4-3.1-0.3c-1.4-0.1-2-1-1.7-2.5c-1-2.9-1.1-6.5-1.5-9.5c-1.1-7.6-1.9-15.1-2.6-22.7
			C1728.2,431.3,1725.7,431.3,1725.8,432.9L1725.8,432.9z"/>
	</g>
</g>
<g id="XMLID_220_">
	
		<linearGradient id="XMLID_60_" gradientUnits="userSpaceOnUse" x1="1715.7408" y1="179.2093" x2="1737.4631" y2="179.2093" gradientTransform="matrix(1 0 0 -1 0 597.84)">
		<stop  offset="0" style="stop-color:#B3B5B8"/>
		<stop  offset="1" style="stop-color:#231F20"/>
	</linearGradient>
	<path id="XMLID_223_" class="st17" d="M1715.7,431.4c1-7.1,2.4-14.1,4.3-20.9c0.3-1.1,0.7-2.3,1.5-3.1c0.7-0.7,1.7-0.8,2.6-0.9
		c4.4-0.6,8.8-0.7,13.2-0.5c0.4,4.3-1.2,8.5-2.4,12.7c-0.9,3.4-1.6,6.9-1.9,10.4"/>
	<g id="XMLID_221_">
		<path id="XMLID_222_" class="st4" d="M1716.9,431.7c0.8-5.6,1.8-11.1,3.2-16.6c1.1-4.4,2.6-7,7.8-7.7c3.1-0.5,6.3-0.2,9.4-0.1
			c-0.4-0.4-0.8-0.8-1.3-1.3c0.3,7.8-3.4,15.4-4.2,23.1c-0.2,1.6,2.3,1.6,2.5,0c0.8-7.8,4.5-15.3,4.2-23.1c0-0.7-0.6-1.2-1.3-1.3
			c-4.6-0.2-15.2-1.7-17.8,3.5c-3.3,6.5-4,15.8-5,22.9C1714.3,432.6,1716.7,433.3,1716.9,431.7L1716.9,431.7z"/>
	</g>
</g>
<g id="XMLID_53_">
	
		<linearGradient id="XMLID_61_" gradientUnits="userSpaceOnUse" x1="1729.4409" y1="174.4969" x2="1806.6409" y2="174.4969" gradientTransform="matrix(1 0 0 -1 0 597.84)">
		<stop  offset="0" style="stop-color:#B3B5B8"/>
		<stop  offset="1" style="stop-color:#231F20"/>
	</linearGradient>
	<path id="XMLID_155_" class="st18" d="M1729.4,405.9c0.8-4.6,1.9-9.1,3.2-13.5c0.3-1,0.7-2.1,1.4-2.7c0.7-0.6,1.7-0.7,2.6-0.7
		c9.7-0.5,19.3-0.6,29-0.3c0.8,0,1.7,0.1,2.4,0.6c0.8,0.6,1.2,1.8,1.5,2.9c0.9,2.7,2,5.4,3.1,8c4.4,10.5,9.1,21,13.8,31.3
		c2.1,4.6,4.3,9.2,7.2,13.1c2,2.7,4.4,5,6.7,7.3c2.1,2.1,4.2,4.2,6.3,6.3H1754"/>
	<g id="XMLID_55_">
		<path id="XMLID_79_" class="st4" d="M1730.6,406.2c0.8-4.2,1.2-11.8,4.6-14.7c3.5-3,13.2-1.7,17.8-1.7c2.9,0,5.8,0,8.7,0.1
			c3.7,0.1,5.4,0.7,7.1,4.2c2.1,4.4,3.7,9.2,5.7,13.7c4.2,9.7,8.3,19.4,13,28.9c4.5,9,11.2,15.4,18.3,22.4c0.3-0.7,0.6-1.4,0.9-2.1
			c-17.5,0-35.1,0-52.6,0c-1.6,0-1.6,2.5,0,2.5c17.5,0,35.1,0,52.6,0c1.1,0,1.7-1.4,0.9-2.1c-4.4-4.3-9.2-8.5-12.9-13.5
			c-3.7-5-6.2-10.8-8.8-16.4c-5.4-11.9-10.6-23.9-15.4-36.1c-1.2-3-2.7-3.7-5.9-3.8c-6.7-0.3-13.5-0.2-20.3,0
			c-3.3,0.1-8.7-0.9-11.4,1.6c-1.8,1.7-2.1,5-2.7,7.2c-0.8,3.1-1.5,6.2-2,9.3C1727.9,407.1,1730.3,407.8,1730.6,406.2L1730.6,406.2z
			"/>
	</g>
</g>
<g id="XMLID_41_">
	
		<linearGradient id="XMLID_62_" gradientUnits="userSpaceOnUse" x1="2154.7646" y1="239.4658" x2="2218.0647" y2="239.4658" gradientTransform="matrix(1 0 0 -1 0 597.84)">
		<stop  offset="0" style="stop-color:#888A8C"/>
		<stop  offset="1" style="stop-color:#231F20"/>
	</linearGradient>
	<path id="XMLID_50_" class="st19" d="M2154.8,369.4c5.5-5.9,10.6-12.2,15.2-18.7c0.5-0.7,1-1.5,1.8-1.9c0.7-0.4,1.5-0.6,2.3-0.7
		c5.7-0.9,11.6-0.4,17.4-0.8c0.4,0,0.7-0.1,1.1,0.1c0.3,0.1,0.6,0.4,0.9,0.7c5,5,10,10.1,15,15.1c1.7,1.7,3.5,3.5,5.7,4.5
		c0,0,1.9,0.9,3.9,1.8c-1.5,0-3,0-3,0h-59.7"/>
	<g id="XMLID_47_">
		<path id="XMLID_48_" class="st4" d="M2155.6,370.3c4.3-4.7,8.3-9.5,12.1-14.5c0.9-1.2,2.2-3.5,3.3-4.5c2.1-1.7,5.2-2.3,7.9-2.5
			c3.4-0.2,7.2-0.5,10.6-0.2c2.3,0.2,3.2,0.6,5.1,2.3c1.2,1.1,2.3,2.3,3.4,3.4c2.7,2.7,5.5,5.5,8.2,8.2c3.5,3.5,6.7,5.8,11.2,7.9
			c0.2-0.8,0.4-1.6,0.6-2.3c-20.9,0-41.8,0-62.7,0c-1.6,0-1.6,2.5,0,2.5c20.9,0,41.8,0,62.7,0c1.2,0,1.8-1.8,0.6-2.3
			c-6.6-3.1-11-7.9-16.1-13c-2.6-2.6-5.3-6.3-8.4-8.4c-2.2-1.5-4.8-0.8-7.4-0.7c-5.1,0.1-12.8-1.1-16.8,2.7c-2.8,2.6-5,6.8-7.5,9.8
			c-2.7,3.4-5.6,6.6-8.5,9.9C2152.8,369.8,2154.6,371.5,2155.6,370.3L2155.6,370.3z"/>
	</g>
</g>
<radialGradient id="XMLID_63_" cx="703.5359" cy="-6.5179" r="76.095" gradientTransform="matrix(0.6518 0 0 -0.4149 470.0712 390.9836)" gradientUnits="userSpaceOnUse">
	<stop  offset="8.271665e-007" style="stop-color:#441000"/>
	<stop  offset="5.189622e-002" style="stop-color:#461404"/>
	<stop  offset="0.3551" style="stop-color:#4E2715"/>
	<stop  offset="0.6673" style="stop-color:#53321F"/>
	<stop  offset="1" style="stop-color:#553622"/>
</radialGradient>
<ellipse id="XMLID_40_" class="st20" cx="928.5" cy="384.5" rx="34.9" ry="5.5"/>
<radialGradient id="XMLID_64_" cx="908.5196" cy="-22.0603" r="76.095" gradientTransform="matrix(0.8652 0 0 -0.5681 191.8134 403.8585)" gradientUnits="userSpaceOnUse">
	<stop  offset="8.271665e-007" style="stop-color:#441000"/>
	<stop  offset="5.189622e-002" style="stop-color:#461404"/>
	<stop  offset="0.3551" style="stop-color:#4E2715"/>
	<stop  offset="0.6673" style="stop-color:#53321F"/>
	<stop  offset="1" style="stop-color:#553622"/>
</radialGradient>
<ellipse id="XMLID_39_" class="st21" cx="977.7" cy="403.8" rx="46.4" ry="7.5"/>
<radialGradient id="XMLID_65_" cx="966.8212" cy="135.5642" r="76.095" gradientTransform="matrix(0.5627 0 0 -0.2841 763.2628 390.7433)" gradientUnits="userSpaceOnUse">
	<stop  offset="8.271665e-007" style="stop-color:#441000"/>
	<stop  offset="5.189622e-002" style="stop-color:#461404"/>
	<stop  offset="0.3551" style="stop-color:#4E2715"/>
	<stop  offset="0.6673" style="stop-color:#53321F"/>
	<stop  offset="1" style="stop-color:#553622"/>
</radialGradient>
<ellipse id="XMLID_37_" class="st22" cx="1307.2" cy="345.9" rx="30.2" ry="3.8"/>
<radialGradient id="XMLID_66_" cx="2462.4241" cy="-81.6638" r="76.095" gradientTransform="matrix(0.9558 0 0 -0.6826 -77.2759 388.5485)" gradientUnits="userSpaceOnUse">
	<stop  offset="8.271665e-007" style="stop-color:#441000"/>
	<stop  offset="5.189622e-002" style="stop-color:#461404"/>
	<stop  offset="0.3551" style="stop-color:#4E2715"/>
	<stop  offset="0.6673" style="stop-color:#53321F"/>
	<stop  offset="1" style="stop-color:#553622"/>
</radialGradient>
<ellipse id="XMLID_33_" class="st23" cx="2276.2" cy="429.2" rx="51.2" ry="9"/>
<radialGradient id="XMLID_67_" cx="1550.8466" cy="-5.9476" r="76.095" gradientTransform="matrix(1.7494 0 0 -0.8666 -1173.6625 429.3708)" gradientUnits="userSpaceOnUse">
	<stop  offset="8.271665e-007" style="stop-color:#441000"/>
	<stop  offset="5.189622e-002" style="stop-color:#461404"/>
	<stop  offset="0.3551" style="stop-color:#4E2715"/>
	<stop  offset="0.6673" style="stop-color:#53321F"/>
	<stop  offset="1" style="stop-color:#553622"/>
</radialGradient>
<ellipse id="XMLID_32_" class="st24" cx="1539.2" cy="415.3" rx="93.7" ry="11.5"/>
<radialGradient id="XMLID_68_" cx="1448.0302" cy="3.031" r="76.095" gradientTransform="matrix(0.716 0 0 -0.4704 608.9848 379.8044)" gradientUnits="userSpaceOnUse">
	<stop  offset="8.271665e-007" style="stop-color:#441000"/>
	<stop  offset="5.189622e-002" style="stop-color:#461404"/>
	<stop  offset="0.3551" style="stop-color:#4E2715"/>
	<stop  offset="0.6673" style="stop-color:#53321F"/>
	<stop  offset="1" style="stop-color:#553622"/>
</radialGradient>
<ellipse id="XMLID_31_" class="st25" cx="1645.6" cy="368" rx="38.4" ry="6.2"/>
<radialGradient id="XMLID_69_" cx="1027.9738" cy="8.0569" r="76.0303" gradientTransform="matrix(0.3002 0 0 -0.1572 1511.9648 380.368)" gradientUnits="userSpaceOnUse">
	<stop  offset="8.271665e-007" style="stop-color:#441000"/>
	<stop  offset="5.189622e-002" style="stop-color:#461404"/>
	<stop  offset="0.3551" style="stop-color:#4E2715"/>
	<stop  offset="0.6673" style="stop-color:#53321F"/>
	<stop  offset="1" style="stop-color:#553622"/>
</radialGradient>
<ellipse id="XMLID_27_" class="st26" cx="1820.6" cy="375.6" rx="16.1" ry="2.1"/>
<g id="XMLID_385_">
	
		<radialGradient id="XMLID_70_" cx="2128.9875" cy="89.482" r="50.9951" gradientTransform="matrix(0.5252 0 0 -0.3144 993.8087 381.3272)" gradientUnits="userSpaceOnUse">
		<stop  offset="8.271665e-007" style="stop-color:#441000"/>
		<stop  offset="5.189622e-002" style="stop-color:#461404"/>
		<stop  offset="0.3551" style="stop-color:#4E2715"/>
		<stop  offset="0.6673" style="stop-color:#53321F"/>
		<stop  offset="1" style="stop-color:#553622"/>
	</radialGradient>
	<ellipse id="XMLID_30_" class="st27" cx="2111.9" cy="348.6" rx="18.9" ry="2.8"/>
	<g id="XMLID_410_">
		<ellipse id="XMLID_413_" class="st28" cx="1958.8" cy="387.7" rx="7.1" ry="20"/>
		<polyline id="XMLID_412_" class="st28" points="1958.5,367.8 1972.5,367.8 1972.5,407.7 1958.5,407.7 		"/>
		<ellipse id="XMLID_411_" class="st29" cx="1972.5" cy="387.7" rx="7.1" ry="20"/>
	</g>
	<g id="XMLID_407_">
		<g>
			<path class="st4" d="M2082.7,384.3c-4.3,0-8.5,0-12.8,0c-1,0-2,0-3,0c2.2,1.3,2.5,1,0.9-0.8c-0.5-1.5-2.1-3.2-3-4.5
				c-2-2.9-4.2-5.7-6.3-8.5c-2.3-2.9-5.2-5.9-6.2-9.5c-2.1-7.4-13.7-4.3-11.6,3.2c2.6,9.3,11.1,16.6,16.2,24.6
				c2.3,3.6,4.2,6.8,8.8,7.4c5.5,0.7,11.4,0.1,16.9,0.1C2090.4,396.3,2090.4,384.3,2082.7,384.3L2082.7,384.3z"/>
		</g>
	</g>
	<g id="XMLID_408_">
		<g>
			<path class="st4" d="M2094.5,351.3c-2.2,0.2-4.1-0.3-6.2-0.4c-0.4-0.1-0.9-0.2-1.3-0.3c0.7,0.5,0.8,0.5,0.2-0.1
				c-0.6-0.6-1.3-1.3-1.7-2c-1.7-2.6-2.3-6.7-3.3-9.7c-2.6-7.2-14.2-4.1-11.6,3.2c2,5.5,3,11.1,6.9,15.7c4.2,5,10.6,6,17,5.6
				C2102.2,362.8,2102.2,350.8,2094.5,351.3L2094.5,351.3z"/>
		</g>
	</g>
	<g id="XMLID_409_">
		<g>
			<path class="st4" d="M2111,328.5c-1.6-0.1-4.1,0.2-5.6-0.4c1.1,0.4-0.1-0.3-0.4-0.7c-0.8-0.8-1.6-1.5-2.4-2.3
				c-2.5-2.5-4.3-6-7.1-8.2c-2.5-2-6-2.4-8.5,0c-2.1,2.1-2.5,6.5,0,8.5c1.9,1.6,3.2,3.9,4.8,5.8c1.6,1.8,3.3,3.5,5.1,5.1
				c1.7,1.5,3.2,3,5.4,3.4c2.8,0.6,5.8,0.5,8.7,0.7C2118.7,341,2118.6,329,2111,328.5L2111,328.5z"/>
		</g>
	</g>
	<g id="XMLID_307_">
		<g>
			<path class="st4" d="M2042.2,259.3c-1.2,0.4-2.1,1.1-3.1,1.9c-0.8,0.6-1.6,0.6-2.5,0.9c-2.3,0.9-3.5,3.5-4.9,5.4
				c-1,1.3-0.2,3.3,1.1,4.1c1.5,0.9,3.2,0.2,4.1-1.1c0.5-0.7,1-1.4,1.5-2.1c0.6-0.8,0.5-0.7,1.4-1c0.8-0.2,1.6-0.6,2.3-1
				c0.5-0.3,1.2-1.1,1.7-1.3C2047.5,263.9,2045.9,258.1,2042.2,259.3L2042.2,259.3z"/>
		</g>
	</g>
	<g id="XMLID_287_">
		<g>
			<path class="st4" d="M2035.6,259.2c-1.6,0.3-3,1.1-4.1,2.3c-0.8,0.9-2.1,1.4-3.1,2.3c-1.2,1.1-1.1,3.2,0,4.2c1.2,1.2,3,1.1,4.2,0
				c0.6-0.5,1.9-1,2.6-1.8c0.9-0.8,0.9-1.2,2-1.4c1.6-0.3,2.5-2.3,2.1-3.7C2038.8,259.6,2037.2,259,2035.6,259.2L2035.6,259.2z"/>
		</g>
	</g>
	<g id="XMLID_288_">
		<g>
			<path class="st4" d="M2007.6,257.5c-2.4,0.2-4.6-0.3-6.7,1.2c-1.9,1.3-3.1,3.2-4,5.3c-0.6,1.5,0.7,3.3,2.1,3.7
				c1.7,0.5,3.1-0.6,3.7-2.1c0.3-0.7,0.9-1.6,1.6-2c0.8-0.4,2.3,0,3.3-0.1c1.6-0.1,3-1.3,3-3C2010.6,259,2009.2,257.4,2007.6,257.5
				L2007.6,257.5z"/>
		</g>
	</g>
	<g id="XMLID_308_">
		<path class="st30" d="M2054.7,352.6c-0.1,5.2,0,10.4,0.2,15.6c0,0.4,0,0.9,0.1,1.3c0.1,0.4,0.2,0.7,0.3,1.1c0.3,1,0.4,2.1,0.5,3.2
			c0.1,0.8,0.2,1.7,0.3,2.5c0.1,0.6,0.3,1.3,0.8,1.2l0.7,0.6c5.1-0.8,9.6-4,12.9-7.9c3.3-3.9,5.7-8.6,8.1-13.1
			c8.5-16.4,17.4-32.6,26.6-48.6c1.2-2,2.4-4.1,2.9-6.4c0.5-2,0.3-4.1,0.2-6.2c-0.3-5-0.5-9.9-0.8-14.9c0-0.8-0.2-1.8-0.9-2.2"/>
		<g>
			<path class="st4" d="M2053.2,352.6c-0.1,7.5,0.3,14.5,1.3,21.9c0.3,2.5,0.6,4.8,3.5,5.3c4.7,0.7,11-5.2,13.8-8.3
				c4.3-5,7.1-11.1,10.1-16.8c7.1-13.5,14.4-27,22-40.2c3.2-5.5,6.3-10.2,6.3-16.8c-0.1-3.9-0.4-7.9-0.6-11.8
				c-0.1-2.6,0.2-5.5-1.4-7.6c-1.2-1.5-3.8,0-2.6,1.5c1.7,2.2,1.1,8,1.2,10.8c0.1,2.6,0.4,5.3,0.4,7.9c-0.1,6.3-4.3,11.6-7.3,16.9
				c-6,10.5-11.8,21.1-17.5,31.8c-5,9.5-9.5,22.5-19.5,27.8c-1.1,0.6-3.9,2.2-4.9,1.5c-0.8-0.6-0.6-3.7-0.8-4.6
				c-1-6.4-1.1-12.7-1-19.2C2056.2,350.7,2053.2,350.7,2053.2,352.6L2053.2,352.6z"/>
		</g>
	</g>
	<g id="XMLID_415_">
		<g>
			<path class="st4" d="M1975.6,393.7c2.9-0.2,5.8,0.4,8.7-0.5c2.6-0.8,4.8-2.5,6.8-4.3c4.1-3.7,7.1-8.6,9.9-13.3
				c4-6.6-6.3-12.7-10.4-6.1c-1.9,3.1-3.7,6.2-6.1,8.9c-0.9,1.1-2.3,2.9-3.7,3.3c-1.4,0.4-3.7-0.2-5.2-0.1
				C1967.9,382.1,1967.9,394.1,1975.6,393.7L1975.6,393.7z"/>
		</g>
	</g>
	<g id="XMLID_293_">
		<path class="st31" d="M2057.1,352.1c0.5,8.6,0.8,17.2,0.9,25.8c-7,2-14.5,1.2-21.8,0.5c-19.7-1.8-39.6-1.7-59.3,0.1
			c-0.6,0.1-1.2,0.1-1.6-0.3c-0.3-0.3-0.3-0.7-0.4-1.1c-0.7-8.8-0.3-17.6,1.1-26.3"/>
		<g>
			<path class="st4" d="M2055.6,352.1c0.5,8.6,0.8,17.2,0.9,25.8c0.4-0.5,0.7-1,1.1-1.4c-9,2.3-18.2,0.6-27.3,0
				c-8.5-0.6-17.1-0.9-25.7-0.8c-4.3,0-8.6,0.2-12.9,0.4c-4,0.2-8.9,1.4-12.8,0.9c-1.8,0.8-2.6,0.2-2.6-1.7
				c-0.1-0.9-0.1-1.9-0.1-2.8c-0.1-2.2-0.1-4.4,0-6.6c0.1-4.9,0.6-9.8,1.3-14.6c0.3-1.9-2.6-2.7-2.9-0.8c-0.7,4.8-1.2,9.6-1.4,14.5
				c-0.1,3.7-1,9.8,0.5,13.2c1.1,2.4,2.8,2,5.2,1.8c5.6-0.4,11.2-0.8,16.8-1c10.9-0.4,21.8-0.2,32.6,0.5c10,0.7,20.2,2.6,30.1,0.1
				c0.6-0.2,1.1-0.8,1.1-1.4c-0.1-8.6-0.4-17.2-0.9-25.8C2058.5,350.1,2055.5,350.1,2055.6,352.1L2055.6,352.1z"/>
		</g>
	</g>
	<g id="XMLID_299_">
		<path class="st32" d="M2004.7,313.1c-1.8,2.4-3.8,4.5-5.8,6.7c-8.5,9.3-16.2,19.3-22.9,30c24.9,0.8,49.8,1.6,74.7,2.4
			c2.7,0.1,5.5,0.2,8-0.9c3.4-1.5,5.5-4.7,7.5-7.8c13.6-21.5,27.3-43,40.9-64.5c-20.9-0.1-54.1,0-75-0.1"/>
		<g>
			<path class="st4" d="M2003.6,312c-5,6.4-10.7,12-15.7,18.4c-4.7,6-9.1,12.2-13.2,18.6c-0.6,1,0.2,2.2,1.3,2.3
				c15.4,0.5,30.8,1,46.2,1.5c7.5,0.2,15.1,0.5,22.6,0.7c5.6,0.2,12.1,1.3,17-2.3c4.1-3.1,6.7-8.5,9.4-12.7c4-6.3,8-12.7,12.1-19
				c8.4-13.2,16.8-26.4,25.2-39.7c0.6-1-0.2-2.3-1.3-2.3c-25-0.1-50,0-75-0.1c-1.9,0-1.9,3,0,3c25,0.1,50,0,75,0.1
				c-0.4-0.8-0.9-1.5-1.3-2.3c-7.5,11.8-15,23.7-22.6,35.5c-3.7,5.8-7.3,11.6-11,17.4c-3.4,5.4-6.6,12.3-11.3,16.8
				c-5,4.8-14.8,2.6-21.1,2.4c-6.9-0.2-13.8-0.4-20.7-0.7c-14.4-0.5-28.8-0.9-43.3-1.4c0.4,0.8,0.9,1.5,1.3,2.3
				c4.3-6.7,8.9-13.2,13.9-19.4c4.7-5.8,10-11.1,14.6-17C2006.9,312.6,2004.8,310.5,2003.6,312L2003.6,312z"/>
		</g>
	</g>
	<g id="XMLID_292_">
		<path class="st33" d="M2004.8,328.4c-0.3-0.7,0.2-1.5,0.4-2.2c0.2-0.7,0.2-1.5,0.2-2.2c0-2.8,0-5.7,0-8.5c0-2.3,0-4.6,0.2-6.9
			c0.2-2.1,0.7-4.2,0.9-6.3c0.4-4.7-0.4-9.4-0.2-14l17.3,0.5c-0.7,5,1,10.1,0.6,15.1c-0.1,1.6-0.4,3.1-0.5,4.6
			c-0.3,2.7-0.1,5.4-0.1,8.1c0,1.5,0,2.9-0.1,4.4c0,0.6,0,1.1,0.2,1.7c0.2,0.6,0.7,1.1,0.6,1.8"/>
		<g>
			<path class="st4" d="M2006.3,328.4c0.1-2.6,0.7-5.1,0.7-7.8c0-3.7-0.2-7.5,0.2-11.2c0.3-3.3,1-6.5,1.1-9.8
				c0-3.8-0.4-7.6-0.4-11.4c-0.5,0.5-1,1-1.5,1.5c5.8,0.2,11.5,0.3,17.3,0.5c-0.5-0.5-1-1-1.5-1.5c-0.3,3.8,0.3,7.5,0.6,11.3
				c0.2,3.2-0.3,6.1-0.5,9.2c-0.4,5.1-0.4,10.6,0.8,15.5c0.4,1.9,3.3,1.1,2.9-0.8c-1.1-4.9-1-10.5-0.6-15.5
				c0.6-6.7-0.6-13.1-0.1-19.7c0.1-0.8-0.7-1.5-1.5-1.5c-5.8-0.2-11.5-0.3-17.3-0.5c-0.8,0-1.5,0.7-1.5,1.5c0,3.5,0.3,7,0.4,10.5
				c0,3.6-0.8,7.1-1.1,10.7c-0.3,3.4-0.2,6.9-0.2,10.3c0,3-0.6,5.8-0.7,8.7C2003.3,330.3,2006.3,330.3,2006.3,328.4L2006.3,328.4z"
				/>
		</g>
	</g>
	<g id="XMLID_285_">
		<path class="st32" d="M2031.9,286.7c6.6-4.7,13.3-9.4,19.9-14c0.5-0.3,0.9-0.7,1.2-1.1c0.5-0.9,0.2-2.1-0.1-3.1
			c-1.3-3.6-3.2-7.1-6.1-9.6c-2.9-2.5-7-3.8-10.7-2.6c-1.5,0.4-2.8,1.3-3.9,2.3c-0.4,0.4-0.8,0.9-1.3,1.3c-0.7,0.4-1.5,0.6-2.2,0.8
			c-2.7,0.6-5.5,1.1-8.2,0.6c-3.5-0.7-6.3-3-9.3-4.8c-0.9-0.6-1.9-1.1-2.9-1.2c-1.5-0.1-2.9,0.6-4.1,1.4c-3,1.9-5.6,4.3-8.2,6.7
			c-3.1,2.8-6.3,5.7-8.5,9.2"/>
		<g>
			<path class="st4" d="M2032.6,287.9c5.4-3.8,10.7-7.6,16.1-11.3c2.7-1.9,6.2-3.3,6-7c-0.5-8-9.6-16.5-17.6-15.1
				c-1.7,0.3-3.3,1-4.8,2.1c-2.7,2-4.9,3.2-8.6,3.4c-6.4,0.2-9.6-5.6-15.3-6.2c-4.1-0.4-8.1,3.6-11,6.1c-4.2,3.6-8.3,7.3-11.4,11.9
				c-1.1,1.6,1.5,3.1,2.6,1.5c2.5-3.7,5.7-6.6,8.9-9.5c4.7-4.3,8.9-8.4,15.3-4.3c5.2,3.3,11.2,4.8,17.3,2.5c3.2-1.2,4.8-4.4,8.7-4.5
				c5.4,0,9.3,4.4,11.4,8.8c1.9,4,0.9,5.1-2.3,7.4c-1.5,1.1-3.1,2.2-4.6,3.2c-4.1,2.9-8.2,5.8-12.3,8.6
				C2029.5,286.5,2031,289.1,2032.6,287.9L2032.6,287.9z"/>
		</g>
	</g>
	<g id="XMLID_284_">
		<path class="st34" d="M2008.9,287.7c-3.3-0.4-19,0.7-22-0.7c-0.3-0.2-0.7-0.4-0.9-0.7c-0.2-0.3-0.2-0.7-0.2-1.1
			c0-2.4-0.1-4.7-0.1-7.1c0-1,0-2,0.2-3c0.7-2.6,3.2-4.5,5.8-4.9c2.7-0.4,5.4,0.4,7.7,1.9c0.6,0.4,1.2,0.8,1.8,1.1
			c1.9,1,4,1.1,6.2,1.1c0.5,0,1.8,0.1,1.8,0.1c2.5,0.1,5.2,0.2,7.5-1c0.6-0.3,1.2-0.7,1.8-1.1c2.3-1.4,5-2.3,7.7-1.9
			c2.7,0.4,5.2,2.3,5.8,4.9c0.2,1,0.2,2,0.2,3c0,2.4-0.1,4.7-0.1,7.1c0,0.4,0,0.8-0.2,1.1c-0.2,0.3-0.5,0.5-0.9,0.7
			c-2.9,1.4-17.6,0.4-21.6,0.7C2009.2,287.7,2009.1,287.7,2008.9,287.7z"/>
		<g>
			<path class="st4" d="M2008.9,286.2c-2.9-0.3-5.9-0.1-8.8,0c-3.2,0.1-7.7,0.8-10.8-0.2c-1.5-0.5-1.2,0.2-1.8-1.5
				c-0.5-1.3-0.3-3.4-0.3-4.7c0-2.4-0.2-4,1.4-6c1.9-2.3,4.5-2.8,7.4-1.8c2.2,0.7,3.9,2.4,6.1,3.1c2,0.6,4.1,0.5,6.2,0.6
				c4.2,0.1,7.1-0.3,10.7-2.3c4.9-2.8,11.3-1.9,11.4,4.8c0,1.9,0.6,6.7-0.8,7.7c-2,1.5-8.2,0.5-10.4,0.4c-3.1,0-6.9,0.5-10-0.1
				c-1.9-0.3-2.7,2.6-0.8,2.9c4.6,0.8,10.2,0.2,14.9,0.2c3.5,0,9.1,0.6,10-3.7c1.1-5.1,1.1-13-4.1-15.9c-2.6-1.5-5.7-1.5-8.5-0.6
				c-1.5,0.5-2.8,1.4-4.2,2.1c-2.5,1.4-4.8,1.4-7.6,1.4c-2,0-4.2,0.1-6.1-0.5c-1.7-0.5-3.1-1.8-4.6-2.5c-2.7-1.2-5.8-1.7-8.7-0.6
				c-6.3,2.4-6.4,10.4-5.4,16c0.8,4.3,5.3,4,8.9,4.1c5.2,0.1,10.5-0.5,15.7,0C2010.8,289.4,2010.8,286.4,2008.9,286.2z"/>
		</g>
	</g>
	<ellipse id="XMLID_286_" class="st35" cx="1994.2" cy="278.9" rx="5.5" ry="5.9"/>
	<ellipse id="XMLID_290_" class="st35" cx="2023.7" cy="278.9" rx="5.5" ry="5.9"/>
	<g id="XMLID_310_">
		<ellipse id="XMLID_312_" class="st28" cx="2112.8" cy="336.3" rx="5.7" ry="15.9"/>
		<polyline id="XMLID_311_" class="st28" points="2112.6,320.4 2123.8,320.4 2123.8,352.2 2112.6,352.2 		"/>
		<ellipse id="XMLID_309_" class="st29" cx="2123.8" cy="336.3" rx="5.7" ry="15.9"/>
	</g>
	<g id="XMLID_314_">
		<ellipse id="XMLID_336_" class="st28" cx="2097.7" cy="358.9" rx="6.5" ry="18.2"/>
		<polyline id="XMLID_335_" class="st28" points="2097.4,340.7 2110.2,340.7 2110.2,377 2097.4,377 		"/>
		<ellipse id="XMLID_328_" class="st29" cx="2110.2" cy="358.9" rx="6.5" ry="18.2"/>
	</g>
	<g id="XMLID_398_">
		<ellipse id="XMLID_406_" class="st28" cx="2077.3" cy="389" rx="7.1" ry="20"/>
		<polyline id="XMLID_405_" class="st28" points="2077,369 2091.1,369 2091.1,408.9 2077,408.9 		"/>
		<ellipse id="XMLID_399_" class="st29" cx="2091.1" cy="389" rx="7.1" ry="20"/>
	</g>
</g>
<g id="XMLID_341_">
	<path class="st31" d="M853.6,363.1c-0.8-5.4-1.6-10.7-2.4-16.1c-0.2-1.2-0.4-2.3-0.5-3.5c-0.3-2.8-0.4-5.7-0.5-8.6
		c-0.3-11.6-0.3-23.3-0.2-34.9c0-1.2,0-2.4,0.1-3.5c0.1-1.1,0.3-2.1,0.6-3.1c0.9-4.3,1.8-8.5,2.8-12.8c0.3-1.3,0.6-2.6,1.3-3.1
		c0,0,0.2-0.1,0.2-0.1c3.2-0.5,6.5-1,9.7-1.5c0.6-0.1,1.6-0.6,2.2-0.3c0.5,0.2,0.6,1.9,0.7,2.8c0.4,2.7,0.7,5.4,0.8,8.2
		c0.2,3.3,0.2,6.7,0.1,10c0,2.8-0.1,5.6-0.2,8.4c-0.1,2.6-0.2,5.3-0.3,7.9c-0.1,3-0.3,6-0.4,9c-0.2,5-0.4,10.1-1,15
		c-0.7,5.8-5.7-15.7-5.4,25"/>
	<g>
		<path class="st36" d="M854.4,362.9c-1.3-8.7-3-17.4-3.4-26.2c-0.3-9-0.3-18-0.3-26.9c0-4.8-0.4-9.8,0.4-14.6
			c0.7-4.5,1.9-9,2.9-13.4c0.7-2.9,2.1-3.4,5-4.1c1.3-0.3,4.6-1.3,5.8-0.9c3.4,1.1,2.6,9.4,2.7,12.2c0.2,8.2-0.2,16.5-0.6,24.7
			c-0.2,4.3-0.4,8.6-0.6,12.8c-0.2,3.1,0.4,7.8-0.8,10.6c0-0.1,1.2,0,0.2-0.6c-0.4-0.2-0.6-0.7-1-0.9c-0.9-0.4-1.4-0.5-2.2,0
			c-1.3,0.9-1.4,3.7-1.6,5.1c-0.9,6.9-0.7,14-0.7,20.9c0,1.2,1.8,1.2,1.8,0c0-7-0.3-14.2,0.7-21.1c0.1-0.6,0.2-3,0.8-3.4
			c0.5-0.3-0.3,0,0.5,0.2c0.8,0.2,1,1.6,2.2,1.3c2.2-0.6,1.5-6.5,1.6-7.5c0.7-10.2,1.1-20.4,1.4-30.6c0.1-4.2,0.2-8.4,0-12.5
			c-0.1-3.6,0-8.2-1.1-11.7c-0.6-1.7-0.8-1.8-2.6-1.8c-1.6,0-3.5,0.7-5.1,0.9c-1.6,0.2-5,0.2-6.3,1.1c-1.8,1.3-1.9,4.5-2.3,6.4
			c-1,4.4-2.3,8.9-2.8,13.4c-1.2,11.3-0.3,23.2,0,34.5c0.2,10.9,1.9,21.5,3.6,32.3C852.9,364.5,854.6,364,854.4,362.9L854.4,362.9z"
			/>
	</g>
</g>
<g id="XMLID_300_">
	<linearGradient id="SVGID_1_" gradientUnits="userSpaceOnUse" x1="847.3799" y1="286.8217" x2="885.765" y2="345.9296">
		<stop  offset="0.8895" style="stop-color:#8F9194"/>
		<stop  offset="1" style="stop-color:#6C6365;stop-opacity:0"/>
	</linearGradient>
	<path class="st37" d="M888.6,341c-0.5-13.6-1.6-27.1-3.3-40.4c-0.5-4.2-1.2-8.5-2.6-12.1c-1.4-3.6-3.4-6.2-5.4-8.7
		c-1.3-1.6-2.6-3.3-4.1-4.1c-2-1.1-4.1-0.5-6.2,0c-1.1,0.3-2.2,0.6-3.3,0.9c-0.4,0.1-0.9,0.2-1.2,0.6c-0.5,0.5-0.7,1.4-1,2.2
		c-0.6,2.1-1.2,4.4-1.6,6.7c-0.9,4.6-1.3,9.5-1.7,14.3c-0.2,2.4-0.4,4.8-0.5,7.2c-0.9,18.2,2.9,36.2,3.4,54.5"/>
	<g>
		<path class="st36" d="M889.5,341c-0.6-15.8-1.1-32.4-4.5-47.9c-2.1-9.5-9.9-23.7-21.6-17.5c-4.2,2.2-4.3,9.6-4.9,13.7
			c-1.1,7.5-1.7,15.2-1.8,22.8c-0.1,16.7,3,33.1,3.5,49.8c0,1.2,1.8,1.2,1.8,0c-0.9-26-6.4-51.6-0.9-77.4c0.9-4,1.7-6.7,6.1-8
			c5.3-1.5,8.3,2.3,10.9,5.9c4,5.5,5.3,11.6,6.1,18.2c1.8,13.4,2.8,26.9,3.3,40.4C887.8,342.1,889.6,342.1,889.5,341L889.5,341z"/>
	</g>
</g>
<g id="XMLID_376_">
	<g>
		<path class="st33" d="M862.7,302.3c-2.3,0.4-2.1,5.2-2,6.8c0.2,1.8,1.1,4.4,3.3,4.4c1.9,0,2.6-3.4,2.7-4.8c0.1-1.2,0.2-2.8-0.3-4
			c-0.4-1-1.4-1.5-2.3-2c-1-0.7-1.9,0.9-0.9,1.6c0.3,0.2,1,0.5,1.2,0.9c0.5,0.6,0.5,1.5,0.5,2.3c0,1,0,3.2-0.9,3.8
			c-1.3,0.9-1.7-2-1.7-2.8c0-0.5-0.1-4.3,0.7-4.4C864.3,303.8,863.8,302.1,862.7,302.3L862.7,302.3z"/>
	</g>
</g>
<g id="XMLID_381_">
	<g>
		<path class="st33" d="M867.3,301.8c-0.6,5.4,0,11.1,0,16.5c0,1.2,1.8,1.2,1.8,0c0.1-5.5-0.5-11.1,0-16.5
			C869.3,300.6,867.5,300.7,867.3,301.8L867.3,301.8z"/>
	</g>
</g>
<g id="XMLID_382_">
	<g>
		<path class="st33" d="M869.5,304.7c0.1-0.2,0.8-1.3,1-1.3c-0.2-0.1-0.4-0.3-0.5-0.4c0.7,0.9,0.8,2.5,0.2,3.5
			c-0.3,0.5-0.5,0.4-1,0.6c-0.4,0.2-0.7,0.5-0.9,0.8c-0.7,1,0.9,1.9,1.6,0.9c0.2-0.3,1-0.3,1.3-0.6c0.4-0.4,0.6-0.9,0.8-1.4
			c0.5-1.2,0.4-2.1,0.1-3.3c-0.2-0.9-0.6-2.1-1.8-1.9c-1.1,0.2-1.9,1.3-2.4,2.2C867.3,304.8,868.9,305.7,869.5,304.7L869.5,304.7z"
			/>
	</g>
</g>
<g id="XMLID_383_">
	<g>
		<path class="st33" d="M872.8,298.9c0,4.8,0,9.6,0,14.4c0,1.2,1.8,1.2,1.8,0c0-4.8,0-9.6,0-14.4
			C874.6,297.8,872.8,297.8,872.8,298.9L872.8,298.9z"/>
	</g>
</g>
<g id="XMLID_384_">
	<g>
		<path class="st33" d="M874.1,301.9c0.2-0.1,0.8-0.8,1-0.8c0.3,0,0.4,1.2,0.5,1.4c0.1,0.5,0.1,1.1,0.1,1.6c0,0.2,0,0.7-0.1,0.8
			c-0.2,0.2-0.8,0.2-1.1,0.2c-1.2,0-1.2,1.8,0,1.8c1,0,2.2-0.1,2.7-1.2c0.5-1.1,0.4-2.5,0.2-3.6c-0.1-0.9-0.4-2.4-1.3-2.9
			c-1.2-0.6-1.9,0.4-2.8,1C872.3,301,873.2,302.5,874.1,301.9L874.1,301.9z"/>
	</g>
</g>
<g id="XMLID_401_">
	<g>
		<path class="st33" d="M880.3,298.1c-0.4,5.7-0.5,11.5-0.5,17.2c0,1.2,1.8,1.2,1.8,0c-0.1-5.7,0.1-11.5,0.5-17.2
			C882.2,297,880.4,297,880.3,298.1L880.3,298.1z"/>
	</g>
</g>
<g id="XMLID_403_">
	<g>
		<path class="st33" d="M881.8,304.2c-0.2-0.7-0.5-1.5-1-2c-0.5-0.6-0.9-1.3-1.3-2c-0.6-1-2.1-0.1-1.6,0.9c0.4,0.6,0.7,1.3,1.2,1.9
			c0.4,0.5,0.8,1,0.9,1.7C880.3,305.8,882.1,305.3,881.8,304.2L881.8,304.2z"/>
	</g>
</g>
<g id="XMLID_400_">
	<path class="st38" d="M893.6,342c-1.2-4.4-1.9-9.1-2-13.8c-1,3.1-2.1,6.2-3.3,9.2c-0.7-1-1-2.3-1.5-3.5c-0.4-1.2-1-2.5-2-2.9
		c0.1,3.8-0.6,7.7-1.9,11.2c-0.1,0.3-0.2,0.6-0.5,0.6c-0.2,0.1-0.4-0.1-0.6-0.2c-2.2-1.6-4.4-3.1-6.6-4.7c-0.7-0.5-1.5-1.1-2.4-1.1
		c0.7,3.7,4.2,5.6,5.5,9c0.1,0.2,0.1,0.4,0.1,0.7c-0.1,0.4-0.5,0.5-0.8,0.5c-4.8,0.2-9.7-0.2-14.4-1.3c0.8,0.9,2,1.2,3,1.6
		c2.3,1,4.3,3.1,5.5,5.9c-4.6,1.1-9.3-1.1-13.9-0.4c-0.1,0-0.3,0.1-0.4,0.2c-0.1,0.1-0.1,0.3-0.1,0.5c0,0.9,0.4,1.8,0.7,2.7
		c0.8,2.4,1,5.2,0.5,7.8"/>
	<g>
		<path class="st39" d="M896.5,341.2c-1.1-4.3-1.7-8.6-1.9-13c-0.1-3.4-4.8-4-5.9-0.8c-1,3.1-2.1,6.1-3.3,9.2
			c1.8-0.2,3.7-0.5,5.5-0.7c-1.4-2.5-1.6-5.2-4-7.1c-2-1.6-5.1-0.7-5.1,2.1c0,3.1,0,7.6-2,10.3c1.1-0.5,2.3-0.9,3.4-1.4
			c-3.5-1.2-5.9-4.9-9.6-6c-2.2-0.6-4.3,1.5-3.7,3.7c1.1,3.5,5.1,6.3,5.6,9.7c0.3-1,0.5-1.9,0.8-2.9c0,0-4.4-0.4-5-0.5
			c-2.5-0.2-4.9-0.6-7.3-1.1c-2.6-0.5-5.5,3-2.9,5c3.1,2.4,6.1,3,8,6.8c0.6-1.5,1.2-2.9,1.8-4.4c-4,0.6-12.3-2.9-15.6,0.5
			c-0.9,1-1,2.2-0.9,3.4c0.3,3.4,1.5,6.1,1.1,9.7c-0.5,3.8,5.5,3.8,6,0c0.2-1.9,0.3-3.6,0-5.5c-0.1-1-0.3-2.1-0.7-3.1
			c-0.3-1.9-0.7-1.8-1.3,0.3c3.9,1,8.9,1.1,12.9,0.5c2-0.3,2.6-2.9,1.8-4.4c-1-1.9-2.1-3.7-3.8-5.1c-1.6-1.4-3.6-1.7-5.2-3
			c-1,1.7-1.9,3.3-2.9,5c3.8,0.8,7.7,1.3,11.6,1.4c2.1,0,4.8,0.4,6.4-1.2c3.8-3.9-3.6-9.3-4.6-12.8c-1.2,1.2-2.5,2.5-3.7,3.7
			c3.6,1.1,6,4.8,9.6,6c1.4,0.5,2.6-0.3,3.4-1.4c2.5-3.4,2.8-9.2,2.8-13.3c-1.7,0.7-3.4,1.4-5.1,2.1c1.6,1.3,2,4,3,5.9
			c1.4,2.4,4.6,1.6,5.5-0.7c1.2-3,2.3-6.1,3.3-9.2c-2-0.3-3.9-0.5-5.9-0.8c0.2,5,0.9,9.8,2.1,14.6
			C891.7,346.5,897.5,344.9,896.5,341.2L896.5,341.2z"/>
	</g>
</g>
<g id="XMLID_320_">
	<path class="st40" d="M1297.6,209.4c2.6-0.8,5.2-1.3,7.9-1.3c1.2,0,2.3,0.1,3.5,0.1c5,0,9.8-1.4,14.4-3.2c0.2-0.1,0.5-0.2,0.6-0.4
		c0.1-0.2,0.1-0.4,0-0.7c-0.3-1.5-1-3-2-4.1c-0.2-0.3-0.5-0.5-0.9-0.7c-0.6-0.2-1.2,0-1.8,0.3c-2.4,0.9-4.7,1.9-7.1,2.8
		c-1.6,0.6-3.1,1.2-4.7,1.8c-1.1,0.4-2.2,0.7-3.4,1.1c-2.7,0.9-5.3,2-7.8,3.3l-4.2,1.5c-1.9,0.6-4,0.2-6.1,0.3
		c-1.6,0.1-3.2,0.5-4.9,0.6c-0.8,0.1-1.7,0-2.5,0.1c-3.9,0.1-7.7,1.6-11.3,3.2c-0.3,0.1-0.6,0.3-0.9,0.5c-0.2,0.2-0.3,0.4-0.4,0.6
		c-0.6,1-1.2,2-1.8,3c-0.3,0.4-0.5,1.1-0.1,1.4c0.2,0.2,0.6,0.1,0.9,0.1c4.8-1,9.5-2,14.3-3c1-0.2,2-0.4,3-0.9
		c0.6-0.3,1.1-0.6,1.7-0.9c1.1-0.5,2.4-0.6,3.6-1c1.4-0.5,5.6-2.9,7-3.1"/>
	<g>
		<path class="st4" d="M1297.7,209.6c5.9-1.7,11.9-0.7,17.8-2c1.9-0.4,7.8-1.1,8.8-3.1c0.8-1.6-1.6-5.2-3.1-5.8
			c-1.4-0.5-3.5,0.9-4.6,1.3c-3,1.2-6,2.5-9.1,3.6c-4.3,1.5-8.5,3.4-12.8,5c-4.4,1.6-9.4,1.5-14.1,1.8c-4.4,0.3-9.5,0.7-13.3,3.3
			c-1.7,1.1-4,3.8-3.4,5.9c0,0.1,0.2,0.2,0.3,0.2c2.7,0.2,5.5-0.9,8.1-1.4c3.4-0.7,6.9-1.2,10.2-2.4c4.1-1.5,8.2-3.8,12.3-5
			c0.4-0.1,0.2-0.7-0.2-0.6c-3.1,0.9-5.8,2.6-8.8,3.6c-4.5,1.5-8.9,2.7-13.6,3.7c-2.7,0.6-8.3,2.3-5.8-2.6c1.1-2.2,6.7-3.3,9.1-3.8
			c5-1,10.3-0.4,15.3-1.1c2-0.3,4-1.1,5.8-1.8c5.5-2.3,11.1-4.3,16.7-6.6c1.4-0.6,3-1.4,4.4-1.8c1.4-0.3,4-1,5,0.8
			c2.5,4.6-6.1,5.7-8.3,6.1c-5.7,1-11.3,0.1-16.9,1.8C1297.2,209.2,1297.3,209.8,1297.7,209.6L1297.7,209.6z"/>
	</g>
</g>
<g id="XMLID_465_">
	<path class="st40" d="M1294.2,198c2.6-0.8,5.2-1.3,7.9-1.3c1.2,0,2.3,0.1,3.5,0.1c5,0,9.8-1.4,14.4-3.2c0.2-0.1,0.5-0.2,0.6-0.4
		c0.1-0.2,0.1-0.4,0-0.7c-0.3-1.5-1-3-2-4.1c-0.2-0.3-0.5-0.5-0.9-0.7c-0.6-0.2-1.2,0-1.8,0.3c-2.4,0.9-4.7,1.9-7.1,2.8
		c-1.6,0.6-3.1,1.2-4.7,1.8c-1.1,0.4-2.2,0.7-3.4,1.1c-2.7,0.9-5.3,2-7.8,3.3l-4.2,1.5c-1.9,0.6-4,0.2-6.1,0.3
		c-1.6,0.1-3.2,0.5-4.9,0.6c-0.8,0.1-1.7,0-2.5,0.1c-3.9,0.1-7.7,1.6-11.3,3.2c-0.3,0.1-0.6,0.3-0.9,0.5c-0.2,0.2-0.3,0.4-0.4,0.6
		c-0.6,1-1.2,2-1.8,3c-0.3,0.4-0.5,1.1-0.1,1.4c0.2,0.2,0.6,0.1,0.9,0.1c4.8-1,9.5-2,14.3-3c1-0.2,2-0.4,3-0.9
		c0.6-0.3,1.1-0.6,1.7-0.9c1.1-0.5,2.4-0.6,3.6-1c1.4-0.5,5.6-2.9,7-3.1"/>
	<g>
		<path class="st4" d="M1294.3,198.3c5.9-1.7,11.9-0.7,17.8-2c1.9-0.4,7.8-1.1,8.8-3.1c0.8-1.6-1.6-5.2-3.1-5.8
			c-1.4-0.5-3.5,0.9-4.6,1.3c-3,1.2-6,2.5-9.1,3.6c-4.3,1.5-8.5,3.4-12.8,5c-4.4,1.6-9.4,1.5-14.1,1.8c-4.4,0.3-9.5,0.7-13.3,3.3
			c-1.7,1.1-4,3.8-3.4,5.9c0,0.1,0.2,0.2,0.3,0.2c2.7,0.2,5.5-0.9,8.1-1.4c3.4-0.7,6.9-1.2,10.2-2.4c4.1-1.5,8.2-3.8,12.3-5
			c0.4-0.1,0.2-0.7-0.2-0.6c-3.1,0.9-5.8,2.6-8.8,3.6c-4.5,1.5-8.9,2.7-13.6,3.7c-2.7,0.6-8.3,2.3-5.8-2.6c1.1-2.2,6.7-3.3,9.1-3.8
			c5-1,10.3-0.4,15.3-1.1c2-0.3,4-1.1,5.8-1.8c5.5-2.3,11.1-4.3,16.7-6.6c1.4-0.6,3-1.4,4.4-1.8c1.4-0.3,4-1,5,0.8
			c2.5,4.6-6.1,5.7-8.3,6.1c-5.7,1-11.3,0.1-16.9,1.8C1293.8,197.8,1293.9,198.4,1294.3,198.3L1294.3,198.3z"/>
	</g>
</g>
<g id="XMLID_458_">
	<defs>
		<path id="SVGID_2_" d="M1299.3,219.2c-2-9-4.7-18-6.1-27.1c-0.1-0.3-0.1-0.7-0.3-0.9c-0.4-0.5-1.2-0.5-1.9-0.4
			c-0.2,0-0.4,0.1-0.6,0.2c-0.2,0.2-0.2,0.5-0.2,0.7c0.1,9.7,3.1,19,4.8,28.6"/>
	</defs>
	<use xlink:href="#SVGID_2_"  style="overflow:visible;fill:#A6A8AB;"/>
	<clipPath id="SVGID_3_">
		<use xlink:href="#SVGID_2_"  style="overflow:visible;"/>
	</clipPath>
	<g id="XMLID_319_" class="st41">
		<g>
			<path class="st4" d="M1289.6,203.4c1-0.6,2.2-0.8,3.4-1c1.1-0.2,2.2-0.5,3.4-0.7c0.4-0.1,0.2-0.7-0.2-0.6
				c-1.3,0.3-2.6,0.5-3.9,0.8c-1,0.2-2.1,0.4-3,1C1289,203,1289.3,203.6,1289.6,203.4L1289.6,203.4z"/>
		</g>
	</g>
	<g id="XMLID_501_" class="st41">
		<g>
			<path class="st4" d="M1291.4,206.7c0.9-0.2,1.9-0.3,2.8-0.6c0.9-0.2,1.7-0.7,2.6-0.9c0.4-0.1,0.2-0.7-0.2-0.6
				c-0.9,0.2-1.7,0.7-2.6,0.9c-0.9,0.2-1.9,0.3-2.8,0.6C1290.9,206.2,1291,206.8,1291.4,206.7L1291.4,206.7z"/>
		</g>
	</g>
</g>
<g id="XMLID_316_">
	<path class="st42" d="M1287.2,223.6c0.4,3,1.4,6,3,8.6c0.2,0.4,0.5,0.8,1,1c0.3,0.1,0.6,0,0.9,0c3.1-0.6,6.2-1.3,9.3-1.9
		c1.6-0.4,3.4-0.8,4.6-1.9c1.6-1.4,2.2-3.5,2.7-5.5c0.4-1.5,0.8-3.2,0.1-4.7c-0.2-0.4-0.5-0.8-1-1c-0.5-0.2-1.1-0.1-1.6,0
		c-6.1,1.3-12.2,2.6-18.3,3.9c-0.3,0.1-0.6,0.1-0.9,0.3c-0.2,0.2-0.4,0.6-0.2,0.8L1287.2,223.6z"/>
	<g>
		<path class="st4" d="M1286.9,223.7c0.4,2.2,1.3,7.9,3.5,9.3c1.9,1.3,5.3-0.3,7.2-0.7c3-0.6,6.8-0.9,9.1-3.2
			c1.7-1.8,2.8-5.2,2.9-7.6c0.2-6.5-8.1-2.6-11.7-1.8c-1.4,0.3-13.6,1.4-10.9,4.1c0.3,0.3,0.7-0.2,0.4-0.4c-1-1,3.5-1.6,3.9-1.7
			c2.2-0.5,4.4-0.9,6.7-1.4c2-0.4,4.6-1.5,6.7-1.4c2.4-1.1,3.7,0.2,4.1,3.8c-0.1,0.6-0.3,1.2-0.5,1.8c-1.7,6-6.4,6.4-11.6,7.5
			c-1,0.2-2.1,0.4-3.1,0.6c-2.1,0.5-3.4-0.1-3.9-1.8c-1.4-1.9-1.9-5-2.2-7.2C1287.4,223.1,1286.9,223.3,1286.9,223.7z"/>
	</g>
</g>
</svg>
