<?xml version="1.0" encoding="utf-8"?>
<!-- Generator: Adobe Illustrator 19.0.0, SVG Export Plug-In . SVG Version: 6.00 Build 0)  -->
<svg version="1.1" id="Layer_1" xmlns="http://www.w3.org/2000/svg" xmlns:xlink="http://www.w3.org/1999/xlink" x="0px" y="0px"
	 viewBox="0 0 1920 300" style="enable-background:new 0 0 1920 300;" xml:space="preserve">
<style type="text/css">
	.st0{fill:url(#XMLID_273_);}
	.st1{fill:none;stroke:#3B2314;stroke-width:3;stroke-miterlimit:10;}
	.st2{fill:url(#XMLID_274_);stroke:#3B2314;stroke-width:6;stroke-miterlimit:10;}
	.st3{fill:url(#XMLID_275_);}
	.st4{fill:url(#XMLID_276_);}
	.st5{fill:#231F20;}
	.st6{fill:url(#XMLID_277_);}
	.st7{fill:url(#XMLID_278_);}
	.st8{fill:url(#XMLID_279_);}
	.st9{fill:url(#XMLID_280_);}
	.st10{fill:url(#XMLID_281_);}
	.st11{fill:url(#XMLID_282_);}
	.st12{fill:url(#XMLID_283_);}
	.st13{fill:url(#XMLID_284_);}
	.st14{fill:url(#XMLID_285_);}
	.st15{fill:url(#XMLID_286_);}
	.st16{fill:url(#XMLID_287_);}
	.st17{fill:url(#XMLID_288_);}
	.st18{fill:url(#XMLID_289_);}
	.st19{fill:url(#XMLID_290_);}
	.st20{fill:url(#XMLID_291_);}
	.st21{fill:url(#XMLID_292_);}
	.st22{fill:url(#XMLID_293_);stroke:#3B2314;stroke-width:2;stroke-miterlimit:10;}
	.st23{fill:url(#XMLID_294_);stroke:#3B2314;stroke-width:3;stroke-miterlimit:10;}
	.st24{fill:url(#XMLID_295_);stroke:#3B2314;stroke-width:2;stroke-miterlimit:10;}
	.st25{fill:url(#XMLID_296_);stroke:#3B2314;stroke-width:4;stroke-miterlimit:10;}
	.st26{fill:url(#XMLID_297_);stroke:#3B2314;stroke-width:4;stroke-miterlimit:10;}
	.st27{fill:url(#XMLID_298_);stroke:#3B2314;stroke-width:2;stroke-miterlimit:10;}
	.st28{fill:url(#XMLID_299_);stroke:#3B2314;stroke-width:2;stroke-miterlimit:10;}
	.st29{fill:url(#XMLID_300_);stroke:#3B2314;stroke-width:2;stroke-miterlimit:10;}
	.st30{fill:url(#XMLID_301_);stroke:#3B2314;stroke-width:3;stroke-miterlimit:10;}
</style>
<g id="XMLID_1_">
	<g id="XMLID_2_">
		<linearGradient id="XMLID_273_" gradientUnits="userSpaceOnUse" x1="-25.905" y1="241.3687" x2="1945.905" y2="241.3687">
			<stop  offset="1.654333e-006" style="stop-color:#AD502C"/>
			<stop  offset="1" style="stop-color:#6E3C25"/>
		</linearGradient>
		<path id="XMLID_4_" class="st0" d="M1928.2,167.4l17.7,147.9c-97.2,0-1842.6,0-1965.1,0c-4.4,0-6.8,0-6.8,0V167.4
			C625.5,167.4,1276.8,167.4,1928.2,167.4z"/>
	</g>
	<g id="XMLID_3_">
		<path id="XMLID_5_" class="st1" d="M-19.1,315.3c-4.4,0-6.8,0-6.8,0V167.4c651.4,0,1302.7,0,1954.1,0l17.7,147.9
			C1848.7,315.3,103.3,315.3-19.1,315.3z"/>
	</g>
</g>
<radialGradient id="XMLID_274_" cx="142.5258" cy="363.3198" r="152.19" gradientTransform="matrix(1 0 0 0.5681 0 63.6728)" gradientUnits="userSpaceOnUse">
	<stop  offset="8.271665e-007" style="stop-color:#441000"/>
	<stop  offset="5.189622e-002" style="stop-color:#461404"/>
	<stop  offset="0.3551" style="stop-color:#4E2715"/>
	<stop  offset="0.6673" style="stop-color:#53321F"/>
	<stop  offset="1" style="stop-color:#553622"/>
</radialGradient>
<ellipse id="XMLID_10_" class="st2" cx="142.2" cy="244.9" rx="107.2" ry="15"/>
<g id="XMLID_19_">
	<linearGradient id="XMLID_275_" gradientUnits="userSpaceOnUse" x1="551.0061" y1="52.9443" x2="662.2795" y2="52.9443">
		<stop  offset="4.135833e-007" style="stop-color:#EC1C24"/>
		<stop  offset="1" style="stop-color:#7C0000"/>
	</linearGradient>
	<path id="XMLID_38_" class="st3" d="M553.5,15.1c13.3,1,26.5,2,39.8,3c4.1,0.3,8.3,0.6,12.4,1.1c4.1,0.5,8.2,1.2,12.3,1.6
		c13.6,1.5,27.3,0.4,41,0.5c1.2,0,2.6,0.2,3.1,1.2c0.3,0.6,0.2,1.4,0.1,2c-2.9,16.2-4.5,32.7-6,49.1c-0.4,4.5-0.8,9.2,0.1,13.6
		c0.1,0.5,0.2,1,0,1.4c-0.3,0.7-1.1,0.9-1.9,1.1c-7.1,1.3-14.4,1.3-21.5,0.1c-4.1-0.7-8.2-1.9-12.3-2.7c-4.7-0.9-9.4-1.3-14.1-1.9
		c-4.7-0.6-9.5-1.3-14.2-1.9c-13.7-1.7-27.5-2.3-41.3-2.9"/>
</g>
<g id="XMLID_18_">
	<linearGradient id="XMLID_276_" gradientUnits="userSpaceOnUse" x1="536.628" y1="98.1902" x2="551.0376" y2="98.6934">
		<stop  offset="0" style="stop-color:#FFFFFF"/>
		<stop  offset="1" style="stop-color:#5F5758"/>
	</linearGradient>
	<path id="XMLID_219_" class="st4" d="M541.2,9.6c-2.5,58.4-5.1,116.8-7.6,175.1c0.8,0.4,1.6,0.9,2.3,1.3c0.4,0.2,0.8,0.4,1.1,0.7
		c0.2,0.2,0.5,0.4,0.7,0.5c0.5,0.3,1.2,0.3,1.8,0.4c0.7,0.1,1.5,0.1,2.2,0c1.7-0.1,3.2-0.9,4.8-1.6c2.6-58.9,5.1-117.8,7.7-176.7
		C551,9.4,544.1,9,541.2,9C541.2,9.2,541.2,9.4,541.2,9.6z"/>
	<g id="XMLID_54_">
		<path id="XMLID_143_" class="st5" d="M540.6,9.6c-2.5,58.4-5.1,116.8-7.6,175.1c0,0.2,0.1,0.4,0.3,0.5c5.1,2.9,7.7,4,13.5,1.3
			c0.2-0.1,0.3-0.3,0.3-0.5c2.6-58.9,5.1-117.8,7.7-176.7c0-0.3-0.3-0.6-0.6-0.6c-4.3-0.1-8.6-0.4-12.9-0.5c-0.3,0-0.6,0.3-0.6,0.6
			C540.6,9.2,540.6,9.4,540.6,9.6c0,0.8,1.2,0.8,1.3,0c0,0.1,9.6,0.1,10.3,0.4c1.6,0.6,1.2,0.6,1.3,2.4c0,1.6-0.1,3.3-0.2,5
			c-0.1,3.3-0.3,6.6-0.4,9.9c-0.5,12.2-1.1,24.5-1.6,36.7c-1.1,24.8-2.2,49.6-3.2,74.4c-0.5,12.6-1.1,25.1-1.6,37.7
			c-0.1,2.2,0.5,5.9-0.3,7.9c-1.5,3.7-6.4,3.6-9.1,1.8c-2.9-1.9-2.5-3.9-2.3-7.1c0.1-3.3,0.3-6.6,0.4-10c1.1-25.2,2.2-50.4,3.3-75.6
			c1.2-27.9,2.4-55.7,3.6-83.6C541.9,8.8,540.6,8.8,540.6,9.6z"/>
	</g>
</g>
<g id="XMLID_20_">
	<linearGradient id="XMLID_277_" gradientUnits="userSpaceOnUse" x1="860.8105" y1="213.83" x2="906.9755" y2="213.83">
		<stop  offset="0" style="stop-color:#888A8C"/>
		<stop  offset="1" style="stop-color:#231F20"/>
	</linearGradient>
	<path id="XMLID_262_" class="st6" d="M906.8,224.1c0-2-0.9-3.8-1.8-5.6c-2.3-4.2-4.8-8.2-7.5-12.1c-0.6-0.8-1.2-1.7-2.1-2.2
		c-1.2-0.8-2.7-0.8-4.2-0.8c-3.9-0.1-7.8-0.1-11.8-0.2c-0.8,0-1.6,0-2.3,0.2c-1,0.3-1.9,1.2-2.6,2c-5.2,5.9-8,13.6-13.7,19.1
		c18.5,0,46.2,0,46.2,0"/>
	<g id="XMLID_257_">
		<path id="XMLID_261_" class="st5" d="M908,224.1c-0.6-6.1-5.1-11.9-8.5-16.8c-1.3-1.8-2.4-3.7-4.5-4.5c-2.9-1.2-6.7-0.7-9.7-0.7
			c-5.8-0.1-9.1-0.8-12.9,3.9c-4.5,5.7-7.4,12.4-12.5,17.6c-0.8,0.8-0.2,2.1,0.9,2.1c15.4,0,30.8,0,46.2,0c1.6,0,1.6-2.5,0-2.5
			c-15.4,0-30.8,0-46.2,0c0.3,0.7,0.6,1.4,0.9,2.1c2.9-2.9,5.1-6.2,7.2-9.6c2.9-4.7,5.4-10.8,11.5-11.3c2.6-0.2,5.3,0.1,7.8,0.1
			c1.6,0,4-0.2,5.5,0.3c1.5,0.6,2.7,2.4,3.7,3.7c3.1,4.1,7.6,10.3,8.1,15.5C905.7,225.7,908.2,225.7,908,224.1L908,224.1z"/>
	</g>
</g>
<g id="XMLID_21_">
	<linearGradient id="XMLID_278_" gradientUnits="userSpaceOnUse" x1="845.6803" y1="218.0931" x2="867.7631" y2="218.0931">
		<stop  offset="0" style="stop-color:#888A8C"/>
		<stop  offset="1" style="stop-color:#231F20"/>
	</linearGradient>
	<path id="XMLID_256_" class="st7" d="M867.8,212.8c-4.8,0.2-9.5,0.7-14.2,1.6c-0.5,0.1-1,0.2-1.5,0.5c-0.6,0.4-1.1,1-1.5,1.6
		c-1.6,2.3-3.3,4.6-4.9,6.9c0.2,0,16.2,0,16.2,0"/>
	<g id="XMLID_215_">
		<path id="XMLID_255_" class="st5" d="M867.8,211.6c-4.7,0.2-10.8,0.1-15.3,1.9c-3.6,1.4-5.8,6.3-7.9,9.3c-0.6,0.8,0.2,1.9,1.1,1.9
			c5.4,0,10.8,0,16.2,0c1.6,0,1.6-2.5,0-2.5c-5.4,0-10.8,0-16.2,0c0.4,0.6,0.7,1.3,1.1,1.9c2.5-3.6,4.3-7.5,8.7-8.7
			c3.9-1,8.3-1.1,12.3-1.3C869.4,214,869.4,211.5,867.8,211.6L867.8,211.6z"/>
	</g>
</g>
<g id="XMLID_22_">
	<linearGradient id="XMLID_279_" gradientUnits="userSpaceOnUse" x1="878.2896" y1="209.2058" x2="902.143" y2="209.2058">
		<stop  offset="0" style="stop-color:#888A8C"/>
		<stop  offset="1" style="stop-color:#231F20"/>
	</linearGradient>
	<path id="XMLID_214_" class="st8" d="M878.3,204.7c2.5,2.7,5.2,5.4,8,7.9c0.3,0.3,0.6,0.5,1,0.7c0.5,0.2,1,0.2,1.5,0.2
		c4.4,0.1,8.9,0.2,13.3,0.1"/>
	<g id="XMLID_209_">
		<path id="XMLID_213_" class="st5" d="M877.4,205.6c2.5,2.7,5.9,7.4,9.4,8.8c1.7,0.7,4,0.4,5.8,0.4c3.2,0.1,6.3,0,9.5,0
			c1.6,0,1.6-2.5,0-2.5c-4.5,0.1-9.5,0.6-13.8-0.9c-3.8-1.4-6.5-4.7-9.2-7.6C878.1,202.7,876.3,204.4,877.4,205.6L877.4,205.6z"/>
	</g>
</g>
<g id="XMLID_23_">
	<linearGradient id="XMLID_280_" gradientUnits="userSpaceOnUse" x1="878.088" y1="216.6781" x2="886.4697" y2="216.6781">
		<stop  offset="0" style="stop-color:#888A8C"/>
		<stop  offset="1" style="stop-color:#231F20"/>
	</linearGradient>
	<path id="XMLID_207_" class="st9" d="M886.5,212.5c-2.1,1.1-4.3,2.3-5.5,4.3c-0.9,1.4-1.4,3.3-2.8,4.1"/>
	<g id="XMLID_202_">
		<path id="XMLID_206_" class="st5" d="M885.8,211.4c-1.8,1-3.6,2-5,3.5c-1.3,1.4-1.8,3.8-3.4,4.9c-1.3,0.9-0.1,3.1,1.3,2.2
			c1.6-1.1,2.2-2.8,3.2-4.4c1.2-1.9,3.3-3,5.2-4C888.5,212.8,887.3,210.6,885.8,211.4L885.8,211.4z"/>
	</g>
</g>
<g id="XMLID_24_">
	<linearGradient id="XMLID_281_" gradientUnits="userSpaceOnUse" x1="397.6617" y1="188.3433" x2="460.9311" y2="188.3433">
		<stop  offset="0" style="stop-color:#636466"/>
		<stop  offset="1" style="stop-color:#231F20"/>
	</linearGradient>
	<path id="XMLID_200_" class="st10" d="M397.7,199.5c5.5-5.9,10.6-12.2,15.2-18.7c0.5-0.7,1-1.5,1.8-1.9c0.7-0.4,1.5-0.6,2.3-0.7
		c5.7-0.9,11.6-0.4,17.4-0.8c0.4,0,0.7-0.1,1.1,0.1c0.3,0.1,0.6,0.4,0.9,0.7c5,5,10,10.1,15,15.1c1.7,1.7,3.5,3.5,5.7,4.5
		c0,0,1.9,0.9,3.9,1.8c-1.5,0-3,0-3,0h-59.7"/>
	<g id="XMLID_177_">
		<path id="XMLID_181_" class="st5" d="M398.5,200.3c4.3-4.7,8.3-9.5,12.1-14.5c0.9-1.2,2.2-3.5,3.3-4.5c2.1-1.7,5.2-2.3,7.9-2.5
			c3.4-0.2,7.2-0.5,10.6-0.2c2.3,0.2,3.2,0.6,5.1,2.3c1.2,1.1,2.3,2.3,3.4,3.4c2.7,2.7,5.5,5.5,8.2,8.2c3.5,3.5,6.7,5.8,11.2,7.9
			c0.2-0.8,0.4-1.6,0.6-2.3c-20.9,0-41.8,0-62.7,0c-1.6,0-1.6,2.5,0,2.5c20.9,0,41.8,0,62.7,0c1.2,0,1.8-1.8,0.6-2.3
			c-6.6-3.1-11-7.9-16.1-13c-2.6-2.6-5.3-6.3-8.4-8.4c-2.2-1.5-4.8-0.8-7.4-0.7c-5.1,0.1-12.8-1.1-16.8,2.7c-2.8,2.6-5,6.8-7.5,9.8
			c-2.7,3.4-5.6,6.6-8.5,9.9C395.7,199.8,397.5,201.5,398.5,200.3L398.5,200.3z"/>
	</g>
</g>
<g id="XMLID_26_">
	<linearGradient id="XMLID_282_" gradientUnits="userSpaceOnUse" x1="96.1676" y1="195.4865" x2="134.28" y2="195.4865">
		<stop  offset="0" style="stop-color:#696A6D"/>
		<stop  offset="1" style="stop-color:#231F20"/>
	</linearGradient>
	<path id="XMLID_175_" class="st11" d="M113.6,185.6c-0.6,6.7-1.6,13.4-3,20c-0.1,0.5-0.2,1-0.6,1.2c-0.3,0.2-0.7,0.1-1,0.1
		c-3.5-0.4-6.9-1-10.3-1.8c-0.6-0.2-1.3-0.3-1.8-0.8c-0.7-0.7-0.8-1.9-0.5-2.8c0.3-1,0.8-1.8,1.2-2.7c1.5-3.4,0.7-7.4,1.4-11.1
		c0.3-1.4,0.9-2.9,2.3-3.3c0.5-0.2,1.1-0.2,1.6-0.1c7.9,0.2,15.9,0.9,23.7,1.9c0.1,0,0.2,0,0.3,0.1c0.2,0.1,0.2,0.4,0.2,0.6
		c-0.1,4.5-0.1,9.4,2.7,13c1.7,2.2,4.3,3.9,4.5,7c-0.9,0-24.9,0-24.9,0"/>
	<g id="XMLID_150_">
		<path id="XMLID_167_" class="st5" d="M112.4,185.6c-0.5,4.8-1.1,9.5-1.9,14.2c-0.2,1.3-0.3,4.7-1.2,5.6c-0.7,0.7-5.6-0.6-6.8-0.8
			c-1.6-0.3-4.6-0.5-4.9-2.8c-0.1-0.8,1.9-4.7,2.1-5.8c0.7-4.1-1.1-9.5,4.3-10.6c3.9-0.7,8.9,0.4,12.9,0.8c1.7,0.1,6.6-0.2,7.9,0.8
			c1.6,1.2,1.1,2.4,1.3,4.3c0.2,2.7,0.6,5.5,2,7.8c1.6,2.8,4.6,4.6,5.2,7.9c0.4-0.5,0.8-1.1,1.2-1.6c-8.3,0-16.6,0-24.9,0
			c-1.6,0-1.6,2.5,0,2.5c8.3,0,16.6,0,24.9,0c0.9,0,1.3-0.8,1.2-1.6c-0.3-1.9-1.2-3.3-2.4-4.8c-2.4-2.9-4-5.1-4.5-9
			c-0.4-3,1-6.5-1.9-7.9c-3-1.4-8.6-1-11.8-1.2c-3.6-0.3-7.3-0.6-10.9-0.6c-4.3,0-5.8,1.7-6.3,5.9c-0.4,3.2-0.1,6.1-1.2,9.3
			c-0.5,1.5-1.6,3-1.4,4.6c0.5,4.4,7,4.3,10.2,4.8c2.9,0.5,5.5,1.4,6.7-1.7c2.3-5.9,2.4-14,3-20.3C115,184,112.5,184,112.4,185.6
			L112.4,185.6z"/>
	</g>
</g>
<g id="XMLID_28_">
	<linearGradient id="XMLID_283_" gradientUnits="userSpaceOnUse" x1="106.691" y1="177.327" x2="121.2351" y2="177.327">
		<stop  offset="0" style="stop-color:#696A6D"/>
		<stop  offset="1" style="stop-color:#231F20"/>
	</linearGradient>
	<path id="XMLID_146_" class="st12" d="M121.2,184.7c-0.6-4.1-1.6-8.2-2.9-12.1c-0.2-0.7-0.5-1.4-1-1.8c-0.5-0.4-1.1-0.5-1.8-0.5
		c-2.9-0.3-5.9-0.4-8.8-0.3c-0.3,2.5,0.8,4.9,1.6,7.3c0.6,2,1,4,1.2,6"/>
	<g id="XMLID_140_">
		<path id="XMLID_145_" class="st5" d="M122.4,184.4c-0.4-2.6-1-5.2-1.6-7.8c-0.5-1.9-0.8-4.5-2-6.1c-1-1.2-2.3-1.4-3.7-1.6
			c-2.7-0.3-5.5-0.3-8.3-0.2c-0.7,0-1.2,0.6-1.3,1.3c-0.2,4.6,2.3,8.9,2.8,13.4c0.2,1.6,2.7,1.6,2.5,0c-0.2-2-0.6-4-1.1-5.9
			c-0.8-2.5-1.8-4.8-1.7-7.5c-0.4,0.4-0.8,0.8-1.3,1.3c1.7-0.1,3.3-0.1,5,0c0.8,0,2-0.1,2.8,0.2c1.8,0.6,2.7,1.4,3.2,3.1
			c1,3.4,1.8,7,2.4,10.5C120.3,186.6,122.7,186,122.4,184.4L122.4,184.4z"/>
	</g>
</g>
<g id="XMLID_35_">
	<linearGradient id="XMLID_284_" gradientUnits="userSpaceOnUse" x1="60.382" y1="180.067" x2="112.1001" y2="180.067">
		<stop  offset="0" style="stop-color:#696A6D"/>
		<stop  offset="1" style="stop-color:#231F20"/>
	</linearGradient>
	<path id="XMLID_138_" class="st13" d="M112.1,169.9c-0.5-2.6-1.3-5.3-2.1-7.8c-0.2-0.6-0.4-1.2-0.9-1.6c-0.5-0.3-1.1-0.4-1.7-0.4
		c-6.5-0.3-12.9-0.3-19.4-0.2c-0.6,0-1.1,0-1.6,0.3c-0.5,0.4-0.8,1-1,1.7c-0.6,1.6-1.3,3.1-2.1,4.6c-3,6.1-6.1,12.1-9.3,18.1
		c-1.4,2.7-2.9,5.3-4.8,7.6c-1.4,1.6-2.9,2.9-4.5,4.3c-1.4,1.2-2.8,2.4-4.2,3.6h35.2"/>
	<g id="XMLID_132_">
		<path id="XMLID_137_" class="st5" d="M113.3,169.6c-0.9-4.2-1.1-9.9-6-10.7c-4.3-0.7-9.2-0.3-13.6-0.2c-2.2,0-6.3-0.7-8.3,0.8
			c-2.2,1.7-3,5.9-4.1,8.2c-1.9,3.9-3.9,7.7-5.9,11.6c-2.2,4.2-4.2,8.7-7.2,12.3c-2.5,3-5.8,5.4-8.7,7.9c-0.8,0.7-0.1,2.1,0.9,2.1
			c11.7,0,23.5,0,35.2,0c1.6,0,1.6-2.5,0-2.5c-11.7,0-23.5,0-35.2,0c0.3,0.7,0.6,1.4,0.9,2.1c4.5-3.9,8.9-7.4,12-12.6
			c3.3-5.5,6.1-11.4,9-17.1c1.2-2.3,2.1-5.3,3.6-7.4c2.8-3.9,7.7-2.9,11.8-2.9c2.4,0,7.6-0.8,9.7,0.2c2.7,1.3,3,6.2,3.6,8.9
			C111.2,171.9,113.6,171.2,113.3,169.6L113.3,169.6z"/>
	</g>
</g>
<g id="XMLID_44_">
	<linearGradient id="XMLID_285_" gradientUnits="userSpaceOnUse" x1="572.0583" y1="275.2871" x2="609.9074" y2="275.2871">
		<stop  offset="0" style="stop-color:#616264"/>
		<stop  offset="1" style="stop-color:#231F20"/>
	</linearGradient>
	<path id="XMLID_123_" class="st14" d="M572.2,283c0-1.5,0.7-2.9,1.5-4.2c1.9-3.1,3.9-6.2,6.1-9.1c0.5-0.6,1-1.3,1.7-1.7
		c1-0.6,2.2-0.6,3.4-0.6c3.2-0.1,6.4-0.1,9.6-0.2c0.6,0,1.3,0,1.9,0.2c0.9,0.3,1.5,0.9,2.1,1.5c4.2,4.5,6.6,10.2,11.2,14.4
		c-15.1,0-37.8,0-37.8,0"/>
	<g id="XMLID_117_">
		<path id="XMLID_122_" class="st5" d="M573.4,283.3c0.6-4.1,3.9-8.2,6.4-11.5c2.9-3.9,8.2-3.7,12.9-3.3c5.7,0.5,7.3,3.9,10.3,8.3
			c1.8,2.6,3.7,5.1,6,7.3c0.3-0.7,0.6-1.4,0.9-2.1c-12.6,0-25.2,0-37.8,0c-1.6,0-1.6,2.5,0,2.5c12.6,0,25.2,0,37.8,0
			c1.1,0,1.7-1.4,0.9-2.1c-4.1-3.9-6.5-9-10.2-13.2c-3.3-3.7-6-3.2-10.8-3.1c-4.1,0.1-7.9-0.6-10.8,2.8c-3.2,3.6-7.3,8.9-8,13.8
			C570.8,284.2,573.2,284.9,573.4,283.3L573.4,283.3z"/>
	</g>
</g>
<g id="XMLID_42_">
	<linearGradient id="XMLID_286_" gradientUnits="userSpaceOnUse" x1="604.2073" y1="278.4967" x2="622.3121" y2="278.4967">
		<stop  offset="0" style="stop-color:#616264"/>
		<stop  offset="1" style="stop-color:#231F20"/>
	</linearGradient>
	<path id="XMLID_115_" class="st15" d="M604.2,274.5c3.9,0.1,7.8,0.5,11.6,1.2c0.4,0.1,0.8,0.2,1.2,0.3c0.5,0.3,0.9,0.7,1.2,1.2
		c1.3,1.7,2.7,3.5,4,5.2c-0.2,0-13.3,0-13.3,0"/>
	<g id="XMLID_109_">
		<path id="XMLID_114_" class="st5" d="M604.2,275.8c3.1,0.1,6.3,0.4,9.4,0.8c3.7,0.6,5.5,3.7,7.6,6.5c0.4-0.6,0.7-1.3,1.1-1.9
			c-4.4,0-8.9,0-13.3,0c-1.6,0-1.6,2.5,0,2.5c4.4,0,8.9,0,13.3,0c0.9,0,1.7-1.1,1.1-1.9c-1.8-2.4-3.7-6.1-6.6-7.1
			c-3.7-1.3-8.6-1.3-12.6-1.4C602.6,273.2,602.6,275.7,604.2,275.8L604.2,275.8z"/>
	</g>
</g>
<g id="XMLID_36_">
	<linearGradient id="XMLID_287_" gradientUnits="userSpaceOnUse" x1="576.0203" y1="271.8058" x2="595.5769" y2="271.8058">
		<stop  offset="0" style="stop-color:#616264"/>
		<stop  offset="1" style="stop-color:#231F20"/>
	</linearGradient>
	<path id="XMLID_107_" class="st16" d="M595.6,268.4c-2.1,2.1-4.3,4-6.6,5.9c-0.3,0.2-0.5,0.4-0.8,0.5c-0.4,0.2-0.8,0.2-1.2,0.2
		c-3.6,0.1-7.3,0.1-10.9,0.1"/>
	<g id="XMLID_100_">
		<path id="XMLID_105_" class="st5" d="M594.7,267.5c-2.7,2.7-5.3,5.7-9.3,6.3c-3,0.5-6.4,0.1-9.4,0c-1.6,0-1.6,2.5,0,2.5
			c2.3,0,4.7,0,7,0c1.7,0,3.9,0.3,5.5-0.3c3-1.1,5.7-4.6,7.9-6.8C597.6,268.2,595.8,266.4,594.7,267.5L594.7,267.5z"/>
	</g>
</g>
<g id="XMLID_29_">
	<linearGradient id="XMLID_288_" gradientUnits="userSpaceOnUse" x1="588.8703" y1="277.4314" x2="595.7422" y2="277.4314">
		<stop  offset="0" style="stop-color:#616264"/>
		<stop  offset="1" style="stop-color:#231F20"/>
	</linearGradient>
	<path id="XMLID_97_" class="st17" d="M588.9,274.3c1.7,0.8,3.5,1.7,4.5,3.2c0.8,1.1,1.1,2.5,2.3,3.1"/>
	<g id="XMLID_92_">
		<path id="XMLID_96_" class="st5" d="M588.2,275.3c1.6,0.8,3.3,1.6,4.3,3.1c0.8,1.2,1.3,2.4,2.6,3.3c1.4,0.9,2.6-1.3,1.3-2.2
			c-1.2-0.8-1.6-2.5-2.6-3.6c-1.2-1.2-2.7-2-4.3-2.8C588.1,272.5,586.8,274.6,588.2,275.3L588.2,275.3z"/>
	</g>
</g>
<g id="XMLID_49_">
	<linearGradient id="XMLID_289_" gradientUnits="userSpaceOnUse" x1="1630.1281" y1="289.2961" x2="1687.0507" y2="289.2961">
		<stop  offset="0" style="stop-color:#B3B5B8"/>
		<stop  offset="1" style="stop-color:#231F20"/>
	</linearGradient>
	<path id="XMLID_89_" class="st18" d="M1661,272.2c1,11.6,2.4,23.1,4.4,34.5c0.1,0.8,0.3,1.7,0.9,2.1c0.5,0.3,1,0.2,1.5,0.2
		c5.2-0.7,10.4-1.8,15.5-3.1c1-0.3,2-0.6,2.7-1.3c1.1-1.2,1.2-3.2,0.8-4.9s-1.3-3.2-1.9-4.7c-2.3-5.9-1-12.8-2.1-19.2
		c-0.4-2.4-1.4-5-3.4-5.7c-0.8-0.3-1.6-0.3-2.5-0.3c-11.9,0.4-23.7,1.5-35.4,3.2c-0.2,0-0.4,0.1-0.5,0.2c-0.2,0.2-0.3,0.6-0.2,1
		c0.2,7.8,0.1,16.3-4,22.5c-2.5,3.9-6.5,6.8-6.7,12c1.3,0,37.1,0,37.1,0"/>
	<g id="XMLID_82_">
		<path id="XMLID_87_" class="st5" d="M1659.7,272.2c0.8,9.8,2,19.5,3.5,29.1c0.4,2.3,0.2,7.1,2.5,8.5c2,1.2,5.7-0.2,7.7-0.5
			c5.2-0.9,15.1-1.2,14.9-8.4c-0.2-4.4-3-8.3-3.4-12.8c-0.3-4-0.1-7.9-0.7-11.9c-0.4-2.3-1-5.2-3-6.7c-2.7-2-7-1-10.1-0.8
			c-5.3,0.3-10.5,0.7-15.8,1.2c-2.6,0.3-5.2,0.6-7.9,0.9c-1.5,0.2-5,0.1-6.2,0.9c-1.7,1.1-1.5,1.7-1.6,4c-0.2,4.6,0.1,9.2-1.1,13.7
			c-1.8,7.3-8.7,11.7-9.6,19.2c-0.1,0.7,0.6,1.2,1.3,1.3c12.4,0,24.8,0,37.1,0c1.6,0,1.6-2.5,0-2.5c-12.4,0-24.8,0-37.1,0
			c0.4,0.4,0.8,0.8,1.3,1.3c0.7-5.7,5.8-9.2,8.1-14.3c1.9-4.3,2.5-9.2,2.6-13.9c0-1.4-0.2-3.4,0-4.8c-0.1-0.5-0.1-1-0.2-1.6
			c1.3-0.2,2.5-0.4,3.8-0.5c3.9-0.5,7.7-1,11.6-1.4c3.3-0.3,6.6-0.6,9.9-0.8c2-0.1,3.9-0.2,5.9-0.3c2.9-0.1,3.7-0.4,6.1,1.7
			c2.8,2.3,2.5,2.7,2.8,6.4c0.1,1.5,0.1,3,0.2,4.5c0.1,2.7,0.1,5.5,0.7,8.2c0.5,2.5,2.7,5.6,2.8,8.1c0.2,5.5-6.6,5.8-10.3,6.5
			c-1.4,0.3-2.9,0.7-4.3,0.8c-1.1,0.5-2.1,0.4-3.1-0.3c-1.4-0.1-2-1-1.7-2.5c-1-2.9-1.1-6.5-1.5-9.5c-1.1-7.6-1.9-15.1-2.6-22.7
			C1662.1,270.6,1659.6,270.6,1659.7,272.2L1659.7,272.2z"/>
	</g>
</g>
<g id="XMLID_46_">
	<linearGradient id="XMLID_290_" gradientUnits="userSpaceOnUse" x1="1649.6111" y1="257.9393" x2="1671.3334" y2="257.9393">
		<stop  offset="0" style="stop-color:#B3B5B8"/>
		<stop  offset="1" style="stop-color:#231F20"/>
	</linearGradient>
	<path id="XMLID_78_" class="st19" d="M1649.6,270.7c1-7.1,2.4-14.1,4.3-20.9c0.3-1.1,0.7-2.3,1.5-3.1c0.7-0.7,1.7-0.8,2.6-0.9
		c4.4-0.6,8.8-0.7,13.2-0.5c0.4,4.3-1.2,8.5-2.4,12.7c-0.9,3.4-1.6,6.9-1.9,10.4"/>
	<g id="XMLID_67_">
		<path id="XMLID_77_" class="st5" d="M1650.8,271c0.8-5.6,1.8-11.1,3.2-16.6c1.1-4.4,2.6-7,7.8-7.7c3.1-0.5,6.3-0.2,9.4-0.1
			c-0.4-0.4-0.8-0.8-1.3-1.3c0.3,7.8-3.4,15.4-4.2,23.1c-0.2,1.6,2.3,1.6,2.5,0c0.8-7.8,4.5-15.3,4.2-23.1c0-0.7-0.6-1.2-1.3-1.3
			c-4.6-0.2-15.2-1.7-17.8,3.5c-3.3,6.5-4,15.8-5,22.9C1648.2,271.9,1650.6,272.6,1650.8,271L1650.8,271z"/>
	</g>
</g>
<g id="XMLID_45_">
	<linearGradient id="XMLID_291_" gradientUnits="userSpaceOnUse" x1="1663.2546" y1="262.6707" x2="1740.4978" y2="262.6707">
		<stop  offset="0" style="stop-color:#B3B5B8"/>
		<stop  offset="1" style="stop-color:#231F20"/>
	</linearGradient>
	<path id="XMLID_65_" class="st20" d="M1663.3,245.2c0.8-4.6,1.9-9.1,3.2-13.5c0.3-1,0.7-2.1,1.4-2.7c0.7-0.6,1.7-0.7,2.6-0.7
		c9.7-0.5,19.3-0.6,29-0.3c0.8,0,1.7,0.1,2.4,0.6c0.8,0.6,1.2,1.8,1.5,2.9c0.9,2.7,2,5.4,3.1,8c4.4,10.5,9.1,21,13.8,31.3
		c2.1,4.6,4.3,9.2,7.2,13.1c2,2.7,4.4,5,6.7,7.3c2.1,2.1,4.2,4.2,6.3,6.3h-52.6"/>
	<g id="XMLID_59_">
		<path id="XMLID_64_" class="st5" d="M1664.5,245.5c0.8-4.2,1.2-11.8,4.6-14.7c3.5-3,13.2-1.7,17.8-1.7c2.9,0,5.8,0,8.7,0.1
			c3.7,0.1,5.4,0.7,7.1,4.2c2.1,4.4,3.7,9.2,5.7,13.7c4.2,9.7,8.3,19.4,13,28.9c4.5,9,11.2,15.4,18.3,22.4c0.3-0.7,0.6-1.4,0.9-2.1
			c-17.5,0-35.1,0-52.6,0c-1.6,0-1.6,2.5,0,2.5c17.5,0,35.1,0,52.6,0c1.1,0,1.7-1.4,0.9-2.1c-4.4-4.3-9.2-8.5-12.9-13.5
			c-3.7-5-6.2-10.8-8.8-16.4c-5.4-11.9-10.6-23.9-15.4-36.1c-1.2-3-2.7-3.7-5.9-3.8c-6.7-0.3-13.5-0.2-20.3,0
			c-3.3,0.1-8.7-0.9-11.4,1.6c-1.8,1.7-2.1,5-2.7,7.2c-0.8,3.1-1.5,6.2-2,9.3C1661.8,246.4,1664.2,247.1,1664.5,245.5L1664.5,245.5z
			"/>
	</g>
</g>
<g id="XMLID_51_">
	<linearGradient id="XMLID_292_" gradientUnits="userSpaceOnUse" x1="1323.0602" y1="170.8337" x2="1386.3296" y2="170.8337">
		<stop  offset="0" style="stop-color:#888A8C"/>
		<stop  offset="1" style="stop-color:#231F20"/>
	</linearGradient>
	<path id="XMLID_208_" class="st21" d="M1323.1,181.9c5.5-5.9,10.6-12.2,15.2-18.7c0.5-0.7,1-1.5,1.8-1.9c0.7-0.4,1.5-0.6,2.3-0.7
		c5.7-0.9,11.6-0.4,17.4-0.8c0.4,0,0.7-0.1,1.1,0.1c0.3,0.1,0.6,0.4,0.9,0.7c5,5,10,10.1,15,15.1c1.7,1.7,3.5,3.5,5.7,4.5
		c0,0,1.9,0.9,3.9,1.8c-1.5,0-3,0-3,0h-59.7"/>
	<g id="XMLID_70_">
		<path id="XMLID_201_" class="st5" d="M1323.9,182.8c4.3-4.7,8.3-9.5,12.1-14.5c0.9-1.2,2.2-3.5,3.3-4.5c2.1-1.7,5.2-2.3,7.9-2.5
			c3.4-0.2,7.2-0.5,10.6-0.2c2.3,0.2,3.2,0.6,5.1,2.3c1.2,1.1,2.3,2.3,3.4,3.4c2.7,2.7,5.5,5.5,8.2,8.2c3.5,3.5,6.7,5.8,11.2,7.9
			c0.2-0.8,0.4-1.6,0.6-2.3c-20.9,0-41.8,0-62.7,0c-1.6,0-1.6,2.5,0,2.5c20.9,0,41.8,0,62.7,0c1.2,0,1.8-1.8,0.6-2.3
			c-6.6-3.1-11-7.9-16.1-13c-2.6-2.6-5.3-6.3-8.4-8.4c-2.2-1.5-4.8-0.8-7.4-0.7c-5.1,0.1-12.8-1.1-16.8,2.7c-2.8,2.6-5,6.8-7.5,9.8
			c-2.7,3.4-5.6,6.6-8.5,9.9C1321.1,182.3,1322.9,184,1323.9,182.8L1323.9,182.8z"/>
	</g>
</g>
<radialGradient id="XMLID_293_" cx="280.9728" cy="138.2992" r="76.095" gradientTransform="matrix(0.6518 0 0 0.4149 94.7116 142.1909)" gradientUnits="userSpaceOnUse">
	<stop  offset="8.271665e-007" style="stop-color:#441000"/>
	<stop  offset="5.189622e-002" style="stop-color:#461404"/>
	<stop  offset="0.3551" style="stop-color:#4E2715"/>
	<stop  offset="0.6673" style="stop-color:#53321F"/>
	<stop  offset="1" style="stop-color:#553622"/>
</radialGradient>
<ellipse id="XMLID_17_" class="st22" cx="277.7" cy="190.4" rx="34.9" ry="5.5"/>
<radialGradient id="XMLID_294_" cx="469.1887" cy="327.9379" r="76.095" gradientTransform="matrix(0.8652 0 0 0.5681 46.499 63.6728)" gradientUnits="userSpaceOnUse">
	<stop  offset="8.271665e-007" style="stop-color:#441000"/>
	<stop  offset="5.189622e-002" style="stop-color:#461404"/>
	<stop  offset="0.3551" style="stop-color:#4E2715"/>
	<stop  offset="0.6673" style="stop-color:#53321F"/>
	<stop  offset="1" style="stop-color:#553622"/>
</radialGradient>
<ellipse id="XMLID_164_" class="st23" cx="452.3" cy="237.4" rx="46.4" ry="7.5"/>
<radialGradient id="XMLID_295_" cx="698.3521" cy="-73.5227" r="76.095" gradientTransform="matrix(0.5627 0 0 0.2841 291.8533 219.9807)" gradientUnits="userSpaceOnUse">
	<stop  offset="8.271665e-007" style="stop-color:#441000"/>
	<stop  offset="5.189622e-002" style="stop-color:#461404"/>
	<stop  offset="0.3551" style="stop-color:#4E2715"/>
	<stop  offset="0.6673" style="stop-color:#53321F"/>
	<stop  offset="1" style="stop-color:#553622"/>
</radialGradient>
<ellipse id="XMLID_168_" class="st24" cx="684.7" cy="192.8" rx="30.2" ry="3.8"/>
<radialGradient id="XMLID_296_" cx="1474.4104" cy="423.0349" r="76.095" gradientTransform="matrix(0.9558 0 0 0.6826 -124.9235 -19.9433)" gradientUnits="userSpaceOnUse">
	<stop  offset="8.271665e-007" style="stop-color:#441000"/>
	<stop  offset="5.189622e-002" style="stop-color:#461404"/>
	<stop  offset="0.3551" style="stop-color:#4E2715"/>
	<stop  offset="0.6673" style="stop-color:#53321F"/>
	<stop  offset="1" style="stop-color:#553622"/>
</radialGradient>
<ellipse id="XMLID_169_" class="st25" cx="1284.2" cy="253.7" rx="51.2" ry="9"/>
<radialGradient id="XMLID_297_" cx="1609.5654" cy="368.1674" r="76.095" gradientTransform="matrix(0.8682 0 0 0.6323 22.4015 10.414)" gradientUnits="userSpaceOnUse">
	<stop  offset="8.271665e-007" style="stop-color:#441000"/>
	<stop  offset="5.189622e-002" style="stop-color:#461404"/>
	<stop  offset="0.3551" style="stop-color:#4E2715"/>
	<stop  offset="0.6673" style="stop-color:#53321F"/>
	<stop  offset="1" style="stop-color:#553622"/>
</radialGradient>
<ellipse id="XMLID_170_" class="st26" cx="1419.7" cy="229.2" rx="46.5" ry="8.4"/>
<radialGradient id="XMLID_298_" cx="1886.6912" cy="212.9238" r="76.095" gradientTransform="matrix(0.716 0 0 0.4704 302.8328 97.9026)" gradientUnits="userSpaceOnUse">
	<stop  offset="8.271665e-007" style="stop-color:#441000"/>
	<stop  offset="5.189622e-002" style="stop-color:#461404"/>
	<stop  offset="0.3551" style="stop-color:#4E2715"/>
	<stop  offset="0.6673" style="stop-color:#53321F"/>
	<stop  offset="1" style="stop-color:#553622"/>
</radialGradient>
<ellipse id="XMLID_171_" class="st27" cx="1653.5" cy="187.7" rx="38.4" ry="6.2"/>
<radialGradient id="XMLID_299_" cx="1285.329" cy="31.8856" r="76.095" gradientTransform="matrix(0.5252 0 0 0.3144 481.9743 192.4888)" gradientUnits="userSpaceOnUse">
	<stop  offset="8.271665e-007" style="stop-color:#441000"/>
	<stop  offset="5.189622e-002" style="stop-color:#461404"/>
	<stop  offset="0.3551" style="stop-color:#4E2715"/>
	<stop  offset="0.6673" style="stop-color:#53321F"/>
	<stop  offset="1" style="stop-color:#553622"/>
</radialGradient>
<ellipse id="XMLID_172_" class="st28" cx="1156.9" cy="195.6" rx="28.2" ry="4.2"/>
<radialGradient id="XMLID_300_" cx="1239.8398" cy="-494.8771" r="76.095" gradientTransform="matrix(0.3002 0 0 0.1572 757.5804 285.3088)" gradientUnits="userSpaceOnUse">
	<stop  offset="8.271665e-007" style="stop-color:#441000"/>
	<stop  offset="5.189622e-002" style="stop-color:#461404"/>
	<stop  offset="0.3551" style="stop-color:#4E2715"/>
	<stop  offset="0.6673" style="stop-color:#53321F"/>
	<stop  offset="1" style="stop-color:#553622"/>
</radialGradient>
<ellipse id="XMLID_173_" class="st29" cx="1129.8" cy="204" rx="16.1" ry="2.1"/>
<radialGradient id="XMLID_301_" cx="900.5712" cy="340.0174" r="76.095" gradientTransform="matrix(0.8806 0 0 0.5578 177.5506 43.5107)" gradientUnits="userSpaceOnUse">
	<stop  offset="8.271665e-007" style="stop-color:#441000"/>
	<stop  offset="5.189622e-002" style="stop-color:#461404"/>
	<stop  offset="0.3551" style="stop-color:#4E2715"/>
	<stop  offset="0.6673" style="stop-color:#53321F"/>
	<stop  offset="1" style="stop-color:#553622"/>
</radialGradient>
<ellipse id="XMLID_174_" class="st30" cx="970.4" cy="220.8" rx="47.2" ry="7.4"/>
</svg>
