<?xml version="1.0" encoding="utf-8"?>
<!-- Generator: Adobe Illustrator 19.0.0, SVG Export Plug-In . SVG Version: 6.00 Build 0)  -->
<svg version="1.1" id="Layer_1" xmlns="http://www.w3.org/2000/svg" xmlns:xlink="http://www.w3.org/1999/xlink" x="0px" y="0px"
	 viewBox="0 0 1920 1080" style="enable-background:new 0 0 1920 1080;" xml:space="preserve">
<style type="text/css">
	.st0{fill:url(#XMLID_3_);stroke:#000000;stroke-miterlimit:10;}
	.st1{fill:url(#XMLID_5_);}
</style>
<linearGradient id="XMLID_3_" gradientUnits="userSpaceOnUse" x1="776.345" y1="77.315" x2="1113.1521" y2="1002.6851">
	<stop  offset="8.271665e-007" style="stop-color:#A97C50"/>
	<stop  offset="0.4303" style="stop-color:#82572E"/>
	<stop  offset="0.5697" style="stop-color:#8B5F35"/>
	<stop  offset="0.6548" style="stop-color:#603913"/>
	<stop  offset="0.7296" style="stop-color:#663E18"/>
	<stop  offset="0.801" style="stop-color:#754B24"/>
	<stop  offset="0.8554" style="stop-color:#6D441D"/>
	<stop  offset="1" style="stop-color:#3C2415"/>
</linearGradient>
<circle id="XMLID_1_" class="st0" cx="944.7" cy="540" r="492.2"/>
<radialGradient id="XMLID_5_" cx="938.1852" cy="552.9787" r="677.5626" gradientTransform="matrix(-0.4992 -0.8646 6.8258 -3.9934 -2373.9875 3572.3645)" gradientUnits="userSpaceOnUse">
	<stop  offset="8.271665e-007" style="stop-color:#A97C50"/>
	<stop  offset="0.233" style="stop-color:#7D522A"/>
	<stop  offset="0.2534" style="stop-color:#82572E"/>
	<stop  offset="0.3282" style="stop-color:#764C24"/>
	<stop  offset="0.5357" style="stop-color:#7A5027"/>
	<stop  offset="0.5697" style="stop-color:#8B5F35"/>
	<stop  offset="0.6548" style="stop-color:#603913"/>
	<stop  offset="0.9473" style="stop-color:#613914"/>
	<stop  offset="0.9507" style="stop-color:#623A14"/>
	<stop  offset="0.966" style="stop-color:#663E18"/>
	<stop  offset="1" style="stop-color:#754B24"/>
</radialGradient>
<path id="XMLID_4_" class="st1" d="M1823.7,249.7c-16.6-49.4-198.4-34.4-461.7,28.3c7.7,12.7,14.9,25.9,21.5,39.5
	c91.5-15.1,147.3-13.9,155.3,8.5c18.5,51.5-238,192.4-573,314.6S344.1,820.1,325.6,768.6c-8.5-23.6,46.9-68,139.4-120.3
	c-5-21.1-7.9-42.6-10.1-63.7C203.2,696.9,23.9,806.2,40.7,856.1c25.4,75.7,445.1,1.3,937.5-166.1S1849.1,325.4,1823.7,249.7z"/>
</svg>
