<?xml version="1.0" encoding="utf-8"?>
<!-- Generator: Adobe Illustrator 19.0.0, SVG Export Plug-In . SVG Version: 6.00 Build 0)  -->
<svg version="1.1" id="Layer_1" xmlns="http://www.w3.org/2000/svg" xmlns:xlink="http://www.w3.org/1999/xlink" x="0px" y="0px"
	 viewBox="0 0 1920 1080" style="enable-background:new 0 0 1920 1080;" xml:space="preserve">
<style type="text/css">
	.st0{fill:#6BCFF5;}
	.st1{fill:#6ACFF6;}
</style>
<g id="XMLID_3_">
	<path id="XMLID_18_" class="st0" d="M173,473.8c0,88.2,121.7,88.2,121.7,0h0c0-91.3,0-182.6,0-274l0-1.9c0-88.2-121.7-88.2-121.7,0
		h0c0,91.3,0,182.6,0,274"/>
	<g id="XMLID_13_">
		<path id="XMLID_17_" class="st1" d="M165.5,473.8c0.2,31,16.1,59.9,46.5,70.1c25.6,8.6,55.9,1,73.3-19.9
			c11.8-14.2,16.8-32,16.9-50.2c0-4.1-3.5-7.5-7.5-7.5c0,0,0,0,0,0c2.5,2.5,5,5,7.5,7.5c0-49.3,0-98.7,0-148c0-24.7,0-49.3,0-74
			c0-12,0-24,0-36c0-8.8,0.4-17.6-0.4-26.4c-2.3-23.8-14.3-46.2-36.1-57.4c-19.4-10-42.6-10.2-62.3-0.7
			c-25.5,12.2-37.8,39.3-37.9,66.6c0,4.1,3.5,7.5,7.5,7.5c0,0,0,0,0,0c-2.5-2.5-5-5-7.5-7.5c0,71,0,142,0,213c0,20.3,0,40.7,0,61
			c0,9.7,15,9.7,15,0c0-71,0-142,0-213c0-20.3,0-40.7,0-61c0-4.1-3.4-7.5-7.5-7.5c0,0,0,0,0,0c2.5,2.5,5,5,7.5,7.5
			c0.1-21.1,8.4-41,26.2-51.4c14.8-8.7,34.1-9.7,49.3-2.6c18.1,8.4,29.1,25.7,30.9,46.1c0.7,8.2,0.3,16.6,0.3,24.8
			c0,11.7,0,23.3,0,35c0,22.7,0,45.3,0,68c0,52,0,104,0,156c0,4.1,3.4,7.5,7.5,7.5c0,0,0,0,0,0c-2.5-2.5-5-5-7.5-7.5
			c-0.1,13.5-3.2,26.6-11,37.7c-6,8.5-15.6,15.1-25.2,18.2c-20.3,6.6-43.1,1.2-57.4-15.6c-9.1-10.7-12.9-25.8-13-40.3
			C180.4,464.2,165.4,464.2,165.5,473.8L165.5,473.8z"/>
	</g>
</g>
<g id="XMLID_1_">
	<path id="XMLID_26_" class="st0" d="M455.3,720.2c0,88.2,60.8,88.2,60.8,0h0c0-91.3,0-182.6,0-274l0-1.9c0-88.2-60.8-88.2-60.8,0h0
		c0,91.3,0,182.6,0,274"/>
	<g id="XMLID_21_">
		<path id="XMLID_25_" class="st1" d="M447.8,720.2c0.1,22.9,3,55.9,24.6,69.7c17.9,11.4,35.3-3.8,42.4-20
			c6.9-15.5,8.7-32.9,8.8-49.7c0-4.1-3.5-7.5-7.5-7.5c0,0,0,0,0,0c2.5,2.5,5,5,7.5,7.5c0-81.3,0-162.6,0-244c0-28.3,3-60-10.8-85.9
			c-7.7-14.4-23.6-25.3-39.5-16.2c-9.2,5.3-14.7,15-18.4,24.6c-5.6,14.4-7,30.3-7.1,45.6c0,4.1,3.5,7.5,7.5,7.5c0,0,0,0,0,0
			c-2.5-2.5-5-5-7.5-7.5c0,71,0,142,0,213c0,20.3,0,40.7,0,61c0,9.7,15,9.7,15,0c0-71,0-142,0-213c0-20.3,0-40.7,0-61
			c0-4.1-3.4-7.5-7.5-7.5c0,0,0,0,0,0c2.5,2.5,5,5,7.5,7.5c0.1-12.5,1.1-25.1,4.9-37.1c1.3-4.2,3.1-8.3,5.4-12.1
			c1.6-2.6,3.7-5.2,5.7-6.8c2.1-1.7,3-2.1,6-2.7c0,0-0.9,0,0.6,0c0.6,0,1.1,0,1.7,0.1c-2.1-0.1,2.7,0.9,2.2,0.7
			c2.1,0.9,3.7,2.2,5.8,4.5c2.1,2.2,4.3,5.9,5.9,9.5c4.5,9.7,6.3,20.8,7.1,31.4c1.2,16,0.4,32.3,0.4,48.4c0,37.7,0,75.3,0,113
			c0,42.3,0,84.7,0,127c0,4.1,3.4,7.5,7.5,7.5c0,0,0,0,0,0c-2.5-2.5-5-5-7.5-7.5c-0.1,12.9-1.2,25.8-5.3,38.1
			c-1.4,4.1-3.2,8.1-5.5,11.7c-1.2,1.9-1.4,2.2-2.7,3.5c-0.6,0.6-1.2,1.2-1.8,1.8c-1.1,1.1-0.4,0.5-1.1,1c-0.6,0.4-1.3,0.8-1.9,1.2
			c-0.5,0.3-2.1,1-0.7,0.4c-0.6,0.2-1.3,0.4-2,0.6c-0.3,0.1-0.6,0.1-0.8,0.2c-1.8,0.4,1,0,0,0c-0.7,0-1.3,0-2,0
			c-1.3,0,1.1,0.4-0.6-0.1c-0.7-0.2-1.3-0.3-2-0.6c-0.3-0.1-1.3-0.6,0.1,0.1c-0.4-0.2-0.8-0.3-1.1-0.6c-2.7-1.6-4.2-2.8-6.2-5.4
			c-1.9-2.5-4.2-6.6-5.6-10c-5.5-13.2-6.7-27.9-6.7-42.1C462.8,710.6,447.8,710.5,447.8,720.2L447.8,720.2z"/>
	</g>
</g>
<g id="XMLID_2_">
	<path id="XMLID_34_" class="st0" d="M1507,525.6c0,88.2,60.8,88.2,60.8,0h0c0-91.3,0-182.6,0-274l0-1.9c0-88.2-60.8-88.2-60.8,0h0
		c0,91.3,0,182.6,0,274"/>
	<g id="XMLID_29_">
		<path id="XMLID_33_" class="st1" d="M1499.5,525.6c0.1,22.9,3,55.9,24.6,69.7c17.9,11.4,35.3-3.8,42.4-20
			c6.9-15.5,8.7-32.9,8.8-49.7c0-4.1-3.5-7.5-7.5-7.5c0,0,0,0,0,0c2.5,2.5,5,5,7.5,7.5c0-81.3,0-162.6,0-244c0-28.3,3-60-10.8-85.9
			c-7.7-14.4-23.6-25.3-39.5-16.2c-9.2,5.3-14.7,15-18.4,24.6c-5.6,14.4-7,30.3-7.1,45.6c0,4.1,3.5,7.5,7.5,7.5c0,0,0,0,0,0
			c-2.5-2.5-5-5-7.5-7.5c0,71,0,142,0,213c0,20.3,0,40.7,0,61c0,9.7,15,9.7,15,0c0-71,0-142,0-213c0-20.3,0-40.7,0-61
			c0-4.1-3.4-7.5-7.5-7.5c0,0,0,0,0,0c2.5,2.5,5,5,7.5,7.5c0.1-12.5,1.1-25.1,4.9-37.1c1.3-4.2,3.1-8.3,5.4-12.1
			c1.6-2.6,3.7-5.2,5.7-6.8c2.1-1.7,3-2.1,6-2.7c0,0-0.9,0,0.6,0c0.6,0,1.1,0,1.7,0.1c-2.1-0.1,2.7,0.9,2.2,0.7
			c2.1,0.9,3.7,2.2,5.8,4.5c2.1,2.2,4.3,5.9,5.9,9.5c4.5,9.7,6.3,20.8,7.1,31.4c1.2,16,0.4,32.3,0.4,48.4c0,37.7,0,75.3,0,113
			c0,42.3,0,84.7,0,127c0,4.1,3.4,7.5,7.5,7.5c0,0,0,0,0,0c-2.5-2.5-5-5-7.5-7.5c-0.1,12.9-1.2,25.8-5.3,38.1
			c-1.4,4.1-3.2,8.1-5.5,11.7c-1.2,1.9-1.4,2.2-2.7,3.5c-0.6,0.6-1.2,1.2-1.8,1.8c-1.1,1.1-0.4,0.5-1.1,1c-0.6,0.4-1.3,0.8-1.9,1.2
			c-0.5,0.3-2.1,1-0.7,0.4c-0.6,0.2-1.3,0.4-2,0.6c-0.3,0.1-0.6,0.1-0.8,0.2c-1.8,0.4,1,0,0,0c-0.7,0-1.3,0-2,0
			c-1.3,0,1.1,0.4-0.6-0.1c-0.7-0.2-1.3-0.3-2-0.6c-0.3-0.1-1.3-0.6,0.1,0.1c-0.4-0.2-0.8-0.3-1.1-0.6c-2.7-1.6-4.2-2.8-6.2-5.4
			c-1.9-2.5-4.2-6.6-5.6-10c-5.5-13.2-6.7-27.9-6.7-42.1C1514.5,515.9,1499.5,515.9,1499.5,525.6L1499.5,525.6z"/>
	</g>
</g>
<g id="XMLID_4_">
	<path id="XMLID_42_" class="st0" d="M734,952.1c0,54,90.6,54,90.6,0h0c0-55.9,0-111.7,0-167.6l0-1.2c0-54-90.6-54-90.6,0h0
		c0,55.9,0,111.7,0,167.6"/>
	<g id="XMLID_37_">
		<path id="XMLID_41_" class="st1" d="M726.5,952.1c0.2,22.3,14.8,39.9,36.1,45.7c19,5.2,41.6,1.4,56.1-12.6
			c9-8.7,13.3-20.7,13.4-33.1c0-4.1-3.5-7.5-7.5-7.5c0,0,0,0,0,0c2.5,2.5,5,5,7.5,7.5c0-33.3,0-66.5,0-99.8c0-16.6,0-33.3,0-49.9
			c0-10.9,1.2-22.7-2-33.3c-9.6-31.7-49.2-40.8-76.8-28.1c-16.8,7.7-26.6,24-26.8,42.3c0,4.1,3.5,7.5,7.5,7.5c0,0,0,0,0,0
			c-2.5-2.5-5-5-7.5-7.5c0,55.9,0,111.7,0,167.6c0,9.7,15,9.7,15,0c0-55.9,0-111.7,0-167.6c0-4.1-3.4-7.5-7.5-7.5c0,0,0,0,0,0
			c2.5,2.5,5,5,7.5,7.5c0.3-26.6,28.4-37.8,51.3-31c10.9,3.2,20,10.6,23.1,21.7c2.6,9.4,1.2,20.5,1.2,30.4c0,15.3,0,30.6,0,45.9
			c0,33.9,0,67.8,0,101.8c0,4.1,3.4,7.5,7.5,7.5c0,0,0,0,0,0c-2.5-2.5-5-5-7.5-7.5c-0.2,16.1-10.3,27.2-25.1,31.3
			c-13.8,3.8-30.8,1.4-41.2-8.5c-6.2-5.9-9.2-13.7-9.3-22.8C741.4,942.5,726.4,942.5,726.5,952.1L726.5,952.1z"/>
	</g>
</g>
<g id="XMLID_5_">
	<path id="XMLID_50_" class="st0" d="M638.1,495.7c0,52.8,36.4,52.8,36.4,0h0c0-54.7,0-109.4,0-164.1l0-1.1c0-52.8-36.4-52.8-36.4,0
		h0c0,54.7,0,109.4,0,164.1"/>
	<g id="XMLID_45_">
		<path id="XMLID_49_" class="st1" d="M630.6,495.7c0.1,15.7,3.9,47.1,25.7,47.1c21.8,0,25.6-31.5,25.7-47.1c0-4.1-3.5-7.5-7.5-7.5
			c0,0,0,0,0,0c2.5,2.5,5,5,7.5,7.5c0-50.1,0-100.2,0-150.2c0-16.6,1.3-35.4-7.7-50.2c-5.7-9.5-16.6-15.3-27.1-9.3
			c-14.4,8.3-16.5,29.9-16.6,44.6c0,4.1,3.5,7.5,7.5,7.5c0,0,0,0,0,0c-2.5-2.5-5-5-7.5-7.5c0,54.7,0,109.4,0,164.1
			c0,9.7,15,9.7,15,0c0-54.7,0-109.4,0-164.1c0-4.1-3.4-7.5-7.5-7.5c0,0,0,0,0,0c2.5,2.5,5,5,7.5,7.5c0.1-7.4,0.7-14.8,3-22
			c0.7-2,1.5-3.9,2.6-5.7c0.5-0.9,1.1-1.7,1.2-1.8c0.3-0.3,2.4-2.3,1.3-1.5c0.7-0.5,1.4-0.9,2.2-1.3c-1.7,1,1.6-0.2-0.4,0.1
			c0.6-0.1,2.6,0,0.8-0.1c0.1,0,0.9,0.2,1.1,0.3c-1.4-1,0.1,0.1,0.4,0.3c0.7,0.5,2,1.6,2.4,2.2c1.3,1.6,2.3,3.6,3.1,5.5
			c2.7,6.5,3.5,13.8,3.7,20.7c0.3,9.7,0,19.4,0,29c0,21.7,0,43.5,0,65.2c0,24.7,0,49.4,0,74.1c0,4.1,3.4,7.5,7.5,7.5c0,0,0,0,0,0
			c-2.5-2.5-5-5-7.5-7.5c-0.1,8.3-0.7,17.2-4.2,24.9c-1.3,3-2.3,4.5-4.5,6.4c0.9-0.8-1.2,0.7-1.7,0.9c1.4-0.8,0.1,0-0.4,0
			c0.9-0.1,1-0.1,0-0.1c-0.4,0-1.8-0.2,0,0.1c-0.3,0-1.6-0.7-0.8-0.1c0.9,0.6-2.6-1.9-1.4-0.8c-2.1-1.8-2.9-3.1-4.3-5.9
			c-3.7-7.7-4.3-16.9-4.4-25.3C645.5,486,630.5,486,630.6,495.7L630.6,495.7z"/>
	</g>
</g>
<g id="XMLID_6_">
	<path id="XMLID_58_" class="st0" d="M1149.2,689.2c0,108,121.7,108,121.7,0h0c0-111.8,0-223.6,0-335.3l0-2.3
		c0-108-121.7-108-121.7,0l0,0c0,111.8,0,223.6,0,335.3"/>
	<g id="XMLID_53_">
		<path id="XMLID_57_" class="st1" d="M1141.7,689.2c0.2,33.7,12.9,70.7,46.5,84.2c27.6,11.1,57.5-1,73.9-24.6
			c12-17.2,16.2-38.9,16.3-59.6c0-4.1-3.5-7.5-7.5-7.5c0,0,0,0,0,0c2.5,2.5,5,5,7.5,7.5c0-111.1,0-222.2,0-333.3
			c0-28.9-6.4-60.1-30.3-79.1c-18.7-14.8-43.8-17.8-65.3-7.1c-30.1,15-41,50.5-41.2,81.9c0,4.1,3.5,7.5,7.5,7.5c0,0,0,0,0,0
			c-2.5-2.5-5-5-7.5-7.5c0,87.2,0,174.3,0,261.5c0,24.6,0,49.2,0,73.9c0,9.7,15,9.7,15,0c0-87.2,0-174.3,0-261.5
			c0-24.6,0-49.2,0-73.9c0-4.1-3.4-7.5-7.5-7.5c0,0,0,0,0,0c2.5,2.5,5,5,7.5,7.5c0.1-24.9,7.7-52.8,28.9-66.2
			c16.4-10.4,36.1-9.6,52.1,2.3c7.8,5.8,14.6,15.3,18.7,25.2c5.5,13.4,6.9,27.7,6.9,42.1c0,52.2,0,104.5,0,156.7
			c0,59.2,0,118.4,0,177.6c0,4.1,3.4,7.5,7.5,7.5c0,0,0,0,0,0c-2.5-2.5-5-5-7.5-7.5c-0.1,16.2-2.8,32.8-11,47
			c-6,10.3-15.2,19.1-25.2,23.1c-10.6,4.3-20.3,4.5-30.7,1.3c-10.2-3.2-19.7-10.7-26.1-20.1c-10.2-15.1-13.6-33.3-13.7-51.3
			C1156.6,679.6,1141.6,679.5,1141.7,689.2L1141.7,689.2z"/>
	</g>
</g>
<g id="XMLID_7_">
	<path id="XMLID_66_" class="st0" d="M877.3,454.2c0,88.2,121.7,88.2,121.7,0h0c0-91.3,0-182.6,0-274l0-1.9
		c0-88.2-121.7-88.2-121.7,0h0c0,91.3,0,182.6,0,274"/>
	<g id="XMLID_61_">
		<path id="XMLID_65_" class="st1" d="M869.8,454.2c0.2,31,16.1,59.9,46.5,70.1c25.6,8.6,55.9,1,73.3-19.9
			c11.8-14.2,16.8-32,16.9-50.2c0-4.1-3.5-7.5-7.5-7.5c0,0,0,0,0,0c2.5,2.5,5,5,7.5,7.5c0-49.3,0-98.7,0-148c0-24.7,0-49.3,0-74
			c0-12,0-24,0-36c0-8.8,0.4-17.6-0.4-26.4c-2.3-23.8-14.3-46.2-36.1-57.4c-19.4-10-42.6-10.2-62.3-0.7
			c-25.5,12.2-37.8,39.3-37.9,66.6c0,4.1,3.5,7.5,7.5,7.5c0,0,0,0,0,0c-2.5-2.5-5-5-7.5-7.5c0,71,0,142,0,213c0,20.3,0,40.7,0,61
			c0,9.7,15,9.7,15,0c0-71,0-142,0-213c0-20.3,0-40.7,0-61c0-4.1-3.4-7.5-7.5-7.5c0,0,0,0,0,0c2.5,2.5,5,5,7.5,7.5
			c0.1-21.1,8.4-41,26.2-51.4c14.8-8.7,34.1-9.7,49.3-2.6c18.1,8.4,29.1,25.7,30.9,46.1c0.7,8.2,0.3,16.6,0.3,24.8
			c0,11.7,0,23.3,0,35c0,22.7,0,45.3,0,68c0,52,0,104,0,156c0,4.1,3.4,7.5,7.5,7.5c0,0,0,0,0,0c-2.5-2.5-5-5-7.5-7.5
			c-0.1,13.5-3.2,26.6-11,37.7c-6,8.5-15.6,15.1-25.2,18.2c-20.3,6.6-43.1,1.2-57.4-15.6c-9.1-10.7-12.9-25.8-13-40.3
			C884.7,444.6,869.7,444.6,869.8,454.2L869.8,454.2z"/>
	</g>
</g>
<g id="XMLID_9_">
	<path id="XMLID_74_" class="st0" d="M1367.5,944.2c0,88.2,60.8,88.2,60.8,0h0c0-91.3,0-182.6,0-274l0-1.9c0-88.2-60.8-88.2-60.8,0
		h0c0,91.3,0,182.6,0,274"/>
	<g id="XMLID_69_">
		<path id="XMLID_73_" class="st1" d="M1360,944.2c0.1,22.9,3,55.9,24.6,69.7c17.9,11.4,35.3-3.8,42.4-20
			c6.9-15.5,8.7-32.9,8.8-49.7c0-4.1-3.5-7.5-7.5-7.5c0,0,0,0,0,0c2.5,2.5,5,5,7.5,7.5c0-81.3,0-162.6,0-244c0-28.3,3-60-10.8-85.9
			c-7.7-14.4-23.6-25.3-39.5-16.2c-9.2,5.3-14.7,15-18.4,24.6c-5.6,14.4-7,30.3-7.1,45.6c0,4.1,3.5,7.5,7.5,7.5c0,0,0,0,0,0
			c-2.5-2.5-5-5-7.5-7.5c0,71,0,142,0,213c0,20.3,0,40.7,0,61c0,9.7,15,9.7,15,0c0-71,0-142,0-213c0-20.3,0-40.7,0-61
			c0-4.1-3.4-7.5-7.5-7.5c0,0,0,0,0,0c2.5,2.5,5,5,7.5,7.5c0.1-12.5,1.1-25.1,4.9-37.1c1.3-4.2,3.1-8.3,5.4-12.1
			c1.6-2.6,3.7-5.2,5.7-6.8c2.1-1.7,3-2.1,6-2.7c0,0-0.9,0,0.6,0c0.6,0,1.1,0,1.7,0.1c-2.1-0.1,2.7,0.9,2.2,0.7
			c2.1,0.9,3.7,2.2,5.8,4.5c2.1,2.2,4.3,5.9,5.9,9.5c4.5,9.7,6.3,20.8,7.1,31.4c1.2,16,0.4,32.3,0.4,48.4c0,37.7,0,75.3,0,113
			c0,42.3,0,84.7,0,127c0,4.1,3.4,7.5,7.5,7.5c0,0,0,0,0,0c-2.5-2.5-5-5-7.5-7.5c-0.1,12.9-1.2,25.8-5.3,38.1
			c-1.4,4.1-3.2,8.1-5.5,11.7c-1.2,1.9-1.4,2.2-2.7,3.5c-0.6,0.6-1.2,1.2-1.8,1.8c-1.1,1.1-0.4,0.5-1.1,1c-0.6,0.4-1.3,0.8-1.9,1.2
			c-0.5,0.3-2.1,1-0.7,0.4c-0.6,0.2-1.3,0.4-2,0.6c-0.3,0.1-0.6,0.1-0.8,0.2c-1.8,0.4,1,0,0,0c-0.7,0-1.3,0-2,0
			c-1.3,0,1.1,0.4-0.6-0.1c-0.7-0.2-1.3-0.3-2-0.6c-0.3-0.1-1.3-0.6,0.1,0.1c-0.4-0.2-0.8-0.3-1.1-0.6c-2.7-1.6-4.2-2.8-6.2-5.4
			c-1.9-2.5-4.2-6.6-5.6-10c-5.5-13.2-6.7-27.9-6.7-42.1C1374.9,934.5,1359.9,934.5,1360,944.2L1360,944.2z"/>
	</g>
</g>
<g id="XMLID_11_">
	<path id="XMLID_82_" class="st0" d="M1678.1,791.1c0,52.8,36.4,52.8,36.4,0h0c0-54.7,0-109.4,0-164.1l0-1.1
		c0-52.8-36.4-52.8-36.4,0h0c0,54.7,0,109.4,0,164.1"/>
	<g id="XMLID_77_">
		<path id="XMLID_81_" class="st1" d="M1670.6,791.1c0.1,15.7,3.9,47.1,25.7,47.1c21.8,0,25.6-31.5,25.7-47.1c0-4.1-3.5-7.5-7.5-7.5
			c0,0,0,0,0,0c2.5,2.5,5,5,7.5,7.5c0-50.1,0-100.2,0-150.2c0-16.6,1.3-35.4-7.7-50.2c-5.7-9.5-16.6-15.3-27.1-9.3
			c-14.4,8.3-16.5,29.9-16.6,44.6c0,4.1,3.5,7.5,7.5,7.5c0,0,0,0,0,0c-2.5-2.5-5-5-7.5-7.5c0,54.7,0,109.4,0,164.1
			c0,9.7,15,9.7,15,0c0-54.7,0-109.4,0-164.1c0-4.1-3.4-7.5-7.5-7.5c0,0,0,0,0,0c2.5,2.5,5,5,7.5,7.5c0.1-7.4,0.7-14.8,3-22
			c0.7-2,1.5-3.9,2.6-5.7c0.5-0.9,1.1-1.7,1.2-1.8c0.3-0.3,2.4-2.3,1.3-1.5c0.7-0.5,1.4-0.9,2.2-1.3c-1.7,1,1.6-0.2-0.4,0.1
			c0.6-0.1,2.6,0,0.8-0.1c0.1,0,0.9,0.2,1.1,0.3c-1.4-1,0.1,0.1,0.4,0.3c0.7,0.5,2,1.6,2.4,2.2c1.3,1.6,2.3,3.6,3.1,5.5
			c2.7,6.5,3.5,13.8,3.7,20.7c0.3,9.7,0,19.4,0,29c0,21.7,0,43.5,0,65.2c0,24.7,0,49.4,0,74.1c0,4.1,3.4,7.5,7.5,7.5c0,0,0,0,0,0
			c-2.5-2.5-5-5-7.5-7.5c-0.1,8.3-0.7,17.2-4.2,24.9c-1.3,3-2.3,4.5-4.5,6.4c0.9-0.8-1.2,0.7-1.7,0.9c1.4-0.8,0.1,0-0.4,0
			c0.9-0.1,1-0.1,0-0.1c-0.4,0-1.8-0.2,0,0.1c-0.3,0-1.6-0.7-0.8-0.1c0.9,0.6-2.6-1.9-1.4-0.8c-2.1-1.8-2.9-3.1-4.3-5.9
			c-3.7-7.7-4.3-16.9-4.4-25.3C1685.5,781.4,1670.5,781.4,1670.6,791.1L1670.6,791.1z"/>
	</g>
</g>
<g id="XMLID_19_">
	<path id="XMLID_90_" class="st0" d="M1780.8,521c0,94.4,104.7,94.4,104.7,0h0c0-97.7,0-195.4,0-293.1l0-2
		c0-94.4-104.7-94.4-104.7,0h0c0,97.7,0,195.4,0,293.1"/>
	<g id="XMLID_85_">
		<path id="XMLID_89_" class="st1" d="M1773.3,521c0.2,29.6,11.2,62.5,40.7,74.5c24.3,9.8,50.4-1,64.8-21.9
			c10.5-15.3,14.1-34.4,14.2-52.6c0-4.1-3.5-7.5-7.5-7.5c0,0,0,0,0,0c2.5,2.5,5,5,7.5,7.5c0-97.4-0.1-194.8,0-292.1
			c0-24.9-5.7-52.2-26-68.8c-16.4-13.4-38.5-16.3-57.5-6.7c-26.5,13.3-36,44.8-36.1,72.5c0,4.1,3.5,7.5,7.5,7.5c0,0,0,0,0,0
			c-2.5-2.5-5-5-7.5-7.5c0,76.1,0,152.2,0,228.3c0,21.6,0,43.2,0,64.8c0,9.7,15,9.7,15,0c0-76.1,0-152.2,0-228.3
			c0-21.6,0-43.2,0-64.8c0-4.1-3.4-7.5-7.5-7.5c0,0,0,0,0,0c2.5,2.5,5,5,7.5,7.5c0.1-21.5,6.6-45.8,24.6-57.2
			c7.1-4.5,14.1-6.4,22.4-6c6.8,0.3,15,3.5,20.7,7.8c18.3,14.1,21.9,38.4,21.9,60.4c0,45.5,0,91.1,0,136.6c0,51.2,0,102.4,0,153.5
			c0,4.1,3.4,7.5,7.5,7.5c0,0,0,0,0,0c-2.5-2.5-5-5-7.5-7.5c-0.1,13.9-2.3,28.1-9.2,40.4c-2.9,5.1-5.9,9-10.2,12.9
			c-2.8,2.5-7.9,5.8-10.6,6.9c-9,3.8-17.2,4.1-26,1.3c-8.5-2.7-16.6-9.1-22-17.2c-8.7-13.1-11.5-28.8-11.6-44.3
			C1788.3,511.3,1773.3,511.3,1773.3,521L1773.3,521z"/>
	</g>
</g>
<g id="XMLID_27_">
	<path id="XMLID_98_" class="st0" d="M1302.9,219c0,52.8,36.4,52.8,36.4,0l0,0c0-54.7,0-109.4,0-164.1l0-1.1
		c0-52.8-36.4-52.8-36.4,0l0,0c0,54.7,0,109.4,0,164.1"/>
	<g id="XMLID_93_">
		<path id="XMLID_97_" class="st1" d="M1295.4,219c0.1,15.7,3.9,47.1,25.7,47.1c21.8,0,25.6-31.5,25.7-47.1c0-4.1-3.5-7.5-7.5-7.5
			c0,0,0,0,0,0c2.5,2.5,5,5,7.5,7.5c0-50.1,0-100.2,0-150.2c0-16.6,1.3-35.4-7.7-50.2c-5.7-9.5-16.6-15.3-27.1-9.3
			c-14.4,8.3-16.5,29.9-16.6,44.6c0,4.1,3.5,7.5,7.5,7.5c0,0,0,0,0,0c-2.5-2.5-5-5-7.5-7.5c0,54.7,0,109.4,0,164.1
			c0,9.7,15,9.7,15,0c0-54.7,0-109.4,0-164.1c0-4.1-3.4-7.5-7.5-7.5c0,0,0,0,0,0c2.5,2.5,5,5,7.5,7.5c0.1-7.4,0.7-14.8,3-22
			c0.7-2,1.5-3.9,2.6-5.7c0.5-0.9,1.1-1.7,1.2-1.8c0.3-0.3,2.4-2.3,1.3-1.5c0.7-0.5,1.4-0.9,2.2-1.3c-1.7,1,1.6-0.2-0.4,0.1
			c0.6-0.1,2.6,0,0.8-0.1c0.1,0,0.9,0.2,1.1,0.3c-1.4-1,0.1,0.1,0.4,0.3c0.7,0.5,2,1.6,2.4,2.2c1.3,1.6,2.3,3.6,3.1,5.5
			c2.7,6.5,3.5,13.8,3.7,20.7c0.3,9.7,0,19.4,0,29c0,21.7,0,43.5,0,65.2c0,24.7,0,49.4,0,74.1c0,4.1,3.4,7.5,7.5,7.5c0,0,0,0,0,0
			c-2.5-2.5-5-5-7.5-7.5c-0.1,8.3-0.7,17.2-4.2,24.9c-1.3,3-2.3,4.5-4.5,6.4c0.9-0.8-1.2,0.7-1.7,0.9c1.4-0.8,0.1,0-0.4,0
			c0.9-0.1,1-0.1,0-0.1c-0.4,0-1.8-0.2,0,0.1c-0.3,0-1.6-0.7-0.8-0.1c0.9,0.6-2.6-1.9-1.4-0.8c-2.1-1.8-2.9-3.1-4.3-5.9
			c-3.7-7.7-4.3-16.9-4.4-25.3C1310.3,209.3,1295.3,209.3,1295.4,219L1295.4,219z"/>
	</g>
</g>
<g id="XMLID_35_">
	<path id="XMLID_106_" class="st0" d="M374.9,96.8c0,52.8,36.4,52.8,36.4,0l0,0c0-54.7,0-109.4,0-164.1l0-1.1
		c0-52.8-36.4-52.8-36.4,0h0c0,54.7,0,109.4,0,164.1"/>
	<g id="XMLID_101_">
		<path id="XMLID_105_" class="st1" d="M367.4,96.8c0.1,15.7,3.9,47.1,25.7,47.1c21.8,0,25.6-31.5,25.7-47.1c0-4.1-3.5-7.5-7.5-7.5
			c0,0,0,0,0,0c2.5,2.5,5,5,7.5,7.5c0-50.1,0-100.2,0-150.2c0-16.6,1.3-35.4-7.7-50.2c-5.7-9.5-16.6-15.3-27.1-9.3
			c-14.4,8.3-16.5,29.9-16.6,44.6c0,4.1,3.5,7.5,7.5,7.5c0,0,0,0,0,0c-2.5-2.5-5-5-7.5-7.5c0,54.7,0,109.4,0,164.1
			c0,9.7,15,9.7,15,0c0-54.7,0-109.4,0-164.1c0-4.1-3.4-7.5-7.5-7.5c0,0,0,0,0,0c2.5,2.5,5,5,7.5,7.5c0.1-7.4,0.7-14.8,3-22
			c0.7-2,1.5-3.9,2.6-5.7c0.5-0.9,1.1-1.7,1.2-1.8c0.3-0.3,2.4-2.3,1.3-1.5c0.7-0.5,1.4-0.9,2.2-1.3c-1.7,1,1.6-0.2-0.4,0.1
			c0.6-0.1,2.6,0,0.8-0.1c0.1,0,0.9,0.2,1.1,0.3c-1.4-1,0.1,0.1,0.4,0.3c0.7,0.5,2,1.6,2.4,2.2c1.3,1.6,2.3,3.6,3.1,5.5
			c2.7,6.5,3.5,13.8,3.7,20.7c0.3,9.7,0,19.4,0,29c0,21.7,0,43.5,0,65.2c0,24.7,0,49.4,0,74.1c0,4.1,3.4,7.5,7.5,7.5c0,0,0,0,0,0
			c-2.5-2.5-5-5-7.5-7.5c-0.1,8.3-0.7,17.2-4.2,24.9c-1.3,3-2.3,4.5-4.5,6.4c0.9-0.8-1.2,0.7-1.7,0.9c1.4-0.8,0.1,0-0.4,0
			c0.9-0.1,1-0.1,0-0.1c-0.4,0-1.8-0.2,0,0.1c-0.3,0-1.6-0.7-0.8-0.1c0.9,0.6-2.6-1.9-1.4-0.8c-2.1-1.8-2.9-3.1-4.3-5.9
			c-3.7-7.7-4.3-16.9-4.4-25.3C382.3,87.1,367.3,87.1,367.4,96.8L367.4,96.8z"/>
	</g>
</g>
<g id="XMLID_43_">
	<path id="XMLID_114_" class="st0" d="M464.1,40c0,52.8,36.4,52.8,36.4,0h0c0-54.7,0-109.4,0-164.1l0-1.1c0-52.8-36.4-52.8-36.4,0h0
		c0,54.7,0,109.4,0,164.1"/>
	<g id="XMLID_109_">
		<path id="XMLID_113_" class="st1" d="M456.6,40c0.1,15.7,3.9,47.1,25.7,47.1c21.8,0,25.6-31.5,25.7-47.1c0-4.1-3.5-7.5-7.5-7.5
			c0,0,0,0,0,0c2.5,2.5,5,5,7.5,7.5c0-50.1,0-100.2,0-150.2c0-16.6,1.3-35.4-7.7-50.2c-5.7-9.5-16.6-15.3-27.1-9.3
			c-14.4,8.3-16.5,29.9-16.6,44.6c0,4.1,3.5,7.5,7.5,7.5c0,0,0,0,0,0c-2.5-2.5-5-5-7.5-7.5c0,54.7,0,109.4,0,164.1
			c0,9.7,15,9.7,15,0c0-54.7,0-109.4,0-164.1c0-4.1-3.4-7.5-7.5-7.5c0,0,0,0,0,0c2.5,2.5,5,5,7.5,7.5c0.1-7.4,0.7-14.8,3-22
			c0.7-2,1.5-3.9,2.6-5.7c0.5-0.9,1.1-1.7,1.2-1.8c0.3-0.3,2.4-2.3,1.3-1.5c0.7-0.5,1.4-0.9,2.2-1.3c-1.7,1,1.6-0.2-0.4,0.1
			c0.6-0.1,2.6,0,0.8-0.1c0.1,0,0.9,0.2,1.1,0.3c-1.4-1,0.1,0.1,0.4,0.3c0.7,0.5,2,1.6,2.4,2.2c1.3,1.6,2.3,3.6,3.1,5.5
			c2.7,6.5,3.5,13.8,3.7,20.7c0.3,9.7,0,19.4,0,29c0,21.7,0,43.5,0,65.2c0,24.7,0,49.4,0,74.1c0,4.1,3.4,7.5,7.5,7.5c0,0,0,0,0,0
			c-2.5-2.5-5-5-7.5-7.5c-0.1,8.3-0.7,17.2-4.2,24.9c-1.3,3-2.3,4.5-4.5,6.4c0.9-0.8-1.2,0.7-1.7,0.9c1.4-0.8,0.1,0-0.4,0
			c0.9-0.1,1-0.1,0-0.1c-0.4,0-1.8-0.2,0,0.1c-0.3,0-1.6-0.7-0.8-0.1c0.9,0.6-2.6-1.9-1.4-0.8c-2.1-1.8-2.9-3.1-4.3-5.9
			c-3.7-7.7-4.3-16.9-4.4-25.3C471.5,30.3,456.5,30.3,456.6,40L456.6,40z"/>
	</g>
</g>
<g id="XMLID_51_">
	<path id="XMLID_124_" class="st0" d="M556.2,115.4c0,52.8,36.4,52.8,36.4,0l0,0c0-54.7,0-109.4,0-164.1l0-1.1
		c0-52.8-36.4-52.8-36.4,0l0,0c0,54.7,0,109.4,0,164.1"/>
	<g id="XMLID_119_">
		<path id="XMLID_123_" class="st1" d="M548.7,115.4c0.1,15.7,3.9,47.1,25.7,47.1c21.8,0,25.6-31.5,25.7-47.1c0-4.1-3.5-7.5-7.5-7.5
			c0,0,0,0,0,0c2.5,2.5,5,5,7.5,7.5c0-50.1,0-100.2,0-150.2c0-16.6,1.3-35.4-7.7-50.2c-5.7-9.5-16.6-15.3-27.1-9.3
			c-14.4,8.3-16.5,29.9-16.6,44.6c0,4.1,3.5,7.5,7.5,7.5c0,0,0,0,0,0c-2.5-2.5-5-5-7.5-7.5c0,54.7,0,109.4,0,164.1
			c0,9.7,15,9.7,15,0c0-54.7,0-109.4,0-164.1c0-4.1-3.4-7.5-7.5-7.5c0,0,0,0,0,0c2.5,2.5,5,5,7.5,7.5c0.1-7.4,0.7-14.8,3-22
			c0.7-2,1.5-3.9,2.6-5.7c0.5-0.9,1.1-1.7,1.2-1.8c0.3-0.3,2.4-2.3,1.3-1.5c0.7-0.5,1.4-0.9,2.2-1.3c-1.7,1,1.6-0.2-0.4,0.1
			c0.6-0.1,2.6,0,0.8-0.1c0.1,0,0.9,0.2,1.1,0.3c-1.4-1,0.1,0.1,0.4,0.3c0.7,0.5,2,1.6,2.4,2.2c1.3,1.6,2.3,3.6,3.1,5.5
			c2.7,6.5,3.5,13.8,3.7,20.7c0.3,9.7,0,19.4,0,29c0,21.7,0,43.5,0,65.2c0,24.7,0,49.4,0,74.1c0,4.1,3.4,7.5,7.5,7.5c0,0,0,0,0,0
			c-2.5-2.5-5-5-7.5-7.5c-0.1,8.3-0.7,17.2-4.2,24.9c-1.3,3-2.3,4.5-4.5,6.4c0.9-0.8-1.2,0.7-1.7,0.9c1.4-0.8,0.1,0-0.4,0
			c0.9-0.1,1-0.1,0-0.1c-0.4,0-1.8-0.2,0,0.1c-0.3,0-1.6-0.7-0.8-0.1c0.9,0.6-2.6-1.9-1.4-0.8c-2.1-1.8-2.9-3.1-4.3-5.9
			c-3.7-7.7-4.3-16.9-4.4-25.3C563.7,105.8,548.7,105.7,548.7,115.4L548.7,115.4z"/>
	</g>
</g>
<g id="XMLID_59_">
	<path id="XMLID_130_" class="st0" d="M69.8,962.3c0,82,70.1,82,70.1,0h0c0-85,0-169.9,0-254.9l0-1.8c0-82-70.1-82-70.1,0h0
		c0,85,0,169.9,0,254.9"/>
	<g id="XMLID_125_">
		<path id="XMLID_129_" class="st1" d="M62.3,962.3c0.1,22.7,5.3,53.7,27.9,65.3c18.7,9.6,37.8-1.5,47.1-18.6
			c7.7-14.2,10-30.8,10.1-46.7c0-4.1-3.5-7.5-7.5-7.5c0,0,0,0,0,0c2.5,2.5,5,5,7.5,7.5c0-79,0-158,0-236.9
			c0-24.9,1.3-52.7-14.8-73.6c-10.3-13.4-27.5-19.5-43-11c-22.1,12.1-27.1,42.3-27.3,65c0,4.1,3.5,7.5,7.5,7.5c0,0,0,0,0,0
			c-2.5-2.5-5-5-7.5-7.5c0,85,0,169.9,0,254.9c0,9.7,15,9.7,15,0c0-85,0-169.9,0-254.9c0-4.1-3.4-7.5-7.5-7.5c0,0,0,0,0,0
			c2.5,2.5,5,5,7.5,7.5c0.1-11.4,1.3-23,5.5-33.7c1.4-3.7,3.4-7.3,5.7-10.5c0.6-0.9,1.7-2.1,2.8-3.3c0.6-0.7,1.3-1.3,2-1.9
			c1.1-1,0.7-0.6,1.4-1.1c3.2-2.2,3.9-2.4,7.3-3.3c1.7-0.4-0.4-0.1,0.9-0.2c0.6,0,1.3-0.1,1.9-0.1c0.8,0,1.5,0,2.3,0.1
			c0.9,0.1-0.3,0-0.4,0c0.4,0.1,0.9,0.1,1.3,0.3c5.3,1.6,9.8,4.6,13.4,9.9c13.7,19.6,10.9,46,10.9,68.5c0,36.2,0,72.3,0,108.5
			c0,41.1,0,82.3,0,123.4c0,4.1,3.4,7.5,7.5,7.5c0,0,0,0,0,0c-2.5-2.5-5-5-7.5-7.5c-0.1,11.9-1.3,24.1-6.1,35.1
			c-1.5,3.5-4,7.8-6,10.2c-2.6,3.2-4.5,4.8-7.5,6.5c-0.7,0.4-1.4,0.8-2.2,1.1c1.2-0.5-0.7,0.2-1.1,0.3c-0.7,0.2-1.5,0.4-2.2,0.6
			c-0.1,0-1.2,0.2-0.3,0.1c1-0.2-0.7,0.1-0.9,0.1c-0.8,0-4.6-0.3-3.2,0c-0.8-0.1-1.5-0.3-2.2-0.5c-0.4-0.1-2.4-0.8-2-0.6
			c-2.5-1-4.9-2.7-7.2-5c-2.9-2.9-4.9-5.9-6.9-9.9c-5.9-11.6-7.3-25.1-7.4-37.9C77.2,952.6,62.2,952.6,62.3,962.3L62.3,962.3z"/>
	</g>
</g>
<g id="XMLID_83_">
	<path id="XMLID_154_" class="st0" d="M375.8,1183.4c0,52.8,36.4,52.8,36.4,0h0c0-54.7,0-109.4,0-164.1l0-1.1
		c0-52.8-36.4-52.8-36.4,0h0c0,54.7,0,109.4,0,164.1"/>
	<g id="XMLID_149_">
		<path id="XMLID_153_" class="st1" d="M368.3,1183.4c0.1,15.7,3.9,47.1,25.7,47.1c21.8,0,25.6-31.5,25.7-47.1
			c0-4.1-3.5-7.5-7.5-7.5c0,0,0,0,0,0c2.5,2.5,5,5,7.5,7.5c0-50.1,0-100.2,0-150.2c0-16.6,1.3-35.4-7.7-50.2
			c-5.7-9.5-16.6-15.3-27.1-9.3c-14.4,8.3-16.5,29.9-16.6,44.6c0,4.1,3.5,7.5,7.5,7.5c0,0,0,0,0,0c-2.5-2.5-5-5-7.5-7.5
			c0,54.7,0,109.4,0,164.1c0,9.7,15,9.7,15,0c0-54.7,0-109.4,0-164.1c0-4.1-3.4-7.5-7.5-7.5c0,0,0,0,0,0c2.5,2.5,5,5,7.5,7.5
			c0.1-7.4,0.7-14.8,3-22c0.7-2,1.5-3.9,2.6-5.7c0.5-0.9,1.1-1.7,1.2-1.8c0.3-0.3,2.4-2.3,1.3-1.5c0.7-0.5,1.4-0.9,2.2-1.3
			c-1.7,1,1.6-0.2-0.4,0.1c0.6-0.1,2.6,0,0.8-0.1c0.1,0,0.9,0.2,1.1,0.3c-1.4-1,0.1,0.1,0.4,0.3c0.7,0.5,2,1.6,2.4,2.2
			c1.3,1.6,2.3,3.6,3.1,5.5c2.7,6.5,3.5,13.8,3.7,20.7c0.3,9.7,0,19.4,0,29c0,21.7,0,43.5,0,65.2c0,24.7,0,49.4,0,74.1
			c0,4.1,3.4,7.5,7.5,7.5c0,0,0,0,0,0c-2.5-2.5-5-5-7.5-7.5c-0.1,8.3-0.7,17.2-4.2,24.9c-1.3,3-2.3,4.5-4.5,6.4
			c0.9-0.8-1.2,0.7-1.7,0.9c1.4-0.8,0.1,0-0.4,0c0.9-0.1,1-0.1,0-0.1c-0.4,0-1.8-0.2,0,0.1c-0.3,0-1.6-0.7-0.8-0.1
			c0.9,0.6-2.6-1.9-1.4-0.8c-2.1-1.8-2.9-3.1-4.3-5.9c-3.7-7.7-4.3-16.9-4.4-25.3C383.3,1173.8,368.3,1173.7,368.3,1183.4
			L368.3,1183.4z"/>
	</g>
</g>
<g id="XMLID_75_">
	<path id="XMLID_148_" class="st0" d="M465,1126.6c0,52.8,36.4,52.8,36.4,0h0c0-54.7,0-109.4,0-164.1l0-1.1c0-52.8-36.4-52.8-36.4,0
		h0c0,54.7,0,109.4,0,164.1"/>
	<g id="XMLID_143_">
		<path id="XMLID_147_" class="st1" d="M457.5,1126.6c0.1,15.7,3.9,47.1,25.7,47.1c21.8,0,25.6-31.5,25.7-47.1
			c0-4.1-3.5-7.5-7.5-7.5c0,0,0,0,0,0c2.5,2.5,5,5,7.5,7.5c0-50.1,0-100.2,0-150.2c0-16.6,1.3-35.4-7.7-50.2
			c-5.7-9.5-16.6-15.3-27.1-9.3c-14.4,8.3-16.5,29.9-16.6,44.6c0,4.1,3.5,7.5,7.5,7.5c0,0,0,0,0,0c-2.5-2.5-5-5-7.5-7.5
			c0,54.7,0,109.4,0,164.1c0,9.7,15,9.7,15,0c0-54.7,0-109.4,0-164.1c0-4.1-3.4-7.5-7.5-7.5c0,0,0,0,0,0c2.5,2.5,5,5,7.5,7.5
			c0.1-7.4,0.7-14.8,3-22c0.7-2,1.5-3.9,2.6-5.7c0.5-0.9,1.1-1.7,1.2-1.8c0.3-0.3,2.4-2.3,1.3-1.5c0.7-0.5,1.4-0.9,2.2-1.3
			c-1.7,1,1.6-0.2-0.4,0.1c0.6-0.1,2.6,0,0.8-0.1c0.1,0,0.9,0.2,1.1,0.3c-1.4-1,0.1,0.1,0.4,0.3c0.7,0.5,2,1.6,2.4,2.2
			c1.3,1.6,2.3,3.6,3.1,5.5c2.7,6.5,3.5,13.8,3.7,20.7c0.3,9.7,0,19.4,0,29c0,21.7,0,43.5,0,65.2c0,24.7,0,49.4,0,74.1
			c0,4.1,3.4,7.5,7.5,7.5c0,0,0,0,0,0c-2.5-2.5-5-5-7.5-7.5c-0.1,8.3-0.7,17.2-4.2,24.9c-1.3,3-2.3,4.5-4.5,6.4
			c0.9-0.8-1.2,0.7-1.7,0.9c1.4-0.8,0.1,0-0.4,0c0.9-0.1,1-0.1,0-0.1c-0.4,0-1.8-0.2,0,0.1c-0.3,0-1.6-0.7-0.8-0.1
			c0.9,0.6-2.6-1.9-1.4-0.8c-2.1-1.8-2.9-3.1-4.3-5.9c-3.7-7.7-4.3-16.9-4.4-25.3C472.5,1117,457.5,1117,457.5,1126.6L457.5,1126.6z
			"/>
	</g>
</g>
<g id="XMLID_67_">
	<path id="XMLID_140_" class="st0" d="M557.2,1202.1c0,52.8,36.4,52.8,36.4,0h0c0-54.7,0-109.4,0-164.1l0-1.1
		c0-52.8-36.4-52.8-36.4,0h0c0,54.7,0,109.4,0,164.1"/>
	<g id="XMLID_135_">
		<path id="XMLID_139_" class="st1" d="M549.7,1202.1c0.1,15.7,3.9,47.1,25.7,47.1c21.8,0,25.6-31.5,25.7-47.1
			c0-4.1-3.5-7.5-7.5-7.5c0,0,0,0,0,0c2.5,2.5,5,5,7.5,7.5c0-50.1,0-100.2,0-150.2c0-16.6,1.3-35.4-7.7-50.2
			c-5.7-9.5-16.6-15.3-27.1-9.3c-14.4,8.3-16.5,29.9-16.6,44.6c0,4.1,3.5,7.5,7.5,7.5c0,0,0,0,0,0c-2.5-2.5-5-5-7.5-7.5
			c0,54.7,0,109.4,0,164.1c0,9.7,15,9.7,15,0c0-54.7,0-109.4,0-164.1c0-4.1-3.4-7.5-7.5-7.5c0,0,0,0,0,0c2.5,2.5,5,5,7.5,7.5
			c0.1-7.4,0.7-14.8,3-22c0.7-2,1.5-3.9,2.6-5.7c0.5-0.9,1.1-1.7,1.2-1.8c0.3-0.3,2.4-2.3,1.3-1.5c0.7-0.5,1.4-0.9,2.2-1.3
			c-1.7,1,1.6-0.2-0.4,0.1c0.6-0.1,2.6,0,0.8-0.1c0.1,0,0.9,0.2,1.1,0.3c-1.4-1,0.1,0.1,0.4,0.3c0.7,0.5,2,1.6,2.4,2.2
			c1.3,1.6,2.3,3.6,3.1,5.5c2.7,6.5,3.5,13.8,3.7,20.7c0.3,9.7,0,19.4,0,29c0,21.7,0,43.5,0,65.2c0,24.7,0,49.4,0,74.1
			c0,4.1,3.4,7.5,7.5,7.5c0,0,0,0,0,0c-2.5-2.5-5-5-7.5-7.5c-0.1,8.3-0.7,17.2-4.2,24.9c-1.3,3-2.3,4.5-4.5,6.4
			c0.9-0.8-1.2,0.7-1.7,0.9c1.4-0.8,0.1,0-0.4,0c0.9-0.1,1-0.1,0-0.1c-0.4,0-1.8-0.2,0,0.1c-0.3,0-1.6-0.7-0.8-0.1
			c0.9,0.6-2.6-1.9-1.4-0.8c-2.1-1.8-2.9-3.1-4.3-5.9c-3.7-7.7-4.3-16.9-4.4-25.3C564.6,1192.4,549.6,1192.4,549.7,1202.1
			L549.7,1202.1z"/>
	</g>
</g>
</svg>
