<?xml version="1.0" encoding="utf-8"?>
<!-- Generator: Adobe Illustrator 19.0.0, SVG Export Plug-In . SVG Version: 6.00 Build 0)  -->
<svg version="1.1" id="Layer_1" xmlns="http://www.w3.org/2000/svg" xmlns:xlink="http://www.w3.org/1999/xlink" x="0px" y="0px"
	 viewBox="480 0 960 1080" style="enable-background:new 480 0 960 1080;" xml:space="preserve">
<style type="text/css">
	.st0{display:none;fill:none;stroke:#58595B;stroke-width:2;stroke-miterlimit:10;}
	.st1{display:none;fill:none;stroke:#6D6E71;stroke-width:2;stroke-miterlimit:10;}
	.st2{display:none;}
	.st3{display:inline;fill:#58595B;stroke:#000000;stroke-width:2;stroke-linecap:round;stroke-linejoin:round;}
	.st4{display:inline;}
	.st5{fill:#6D6E71;}
	.st6{fill:none;stroke:#000000;stroke-width:2;stroke-miterlimit:10;}
	.st7{fill:#58595B;}
	.st8{display:inline;fill:none;stroke:#000000;stroke-width:0.5;stroke-linecap:round;stroke-linejoin:round;}
	.st9{display:inline;fill:none;stroke:#58595B;stroke-width:2;stroke-miterlimit:10;}
	.st10{display:inline;fill:none;stroke:#6D6E71;stroke-width:2;stroke-miterlimit:10;}
	.st11{fill:#58595B;stroke:#58595B;stroke-width:0.5;stroke-miterlimit:10;}
	.st12{fill:#6D6E70;}
</style>
<line id="XMLID_23_" class="st0" x1="949.2" y1="78.3" x2="949.2" y2="99.8"/>
<line id="XMLID_22_" class="st1" x1="949.2" y1="119" x2="949.2" y2="131.3"/>
<g class="st2">
	<polygon id="XMLID_19_" class="st3" points="960.9,0 1929.4,0 1929.4,104.1 960.9,81.5 	"/>
	<g id="XMLID_1_" class="st4">
		<g id="XMLID_2_">
			<path id="XMLID_4_" class="st5" d="M1929.4,99.4c0,8,0,16,0,24c0,1.6,0,3.2-0.4,4.6l-0.1,0.6c-26.6-4.7-53.8-5.2-80,3.4
				c-26.2,8.6-51.9,32.8-63.3,71.8c-17,58,1,132.7-19.6,187.6c-17.8-44.2-31.6-92.6-40.9-143.2c-5.8,48.3-12.4,99-32.4,136.2
				c-12.2-63.4-22.7-127.7-31.3-192.7c-29.1,54.6-42.8,126-51.3,196.6c-5.6,46.3-10,95.4-27.9,132.7c-20.1-101-40.3-202-60.4-303.1
				c-3.9-19.4-9.1-41.2-20.8-48.7c-5.1-3.3-10.7-3.3-16.1-3.2c-26.6,0.1-53.2,0.3-79.8,0.4c-9.9,0-20.1,0.2-29.5,5.6
				c-11.2,6.5-20.3,19.9-27.8,34.7c-38.3,75.4-40.1,181.3-40.1,278.6c-4.2-96.9-12.8-193.3-25.8-288.2c-1-7.5-2.2-15.4-5.6-20.8
				c-2.6-4.1-6.2-6.2-9.7-7.4c-16.6-5.7-34,6.8-45.9,26.1c-11.9,19.4-19.2,44.8-25.3,70.2c-37.6,156.2-39.8,332.9-89.5,480.1
				c-14.3-149.4-27.5-299.2-39.4-449.2c-4.1-51.1-8.4-104.1-25.5-147.6c-17-43.2-47.1-58.8-79.9-59.9c0-15.5,0-31.6,0-33
				c59.6-22.5,123.3-15.3,180.4,20.3c8.1,5,16.6,10.8,25.2,8.6c8.2-2.1,15-11.1,21.5-19.4c13.2-16.7,27.1-31.9,41.6-45.3
				c4.7-4.3,9.7-8.6,15.1-9.1c10.6-1.1,19.5,11.9,29,19.9c35.8,29.9,85.8-11.6,117.4,28.9c5.2,6.7,9.5,15.3,15.4,20.3
				c18.4,15.7,39.6-10.1,60.3-13.8c28.4-5.1,55.5,32.6,83.6,24.1c9.7-2.9,18.7-11.2,28.5-11.5c11.3-0.3,21.6,9.9,32.6,13.2
				c7.2,2.2,14.7,1.4,22.1,0.6C1732.1,82.2,1831.1,84.6,1929.4,99.4z"/>
		</g>
		<g id="XMLID_3_">
			<path id="XMLID_5_" class="st6" d="M1928.9,128.6c-26.6-4.7-53.8-5.2-80,3.4c-26.2,8.6-51.9,32.8-63.3,71.8
				c-17,58,1,132.7-19.6,187.6c-17.8-44.2-31.6-92.6-40.9-143.2c-5.8,48.3-12.4,99-32.4,136.2c-12.2-63.4-22.7-127.7-31.3-192.7
				c-29.1,54.6-42.8,126-51.3,196.6c-5.6,46.3-10,95.4-27.9,132.7c-20.1-101-40.3-202-60.4-303.1c-3.9-19.4-9.1-41.2-20.8-48.7
				c-5.1-3.3-10.7-3.3-16.1-3.2c-26.6,0.1-53.2,0.3-79.8,0.4c-9.9,0-20.1,0.2-29.5,5.6c-11.2,6.5-20.3,19.9-27.8,34.7
				c-38.3,75.4-40.1,181.3-40.1,278.6c-4.2-96.9-12.8-193.3-25.8-288.2c-1-7.5-2.2-15.4-5.6-20.8c-2.6-4.1-6.2-6.2-9.7-7.4
				c-16.6-5.7-34,6.8-45.9,26.1c-11.9,19.4-19.2,44.8-25.3,70.2c-37.6,156.2-39.8,332.9-89.5,480.1
				c-14.3-149.4-27.5-299.2-39.4-449.2c-4.1-51.1-8.4-104.1-25.5-147.6c-17-43.2-47.1-58.8-79.9-59.9c0-15.5,0-31.6,0-33
				c59.6-22.5,123.3-15.3,180.4,20.3c8.1,5,16.6,10.8,25.2,8.6c8.2-2.1,15-11.1,21.5-19.4c13.2-16.7,27.1-31.9,41.6-45.3
				c4.7-4.3,9.7-8.6,15.1-9.1c10.6-1.1,19.5,11.9,29,19.9c35.8,29.9,85.8-11.6,117.4,28.9c5.2,6.7,9.5,15.3,15.4,20.3
				c18.4,15.7,39.6-10.1,60.3-13.8c28.4-5.1,55.5,32.6,83.6,24.1c9.7-2.9,18.7-11.2,28.5-11.5c11.3-0.3,21.6,9.9,32.6,13.2
				c7.2,2.2,14.7,1.4,22.1,0.6c98.5-10,197.5-7.6,295.8,7.1c0,8,0,16,0,24c0,1.6,0,3.2-0.4,4.6"/>
		</g>
	</g>
	<g id="XMLID_16_" class="st4">
		<g id="XMLID_191_">
			<path id="XMLID_195_" class="st7" d="M1166.2,389.6c-3.2-3.2-6.8-5.3-11.3-5.9c-6.6-0.8-12.8,1.2-18.8-2.6
				c-1.4-0.9-2.6,1.3-1.3,2.2c3.8,2.4,7.6,3,12.1,2.9c6.9-0.1,12.3,0,17.5,5.2C1165.5,392.5,1167.3,390.8,1166.2,389.6L1166.2,389.6
				z"/>
		</g>
	</g>
	<g id="XMLID_15_" class="st4">
		<g id="XMLID_185_">
			<path id="XMLID_189_" class="st7" d="M1154.1,494.4c-5.9,0-11.8,0-17.7,0c-1.6,0-1.6,2.5,0,2.5c5.9,0,11.8,0,17.7,0
				C1155.8,496.9,1155.8,494.4,1154.1,494.4L1154.1,494.4z"/>
		</g>
	</g>
	<g id="XMLID_12_" class="st4">
		<g id="XMLID_179_">
			<path id="XMLID_183_" class="st7" d="M1082.2,442.8c6.3,0.6,12.6,0,18.8-1.1c2.6-0.5,5.2-0.9,7.6-2c2.8-1.3,5.3-4.1,8.6-4
				c1.6,0.1,1.6-2.4,0-2.5c-4.9-0.2-8.7,4.3-13.4,5.5c-7,1.7-14.4,2.4-21.6,1.7C1080.6,440.2,1080.7,442.7,1082.2,442.8
				L1082.2,442.8z"/>
		</g>
	</g>
	<g id="XMLID_10_" class="st4">
		<g id="XMLID_173_">
			<path id="XMLID_177_" class="st7" d="M1088.9,527.3c4.2,0,8.3,0,12.5,0c1.6,0,1.6-2.5,0-2.5c-4.2,0-8.3,0-12.5,0
				C1087.3,524.8,1087.3,527.3,1088.9,527.3L1088.9,527.3z"/>
		</g>
	</g>
	<g id="XMLID_6_" class="st4">
		<g id="XMLID_167_">
			<path id="XMLID_171_" class="st7" d="M1071.3,331.6c14.3,0,28.6,0,43,0c1.6,0,1.6-2.5,0-2.5c-14.3,0-28.6,0-43,0
				C1069.7,329.1,1069.7,331.6,1071.3,331.6L1071.3,331.6z"/>
		</g>
	</g>
	<g id="XMLID_7_" class="st4">
		<g id="XMLID_161_">
			<path id="XMLID_165_" class="st7" d="M1186.4,278.1c-10.7,0-21.3,0-32,0c-1.6,0-1.6,2.5,0,2.5c10.7,0,21.3,0,32,0
				C1188.1,280.6,1188.1,278.1,1186.4,278.1L1186.4,278.1z"/>
		</g>
	</g>
	<g id="XMLID_9_" class="st4">
		<g id="XMLID_155_">
			<path id="XMLID_159_" class="st7" d="M1069.4,249.5c4.3-6.7,16-4.6,22.9-4.7c8.4-0.1,16.9-0.1,25.3,0.1c1.6,0,1.6-2.5,0-2.5
				c-11-0.2-22-0.2-33.1,0c-6.7,0.1-13.3-0.4-17.3,5.8C1066.3,249.7,1068.5,250.9,1069.4,249.5L1069.4,249.5z"/>
		</g>
	</g>
	<g id="XMLID_11_" class="st4">
		<g id="XMLID_149_">
			<path id="XMLID_153_" class="st7" d="M1136.8,326.6c5.7,0.1,11.2,1,16.7,2.6c1.5,0.5,2.2-2,0.7-2.4c-5.7-1.7-11.5-2.6-17.4-2.7
				C1135.2,324.1,1135.2,326.6,1136.8,326.6L1136.8,326.6z"/>
		</g>
	</g>
	<g id="XMLID_18_" class="st4">
		<g id="XMLID_143_">
			<path id="XMLID_147_" class="st7" d="M1104.8,596.9c1.6,0,3.3,0,4.9,0s1.6-2.5,0-2.5s-3.3,0-4.9,0
				C1103.2,594.4,1103.2,596.9,1104.8,596.9L1104.8,596.9z"/>
		</g>
	</g>
	<g id="XMLID_25_" class="st4">
		<g id="XMLID_137_">
			<path id="XMLID_141_" class="st7" d="M1282.7,176.3c2.3,6.7,12.8,6.8,18.6,6.2c1.6-0.1,1.6-2.6,0-2.5c-4.3,0.4-14.4,0.8-16.2-4.4
				C1284.6,174.1,1282.2,174.8,1282.7,176.3L1282.7,176.3z"/>
		</g>
	</g>
	<g id="XMLID_32_" class="st4">
		<g id="XMLID_131_">
			<path id="XMLID_135_" class="st7" d="M1342.4,190.4c-5.3,3.7-12.2,1.3-16.8,6.6c-1.1,1.2,0.7,3,1.8,1.8
				c4.2-4.8,11.3-2.6,16.3-6.2C1345,191.6,1343.7,189.5,1342.4,190.4L1342.4,190.4z"/>
		</g>
	</g>
	<g id="XMLID_39_" class="st4">
		<g id="XMLID_124_">
			<path id="XMLID_128_" class="st7" d="M1291.9,236.5c3.3,0,6.5,0,9.8,0c1.6,0,1.6-2.5,0-2.5c-3.3,0-6.5,0-9.8,0
				C1290.3,234,1290.3,236.5,1291.9,236.5L1291.9,236.5z"/>
		</g>
	</g>
	<g id="XMLID_46_" class="st4">
		<g id="XMLID_117_">
			<path id="XMLID_121_" class="st7" d="M1294.9,264.9c2.2,0,4.5,0,6.7,0c1.6,0,1.6-2.5,0-2.5c-2.2,0-4.5,0-6.7,0
				C1293.3,262.4,1293.3,264.9,1294.9,264.9L1294.9,264.9z"/>
		</g>
	</g>
	<g id="XMLID_53_" class="st4">
		<g id="XMLID_110_">
			<path id="XMLID_114_" class="st7" d="M1522.6,182.8c3.5-0.5,7.1-1,10.3,0.9c2,1.2,3.8,3.2,5.4,5c3.2,3.4,5.3,6.8,6.7,11.3
				c1.7,5.3,3.3,12.4,9.9,13.4c6.1,0.9,10.4-4.7,13.7-8.9c1.7-2.3,3.3-4.4,6.2-5.2c2.5-0.7,5.3-0.6,7.8-0.8c4.9-0.3,9.9-0.2,14.8,0
				c1.6,0.1,1.6-2.4,0-2.5c-4.9-0.3-9.9-0.3-14.8,0c-3.2,0.2-7.1,0.1-10.1,1.4c-6.7,3-13.6,21.4-21.9,10.3
				c-2.5-3.3-2.8-7.8-4.4-11.6c-1.5-3.5-3.7-6.3-6.2-9.1c-5.5-6-10-7.7-18.1-6.5C1520.3,180.6,1521,183,1522.6,182.8L1522.6,182.8z"
				/>
		</g>
	</g>
	<g id="XMLID_60_" class="st4">
		<g id="XMLID_103_">
			<path id="XMLID_107_" class="st7" d="M1629.2,254.6c-11.8,0-23.8-0.7-35.6-0.1c-2.5,0.1-4.3,0.7-5.8,2.8
				c-1.6,2.2-2.4,4.9-4.9,6.5c-2.6,1.7-6.1,1.3-9,0.8c-1.6-0.2-2.3,2.2-0.7,2.4c3.2,0.5,6.6,0.8,9.7-0.4c1.4-0.6,2.7-1.5,3.7-2.6
				c1.2-1.4,1.8-3.7,3.1-4.9c4.2-4,14.4-2.1,19.8-2c6.6,0,13.2,0,19.8,0C1630.8,257.1,1630.8,254.6,1629.2,254.6L1629.2,254.6z"/>
		</g>
	</g>
	<g id="XMLID_67_" class="st4">
		<g id="XMLID_96_">
			<path id="XMLID_100_" class="st7" d="M1547.8,314c7.4,0,14.8,0,22.2,0c1.6,0,1.6-2.5,0-2.5c-7.4,0-14.8,0-22.2,0
				C1546.2,311.5,1546.2,314,1547.8,314L1547.8,314z"/>
		</g>
	</g>
	<g id="XMLID_74_" class="st4">
		<g id="XMLID_89_">
			<path id="XMLID_93_" class="st7" d="M1611.8,349.6c-6.6,0.7-13,0.4-19.5-1c-1.6-0.3-2.2,2.1-0.7,2.4c6.7,1.4,13.4,1.8,20.2,1.1
				C1613.4,351.9,1613.4,349.4,1611.8,349.6L1611.8,349.6z"/>
		</g>
	</g>
	<g id="XMLID_81_" class="st4">
		<g id="XMLID_82_">
			<path id="XMLID_86_" class="st7" d="M1564,388.5c9.3,0,18.7,0,28,0c1.6,0,1.6-2.5,0-2.5c-9.3,0-18.7,0-28,0
				C1562.4,386,1562.4,388.5,1564,388.5L1564,388.5z"/>
		</g>
	</g>
	<g id="XMLID_88_" class="st4">
		<g id="XMLID_75_">
			<path id="XMLID_79_" class="st7" d="M1600.8,424.8c-1.7,0-3.5,0-5.2,0c-1.6,0-1.6,2.5,0,2.5c1.7,0,3.5,0,5.2,0
				S1602.5,424.8,1600.8,424.8L1600.8,424.8z"/>
		</g>
	</g>
	<g id="XMLID_95_" class="st4">
		<g id="XMLID_68_">
			<path id="XMLID_72_" class="st7" d="M1669.4,205.1c6.9,0,13.8,0,20.7,0c1.6,0,1.6-2.5,0-2.5c-6.9,0-13.8,0-20.7,0
				C1667.8,202.6,1667.8,205.1,1669.4,205.1L1669.4,205.1z"/>
		</g>
	</g>
	<g id="XMLID_102_" class="st4">
		<g id="XMLID_63_">
			<path id="XMLID_233_" class="st7" d="M1675.8,256.1c6.9,0,13.8,0,20.7,0c1.6,0,1.6-2.5,0-2.5c-6.9,0-13.8,0-20.7,0
				C1674.2,253.6,1674.2,256.1,1675.8,256.1L1675.8,256.1z"/>
		</g>
	</g>
	<g id="XMLID_109_" class="st4">
		<g id="XMLID_234_">
			<path id="XMLID_251_" class="st7" d="M1717,274.7c-4.9,2-10,2.7-15.2,1.8c-1.6-0.3-2.2,2.1-0.7,2.4c5.7,1,11.2,0.4,16.6-1.8
				C1719.1,276.5,1718.5,274.1,1717,274.7L1717,274.7z"/>
		</g>
	</g>
	<g id="XMLID_116_" class="st4">
		<g id="XMLID_252_">
			<path id="XMLID_272_" class="st7" d="M1685.6,312.5c1.6,0,3.3,0,4.9,0s1.6-2.5,0-2.5s-3.3,0-4.9,0
				C1683.9,310,1683.9,312.5,1685.6,312.5L1685.6,312.5z"/>
		</g>
	</g>
	<g id="XMLID_123_" class="st4">
		<g id="XMLID_278_">
			<path id="XMLID_302_" class="st7" d="M1776.4,238.4c-3.7,0-7.3,0-11,0c-1.6,0-1.6,2.5,0,2.5c3.7,0,7.3,0,11,0
				C1778,240.9,1778,238.4,1776.4,238.4L1776.4,238.4z"/>
		</g>
	</g>
	<g id="XMLID_130_" class="st4">
		<g id="XMLID_308_">
			<path id="XMLID_332_" class="st7" d="M1739.8,289.5c3.3-0.4,6.2,0.3,9.1,1.9c1.4,0.8,2.7-1.4,1.3-2.2c-3.2-1.8-6.7-2.7-10.4-2.2
				C1738.2,287.2,1738.2,289.7,1739.8,289.5L1739.8,289.5z"/>
		</g>
	</g>
	<rect id="XMLID_17_" x="263.9" y="54.6" class="st8" width="15.5" height="2.3"/>
	<line id="XMLID_20_" class="st9" x1="960.9" y1="2.4" x2="960.9" y2="52.9"/>
	<line id="XMLID_21_" class="st10" x1="960.9" y1="57.5" x2="960.9" y2="86.5"/>
	<polygon id="XMLID_225_" class="st3" points="959.3,0 -9.1,0 -9.1,104.1 959.3,81.5 	"/>
	<g id="XMLID_217_" class="st4">
		<g id="XMLID_223_">
			<path id="XMLID_27_" class="st5" d="M-9.1,99.4c0,8,0,16,0,24c0,1.6,0,3.2,0.4,4.6l0.1,0.6c26.6-4.7,53.8-5.2,80,3.4
				c26.2,8.6,51.9,32.8,63.3,71.8c17,58-1,132.7,19.6,187.6c17.8-44.2,31.6-92.6,40.9-143.2c5.8,48.3,12.4,99,32.4,136.2
				c12.2-63.4,22.7-127.7,31.3-192.7c29.1,54.6,42.8,126,51.3,196.6c5.6,46.3,10,95.4,27.9,132.7c20.1-101,40.3-202,60.4-303.1
				c3.9-19.4,9.1-41.2,20.8-48.7c5.1-3.3,10.7-3.3,16.1-3.2c26.6,0.1,53.2,0.3,79.8,0.4c9.9,0,20.1,0.2,29.5,5.6
				c11.2,6.5,20.3,19.9,27.8,34.7c38.3,75.4,40.1,181.3,40.1,278.6c4.2-96.9,12.8-193.3,25.8-288.2c1-7.5,2.2-15.4,5.6-20.8
				c2.6-4.1,6.2-6.2,9.7-7.4c16.6-5.7,34,6.8,45.9,26.1c11.9,19.4,19.2,44.8,25.3,70.2c37.6,156.2,39.8,332.9,89.5,480.1
				c14.3-149.4,27.5-299.2,39.3-449.2c4.1-51.1,8.4-104.1,25.5-147.6c17-43.2,47.1-58.8,79.9-59.9c0-15.5,0-31.6,0-33
				C899.7,33.2,836,40.3,778.9,75.9c-8.1,5-16.6,10.8-25.2,8.6c-8.2-2.1-15-11.1-21.5-19.4c-13.2-16.7-27.1-31.9-41.6-45.3
				c-4.7-4.3-9.7-8.6-15.1-9.1c-10.6-1.1-19.5,11.9-29,19.9C610.7,60.5,560.7,19,529.1,59.5c-5.2,6.7-9.5,15.3-15.4,20.3
				c-18.4,15.7-39.6-10.1-60.3-13.8c-28.4-5.1-55.5,32.6-83.6,24.1c-9.7-2.9-18.7-11.2-28.5-11.5c-11.3-0.3-21.6,9.9-32.6,13.2
				c-7.2,2.2-14.7,1.4-22.1,0.6C188.1,82.2,89.1,84.6-9.1,99.4z"/>
		</g>
		<g id="XMLID_221_">
			<path id="XMLID_28_" class="st6" d="M-8.7,128.6c26.6-4.7,53.8-5.2,80,3.4c26.2,8.6,51.9,32.8,63.3,71.8
				c17,58-1,132.7,19.6,187.6c17.8-44.2,31.6-92.6,40.9-143.2c5.8,48.3,12.4,99,32.4,136.2c12.2-63.4,22.7-127.7,31.3-192.7
				c29.1,54.6,42.8,126,51.3,196.6c5.6,46.3,10,95.4,27.9,132.7c20.1-101,40.3-202,60.4-303.1c3.9-19.4,9.1-41.2,20.8-48.7
				c5.1-3.3,10.7-3.3,16.1-3.2c26.6,0.1,53.2,0.3,79.8,0.4c9.9,0,20.1,0.2,29.5,5.6c11.2,6.5,20.3,19.9,27.8,34.7
				c38.3,75.4,40.1,181.3,40.1,278.6c4.2-96.9,12.8-193.3,25.8-288.2c1-7.5,2.2-15.4,5.6-20.8c2.6-4.1,6.2-6.2,9.7-7.4
				c16.6-5.7,34,6.8,45.9,26.1c11.9,19.4,19.2,44.8,25.3,70.2c37.6,156.2,39.8,332.9,89.5,480.1c14.3-149.4,27.5-299.2,39.3-449.2
				c4.1-51.1,8.4-104.1,25.5-147.6c17-43.2,47.1-58.8,79.9-59.9c0-15.5,0-31.6,0-33c-59.3-22.4-123-15.3-180.1,20.3
				c-8.1,5-16.6,10.8-25.2,8.6c-8.2-2.1-15-11.1-21.5-19.4c-13.2-16.7-27.1-31.9-41.6-45.3c-4.7-4.3-9.7-8.6-15.1-9.1
				c-10.6-1.1-19.5,11.9-29,19.9C610.7,60.5,560.7,19,529.1,59.5c-5.2,6.7-9.5,15.3-15.4,20.3c-18.4,15.7-39.6-10.1-60.3-13.8
				c-28.4-5.1-55.5,32.6-83.6,24.1c-9.7-2.9-18.7-11.2-28.5-11.5c-11.3-0.3-21.6,9.9-32.6,13.2c-7.2,2.2-14.7,1.4-22.1,0.6
				c-98.5-10-197.5-7.6-295.8,7.1c0,8,0,16,0,24c0,1.6,0,3.2,0.4,4.6"/>
		</g>
	</g>
	<g id="XMLID_216_" class="st4">
		<g id="XMLID_381_">
			<path id="XMLID_385_" class="st7" d="M755.8,391.4c5.2-5.2,10.6-5.3,17.5-5.2c4.4,0.1,8.3-0.4,12.1-2.9c1.4-0.9,0.1-3-1.3-2.2
				c-5.9,3.8-12.2,1.8-18.8,2.6c-4.6,0.5-8.1,2.6-11.3,5.9C752.9,390.8,754.7,392.5,755.8,391.4L755.8,391.4z"/>
		</g>
	</g>
	<g id="XMLID_215_" class="st4">
		<g id="XMLID_375_">
			<path id="XMLID_379_" class="st7" d="M766.1,496.9c5.9,0,11.8,0,17.7,0c1.6,0,1.6-2.5,0-2.5c-5.9,0-11.8,0-17.7,0
				C764.5,494.4,764.5,496.9,766.1,496.9L766.1,496.9z"/>
		</g>
	</g>
	<g id="XMLID_214_" class="st4">
		<g id="XMLID_369_">
			<path id="XMLID_373_" class="st7" d="M838,440.3c-7.2,0.7-14.6-0.1-21.6-1.7c-4.7-1.1-8.5-5.6-13.4-5.5c-1.6,0.1-1.6,2.6,0,2.5
				c3.3-0.1,5.7,2.7,8.4,4c2.4,1.1,5.1,1.6,7.8,2.1c6.3,1.1,12.5,1.8,18.8,1.1C839.6,442.7,839.6,440.2,838,440.3L838,440.3z"/>
		</g>
	</g>
	<g id="XMLID_213_" class="st4">
		<g id="XMLID_363_">
			<path id="XMLID_367_" class="st7" d="M831.3,524.8c-4.2,0-8.3,0-12.5,0c-1.6,0-1.6,2.5,0,2.5c4.2,0,8.3,0,12.5,0
				C832.9,527.3,832.9,524.8,831.3,524.8L831.3,524.8z"/>
		</g>
	</g>
	<g id="XMLID_212_" class="st4">
		<g id="XMLID_357_">
			<path id="XMLID_361_" class="st7" d="M848.9,329.1c-14.3,0-28.6,0-43,0c-1.6,0-1.6,2.5,0,2.5c14.3,0,28.6,0,43,0
				C850.6,331.6,850.6,329.1,848.9,329.1L848.9,329.1z"/>
		</g>
	</g>
	<g id="XMLID_211_" class="st4">
		<g id="XMLID_351_">
			<path id="XMLID_355_" class="st7" d="M733.8,280.6c10.7,0,21.3,0,32,0c1.6,0,1.6-2.5,0-2.5c-10.7,0-21.3,0-32,0
				C732.2,278.1,732.2,280.6,733.8,280.6L733.8,280.6z"/>
		</g>
	</g>
	<g id="XMLID_210_" class="st4">
		<g id="XMLID_345_">
			<path id="XMLID_349_" class="st7" d="M853,248.3c-4-6.3-10.6-5.7-17.3-5.8c-11-0.2-22-0.2-33.1,0c-1.6,0-1.6,2.5,0,2.5
				c8.4-0.1,16.9-0.2,25.3-0.1c6.8,0.1,18.7-2,22.9,4.7C851.7,250.9,853.9,249.7,853,248.3L853,248.3z"/>
		</g>
	</g>
	<g id="XMLID_209_" class="st4">
		<g id="XMLID_339_">
			<path id="XMLID_343_" class="st7" d="M783.4,324.1c-5.9,0.1-11.7,1-17.4,2.7c-1.5,0.5-0.9,2.9,0.7,2.4c5.5-1.6,11-2.5,16.7-2.6
				C785,326.6,785,324.1,783.4,324.1L783.4,324.1z"/>
		</g>
	</g>
	<g id="XMLID_208_" class="st4">
		<g id="XMLID_333_">
			<path id="XMLID_337_" class="st7" d="M815.4,594.4c-1.6,0-3.3,0-4.9,0c-1.6,0-1.6,2.5,0,2.5s3.3,0,4.9,0
				C817,596.9,817,594.4,815.4,594.4L815.4,594.4z"/>
		</g>
	</g>
	<g id="XMLID_207_" class="st4">
		<g id="XMLID_327_">
			<path id="XMLID_331_" class="st7" d="M635.1,175.6c-1.8,5.2-11.8,4.8-16.2,4.4c-1.6-0.1-1.6,2.4,0,2.5c5.8,0.5,16.3,0.5,18.6-6.2
				C638,174.8,635.6,174.1,635.1,175.6L635.1,175.6z"/>
		</g>
	</g>
	<g id="XMLID_206_" class="st4">
		<g id="XMLID_321_">
			<path id="XMLID_325_" class="st7" d="M576.5,192.6c5,3.5,12,1.4,16.3,6.2c1.1,1.2,2.8-0.6,1.8-1.8c-4.6-5.2-11.5-2.9-16.8-6.6
				C576.5,189.5,575.2,191.6,576.5,192.6L576.5,192.6z"/>
		</g>
	</g>
	<g id="XMLID_205_" class="st4">
		<g id="XMLID_315_">
			<path id="XMLID_319_" class="st7" d="M628.3,234c-3.3,0-6.5,0-9.8,0c-1.6,0-1.6,2.5,0,2.5c3.3,0,6.5,0,9.8,0
				C629.9,236.5,629.9,234,628.3,234L628.3,234z"/>
		</g>
	</g>
	<g id="XMLID_204_" class="st4">
		<g id="XMLID_309_">
			<path id="XMLID_313_" class="st7" d="M625.3,262.4c-2.2,0-4.5,0-6.7,0c-1.6,0-1.6,2.5,0,2.5c2.2,0,4.5,0,6.7,0
				C626.9,264.9,626.9,262.4,625.3,262.4L625.3,262.4z"/>
		</g>
	</g>
	<g id="XMLID_203_" class="st4">
		<g id="XMLID_303_">
			<path id="XMLID_307_" class="st7" d="M398.3,180.4c-8.1-1.2-12.6,0.5-18.1,6.5c-2.5,2.8-4.8,5.6-6.2,9.1
				c-1.6,3.8-1.9,8.3-4.4,11.6c-8.3,11.1-15.2-7.3-21.9-10.3c-3-1.3-6.9-1.2-10.1-1.4c-4.9-0.3-9.9-0.2-14.8,0
				c-1.6,0.1-1.6,2.6,0,2.5c4.9-0.3,9.9-0.3,14.8,0c5.7,0.3,9.9,0.7,13.6,5.4c3.4,4.4,7.7,10.5,14.2,9.6c6.3-0.9,8.2-7.4,9.7-12.6
				c1.4-4.8,3.6-8.4,7-12.1c1.6-1.7,3.3-3.8,5.4-5c3.2-1.9,6.8-1.4,10.3-0.9C399.2,183,399.9,180.6,398.3,180.4L398.3,180.4z"/>
		</g>
	</g>
	<g id="XMLID_202_" class="st4">
		<g id="XMLID_297_">
			<path id="XMLID_301_" class="st7" d="M291,257.1c6.3,0,12.5,0,18.8,0c3,0,5.9,0,8.9,0c3.6,0,9.2-1,11.9,2.1
				c2.5,2.7,2.9,5.8,6.6,7.4c3.1,1.4,6.5,1,9.8,0.5c1.6-0.2,0.9-2.6-0.7-2.4c-2.6,0.4-5.5,0.7-8-0.4c-3-1.3-3.9-3.9-5.6-6.4
				c-1.6-2.4-3.3-3.2-6.1-3.3c-11.8-0.6-23.8,0.1-35.6,0.1C289.4,254.6,289.4,257.1,291,257.1L291,257.1z"/>
		</g>
	</g>
	<g id="XMLID_201_" class="st4">
		<g id="XMLID_291_">
			<path id="XMLID_295_" class="st7" d="M372.4,311.5c-7.4,0-14.8,0-22.2,0c-1.6,0-1.6,2.5,0,2.5c7.4,0,14.8,0,22.2,0
				C374,314,374,311.5,372.4,311.5L372.4,311.5z"/>
		</g>
	</g>
	<g id="XMLID_200_" class="st4">
		<g id="XMLID_285_">
			<path id="XMLID_289_" class="st7" d="M308.4,352.1c6.8,0.7,13.5,0.3,20.2-1.1c1.6-0.3,0.9-2.7-0.7-2.4c-6.5,1.4-12.9,1.7-19.5,1
				C306.8,349.4,306.8,351.9,308.4,352.1L308.4,352.1z"/>
		</g>
	</g>
	<g id="XMLID_199_" class="st4">
		<g id="XMLID_279_">
			<path id="XMLID_283_" class="st7" d="M356.2,386c-9.3,0-18.7,0-28,0c-1.6,0-1.6,2.5,0,2.5c9.3,0,18.7,0,28,0
				C357.8,388.5,357.8,386,356.2,386L356.2,386z"/>
		</g>
	</g>
	<g id="XMLID_198_" class="st4">
		<g id="XMLID_273_">
			<path id="XMLID_277_" class="st7" d="M319.4,427.3c1.7,0,3.5,0,5.2,0c1.6,0,1.6-2.5,0-2.5c-1.7,0-3.5,0-5.2,0
				C317.8,424.8,317.8,427.3,319.4,427.3L319.4,427.3z"/>
		</g>
	</g>
	<g id="XMLID_197_" class="st4">
		<g id="XMLID_267_">
			<path id="XMLID_271_" class="st7" d="M250.8,202.6c-6.9,0-13.8,0-20.7,0c-1.6,0-1.6,2.5,0,2.5c6.9,0,13.8,0,20.7,0
				C252.4,205.1,252.4,202.6,250.8,202.6L250.8,202.6z"/>
		</g>
	</g>
	<g id="XMLID_196_" class="st4">
		<g id="XMLID_261_">
			<path id="XMLID_265_" class="st7" d="M244.4,253.6c-6.9,0-13.8,0-20.7,0c-1.6,0-1.6,2.5,0,2.5c6.9,0,13.8,0,20.7,0
				C246,256.1,246,253.6,244.4,253.6L244.4,253.6z"/>
		</g>
	</g>
	<g id="XMLID_190_" class="st4">
		<g id="XMLID_255_">
			<path id="XMLID_259_" class="st7" d="M202.6,277.1c5.4,2.2,10.9,2.8,16.6,1.8c1.6-0.3,0.9-2.7-0.7-2.4
				c-5.3,0.9-10.3,0.2-15.2-1.8C201.7,274.1,201.1,276.5,202.6,277.1L202.6,277.1z"/>
		</g>
	</g>
	<g id="XMLID_184_" class="st4">
		<g id="XMLID_253_">
			<path id="XMLID_380_" class="st7" d="M234.7,310c-1.6,0-3.3,0-4.9,0c-1.6,0-1.6,2.5,0,2.5s3.3,0,4.9,0
				C236.3,312.5,236.3,310,234.7,310L234.7,310z"/>
		</g>
	</g>
	<g id="XMLID_178_" class="st4">
		<g id="XMLID_389_">
			<path id="XMLID_393_" class="st7" d="M143.9,240.9c3.7,0,7.3,0,11,0c1.6,0,1.6-2.5,0-2.5c-3.7,0-7.3,0-11,0
				C142.2,238.4,142.2,240.9,143.9,240.9L143.9,240.9z"/>
		</g>
	</g>
	<g id="XMLID_172_" class="st4">
		<g id="XMLID_394_">
			<path id="XMLID_398_" class="st7" d="M180.4,287c-3.7-0.4-7.2,0.4-10.4,2.2c-1.4,0.8-0.1,3,1.3,2.2c2.9-1.6,5.8-2.3,9.1-1.9
				C182,289.7,182,287.2,180.4,287L180.4,287z"/>
		</g>
	</g>
	<line id="XMLID_26_" class="st9" x1="959.3" y1="2.4" x2="959.3" y2="52.9"/>
	<line id="XMLID_24_" class="st10" x1="959.3" y1="57.5" x2="959.3" y2="86.5"/>
</g>
<g id="XMLID_598_">
	<rect id="XMLID_386_" x="477.6" y="0" class="st11" width="964.6" height="95.6"/>
	<g id="XMLID_350_">
		<path class="st12" d="M1441,149.3c-17.1-6.4-44.9,27-55,42.3s-12.9,34-15.8,52c-2.9,18-6.3,36.8-17.3,51.4
			c-5.9-18.1-5.3-37.6-7.6-56.6c-2.3-18.9-8.4-38.9-23.6-50.4c-14.9-11.3-35.1-12-53.9-12.2c-15.8-0.2-31.6-0.3-47.5-0.5
			c-21.4-0.2-46.5,1.4-58.4,19.2c-13,19.5-2.1,46.9-10.9,68.7c-2.6-15-13.9-67.2-20.9-80.8c-12.6,17.4-20.3,77.3-22.9,98.6
			c-11.7-24-4.4-50.3-18.8-72.6c-6-9.3-13.1-18.6-23.1-23.4c-8.1-4-17.5-31.9-26.5-32.5c-32-1.9-64.1-3-96.1-3.5
			c-6.3-0.1-13.1,27.3-18.3,31c-6.3,4.5-8.2,12.8-9.7,20.4c-5.4,28.3-10.9,56.7-16.3,85c-9.9-27-19.8-54-29.6-80.9
			c-2-5.6-4.2-11.4-8.7-15.2c-4.5-3.8-10.5-5.2-16.3-6.3c-33.8-6.9-74.8-11.6-97.4,14.4c-9.4,10.8-13.6,25.1-17.4,38.9
			c-15.8,57.1-29.8,114.8-42,172.8c-3.7,17.7-7.8,36.4-20.3,49.5c-27-73.2-22.1-154.2-40.7-229.9c-7.1-28.8-19.9-59.5-46.6-72.3
			c-30.9-14.9-65.6-1.1-99.3-7V84.3c37.5,1.4,76.4-18.2,113.5-12.9c18.7,2.7,35.8,11.5,53.8,17.2c64.3,20.4,133.4-0.3,200.1-10.3
			c3.3-0.5,6.9-0.9,9.7,0.9c2.4,1.6,3.6,4.4,5.2,6.8c7.4,11.5,23.2,13.5,36.8,13.7c17.4,0.2,34.7-0.7,52-2.8
			c14-1.7,28.3-4.4,39.9-12.4c20.9-14.5,27.3-42.3,42.6-62.6c1.8-2.4,4.1-4.9,7.1-5c4.1-0.2,6.9,3.8,8.9,7.3
			c7.4,12.9,14.7,25.8,22.1,38.7c10.2,18,24.3,38.3,44.9,38.3c8.2,0,15.9-3.3,23.8-5.3c12.9-3.4,26.5-3.3,39.8-3.3
			c86.3,0.3,174.5-8.7,260.8-8.4V149.3z"/>
		<g>
			<path class="st12" d="M1441.4,148.1c-7.7-2.6-15.8,1.5-22,5.8c-8.9,6.1-16.5,14.1-23.3,22.4c-6.9,8.2-13.3,16.9-17.4,26.8
				c-5.7,13.8-7.6,28.8-10,43.4c-2.8,16.8-6.4,33.8-16.7,47.8c0.8,0.1,1.5,0.2,2.3,0.3c-7.8-25.2-4-52.3-12-77.4
				c-3.2-10.1-8.3-19.9-16.2-27.2c-8-7.4-18.2-11.4-28.7-13.3c-12.3-2.3-24.9-2-37.4-2.2c-14.1-0.1-28.2-0.4-42.3-0.4
				c-18.5,0-41.1,1.2-54.1,16.4c-17.3,20.2-4.9,49.4-13.7,72.4c0.8,0,1.6,0,2.4,0c-2.4-14-5.6-27.8-8.9-41.6
				c-3.2-13.1-6-27.4-12.1-39.5c-0.5-0.9-1.7-0.7-2.2,0c-4.1,5.8-6.4,12.8-8.5,19.5c-2.9,9.4-5,19-6.9,28.6
				c-3.3,16.9-5.7,34-7.8,51.1c0.8-0.2,1.6-0.4,2.3-0.6c-6.5-13.9-7-29-9.2-43.9c-2.1-14.3-7.1-26.4-16.1-37.9
				c-3.9-4.9-8.3-9.5-13.6-12.8c-4.6-2.9-7.3-5-10.3-9.7c-4.8-7.4-8.5-17.1-15.4-22.7c-3.6-2.9-8.2-2.4-12.7-2.6
				c-8.5-0.5-17-0.9-25.5-1.2c-17.3-0.7-34.7-1.3-52-1.6c-4.1-0.1-10.4-1.7-13.9,1.2c-2.7,2.3-4.3,6.2-5.8,9.3
				c-2,4.3-3.7,8.6-5.6,12.9c-1.9,4.1-3.7,6.4-6.8,9.5c-4.6,4.7-6.3,11.4-7.5,17.6c-1.9,9.1-3.5,18.3-5.3,27.5
				c-3.8,19.6-7.6,39.3-11.3,58.9c0.8,0,1.6,0,2.4,0c-6.5-17.8-13-35.6-19.5-53.4c-3.4-9.2-6.7-18.4-10.1-27.6
				c-2.2-6-4.6-12.2-9.7-16.3c-5.4-4.3-12.5-5.4-19-6.7c-6.6-1.3-13.2-2.4-19.8-3.3c-13.5-1.8-27.3-2.5-40.7-0.1
				c-12.5,2.2-24.5,7.4-33.4,16.7c-10.5,10.9-15.2,25.6-19.1,39.9c-10.1,36.3-19.4,72.8-28,109.5c-4.9,20.9-9.6,41.9-14.1,62.9
				c-3.8,17.9-7.5,36.9-20.4,50.9c0.7,0.2,1.4,0.4,2.1,0.6c-14.3-39.2-19.8-80.6-24.4-121.8c-4.4-39.4-7.8-79.7-19-117.9
				c-9-30.6-26.2-61.2-59.7-68.5c-19.1-4.2-38.7-1.1-58-0.5c-5.1,0.2-10.1,0.2-15.2-0.1c-2.4-0.1-5.5-1-7.9-0.8
				c-0.8,0.1-2.5,0.4-2.5,0.4c-0.8-1.2,0-5.9,0-7.4c0-19.1,0-38.3,0-57.4c-0.4,0.4-0.8,0.8-1.3,1.3c34.6,1,67.2-14.3,101.6-13.8
				C600.1,72,617,78.8,634,85.2c16.5,6.2,33.4,10.4,50.9,12.2c35.9,3.5,72-2.1,107.3-8.3c18.2-3.2,36.3-6.9,54.6-9.4
				c2.3-0.3,5.1-0.9,7.4-0.3c3.3,0.9,4.6,3.4,6.2,6c1.6,2.6,3.4,4.9,5.8,6.9c4.5,3.7,10.1,5.8,15.8,7c15.7,3.3,33,1.9,48.9,0.8
				c16.6-1.1,34.5-2.3,50.1-8.8c27.6-11.5,35.1-41.1,50.3-64c2.8-4.2,7.3-12.2,13.3-7.5c3.5,2.7,5.6,8,7.7,11.8
				c4.8,8.4,9.6,16.8,14.4,25.2c7,12.3,14,25.2,24.6,34.8c10.2,9.3,22.4,12.7,35.9,9.4c9.2-2.3,17.8-5.3,27.2-6.3
				c9.2-1,18.5-0.8,27.7-0.8c77,0.1,153.8-6.9,230.8-8.2c9.4-0.2,18.7-0.2,28.1-0.2c-0.4-0.4-0.8-0.8-1.3-1.3c0,21.7,0,43.4,0,65.1
				c0,1.6,2.5,1.6,2.5,0c0-21.7,0-43.4,0-65.1c0-0.7-0.6-1.2-1.3-1.3c-76.7-0.2-153.2,6.7-229.8,8.1c-18.8,0.4-38-0.8-56.7,1.1
				c-8.8,0.9-16.9,3.3-25.3,5.7c-8.4,2.4-16.8,3-25-0.7c-13.5-6.1-22.4-19.6-29.6-31.9c-4.7-8-9.2-16.1-13.8-24.1
				c-4-7-7.5-15.2-12.6-21.4c-9.9-12.1-19.6,6.5-23.9,14.3c-7.2,12.7-12.8,26.4-21.9,37.9c-10.9,13.7-26.2,19.8-43.2,22.6
				c-18.5,3-37.5,4-56.2,4c-15.6-0.1-32-1.2-41.1-15.6c-3.3-5.2-7.1-6.7-13.2-6c-8.6,0.9-17.1,2.7-25.6,4.2
				c-36.7,6.4-73.4,14.3-110.8,14.9c-18.8,0.3-37.6-1.3-55.8-6c-17.5-4.5-33.7-12.7-51.1-17.3c-33.5-8.9-66.2,3.4-99.1,8.6
				c-8.7,1.4-17.5,2.1-26.3,1.8c-0.7,0-1.3,0.6-1.3,1.3c0,21.7,0,43.4,0,65.1c0,0.5,0.4,1.1,0.9,1.2c28,4.6,56.6-4.2,84.4,1.9
				c25.6,5.6,42,25.5,51.7,48.8c10.2,24.5,14.6,51.6,18.3,77.7c4.1,28.7,6.6,57.6,10.4,86.4c4.2,31.8,10,63.4,21,93.6
				c0.3,0.8,1.4,1.3,2.1,0.6c9.5-10.3,14.3-23.3,17.6-36.7c4.1-16.4,7.2-33.1,10.9-49.6c7.9-35.3,16.5-70.4,25.7-105.4
				c4.3-16.2,8-32.9,13.8-48.6c5.3-14.3,14.1-26.6,28-33.4c24.5-12,55-6.8,80.6-1.4c4.8,1,9.7,2.1,13.8,5c3.9,2.8,6.2,7,8,11.3
				c3.7,8.9,6.7,18.1,10,27.2c7.1,19.3,14.1,38.6,21.2,58c0.4,1,2.2,1.3,2.4,0c3.1-16.1,6.2-32.2,9.3-48.3c1.5-7.7,3-15.5,4.5-23.2
				c1.4-7.3,2.4-15,4.6-22.1c1.1-3.4,2.6-6.8,5.1-9.4c1.1-1.1,2.4-2,3.5-3.2c2.4-2.9,3.8-6.8,5.2-10.2c1.7-4,3.3-8,5.3-11.9
				c0.8-1.6,1.6-3.2,2.7-4.7c2-2.7,3.5-2.5,6.9-2.4c16.4,0.3,32.7,0.7,49.1,1.3c7.2,0.3,14.4,0.6,21.6,0.9c3.9,0.2,7.8,0.4,11.8,0.6
				c3.5,0.2,8.4-0.4,11.6,1.1c3.5,1.7,6,6.1,8,9.3c2.7,4.2,5.1,8.6,7.7,12.8c1.8,2.9,3.8,6.1,6.4,8.3c1.4,1.2,3.1,1.9,4.7,2.8
				c3.5,2.1,6.6,4.8,9.4,7.8c11.4,12,17.6,26.3,19.9,42.6c2.1,14.9,2.8,29.8,9.3,43.7c0.6,1.3,2.2,0.4,2.3-0.6
				c2.1-16.9,4.4-33.7,7.7-50.4c1.8-9.1,3.7-18.1,6.4-27c2.1-7.1,4.5-14.5,8.7-20.6c-0.7,0-1.4,0-2.2,0c6.2,12.3,9,26.9,12.1,40.1
				c3.2,13.4,6.3,26.8,8.6,40.3c0.2,1.3,2,1,2.4,0c7.6-20-0.4-42.3,7.5-62.1c8.5-21,33.1-24.5,53-24.9c12.4-0.2,24.9,0.1,37.3,0.3
				c12.1,0.1,24.4-0.1,36.5,0.9c11.6,1,23.5,3.5,33.2,10.3c9.4,6.6,15.5,16.8,19.3,27.5c8.9,25.7,4.7,53.7,12.7,79.6
				c0.3,1.1,1.7,1.2,2.3,0.3c21.7-29.6,13.1-69.6,31.3-100.5c6.3-10.7,14.8-20.6,23.7-29.2c7.5-7.3,20.1-19.2,31.7-15.4
				C1442.2,151,1442.9,148.6,1441.4,148.1z"/>
		</g>
	</g>
	<g id="XMLID_231_">
		<g>
			<path class="st7" d="M480,75.3c34.6,1,67.2-14.3,101.6-13.8C600.1,61.8,617,68.6,634,75c16.5,6.2,33.4,10.4,50.9,12.2
				c35.9,3.5,72-2.1,107.3-8.3c18.2-3.2,36.3-6.9,54.6-9.4c2.3-0.3,5.1-0.9,7.4-0.3c3.3,0.9,4.6,3.4,6.2,6c1.6,2.6,3.4,4.9,5.8,6.9
				c4.5,3.7,10.1,5.8,15.8,7c15.7,3.3,33,1.9,48.9,0.8c16.6-1.1,34.5-2.3,50.1-8.8c27.6-11.5,35.1-41.1,50.3-64
				c2.8-4.2,7.3-12.2,13.3-7.5c3.5,2.7,5.6,8,7.7,11.8c4.8,8.4,9.6,16.8,14.4,25.2c7,12.3,14,25.2,24.6,34.8
				c10.2,9.3,22.4,12.7,35.9,9.4c9.2-2.3,17.8-5.3,27.2-6.3c9.2-1,18.5-0.8,27.7-0.8c77,0.1,153.8-6.9,230.8-8.2
				c9.4-0.2,18.7-0.2,28.1-0.2c1.6,0,1.6-2.5,0-2.5c-76.7-0.2-153.2,6.7-229.8,8.1c-18.8,0.4-38-0.8-56.7,1.1
				c-8.8,0.9-16.9,3.3-25.3,5.7c-8.4,2.4-16.8,3-25-0.7c-13.5-6.1-22.4-19.6-29.6-31.9c-4.7-8-9.2-16.1-13.8-24.1
				c-4-7-7.5-15.2-12.6-21.4c-9.9-12.1-19.6,6.5-23.9,14.3c-7.2,12.7-12.8,26.4-21.9,37.9c-10.9,13.7-26.2,19.8-43.2,22.6
				c-18.5,3-37.5,4-56.2,4c-15.6-0.1-32-1.2-41.1-15.6c-3.3-5.2-7.1-6.7-13.2-6c-8.6,0.9-17.1,2.7-25.6,4.2
				c-36.7,6.4-73.4,14.3-110.8,14.9c-18.8,0.3-37.6-1.3-55.8-6C639,75.2,622.8,67,605.4,62.4c-33.5-8.9-66.2,3.4-99.1,8.6
				c-8.7,1.4-17.5,2.1-26.3,1.8C478.4,72.8,478.4,75.3,480,75.3L480,75.3z"/>
		</g>
	</g>
	<g id="XMLID_338_">
		<g>
			<path d="M480,84.1c34.6,1,67.2-14.3,101.6-13.8c18.4,0.3,35.1,7.1,52.1,13.5c16.6,6.2,33.6,10.5,51.3,12.2
				c35.7,3.5,71.6-2,106.7-8.2c18.2-3.2,36.3-6.8,54.6-9.5c5.4-0.8,9.1-1.2,12.4,3.8c1.8,2.7,3.3,5.3,5.8,7.5
				c4.6,4.2,10.6,6.7,16.6,8c15.7,3.5,33,2.1,48.9,1c16.5-1.1,34.2-2.2,49.8-8.3c28.7-11.1,36.6-40.3,51.8-64
				c1.8-2.8,4.3-7.9,7.6-9.2c5.5-2.3,9.2,7.2,11.2,10.6c4.6,8.1,9.3,16.3,13.9,24.4c7.3,12.8,14.4,26.4,25.2,36.6
				c9.9,9.4,22,14,35.6,11.2c8.6-1.8,16.7-5.1,25.4-6.4c9.9-1.4,19.9-1.4,29.8-1.3c77.2,0.2,154.2-6.8,231.3-8.2
				c9.5-0.2,19-0.2,28.5-0.2c3.2,0,3.2-5,0-5c-77.5-0.2-154.8,6.9-232.3,8.2c-18.6,0.3-37.6-1-56.1,1.4c-16.2,2-32.8,12.3-48.7,4
				c-12.9-6.8-21.4-20.2-28.4-32.4c-4.6-8-9.1-16-13.7-23.9c-3.9-6.9-7.4-16-13.2-21.5c-11.2-10.7-21.3,10.2-25.6,18
				c-6.8,12.4-12.4,25.8-21.6,36.8c-10.9,13.2-26.1,18.7-42.6,21.3c-18.8,2.9-38,3.9-56.9,3.8c-7.4-0.1-14.9-0.4-22-2.6
				c-7.6-2.3-12.2-6.5-16.5-13c-3.5-5.4-8.2-6.7-14.4-5.9c-9.1,1.2-18.2,2.9-27.2,4.5c-36.5,6.4-73.2,14.2-110.4,14.6
				c-18.1,0.2-36.1-1.5-53.7-6c-17.5-4.5-33.7-12.7-51.1-17.3c-33.7-9-66.6,3.4-99.8,8.6c-8.6,1.3-17.2,2.1-25.9,1.8
				C476.8,79,476.8,84,480,84.1L480,84.1z"/>
		</g>
	</g>
	<g id="XMLID_8_">
		<g>
			<path d="M1441.7,148.5c-8.1-2.7-16.4,1.4-23,6c-9,6.2-16.6,14.2-23.6,22.6c-7,8.3-13.5,17.1-17.7,27.2
				c-5.8,13.9-7.7,28.9-10.1,43.6c-2.7,16.7-6.4,33.6-16.5,47.5c1.5,0.2,3,0.4,4.6,0.6c-7.8-25.2-4-52.3-12-77.4
				c-3.3-10.3-8.5-20.3-16.5-27.7c-8.1-7.5-18.5-11.7-29.3-13.6c-12.4-2.3-25.1-2.1-37.7-2.2c-14.1-0.1-28.2-0.4-42.3-0.4
				c-18.8,0-41.7,1.4-55,16.7c-17.6,20.5-5.1,49.6-14,73c1.6,0,3.2,0,4.8,0c-2.4-14-5.6-27.8-8.9-41.6c-3.2-13.2-6-27.6-12.2-39.8
				c-0.9-1.8-3.3-1.4-4.3,0c-4.1,5.9-6.5,13-8.6,19.8c-2.9,9.4-5,19-6.9,28.6c-3.3,17-5.7,34.2-7.8,51.4c1.6-0.4,3.1-0.8,4.7-1.3
				c-6.4-13.7-6.9-28.8-9-43.6c-2.1-14.5-7.2-26.6-16.2-38.2c-4-5.1-8.6-9.8-14.1-13.3c-4.4-2.8-7-4.8-9.9-9.2
				c-4.8-7.5-8.6-17.2-15.6-23c-3.9-3.2-8.7-2.7-13.5-3c-8.5-0.5-17-0.9-25.5-1.2c-17.3-0.7-34.7-1.3-52-1.6
				c-4.5-0.1-11-1.7-14.8,1.6c-2.8,2.4-4.5,6.3-6,9.6c-2,4.3-3.7,8.6-5.6,12.9c-1.8,4.1-3.6,6.2-6.6,9.3c-4.8,4.8-6.6,11.7-7.9,18.2
				c-1.9,9.1-3.5,18.3-5.3,27.5c-3.8,19.6-7.6,39.3-11.3,58.9c1.6,0,3.2,0,4.8,0c-6.5-17.8-13-35.6-19.5-53.4
				c-3.4-9.2-6.7-18.4-10.1-27.6c-2.3-6.2-4.7-12.6-10-16.8c-5.6-4.5-12.8-5.7-19.6-7.1c-6.7-1.3-13.4-2.5-20.1-3.4
				c-13.6-1.8-27.5-2.4-41.1,0c-12.7,2.2-24.9,7.6-33.9,17c-10.7,11-15.4,26-19.5,40.5c-10.1,36.3-19.4,72.8-28,109.5
				c-4.9,20.9-9.6,41.9-14.1,62.9c-3.8,17.7-7.4,36.6-20,50.3c1.4,0.4,2.8,0.7,4.2,1.1c-20.7-56.6-22.7-117.3-30.9-176.4
				c-3.7-26.9-8-54.7-18.2-80c-8.4-20.8-21.8-40.3-43.3-49.1c-30.7-12.6-64.3-0.3-96-5.5c-3.1-0.5-4.5,4.3-1.3,4.8
				c28,4.6,56.7-4.2,84.4,1.9c25.2,5.5,41.3,25,50.8,47.9c10.3,24.5,14.6,51.6,18.3,77.7c4.1,28.6,6.5,57.4,10.3,86.1
				c4.2,31.9,10,63.6,21.1,93.9c0.6,1.7,2.8,2.6,4.2,1.1c9.6-10.4,14.5-23.7,17.9-37.3c4.1-16.4,7.2-33.1,10.9-49.6
				c7.9-35.3,16.5-70.4,25.7-105.4c4.3-16.2,8-32.9,13.8-48.6c5.2-14,13.8-25.9,27.5-32.6c24.2-11.8,54.4-6.6,79.6-1.3
				c4.6,1,9.4,2,13.4,4.8c3.7,2.6,5.8,6.6,7.5,10.7c3.7,8.9,6.7,18.1,10,27.2c7.1,19.3,14.1,38.6,21.2,58c0.8,2.1,4.3,2.6,4.8,0
				c3.1-16.1,6.2-32.2,9.3-48.3c1.5-7.7,3-15.5,4.5-23.2c1.4-7.3,2.4-15,4.6-22.1c1-3.2,2.4-6.4,4.8-8.8c1.2-1.2,2.6-2.1,3.7-3.4
				c2.4-3,3.8-6.8,5.2-10.2c1.7-4,3.3-8,5.3-11.9c0.8-1.6,1.6-3.3,2.7-4.7c1.8-2.3,2.8-1.8,5.8-1.8c16.4,0.3,32.7,0.7,49.1,1.3
				c7.2,0.3,14.4,0.6,21.6,0.9c3.9,0.2,7.8,0.4,11.8,0.6c3.3,0.2,8-0.4,11,1c3.3,1.6,5.7,5.9,7.6,8.9c2.7,4.2,5.1,8.6,7.7,12.8
				c1.9,3,3.9,6.2,6.6,8.5c1.5,1.3,3.2,2,4.9,3c3.4,2.1,6.4,4.7,9.2,7.6c11.3,11.9,17.3,26,19.6,42.1c2.1,15,2.9,30,9.4,44
				c1.2,2.5,4.4,0.9,4.7-1.3c2-16.8,4.4-33.5,7.6-50.1c1.8-9.1,3.7-18.1,6.4-27c2.1-7,4.4-14.2,8.6-20.3c-1.4,0-2.9,0-4.3,0
				c6.2,12.2,8.9,26.7,12,39.8c3.2,13.4,6.3,26.8,8.6,40.3c0.5,2.7,4,2,4.8,0c7.6-20-0.5-42.4,7.5-62.1c8.3-20.4,32.5-23.6,51.8-24
				c12.4-0.2,24.9,0.1,37.3,0.3c12.1,0.1,24.4-0.1,36.5,0.9c11.4,1,23.1,3.5,32.6,10.2c9.1,6.5,15.1,16.4,18.7,26.8
				c8.9,25.7,4.7,53.7,12.7,79.6c0.7,2.2,3.3,2.3,4.6,0.6c21.7-29.6,13.1-69.6,31.3-100.5c6.2-10.6,14.7-20.4,23.5-29
				c7.2-7,19.4-18.7,30.5-15C1443.4,154.3,1444.7,149.5,1441.7,148.5L1441.7,148.5z"/>
		</g>
	</g>
	<g id="XMLID_400_">
		<g>
			<path d="M630.5,259.7c11.4,0.8,22.9,0.9,34.3,0.5c2.4-0.1,2.4-3.8,0-3.8c-11.4,0.4-22.9,0.3-34.3-0.5
				C628.1,255.8,628.1,259.5,630.5,259.7L630.5,259.7z"/>
		</g>
	</g>
	<g id="XMLID_407_">
		<g>
			<path d="M713.8,294.4c-5,0.4-9.9,2.2-15,2.4c-4.9,0.2-9.5-2-14.5-1.6c-2.4,0.2-2.4,4,0,3.8c4.9-0.4,9.5,1.8,14.5,1.6
				c5.1-0.2,9.9-2,15-2.4C716.2,297.9,716.2,294.2,713.8,294.4L713.8,294.4z"/>
		</g>
	</g>
	<g id="XMLID_408_">
		<g>
			<path d="M710.4,303.9c-3.1-0.1-6.1-0.2-9.2,0c-3,0.2-6,0.9-9.1,0.7c-2.4-0.1-2.4,3.6,0,3.8c3.1,0.2,6-0.5,9.1-0.7
				c3.1-0.2,6.1-0.1,9.2,0C712.8,307.7,712.8,303.9,710.4,303.9L710.4,303.9z"/>
		</g>
	</g>
	<g id="XMLID_421_">
		<g>
			<path d="M643.2,347.9c4.6,0.3,9.4,0.4,14,1.2c2.4,0.4,3.4-3.2,1-3.6c-4.9-0.9-10-1-15-1.4C640.8,344,640.8,347.7,643.2,347.9
				L643.2,347.9z"/>
		</g>
	</g>
	<g id="XMLID_422_">
		<g>
			<path d="M644.1,353.4c2.4,0,4.8,0,7.2,0c2.4,0,2.4-3.8,0-3.8c-2.4,0-4.8,0-7.2,0C641.7,349.7,641.7,353.4,644.1,353.4
				L644.1,353.4z"/>
		</g>
	</g>
	<g id="XMLID_429_">
		<g>
			<path d="M644.1,358.9c1.3,0,2.6,0,4,0c2.4,0,2.4-3.8,0-3.8c-1.3,0-2.6,0-4,0C641.7,355.2,641.7,358.9,644.1,358.9L644.1,358.9z"
				/>
		</g>
	</g>
	<g id="XMLID_436_">
		<g>
			<path d="M688.8,396.5c-4.9-0.1-9.5,1.3-14.4,1.5c-2.4,0.1-2.4,3.9,0,3.8c4.8-0.2,9.5-1.7,14.4-1.5
				C691.2,400.3,691.2,396.6,688.8,396.5L688.8,396.5z"/>
		</g>
	</g>
	<g id="XMLID_444_">
		<g>
			<path d="M916.1,193.3c-5.1-0.4-10,0.9-15.1,0.4c-2.4-0.2-2.4,3.5,0,3.8c5.1,0.5,10-0.9,15.1-0.4
				C918.5,197.3,918.5,193.5,916.1,193.3L916.1,193.3z"/>
		</g>
	</g>
	<g id="XMLID_451_">
		<g>
			<path d="M870.6,207.4c2.6,0,5.3,0,7.9,0c2.4,0,2.4-3.8,0-3.8c-2.6,0-5.3,0-7.9,0C868.2,203.6,868.2,207.4,870.6,207.4
				L870.6,207.4z"/>
		</g>
	</g>
	<g id="XMLID_458_">
		<g>
			<path d="M870,212.9c1.8,0,3.6,0,5.3,0c2.4,0,2.4-3.8,0-3.8c-1.8,0-3.6,0-5.3,0C867.6,209.1,867.6,212.9,870,212.9L870,212.9z"/>
		</g>
	</g>
	<g id="XMLID_465_">
		<g>
			<path d="M909.7,228c-3.7,0-7.4,0-11.1,0c-2.4,0-2.4,3.8,0,3.8c3.7,0,7.4,0,11.1,0C912.1,231.8,912.1,228,909.7,228L909.7,228z"/>
		</g>
	</g>
	<g id="XMLID_472_">
		<g>
			<path d="M908.9,223.5c-0.8,0-1.6,0-2.4,0c-1,0-1.9,0.9-1.9,1.9c0,1,0.8,1.9,1.9,1.9c0.8,0,1.6,0,2.4,0c1,0,1.9-0.9,1.9-1.9
				C910.7,224.3,910,223.5,908.9,223.5L908.9,223.5z"/>
		</g>
	</g>
	<g id="XMLID_479_">
		<g>
			<path d="M907.4,235.3c-0.6,0-1.2,0-1.8,0c-1,0-1.9,0.9-1.9,1.9c0,1,0.8,1.9,1.9,1.9c0.6,0,1.2,0,1.8,0c1,0,1.9-0.9,1.9-1.9
				C909.2,236.2,908.4,235.3,907.4,235.3L907.4,235.3z"/>
		</g>
	</g>
	<g id="XMLID_486_">
		<g>
			<path d="M1061.1,183.8c6.5,0.6,13.1,0.8,19.7,0.6c2.4-0.1,2.4-3.8,0-3.8c-6.6,0.2-13.1-0.1-19.7-0.6
				C1058.7,179.8,1058.7,183.6,1061.1,183.8L1061.1,183.8z"/>
		</g>
	</g>
	<g id="XMLID_493_">
		<g>
			<path d="M1094.9,222.7c1.1,0,2.1,0,3.2,0c1,0,1.9-0.9,1.9-1.9c0-1-0.9-1.9-1.9-1.9c-1.1,0-2.1,0-3.2,0c-1,0-1.9,0.9-1.9,1.9
				C1093,221.8,1093.9,222.7,1094.9,222.7L1094.9,222.7z"/>
		</g>
	</g>
	<g id="XMLID_500_">
		<g>
			<path d="M1097.2,228.3c1.4,0,2.8,0,4.1,0c2.4,0,2.4-3.8,0-3.8c-1.4,0-2.8,0-4.1,0C1094.8,224.6,1094.8,228.3,1097.2,228.3
				L1097.2,228.3z"/>
		</g>
	</g>
	<g id="XMLID_507_">
		<g>
			<path d="M1112.9,238c-2.1,0-4.3,0-6.4,0c-2.4,0-2.4,3.8,0,3.8c2.1,0,4.3,0,6.4,0C1115.3,241.7,1115.3,238,1112.9,238L1112.9,238z
				"/>
		</g>
	</g>
	<g id="XMLID_514_">
		<g>
			<path d="M1138,205.5c1.2,0,2.4,0,3.6,0c2.4,0,2.4-3.8,0-3.8c-1.2,0-2.4,0-3.6,0C1135.5,201.7,1135.5,205.5,1138,205.5L1138,205.5
				z"/>
		</g>
	</g>
	<g id="XMLID_521_">
		<g>
			<path d="M1140.7,209.6c0.3,0,0.6,0,1,0c1,0,1.9-0.9,1.9-1.9c0-1-0.8-1.9-1.9-1.9c-0.3,0-0.6,0-1,0c-1,0-1.9,0.9-1.9,1.9
				C1138.9,208.8,1139.6,209.6,1140.7,209.6L1140.7,209.6z"/>
		</g>
	</g>
	<g id="XMLID_528_">
		<g>
			<path d="M1154.2,213.3c-2.2-0.3-4.3,0.6-6.5,0.3c-2.4-0.2-2.4,3.5,0,3.8c2.2,0.2,4.3-0.6,6.5-0.3c1,0.1,1.9-1,1.9-1.9
				C1156.1,214.1,1155.2,213.5,1154.2,213.3L1154.2,213.3z"/>
		</g>
	</g>
	<g id="XMLID_535_">
		<g>
			<path d="M1142.9,223.9c1.5,0.5,3.1,0.7,4.7,0.6c1-0.1,1.9-0.8,1.9-1.9c0-1-0.9-1.9-1.9-1.9c-1.3,0.1-2.5,0-3.7-0.4
				C1141.6,219.6,1140.6,223.2,1142.9,223.9L1142.9,223.9z"/>
		</g>
	</g>
	<g id="XMLID_542_">
		<g>
			<path d="M1367,257.9c-2.5,0-5,0-7.4,0c-2.4,0-2.4,3.8,0,3.8c2.5,0,5,0,7.4,0C1369.4,261.7,1369.4,257.9,1367,257.9L1367,257.9z"
				/>
		</g>
	</g>
	<g id="XMLID_549_">
		<g>
			<path d="M1364.9,262.9c-1.5,0-3,0-4.5,0c-2.4,0-2.4,3.8,0,3.8c1.5,0,3,0,4.5,0C1367.3,266.7,1367.3,262.9,1364.9,262.9
				L1364.9,262.9z"/>
		</g>
	</g>
	<g id="XMLID_556_">
		<g>
			<path d="M1345.2,242c3.8,0,7.6,0,11.4,0c2.4,0,2.4-3.8,0-3.8c-3.8,0-7.6,0-11.4,0C1342.8,238.3,1342.8,242,1345.2,242L1345.2,242
				z"/>
		</g>
	</g>
	<g id="XMLID_563_">
		<g>
			<path d="M1346.4,246.1c1.8,0,3.5,0,5.3,0c2.4,0,2.4-3.8,0-3.8c-1.8,0-3.5,0-5.3,0C1344,242.3,1344,246.1,1346.4,246.1
				L1346.4,246.1z"/>
		</g>
	</g>
	<g id="XMLID_570_">
		<g>
			<path d="M1346,236.2c1.1,0,2.2,0,3.3,0c1,0,1.9-0.9,1.9-1.9c0-1-0.9-1.9-1.9-1.9c-1.1,0-2.2,0-3.3,0c-1,0-1.9,0.9-1.9,1.9
				C1344.1,235.3,1344.9,236.2,1346,236.2L1346,236.2z"/>
		</g>
	</g>
	<g id="XMLID_577_">
		<g>
			<path d="M1345.2,231.3c2.7,0,5.4,0,8.2,0c2.4,0,2.4-3.8,0-3.8c-2.7,0-5.4,0-8.2,0C1342.8,227.5,1342.8,231.3,1345.2,231.3
				L1345.2,231.3z"/>
		</g>
	</g>
	<g id="XMLID_584_">
		<g>
			<path d="M1378,206.4c-4.9,0.6-9.7-0.8-14.5,0.4c-2.3,0.6-1.4,4.2,1,3.6c4.5-1.1,9,0.3,13.6-0.2
				C1380.4,209.8,1380.4,206.1,1378,206.4L1378,206.4z"/>
		</g>
	</g>
	<g id="XMLID_591_">
		<g>
			<path d="M1376.5,211.6c-1.3-0.5-2.7-0.8-4.2-1c-1-0.1-1.9,0.9-1.9,1.9c0,1.1,0.9,1.8,1.9,1.9c1.1,0.1,2.1,0.4,3.2,0.8
				c0.9,0.4,2.1-0.4,2.3-1.3C1378.1,212.8,1377.4,212,1376.5,211.6L1376.5,211.6z"/>
		</g>
	</g>
</g>
</svg>
