<?xml version="1.0" encoding="utf-8"?>
<!-- Generator: Adobe Illustrator 19.0.0, SVG Export Plug-In . SVG Version: 6.00 Build 0)  -->
<svg version="1.1" id="Layer_1" xmlns="http://www.w3.org/2000/svg" xmlns:xlink="http://www.w3.org/1999/xlink" x="0px" y="0px"
	 viewBox="-709 291 500 500" style="enable-background:new -709 291 500 500;" xml:space="preserve">
<style type="text/css">
	.st0{fill:#00AEEF;}
	.st1{clip-path:url(#SVGID_2_);}
	.st2{fill:#009444;}
	.st3{fill:none;stroke:#009444;stroke-width:3;stroke-miterlimit:10;}
	.st4{clip-path:url(#SVGID_4_);}
	.st5{fill:none;stroke:#00AEEF;stroke-miterlimit:10;}
</style>
<g id="XMLID_3_">
	<g>
		<ellipse id="XMLID_2_" class="st0" cx="-248.2" cy="754.8" rx="265.8" ry="268.9"/>
	</g>
	<g>
		<defs>
			<ellipse id="SVGID_1_" cx="-248.2" cy="754.8" rx="265.8" ry="268.9"/>
		</defs>
		<clipPath id="SVGID_2_">
			<use xlink:href="#SVGID_1_"  style="overflow:visible;"/>
		</clipPath>
		<g id="XMLID_27_" class="st1">
			<g id="XMLID_42_">
				<path id="XMLID_45_" class="st2" d="M50.7,650.1c4.8,21.1-1.1,43-7,63.8c-8.7,30.7-17.3,61.6-26,92.3
					c-7.8-9.2-16.2-18.8-27.8-21.8c-5.2-1.4-10.7-1.2-16.1-2.1c-12.5-2.2-23.3-10.1-34.8-15.6s-26-8.5-36.4-1.1
					c-0.1,2.7,2.3,4.9,4.6,6.3c8.3,4.8,18.5,4.9,26.9,9.5c8.4,4.5,13.7,17.7,6.1,23.4c-1.9,1.4-4.3,2.1-6.7,2.7
					c-14.2,3.7-28.5,7.5-42.8,11.3c-3,0.4-6,1.2-8.7,2.3c2.9-0.8,5.8-1.5,8.7-2.3c8.1-1.2,16.6,0.5,20.6,7.4
					c5.4,9.1-0.9,20.9-9,27.7s-18.2,11.2-24.4,19.8c-2.7,3.7-4.5,8.1-5.1,12.6c-0.8,5-0.2,10.1-0.6,15.2
					c-1.2,13.3-9.8,25.7-21.9,31.2c3.6,3.1,3.2,9,0.6,13.1c-2.5,4.1-6.5,6.8-10.1,9.9c-7,6.3-12.2,14.5-14.7,23.6
					c-1.6,5.4-2.3,11.4-5.6,16c-6.6,9.3-20.4,9.4-31,5.4c-28.1-10.6-43.9-40.1-57.1-67.3c-3.8-7.7-7.6-15.6-8.2-24.1
					c-0.6-8.5,2.6-17.9,10-22c-6.9-0.8-7.8-10.3-10.3-16.8c-2.7-7-8.9-11.8-15.8-14.6c-1.8-0.7-3.6-1.3-5.5-1.8
					c-9.1-2.2-18.4-1.8-27.7-2.6c-10.7-1-21.3-3.6-31.3-7.7c-7-2.9-14.1-7-17.6-13.8c-2.5-4.8-2.9-10.5-2.8-16
					c0.3-11.5,2.5-23,6.7-33.8c0.9-2.3,1.9-4.6,3.6-6.3c2.5-2.5,6.1-3.3,9.4-4.5c13.8-5.4,22.6-21.7,19.5-36.3
					c-4.9-4.9-7.7-12-7.4-18.9c0.1-1.8,0.3-3.6,1.2-5.1c5.2-8.8,22.8,1.5,27.7-7.5c3.7-4.4-5.6-11-3-16.2c1.2-2.4,4.1-2.9,6.7-3.4
					c10.5-2.2,20.1-8.3,26.5-17c6.3-8.6,13.4-21.4,23.5-18.3c4.3,1.3,7.1,5.2,10.8,7.8c12,8.2,28.7-0.7,36.7-12.8
					c3.6-5.4,7-12,13.3-13.3c3.7-0.8,8.1,0.4,10.7-2.4c4.1-4.3-1.7-10.9-7.1-13.3c-5.4-2.4-12.4-6.5-10.5-12.2
					c0.9-2.9,3.9-4.6,6.5-6.2c4.2-2.7,8.1-6.9,8.5-11.9c0.4-5-4.3-10.5-9.1-9.2c-2.2,0.6-3.9,2.4-5.6,4.1c-8,8.4-16.3,17.5-18,29
					c-1.2,7.8,0.9,15.9-0.9,23.6c-1.9,7.7-10.8,14.6-17.1,10c-7.4-5.3-2.3-18.3-8.2-25.3c-6.7,0.4-13.1,3.1-19.7,3.1
					c-6.7-0.1-14.2-4.6-14-11.3c0.3-6.5,7.2-10.2,12.5-13.7c22.8-14.9,31.6-47.2,56.3-58.6c18.6-8.6,40.4-2.6,60,3.5
					c6.8,2.1,13.8,4.4,18.8,9.6c5,5.1,6.9,14.1,2.1,19.4c-8.3-1.5-17-1.1-25.2,1.2c-1.9,12,14.4,19.2,25.7,15.2
					c11.3-4.1,19.1-14.2,29.1-20.9c17.7-11.9,40.4-12.2,61.4-12.6c-1.6-5.4,3.9-10,9.1-10c4.7,0,8.9,2.6,12.7,5.4
					c23.3,16.9,39.3,41.9,54.7,66.3C39.5,623.1,47.4,635.8,50.7,650.1z"/>
			</g>
			<g id="XMLID_41_">
				<path id="XMLID_44_" class="st3" d="M-109.2,818.7c-2.9,0.8-5.8,1.6-8.7,2.3C-115.2,820-112.3,819.1-109.2,818.7z"/>
				<path id="XMLID_43_" class="st3" d="M-291.8,855.6c-1.8-0.7-3.6-1.3-5.5-1.8c-9.1-2.2-18.4-1.8-27.7-2.6
					c-10.7-1-21.3-3.6-31.3-7.7c-7-2.9-14.1-7-17.6-13.8c-2.5-4.8-2.9-10.5-2.8-16c0.3-11.5,2.5-23,6.7-33.8
					c0.9-2.3,1.9-4.6,3.6-6.3c2.5-2.5,6.1-3.3,9.4-4.5c13.8-5.4,22.6-21.7,19.5-36.3c-4.9-4.9-7.7-12-7.4-18.9
					c0.1-1.8,0.3-3.6,1.2-5.1c5.2-8.8,22.8,1.5,27.7-7.5c3.7-4.4-5.6-11-3-16.2c1.2-2.4,4.1-2.9,6.7-3.4c10.5-2.2,20.1-8.3,26.5-17
					c6.3-8.6,13.4-21.4,23.5-18.3c4.3,1.3,7.1,5.2,10.8,7.8c12,8.2,28.7-0.7,36.7-12.8c3.6-5.4,7-12,13.3-13.3
					c3.7-0.8,8.1,0.4,10.7-2.4c4.1-4.3-1.7-10.9-7.1-13.3c-5.4-2.4-12.4-6.5-10.5-12.2c0.9-2.9,3.9-4.6,6.5-6.2
					c4.2-2.7,8.1-6.9,8.5-11.9c0.4-5-4.3-10.5-9.1-9.2c-2.2,0.6-3.9,2.4-5.6,4.1c-8,8.4-16.3,17.5-18,29c-1.2,7.8,0.9,15.9-0.9,23.6
					c-1.9,7.7-10.8,14.6-17.1,10c-7.4-5.3-2.3-18.3-8.2-25.3c-6.7,0.4-13.1,3.1-19.7,3.1c-6.7-0.1-14.2-4.6-14-11.3
					c0.3-6.5,7.2-10.2,12.5-13.7c22.8-14.9,31.6-47.2,56.3-58.6c18.6-8.6,40.4-2.6,60,3.5c6.8,2.1,13.8,4.4,18.8,9.6
					c5,5.1,6.9,14.1,2.1,19.4c-8.3-1.5-17-1.1-25.2,1.2c-1.9,12,14.4,19.2,25.7,15.2c11.3-4.1,19.1-14.2,29.1-20.9
					c17.7-11.9,40.4-12.2,61.4-12.6c-1.6-5.4,3.9-10,9.1-10c4.7,0,8.9,2.6,12.7,5.4c23.3,16.9,39.3,41.9,54.7,66.3
					c7.8,12.4,15.8,25.1,19,39.4c4.8,21.1-1.1,43-7,63.8c-8.7,30.7-17.3,61.6-26,92.3c-7.8-9.2-16.2-18.8-27.8-21.8
					c-5.2-1.4-10.7-1.2-16.1-2.1c-12.5-2.2-23.3-10.1-34.8-15.6c-11.5-5.6-26-8.5-36.4-1.1c-0.1,2.7,2.3,4.9,4.6,6.3
					c8.3,4.8,18.5,4.9,26.9,9.5c8.4,4.5,13.7,17.7,6.1,23.4c-1.9,1.4-4.3,2.1-6.7,2.7c-14.2,3.7-28.5,7.5-42.8,11.3
					c8.1-1.2,16.6,0.5,20.6,7.4c5.4,9.1-0.9,20.9-9,27.7s-18.2,11.2-24.4,19.8c-2.7,3.7-4.5,8.1-5.1,12.6c-0.8,5-0.2,10.1-0.6,15.2
					c-1.2,13.3-9.8,25.7-21.9,31.2c3.6,3.1,3.2,9,0.6,13.1s-6.5,6.8-10.1,9.9c-7,6.3-12.2,14.5-14.7,23.6c-1.6,5.4-2.3,11.4-5.6,16
					c-6.6,9.3-20.4,9.4-31,5.4c-28.1-10.6-43.9-40.1-57.1-67.3c-3.8-7.7-7.6-15.6-8.2-24.1c-0.6-8.5,2.6-17.9,10-22
					c-6.9-0.8-7.8-10.3-10.3-16.8C-278.6,863.2-284.9,858.4-291.8,855.6z"/>
			</g>
		</g>
	</g>
	<g>
		<defs>
			<ellipse id="SVGID_3_" cx="-248.2" cy="754.8" rx="265.8" ry="268.9"/>
		</defs>
		<clipPath id="SVGID_4_">
			<use xlink:href="#SVGID_3_"  style="overflow:visible;"/>
		</clipPath>
		<g id="XMLID_31_" class="st4">
			<g id="XMLID_5_">
				<path id="XMLID_22_" class="st0" d="M-35,689.7c3.6,1.6,5.1,6.4,3.5,10c-1.9,4.3-7.2,6.3-11.6,5c-0.1,1.4-0.8,2.7-1.9,3.5
					c-1.3,1-3,1.4-4.6,1.4c-0.6,0-1.3,0-1.7-0.4c-0.6-0.5-0.7-1.2-0.9-1.9c-1-4.3-1.9-8.7-2.8-13.1c-0.3-1.2-0.5-2.6,0.4-3.3
					c0.5-0.5,1.2-0.7,1.9-0.7c1.4-0.3,2.9-0.5,4.4-0.7c2.7-0.3,5.5-0.5,8.2-0.5C-38.4,689-36.6,689-35,689.7z"/>
				<path id="XMLID_19_" class="st0" d="M-69.3,720.4c1,1.1,1.1,2.7,0.6,4.1c-0.8,2-2.7,3.3-4.7,3.9c-2,0.6-4.1,0.5-6.2,0.5
					c-4-0.1-8-0.3-12-0.4c-1.3-0.1-2.7-0.1-3.8-0.8c-1.4-0.9-2.1-2.4-2.8-3.9c-0.8-2-1.7-3.9-2.5-6c-0.8-2.2-1.5-4.4-1.9-6.6
					c-0.8-4.6-0.5-9.3-0.2-13.9c0.1-2.2,0.3-4.6,1.3-6.6c1.6-3.3,5.3-5.2,8.9-5.8c3.6-0.5,7.3,0.2,10.9,0.9c1,0.2,2,0.4,2.7,1.2
					c0.8,0.9,0.8,2.2,0.8,3.4c-0.1,2.4-0.3,4.8-0.7,7.2c-0.1,1-0.3,2-1,2.8c-1.9,2.4-5.6,0.7-8.5,1.3c0.1,3.2,0.3,6.5,1.4,9.6
					c1.1,3,3.3,5.8,6.3,6.9c3,1,6.5,0.1,9.5,1.2C-70.5,719.4-69.8,719.8-69.3,720.4z"/>
				<path id="XMLID_18_" class="st0" d="M-124.4,801.3c1.2,2.3,2.3,5,1.2,7.3c-1.1,2.2-3.6,2.9-6.2,3.1c-0.8,0.1-1.7,0-2.5,0
					c-5.4-0.3-11.3-1.1-15-5.1c-2.4-2.6-3.5-6.1-5.5-9c-1.7-2.4-4.1-4.3-5.9-6.7c-6.9-8.9-4.7-22.1-4-32.6
					C-146.5,769.3-133.4,784.2-124.4,801.3z"/>
				<path id="XMLID_17_" class="st0" d="M-132.2,710.6c0.9,1.4,1.6,3.6,0.3,4.5c-1,0.7-2.4,0-3.5-0.5c-7.4-3.7-16.2-2.1-24.3-3.3
					c-7.9-1.2-15.7-5.2-23.5-3.5c1.7-0.6,3.7-7.8,4.1-9.4c0.4-1.8,0.8-3.9,2.3-4.6c0.7-0.3,1.5-0.4,2.3-0.4
					c7.9-0.2,15.8-0.1,23.6,0.3c2.1,0.1,4.2,0.3,6.1,1.2c1.8,0.9,3.1,2.6,4.4,4.1c1.8,2.3,3.6,4.7,5.2,7.1
					C-134.2,707.5-133.2,709-132.2,710.6z"/>
				<path id="XMLID_16_" class="st0" d="M-153.7,742.9c0.8,0.7,1.5,1.6,1.2,2.5c-0.1,0.5-0.5,0.9-0.8,1.2
					c-4.3,3.6-10.6,2.5-16.2,2.4c-8.5-0.1-16.8,2.5-25.3,2.9c-7.6,0.4-15.2-1-22.8-1.7c-11.6-1-23.2,0-34.9-0.3
					c-1.4-0.1-3-0.2-3.8-1.3c-0.6-0.8-0.7-1.9-1.3-2.7c-1-1.3-2.8-1.4-4.2-2.2c-1.5-0.9-2.3-2.6-3.3-3.9c-4.1-5.2-12-5.1-18.6-4.5
					c-5.4,0.5-10.9,1-16.3,1.5c-2.2,0.2-4.5,0.5-6.5,1.6c-2.2,1.4-3.5,3.8-5.2,5.8c-1.6,2-4.1,3.9-6.7,3.2c-3.9-1-4.3-6.3-3.9-10.3
					c0,0,0-0.2,0.1-0.6c0.8,0.3,1.6,0.5,2.5,0.6c2.4,0.3,5-0.7,6.1-2.8c0.6-1.2,0.6-2.6,0.9-4c1.2-5.6,6.5-9.2,11.5-11.8
					c2.6-1.2,5.4-2.6,6.8-5c0.7-1.2,1-2.5,1.7-3.7c2.1-3.9,6.9-5.2,11.1-6.1c3.6-0.8,7.2-1.6,10.8-2.4c1-0.3,2.1-0.5,3.2-0.3
					c0.9,0.1,1.8,0.6,2.7,1c3.9,2.1,8,4.2,11.2,7.5c3.5,3.6,5.6,8.3,7.6,13c1,2.2,1.8,5,0,6.6c-1,1-3.1,1.6-2.6,3
					c4.4-0.9,8,6.5,12,4.5c1.2-0.6,1.8-1.7,2.4-2.9c2.7-5,5.2-10.1,7.4-15.3c0.5-1.2,1-2.4,0.9-3.7c-0.3-3.2-3.9-4.7-6.7-6.3
					c-2.5-1.5-4.7-3.7-6.1-6.3c-0.4-0.7-0.7-1.4-0.6-2.1c0.2-1.4,1.9-2.1,3.4-2.2c6.5-0.5,12.5,4.3,15.5,10.1
					c2.9,5.9,3.3,12.7,3,19.3c-0.1,3.1-0.1,6.9,2.3,8.9c2.1,1.8,5.5,1.3,7.7-0.4c2.2-1.7,3.6-4.3,4.7-6.8c1-2.2,1.8-4.5,3-6.5
					c0.3-0.4,0.5-0.7,0.7-1.1c1.7-2.3,4.3-4.1,7.1-4c4.2,0.2,7.2,4.6,7.4,8.8c0.1,1.5-0.1,3,0.3,4.4c0.8,2.9,3.8,4.9,6.7,5.6
					c3,0.7,6.1,0.5,9.1,0.8C-162.8,737.2-157.7,739.4-153.7,742.9z"/>
				<path id="XMLID_15_" class="st2" d="M-308.2,646.8c4.3,6.5,9.6,12.8,8.6,21.1c-5.4,0.4-10.7,0.3-16-0.3
					c-2.2-0.3-4.5-0.6-6.4-1.7c-1.9-1.1-3.6-3-3.6-5.3c-0.1-2.5,1.6-4.6,2.8-6.8s1.9-5.2,0.3-6.9c-0.8-0.9-2.1-1.2-3.2-1.8
					c-4.7-2.3-7.2-7.7-8.3-12.9c-0.3-1.1-0.4-2.3-0.4-3.5c-0.1-2.7,0.6-5.4,2.7-7.1c2.8-2.2,6.7-1.5,10.2-0.7c0.8,0.2,1.7,0.5,2.3,1
					c0.5,0.5,0.6,1.2,0.8,1.8C-316.5,632.1-312.8,639.8-308.2,646.8z"/>
				<path id="XMLID_14_" class="st2" d="M-332.9,657.5c0,1,0,2-0.4,2.9c-0.5,1.2-1.4,2.2-2.1,3.2c-1.5,2-7-0.7-7.6,1.7
					c0,0-0.1,0.4-0.2,0.7c-2.4,0.5-4.9-0.9-6.3-2.9c-2.7-3.8-2.3-9.4,0.6-13c2.2-2.7,5.6-4.3,9.1-4.6c1.1-0.1,2.3,0,3.4,0.2
					c0.6,0.1,1.2,0.3,1.7,0.7c0.6,0.5,0.8,1.4,1,2.1C-333.2,651.5-332.9,654.5-332.9,657.5z"/>
				<path id="XMLID_12_" class="st2" d="M-406.8,584.1c-3,0-6-2.7-6.6-5.9c-0.8-3.7,0.8-7.5,3.1-10.5c2.5-3.4,6.3-6.3,10.5-6.3
					c3,0,5.8,1.4,8.7,2.4c7.4,2.6,15.6,2.5,23.2,4.4c1.3,0.3,2.8,0.8,3.4,2c0.5,0.9,0.5,1.8,0.4,2.7c-0.1,2-0.2,4.1-0.4,6.1
					c-0.3,4.1-1.1,8.7-4.3,11.3c-2.4,2-5.7,2.5-8.7,2s-5.9-1.7-8.7-3c-1.2-0.5-2.5-1.1-3.4-2.2c-0.8-0.9-1.2-2.1-2.2-2.7
					c-0.7-0.4-1.6-0.4-2.4-0.4c-4.2,0-8.4,0-12.6,0.1V584.1L-406.8,584.1z"/>
				<path id="XMLID_10_" class="st2" d="M-397.3,513.7c0.6,9.4,1.1,19.7-4.1,27.5c-5.1,7.7-14.9,11.2-24,10.8
					c-6.2-0.3-12.5-2.1-18.5-0.3c-0.8,0.3-1.7,0.7-2.3,1.2c-1.2,1.2-1.2,3.1-1.5,4.8c-1.3,7.6-9.2,13.5-16.9,11.5
					c0.1-1.6,0.5-3.1,1.1-4.7c1-2.9,2.6-5.8,3.6-8.6c2.5-8,0.2-16.7,0.6-25.1c0.5-9.7,4.6-18.8,9.2-27.3c1.3-2.4,2.8-4.9,5.3-6.1
					c1.5-0.7,3.2-0.8,4.8-0.9c10.5-0.7,21.5-1.2,31.2,3c2.4,1,5,3.1,5.4,5.4C-398.1,505.5-397.6,509.9-397.3,513.7z"/>
			</g>
			<g id="XMLID_4_">
				<path id="XMLID_39_" class="st3" d="M-129.3,811.7c-0.8,0.1-1.7,0-2.5,0c-5.4-0.3-11.3-1.1-15-5.1c-2.4-2.6-3.5-6.1-5.5-9
					c-1.7-2.4-4.1-4.3-5.9-6.7c-6.9-8.9-4.7-22.1-4-32.6c15.8,11,28.8,25.9,37.8,43c1.2,2.3,2.3,5,1.2,7.3
					C-124.2,810.8-126.8,811.5-129.3,811.7z"/>
				<path id="XMLID_38_" class="st3" d="M-183.2,707.6c-0.1,0-0.1,0.1-0.2,0.1C-183.3,707.7-183.3,707.7-183.2,707.6z"/>
				<path id="XMLID_36_" class="st3" d="M-183.2,707.6c1.7-0.6,3.7-7.8,4.1-9.4c0.4-1.8,0.8-3.9,2.3-4.6c0.7-0.3,1.5-0.4,2.3-0.4
					c7.9-0.2,15.8-0.1,23.6,0.3c2.1,0.1,4.2,0.3,6.1,1.2c1.8,0.9,3.1,2.6,4.4,4.1c1.8,2.3,3.6,4.7,5.2,7.1c1,1.5,2.1,3.1,3,4.6
					c0.9,1.4,1.6,3.6,0.3,4.5c-1,0.7-2.4,0-3.5-0.5c-7.4-3.7-16.2-2.1-24.3-3.3C-167.6,710-175.4,705.9-183.2,707.6z"/>
				<path id="XMLID_33_" class="st3" d="M-100.7,717.7c0.8,2,1.6,4,2.5,6c0.6,1.5,1.4,3.1,2.8,3.9c1.1,0.7,2.5,0.7,3.8,0.8
					c4,0.1,8,0.3,12,0.4c2.1,0.1,4.2,0.1,6.2-0.5s3.9-1.9,4.7-3.9c0.5-1.4,0.4-3-0.6-4.1c-0.5-0.6-1.2-0.9-1.9-1.2
					c-3-1.1-6.5-0.3-9.5-1.2c-3-1-5.2-3.8-6.3-6.9c-1.1-3-1.2-6.3-1.4-9.6c2.9-0.7,6.7,1,8.5-1.3c0.6-0.8,0.8-1.8,1-2.8
					c0.3-2.4,0.6-4.8,0.7-7.2c0.1-1.2,0.1-2.5-0.8-3.4c-0.6-0.7-1.7-1-2.7-1.2c-3.6-0.7-7.3-1.4-10.9-0.9c-3.6,0.5-7.3,2.4-8.9,5.8
					c-1,2-1.2,4.3-1.3,6.6c-0.3,4.6-0.6,9.4,0.2,13.9C-102.2,713.3-101.5,715.6-100.7,717.7z"/>
				<path id="XMLID_30_" class="st3" d="M-48.4,689.5c2.7-0.3,5.5-0.5,8.2-0.5c1.7,0,3.6,0,5.1,0.7c3.6,1.6,5.1,6.4,3.5,10
					c-1.9,4.3-7.2,6.3-11.6,5c-0.1,1.4-0.8,2.7-1.9,3.5c-1.3,1-3,1.4-4.6,1.4c-0.6,0-1.3,0-1.7-0.4c-0.6-0.5-0.7-1.2-0.9-1.9
					c-1-4.3-1.9-8.7-2.8-13.1c-0.3-1.2-0.5-2.6,0.4-3.3c0.5-0.5,1.2-0.7,1.9-0.7C-51.3,689.9-49.8,689.7-48.4,689.5z"/>
				<path id="XMLID_29_" class="st3" d="M-199.5,722.2c-1.2,2-2.1,4.3-3,6.5c-1.1,2.6-2.5,5.2-4.7,6.8s-5.6,2.1-7.7,0.4
					c-2.5-2-2.5-5.7-2.3-8.9c0.3-6.6-0.1-13.4-3-19.3s-8.9-10.6-15.5-10.1c-1.5,0.1-3.2,0.7-3.4,2.2c-0.1,0.7,0.2,1.4,0.6,2.1
					c1.4,2.6,3.6,4.8,6.1,6.3c2.8,1.6,6.4,3.1,6.7,6.3c0.1,1.3-0.4,2.5-0.9,3.7c-2.3,5.2-4.8,10.3-7.4,15.3
					c-0.6,1.1-1.3,2.3-2.4,2.9c-4.1,2-7.6-5.5-12-4.5c-0.5-1.4,1.6-2,2.6-3c1.7-1.6,1-4.4,0-6.6c-2-4.6-4.1-9.4-7.6-13
					c-3.1-3.2-7.2-5.4-11.2-7.5c-0.8-0.5-1.7-0.9-2.7-1c-1.1-0.2-2.2,0.1-3.2,0.3c-3.6,0.8-7.2,1.6-10.8,2.4c-4.3,1-9,2.3-11.1,6.1
					c-0.6,1.2-1,2.6-1.7,3.7c-1.5,2.5-4.2,3.8-6.8,5c-5.1,2.6-10.3,6.1-11.5,11.8c-0.3,1.4-0.3,2.7-0.9,4c-1.1,2.2-3.8,3.1-6.1,2.8
					c-0.8-0.1-1.7-0.3-2.5-0.6c-0.1,0.4-0.1,0.6-0.1,0.6c-0.4,4,0,9.4,3.9,10.3c2.5,0.7,5-1.2,6.7-3.2s2.9-4.4,5.2-5.8
					c1.9-1.2,4.2-1.4,6.5-1.6c5.4-0.5,10.9-1,16.3-1.5c6.6-0.6,14.4-0.7,18.6,4.5c1,1.4,1.8,3,3.3,3.9c1.4,0.9,3.2,0.9,4.2,2.2
					c0.6,0.8,0.6,1.9,1.3,2.7c0.8,1.1,2.5,1.2,3.8,1.3c11.6,0.3,23.3-0.7,34.9,0.3c7.6,0.7,15.2,2.1,22.8,1.7
					c8.5-0.4,16.8-3.1,25.3-2.9c5.6,0.1,11.8,1.2,16.2-2.4c0.4-0.3,0.7-0.7,0.8-1.2c0.3-1-0.5-1.9-1.2-2.5c-4-3.5-9.1-5.8-14.4-6.3
					c-3-0.3-6.1-0.1-9.1-0.8c-3-0.7-6-2.6-6.7-5.6c-0.4-1.4-0.2-2.9-0.3-4.4c-0.2-4.2-3.2-8.6-7.4-8.8c-2.8-0.1-5.4,1.7-7.1,4
					C-198.9,721.5-199.2,721.8-199.5,722.2z"/>
				<path id="XMLID_26_" class="st3" d="M-334.4,628.8c-0.1-2.7,0.6-5.4,2.7-7.1c2.8-2.2,6.7-1.5,10.2-0.7c0.8,0.2,1.7,0.5,2.3,1
					c0.5,0.5,0.6,1.2,0.8,1.8c2.1,8.2,5.7,15.9,10.3,22.9c4.3,6.5,9.6,12.8,8.6,21.1c-5.4,0.4-10.7,0.3-16-0.3
					c-2.2-0.3-4.5-0.6-6.4-1.7c-1.9-1.1-3.6-3-3.6-5.3c-0.1-2.5,1.6-4.6,2.8-6.8s1.9-5.2,0.3-6.9c-0.8-0.9-2.1-1.2-3.2-1.8
					c-4.7-2.3-7.2-7.7-8.3-12.9C-334.2,631.1-334.4,629.9-334.4,628.8z"/>
				<path id="XMLID_25_" class="st3" d="M-339.7,645.6c-3.5,0.3-6.9,1.8-9.1,4.6c-2.9,3.7-3.3,9.2-0.6,13c1.4,2,3.9,3.5,6.3,2.9
					c0.1-0.4,0.2-0.7,0.2-0.7c0.6-2.4,6.1,0.3,7.6-1.7c0.8-1,1.7-2,2.1-3.2c0.3-0.9,0.4-2,0.4-2.9c0-3-0.3-6-0.9-9
					c-0.1-0.8-0.4-1.6-1-2.1c-0.5-0.4-1-0.6-1.7-0.7C-337.5,645.5-338.6,645.4-339.7,645.6z"/>
				<path id="XMLID_24_" class="st3" d="M-409.5,584.3c0.9,0,1.8,0,2.7,0c4.2,0,8.4,0,12.6-0.1c0.8,0,1.7,0,2.4,0.4
					c1,0.6,1.5,1.8,2.2,2.7c0.8,1,2.1,1.6,3.4,2.2c2.8,1.3,5.7,2.6,8.7,3s6.4-0.1,8.7-2c3.2-2.7,3.9-7.2,4.3-11.3
					c0.2-2,0.3-4.1,0.4-6.1c0-0.9,0.1-1.9-0.4-2.7c-0.6-1.2-2.1-1.7-3.4-2c-7.6-1.9-15.8-1.8-23.2-4.4c-2.8-1-5.7-2.4-8.7-2.4
					c-4.2,0-8,2.9-10.5,6.3c-2.3,3-3.9,6.8-3.1,10.5c0.6,3.1,3.6,5.9,6.6,5.9c0.5,0,1-0.1,1.5-0.3"/>
				<path id="XMLID_23_" class="st3" d="M-463.6,564.6c1-2.9,2.6-5.8,3.6-8.6c2.5-8,0.2-16.7,0.6-25.1c0.5-9.7,4.6-18.8,9.2-27.3
					c1.3-2.4,2.8-4.9,5.3-6.1c1.5-0.7,3.2-0.8,4.8-0.9c10.5-0.7,21.5-1.2,31.2,3c2.4,1,5,3.1,5.4,5.4c5.4,0.4,6,4.8,6.2,8.6
					c0.6,9.4,1.1,19.7-4.1,27.5c-5.1,7.7-14.9,11.2-24,10.8c-6.2-0.3-12.5-2.1-18.5-0.3c-0.8,0.3-1.7,0.7-2.3,1.2
					c-1.2,1.2-1.2,3.1-1.5,4.8c-1.3,7.6-9.2,13.5-16.9,11.5C-464.6,567.7-464.2,566.1-463.6,564.6z"/>
			</g>
		</g>
	</g>
	<g>
		<ellipse id="XMLID_1_" class="st5" cx="-248.2" cy="754.8" rx="265.8" ry="268.9"/>
	</g>
</g>
<image style="display:none;overflow:visible;opacity:0.3;enable-background:new    ;" width="532" height="379" id="XMLID_7_" xlink:href="1A20511F.jpeg"  transform="matrix(2.8768 0 0 2.8788 -813.1463 28.6342)">
</image>
</svg>
