<?xml version="1.0" encoding="utf-8"?>
<!-- Generator: Adobe Illustrator 19.0.0, SVG Export Plug-In . SVG Version: 6.00 Build 0)  -->
<svg version="1.1" id="Layer_1" xmlns="http://www.w3.org/2000/svg" xmlns:xlink="http://www.w3.org/1999/xlink" x="0px" y="0px"
	 viewBox="0 -19 612 830" style="enable-background:new 0 -19 612 830;" xml:space="preserve">
<style type="text/css">
	.st0{fill:#008000;}
	.st1{fill:none;stroke:#008000;stroke-width:18;stroke-miterlimit:10;}
	.st2{fill:none;}
	.st3{font-family:'Verdana-Bold';}
	.st4{font-size:186.3472px;}
</style>
<g id="XMLID_20_">
	<g id="XMLID_68_">
		<path id="XMLID_75_" class="st0" d="M34.6,788.1c180.9,0,362.2,0,543.1,0c5.4,0,9.7-4.3,9.7-9.7c0-254.7,0-509,0-763.6
			c-3.1,3.1-6.6,6.6-9.7,9.7h0.4c12.4,0,12.4-19.4,0-19.4C397.2,5,215.9,5,35,5c-5.4,0-9.7,4.3-9.7,9.7c0,254.7,0,509,0,763.6
			c0,12.4,19.4,12.4,19.4,0c0-254.7,0-509,0-763.6c-3.1,3.1-6.6,6.6-9.7,9.7c180.9,0,362.2,0,543.1,0c0-6.6,0-12.8,0-19.4h-0.4
			c-5.4,0-9.7,4.3-9.7,9.7c0,254.7,0,509,0,763.6c3.1-3.1,6.6-6.6,9.7-9.7c-180.9,0-362.2,0-543.1,0
			C21.8,768.6,21.8,788.1,34.6,788.1L34.6,788.1z"/>
	</g>
</g>
<g id="XMLID_23_">
	<g id="XMLID_59_">
		<path id="XMLID_63_" class="st0" d="M79.6,338.9c64.8,0,129.7,0,194.5,0c5.4,0,9.7-4.3,9.7-9.7c0-91.2,0-182.5,0-273.7
			c-3.1,3.1-6.6,6.6-9.7,9.7l0,0c12.4,0,12.4-19.4,0-19.4c-64.8,0-129.7,0-194.5,0c-5.4,0-9.7,4.3-9.7,9.7c0,91.2,0,182.5,0,273.7
			c0,12.4,19.4,12.4,19.4,0c0-91.2,0-182.5,0-273.7c-3.1,3.1-6.6,6.6-9.7,9.7c64.8,0,129.7,0,194.5,0c0-6.6,0-12.8,0-19.4l0,0
			c-5.4,0-9.7,4.3-9.7,9.7c0,91.2,0,182.5,0,273.7c3.1-3.1,6.6-6.6,9.7-9.7c-64.8,0-129.7,0-194.5,0
			C67.2,319.5,67.2,338.9,79.6,338.9L79.6,338.9z"/>
	</g>
</g>
<circle id="XMLID_24_" class="st1" cx="178.1" cy="153.5" r="51.2"/>
<g id="XMLID_25_">
	<g id="XMLID_82_">
		<path id="XMLID_103_" class="st0" d="M191,212.7c37.7,7,63.3,32.2,73.8,68.7c3.5,12,22.1,7,18.6-5c-12-42.3-43.5-74.2-87.4-82.3
			C184,191.7,178.6,210.8,191,212.7L191,212.7z"/>
	</g>
</g>
<g id="XMLID_26_">
	<g id="XMLID_76_">
		<path id="XMLID_81_" class="st0" d="M160,194.1c-43.9,7.8-76.5,37.7-88.9,80.4c-3.5,12,15.1,17.1,18.6,5
			c10.5-36.5,38-60.2,75.3-66.8C177.4,210.8,172,191.7,160,194.1L160,194.1z"/>
	</g>
</g>
<rect id="XMLID_27_" x="51.3" y="556.7" class="st2" width="393.3" height="305.5"/>
<text id="XMLID_28_" transform="matrix(1 0 0 1 62.8447 741.873)" class="st0 st3 st4">CV</text>
<g id="XMLID_30_">
	<g id="XMLID_83_">
		<path id="XMLID_87_" class="st0" d="M309.8,100.5c77.3,0,154.5,0,231.8,0c12.4,0,12.4-19.4,0-19.4c-77.3,0-154.5,0-231.8,0
			C297,81.1,297,100.5,309.8,100.5L309.8,100.5z"/>
	</g>
</g>
<g id="XMLID_32_">
	<g id="XMLID_90_">
		<path id="XMLID_94_" class="st0" d="M341.3,135.1c58.6,0,117.2,0,175.5,0c12.4,0,12.4-19.4,0-19.4c-58.6,0-117.2,0-175.5,0
			C328.8,115.7,328.8,135.1,341.3,135.1L341.3,135.1z"/>
	</g>
</g>
<g id="XMLID_58_">
	<g id="XMLID_104_">
		<path id="XMLID_108_" class="st0" d="M309.8,169.6c77.3,0,154.5,0,231.8,0c12.4,0,12.4-19.4,0-19.4c-77.3,0-154.5,0-231.8,0
			C297,150.2,297,169.6,309.8,169.6L309.8,169.6z"/>
	</g>
</g>
<g id="XMLID_33_">
	<g id="XMLID_98_">
		<path id="XMLID_102_" class="st0" d="M341.3,204.6c58.6,0,117.2,0,175.5,0c12.4,0,12.4-19.4,0-19.4c-58.6,0-117.2,0-175.5,0
			C328.8,185.1,328.8,204.6,341.3,204.6L341.3,204.6z"/>
	</g>
</g>
<g id="XMLID_34_">
	<g id="XMLID_118_">
		<path id="XMLID_122_" class="st0" d="M84.3,478.3c147.1,0,294.3,0,441.4,0c12.4,0,12.4-19.4,0-19.4c-147.1,0-294.3,0-441.4,0
			C71.8,458.8,71.8,478.3,84.3,478.3L84.3,478.3z"/>
	</g>
</g>
<g id="XMLID_29_">
	<g id="XMLID_113_">
		<path id="XMLID_117_" class="st0" d="M144.8,513.2c111.4,0,222.8,0,334.3,0c12.4,0,12.4-19.4,0-19.4c-111.4,0-222.8,0-334.3,0
			C132.4,493.8,132.4,513.2,144.8,513.2L144.8,513.2z"/>
	</g>
</g>
<g id="XMLID_36_">
	<g id="XMLID_132_">
		<path id="XMLID_136_" class="st0" d="M84.3,406.4c147.1,0,294.3,0,441.4,0c12.4,0,12.4-19.4,0-19.4c-147.1,0-294.3,0-441.4,0
			C71.8,387,71.8,406.4,84.3,406.4L84.3,406.4z"/>
	</g>
</g>
<g id="XMLID_35_">
	<g id="XMLID_126_">
		<path id="XMLID_130_" class="st0" d="M144.8,441c111.4,0,222.8,0,334.3,0c12.4,0,12.4-19.4,0-19.4c-111.4,0-222.8,0-334.3,0
			C132.4,421.6,132.4,441,144.8,441L144.8,441z"/>
	</g>
</g>
<g id="XMLID_65_">
	<g id="XMLID_160_">
		<path id="XMLID_164_" class="st0" d="M389.8,633.5c48.1,0,95.9,0,144,0c12.4,0,12.4-19.4,0-19.4c-48.1,0-95.9,0-144,0
			C377.4,614.1,377.4,633.5,389.8,633.5L389.8,633.5z"/>
	</g>
</g>
<g id="XMLID_64_">
	<g id="XMLID_154_">
		<path id="XMLID_158_" class="st0" d="M409.6,668.1c36.5,0,72.6,0,109.1,0c12.4,0,12.4-19.4,0-19.4c-36.5,0-72.6,0-109.1,0
			C397.2,648.7,397.2,668.1,409.6,668.1L409.6,668.1z"/>
	</g>
</g>
<g id="XMLID_56_">
	<g id="XMLID_148_">
		<path id="XMLID_152_" class="st0" d="M389.8,702.7c48.1,0,95.9,0,144,0c12.4,0,12.4-19.4,0-19.4c-48.1,0-95.9,0-144,0
			C377.4,683.2,377.4,702.7,389.8,702.7L389.8,702.7z"/>
	</g>
</g>
<g id="XMLID_37_">
	<g id="XMLID_145_">
		<path id="XMLID_159_" class="st0" d="M409.6,737.2c36.5,0,72.6,0,109.1,0c12.4,0,12.4-19.4,0-19.4c-36.5,0-72.6,0-109.1,0
			C397.2,717.8,397.2,737.2,409.6,737.2L409.6,737.2z"/>
	</g>
</g>
</svg>
