<?xml version="1.0" encoding="utf-8"?>
<!-- Generator: Adobe Illustrator 19.0.0, SVG Export Plug-In . SVG Version: 6.00 Build 0)  -->
<svg version="1.1" id="Layer_1" xmlns="http://www.w3.org/2000/svg" xmlns:xlink="http://www.w3.org/1999/xlink" x="0px" y="0px"
	 viewBox="0 0 700 302" style="enable-background:new 0 0 700 302;" xml:space="preserve">
<style type="text/css">
	.st0{fill:#98DAF8;}
</style>
<g id="XMLID_5_">
	<g id="XMLID_55_">
		<path id="XMLID_59_" class="st0" d="M62.5,160.1c47.5,0,94.9,0,142.4,0c16.1,0,16.1-25,0-25c-47.5,0-94.9,0-142.4,0
			C46.4,135.1,46.4,160.1,62.5,160.1L62.5,160.1z"/>
	</g>
</g>
<g id="XMLID_6_">
	<g id="XMLID_49_">
		<path id="XMLID_53_" class="st0" d="M90.1,205.9c32.3,0,64.6,0,96.9,0c16.1,0,16.1-25,0-25c-32.3,0-64.6,0-96.9,0
			C74,180.9,74,205.9,90.1,205.9L90.1,205.9z"/>
	</g>
</g>
<g id="XMLID_4_">
	<g id="XMLID_43_">
		<path id="XMLID_47_" class="st0" d="M124.2,114.1c28.2,0,56.4,0,84.6,0c4.1,0,8.2,0,12.3,0c16.1,0,16.1-25,0-25
			c-28.2,0-56.4,0-84.6,0c-4.1,0-8.2,0-12.3,0C108.1,89.1,108.1,114.1,124.2,114.1L124.2,114.1z"/>
	</g>
</g>
<g id="XMLID_18_">
	<g id="XMLID_133_">
		<path id="XMLID_137_" class="st0" d="M264,66.4c24.5,0,49,0,73.4,0c58.8,0,117.7,0,176.5,0c40,0,79.9,0,119.9,0
			c-4-5.3-8-10.5-12.1-15.8c-15.6,68.1-31.2,136.2-46.8,204.3c4-3.1,8-6.1,12.1-9.2c-65.6,0-131.3,0-196.9,0c-46.9,0-93.7,0-140.6,0
			c-10.8,0-21.5,0-32.3,0c4,5.3,8,10.5,12.1,15.8c15.6-68.1,31.2-136.2,46.8-204.3c1.5-6.6-2-13.5-8.7-15.4
			c-6.3-1.7-13.9,2.1-15.4,8.7c-15.6,68.1-31.2,136.2-46.8,204.3c-1.8,7.9,3.7,15.8,12.1,15.8c27.5,0,54.9,0,82.4,0
			c57.5,0,115,0,172.5,0c38.3,0,76.6,0,115,0c5.3,0,10.8-3.9,12.1-9.2c15.6-68.1,31.2-136.2,46.8-204.3c1.8-7.9-3.7-15.8-12.1-15.8
			c-68.5,0-137.1,0-205.6,0c-46.5,0-93,0-139.5,0c-8.2,0-16.5,0-24.7,0C247.9,41.4,247.9,66.4,264,66.4L264,66.4z"/>
	</g>
</g>
<g id="XMLID_7_">
	<g id="XMLID_31_">
		<path id="XMLID_35_" class="st0" d="M265.2,65c49.3,49.4,98.6,98.9,147.9,148.3c3.8,3.8,10.5,4.9,15.1,2
			c57.1-36.2,109.1-79.7,163.9-119.2c15.1-10.9,30.5-21.4,46.2-31.4c5.7-3.6,8-11.1,4.5-17.1c-3.3-5.7-11.4-8.1-17.1-4.5
			c-57.1,36.2-109.1,79.7-163.9,119.2c-15.1,10.9-30.5,21.4-46.2,31.4c5,0.7,10.1,1.3,15.1,2c-49.3-49.4-98.6-98.9-147.9-148.3
			C271.5,35.9,253.8,53.6,265.2,65L265.2,65z"/>
	</g>
</g>
<g id="XMLID_9_">
	<g id="XMLID_25_">
		<path id="XMLID_29_" class="st0" d="M481.5,174.1c30.4,30.5,60.8,60.9,91.1,91.4c11.4,11.4,29.1-6.3,17.7-17.7
			c-30.4-30.5-60.8-60.9-91.1-91.4C487.8,145,470.1,162.7,481.5,174.1L481.5,174.1z"/>
	</g>
</g>
<g id="XMLID_11_">
	<g id="XMLID_19_">
		<path id="XMLID_23_" class="st0" d="M354.8,151.8c-43.6,28.9-87.3,57.7-130.9,86.6c-5.6,3.7-8,11-4.5,17.1
			c3.3,5.6,11.4,8.2,17.1,4.5c43.6-28.9,87.3-57.7,130.9-86.6c5.6-3.7,8-11,4.5-17.1C368.7,150.7,360.5,148.1,354.8,151.8
			L354.8,151.8z"/>
	</g>
</g>
</svg>
